<?xml version="1.0" encoding="UTF-8"?>
<svg version="1.1" xmlns="http://www.w3.org/2000/svg" width="512" height="512">
<path d="M0 0 C13.18156464 12.31752915 21.76488635 30.37604991 22.72265625 48.41015625 C23.1696848 65.74708975 18.33171553 80.61747019 9.5625 95.39453125 C13.64338639 99.59019257 17.83842469 103.56413939 22.26953125 107.38671875 C25.03155882 109.80525737 27.73647712 112.28344501 30.4375 114.76953125 C35.7786535 119.68268891 41.16045736 124.5483258 46.5625 129.39453125 C48.22942647 130.89424253 49.89609149 132.39424446 51.5625 133.89453125 C52.8 135.00828125 52.8 135.00828125 54.0625 136.14453125 C61.5625 142.89453125 61.5625 142.89453125 64.0703125 145.15234375 C65.70989879 146.62745743 67.35049655 148.10144777 68.9921875 149.57421875 C73.5828061 153.69550893 78.14697107 157.84326913 82.6875 162.01953125 C85.94640494 165.01633136 89.21749549 167.99367672 92.5625 170.89453125 C96.44067013 174.25775763 100.21777811 177.72788796 103.99560547 181.20263672 C108.81834891 185.63676753 113.6859112 190.01971365 118.5625 194.39453125 C120.22942647 195.89424253 121.89609149 197.39424446 123.5625 198.89453125 C124.38234375 199.63058594 125.2021875 200.36664063 126.046875 201.125 C127.77285164 202.6821311 129.49123719 204.24770551 131.203125 205.8203125 C133.63151172 208.04148658 136.09148075 210.22106929 138.5625 212.39453125 C139.10519531 212.92046875 139.64789063 213.44640625 140.20703125 213.98828125 C141.73656497 215.43444845 141.73656497 215.43444845 144.5625 216.39453125 C147.7868537 215.47328734 150.60204612 213.94367006 153.5625 212.39453125 C161.37404283 210.16266187 169.12556419 211.43855817 176.5625 214.39453125 C184.41401652 219.08363139 189.64126798 224.88125573 192.4375 233.58203125 C194.63688756 242.80934686 193.57082355 251.00428684 188.9453125 259.27734375 C184.34440993 266.32166351 177.5512909 271.07539325 169.5625 273.39453125 C167.11109141 273.6727425 164.65070235 273.8801047 162.1875 274.01953125 C160.31964844 274.13167969 160.31964844 274.13167969 158.4140625 274.24609375 C157.47304688 274.29507812 156.53203125 274.3440625 155.5625 274.39453125 C155.27342773 275.06766357 154.98435547 275.7407959 154.68652344 276.43432617 C147.11273748 294.04557171 139.38765674 311.5862712 131.5871582 329.09820557 C125.45471338 342.86675129 119.36053147 356.65119913 113.3125 370.45703125 C105.13033377 389.13315969 96.86424476 407.77128171 88.5625 426.39453125 C89.17955811 427.19334717 89.17955811 427.19334717 89.80908203 428.00830078 C90.34903809 428.71583496 90.88899414 429.42336914 91.4453125 430.15234375 C91.98043457 430.8498877 92.51555664 431.54743164 93.06689453 432.26611328 C97.38711029 438.41427538 98.58684309 444.98243067 97.5625 452.39453125 C95.53944915 459.38948675 91.67799981 465.52640974 85.66796875 469.71484375 C78.32434055 473.6114628 69.55664784 473.8492025 61.65234375 471.546875 C54.66066369 468.43594647 50.4826257 463.89835551 47.5 456.90234375 C45.71762812 451.66662637 45.27675047 447.771302 46.5625 442.39453125 C45.27629761 441.99077271 45.27629761 441.99077271 43.96411133 441.57885742 C40.55895366 440.39329653 37.3923482 438.99282822 34.13671875 437.4453125 C33.21952309 437.01173431 33.21952309 437.01173431 32.28379822 436.56939697 C30.96315881 435.94500026 29.64317651 435.31921217 28.3237915 434.69216919 C24.7315003 432.98568021 21.13358357 431.29116001 17.53515625 429.59765625 C16.79082336 429.24727798 16.04649048 428.89689972 15.27960205 428.53590393 C7.61536124 424.93611637 -0.09571686 421.44235489 -7.8125 417.95703125 C-19.78743403 412.54478135 -31.69564922 407.00387815 -43.57421875 401.38354492 C-54.61107227 396.16399091 -65.69929294 391.0708426 -76.82678223 386.04776001 C-89.915927 380.1348763 -102.90698786 374.0222788 -115.87646484 367.85180664 C-116.61273102 367.5020578 -117.34899719 367.15230896 -118.10757446 366.79196167 C-119.48063379 366.13944769 -120.85305707 365.48559284 -122.22470093 364.83010864 C-128.12757387 361.58885304 -128.12757387 361.58885304 -134.52734375 360.61328125 C-136.62112727 361.46963443 -138.1860845 362.54682729 -140 363.89453125 C-145.57836049 367.46136398 -151.41162711 368.0665768 -157.89453125 366.984375 C-164.83393091 365.01013353 -170.13978213 361.02256716 -173.875 354.83203125 C-176.36418527 349.32178351 -175.89905358 343.30393041 -175.4375 337.39453125 C-174.96570313 336.18990234 -174.96570313 336.18990234 -174.484375 334.9609375 C-174.42517041 331.71948625 -175.1771476 331.20584013 -177.33984375 328.87109375 C-178.66931614 327.57111306 -180.01541847 326.28798886 -181.375 325.01953125 C-182.06996582 324.34905762 -182.76493164 323.67858398 -183.48095703 322.98779297 C-187.42468943 319.20657448 -191.44175208 315.52081197 -195.6171875 311.99609375 C-198.6344372 309.341432 -201.40146362 306.43789804 -204.22265625 303.578125 C-206.21409461 301.61478454 -208.25052578 299.77373456 -210.375 297.95703125 C-214.46668541 294.4510344 -218.20716883 290.63991234 -221.9921875 286.80859375 C-224.718868 284.11675901 -227.56611892 281.62153874 -230.4765625 279.1328125 C-233.9552298 276.04913332 -237.19072563 272.71902097 -240.4375 269.39453125 C-241.489375 269.82765625 -241.489375 269.82765625 -242.5625 270.26953125 C-251.99752439 273.96149732 -262.55072345 275.48319317 -272.27734375 271.62890625 C-281.10472998 266.58468555 -286.26894234 259.90020422 -289.4375 250.39453125 C-290.40839006 239.78847913 -289.81252886 231.39291269 -283.4375 222.39453125 C-278.31878229 216.37394422 -270.3164679 212.22389629 -262.4375 211.39453125 C-254.82655855 210.78565593 -247.14349442 212.78240311 -240.4375 216.39453125 C-239.591875 215.60949219 -238.74625 214.82445312 -237.875 214.015625 C-232.48348025 209.01917007 -227.0881526 204.04276997 -221.52734375 199.234375 C-218.79379481 196.82783004 -216.11634343 194.36151681 -213.4375 191.89453125 C-210.15894895 188.87526629 -206.87169043 185.87250987 -203.5 182.95703125 C-199.90791409 179.84489001 -196.42198008 176.62581039 -192.9375 173.39453125 C-188.85179121 169.60571189 -184.73356727 165.87281261 -180.51953125 162.2265625 C-177.30258207 159.39588864 -174.1577932 156.48686109 -171.00415039 153.58618164 C-166.18146118 149.15216186 -161.31400331 144.76927216 -156.4375 140.39453125 C-154.77057353 138.89481997 -153.10390851 137.39481804 -151.4375 135.89453125 C-148.96247766 133.66624011 -146.48678246 131.43874285 -144.0078125 129.21484375 C-139.41719297 125.09355273 -134.85308619 120.94573184 -130.3125 116.76953125 C-126.40790804 113.17986542 -122.46826421 109.63876984 -118.4609375 106.1640625 C-114.41065928 102.62202383 -110.42944962 99.00201031 -106.4375 95.39453125 C-107.23414063 93.88826172 -107.23414063 93.88826172 -108.046875 92.3515625 C-113.66652015 81.54526778 -118.6420133 70.72457514 -119.4375 58.39453125 C-119.4890625 57.61335938 -119.540625 56.8321875 -119.59375 56.02734375 C-120.29912619 36.21802903 -112.93409077 16.91006307 -99.484375 2.359375 C-71.53351198 -24.47131984 -29.24426949 -25.04871378 0 0 Z M-103.5625 110.95703125 C-104.75187523 112.07369358 -105.94197581 113.18958384 -107.1328125 114.3046875 C-107.70676758 114.84367676 -108.28072266 115.38266602 -108.87207031 115.93798828 C-110.69258184 117.63187035 -112.55268987 119.27262382 -114.4375 120.89453125 C-118.01101786 123.98350432 -121.47461114 127.18295338 -124.9375 130.39453125 C-129.02318731 134.18337282 -133.14143369 137.91625072 -137.35546875 141.5625 C-140.57241793 144.39317386 -143.7172068 147.30220141 -146.87084961 150.20288086 C-151.69353882 154.63690064 -156.56099669 159.01979034 -161.4375 163.39453125 C-163.10442647 164.89424253 -164.77109149 166.39424446 -166.4375 167.89453125 C-168.91252234 170.12282239 -171.38821754 172.35031965 -173.8671875 174.57421875 C-178.4578061 178.69550893 -183.02197107 182.84326913 -187.5625 187.01953125 C-191.43388264 190.57954915 -195.34697915 194.08158993 -199.3203125 197.52734375 C-202.01721977 199.90579703 -204.66571398 202.33568591 -207.3125 204.76953125 C-215.2637166 212.08105224 -223.28262125 219.31026507 -231.4375 226.39453125 C-231.29441406 227.09964844 -231.15132812 227.80476563 -231.00390625 228.53125 C-230.43272944 231.41864726 -229.89844689 234.31062511 -229.375 237.20703125 C-229.19839844 238.18285156 -229.02179688 239.15867187 -228.83984375 240.1640625 C-228.64068359 241.26814453 -228.64068359 241.26814453 -228.4375 242.39453125 C-209.72331781 246.81982796 -190.94872085 250.89930232 -172.12524414 254.82861328 C-168.31842297 255.62349878 -164.51315609 256.42559064 -160.70818615 257.22928429 C-157.73807239 257.85552799 -154.76702018 258.47722264 -151.79567909 259.09761429 C-150.38997185 259.39184512 -148.98459741 259.68767096 -147.57958031 259.9851799 C-145.63502804 260.39641291 -143.68900186 260.80065766 -141.74291992 261.20458984 C-140.6421965 261.43520111 -139.54147308 261.66581238 -138.40739441 261.90341187 C-135.68099439 262.35426557 -133.19315996 262.4918488 -130.4375 262.39453125 C-126.82735658 253.98914212 -123.60685817 245.50024457 -120.5859375 236.8671875 C-120.12940141 235.57094815 -119.67252327 234.27482922 -119.21533203 232.9788208 C-118.24643626 230.23055076 -117.27948185 227.48160934 -116.31414795 224.73208618 C-114.01890941 218.19530878 -111.71311742 211.66225151 -109.40785599 205.12900352 C-108.88500698 203.64709356 -108.36227945 202.16514073 -107.83967209 200.68314552 C-102.54649969 185.67335926 -97.19253458 170.68591342 -91.8125 155.70703125 C-91.22332794 154.06639206 -91.22332794 154.06639206 -90.62225342 152.39260864 C-89.86463105 150.28313498 -89.10689391 148.17370253 -88.34902954 146.0643158 C-87.64707461 144.11036366 -86.94538203 142.15631726 -86.24398804 140.2021637 C-84.77274146 136.10407597 -83.2984165 132.00725713 -81.80957031 127.91552734 C-81.57001617 127.25401169 -81.33046204 126.59249603 -81.08364868 125.91093445 C-80.4701856 124.21743133 -79.85365498 122.52504023 -79.23681641 120.83276367 C-78.33366198 118.50543541 -78.33366198 118.50543541 -78.4375 116.39453125 C-80.49708886 114.99270126 -82.53999805 113.71012393 -84.6875 112.45703125 C-91.06141172 108.68171431 -91.06141172 108.68171431 -93.734375 106.640625 C-97.93080953 103.5702979 -100.5483059 108.08540039 -103.5625 110.95703125 Z M-5.9375 108.58203125 C-10.86530681 112.11626004 -15.94071794 114.85665528 -21.4375 117.39453125 C-20.03801173 124.08376973 -18.26872406 130.56724619 -16.26171875 137.09765625 C-15.94404541 138.14118759 -15.62637207 139.18471893 -15.29907227 140.25987244 C-14.2442031 143.72239627 -13.18459184 147.18345 -12.125 150.64453125 C-11.37898268 153.09014987 -10.6333034 155.53587162 -9.88793945 157.98168945 C-8.48745877 162.57589884 -7.08593188 167.16978458 -5.68284893 171.76319981 C-2.7083519 181.50137431 0.2562914 191.24253241 3.21875 200.984375 C3.6949965 202.55032523 4.17124872 204.11627372 4.64750671 205.68222046 C5.35700156 208.01506433 6.06649553 210.34790847 6.77597332 212.68075752 C9.03522898 220.10929967 11.29523356 227.53761359 13.55648804 234.96554756 C13.9604207 236.29251477 14.36428347 237.61950326 14.76806641 238.94651604 C15.68077004 241.94601275 16.59506228 244.94497582 17.51431274 247.94247437 C18.24167241 250.33793084 18.95364481 252.73809238 19.65341187 255.14175415 C20.00263702 256.3264328 20.35186218 257.51111145 20.71166992 258.73168945 C21.02013351 259.79676224 21.32859711 260.86183502 21.64640808 261.95918274 C22.30583617 264.54940885 22.30583617 264.54940885 24.5625 265.39453125 C26.52878311 265.19599518 26.52878311 265.19599518 28.77575684 264.68630981 C30.10077461 264.41287247 30.10077461 264.41287247 31.45256042 264.13391113 C32.90980278 263.82230042 32.90980278 263.82230042 34.39648438 263.50439453 C35.41768875 263.2915683 36.43889313 263.07874207 37.49104309 262.85946655 C40.88086728 262.15119772 44.26854235 261.43316235 47.65625 260.71484375 C50.00261863 260.22205208 52.34909634 259.72977946 54.69567871 259.23800659 C59.61945835 258.20466483 64.5422587 257.16681598 69.46435547 256.12548828 C75.78518685 254.78835217 82.10773754 253.45957615 88.43096161 252.13380623 C93.27830978 251.11701626 98.12502067 250.09721752 102.97151184 249.07635117 C105.30307781 248.58533067 107.63477354 248.09492591 109.96659851 247.60513687 C113.2211815 246.92076381 116.47495828 246.23268723 119.72851562 245.54345703 C121.18575798 245.23791901 121.18575798 245.23791901 122.67243958 244.9262085 C123.99745735 244.64431168 123.99745735 244.64431168 125.34924316 244.35671997 C126.50404049 244.11280108 126.50404049 244.11280108 127.68216705 243.86395454 C129.63517423 243.44871619 129.63517423 243.44871619 131.5625 242.39453125 C132.21982528 239.9844164 132.21982528 239.9844164 132.625 237.14453125 C132.78097656 236.190625 132.93695313 235.23671875 133.09765625 234.25390625 C133.25105469 233.3103125 133.40445313 232.36671875 133.5625 231.39453125 C133.87960937 230.58242188 134.19671875 229.7703125 134.5234375 228.93359375 C134.81867271 226.42507228 134.81867271 226.42507228 133.45776367 224.8984375 C131.74856692 223.17734747 129.96938498 221.59487143 128.125 220.01953125 C127.474104 219.44082275 126.82320801 218.86211426 126.15258789 218.26586914 C124.30242075 216.6261738 122.43583406 215.00765034 120.5625 213.39453125 C119.81742188 212.74097656 119.07234375 212.08742188 118.3046875 211.4140625 C117.10192551 210.35969323 115.89487687 209.31019389 114.68359375 208.265625 C111.76451734 205.69060179 108.91629654 203.0414841 106.0625 200.39453125 C101.97683417 196.60566748 97.85856535 192.87281095 93.64453125 189.2265625 C90.42758207 186.39588864 87.2827932 183.48686109 84.12915039 180.58618164 C79.30646118 176.15216186 74.43900331 171.76927216 69.5625 167.39453125 C67.89557353 165.89481997 66.22890851 164.39481804 64.5625 162.89453125 C63.7375 162.15203125 62.9125 161.40953125 62.0625 160.64453125 C54.5625 153.89453125 54.5625 153.89453125 52.0546875 151.63671875 C50.41510121 150.16160507 48.77450345 148.68761473 47.1328125 147.21484375 C42.5421939 143.09355357 37.97802893 138.94579337 33.4375 134.76953125 C29.57017416 131.21324387 25.66223052 127.71371323 21.69140625 124.2734375 C18.92500483 121.8318979 16.21374594 119.33166589 13.5 116.83203125 C4.69139702 106.70489352 4.69139702 106.70489352 -5.9375 108.58203125 Z M-66.4375 121.39453125 C-66.78763908 122.38310371 -66.78763908 122.38310371 -67.14485168 123.39164734 C-77.22059393 151.83662305 -87.30032544 180.28001215 -97.49093628 208.68408203 C-98.67771349 211.99225112 -99.86347491 215.30078291 -101.04907227 218.609375 C-107.04797871 235.34310358 -107.04797871 235.34310358 -110.07696533 243.64752197 C-110.83693232 245.73154616 -111.59422569 247.81652 -112.35058594 249.90185547 C-113.20676758 252.25870025 -114.06885392 254.6134135 -114.93847656 256.96533203 C-115.29393555 257.94614746 -115.64939453 258.92696289 -116.015625 259.9375 C-116.31887695 260.7627417 -116.62212891 261.5879834 -116.93457031 262.43823242 C-117.68084692 264.45436187 -117.68084692 264.45436187 -116.4375 266.39453125 C-113.65352674 267.14426022 -110.92005304 267.77290608 -108.09765625 268.33984375 C-106.84171913 268.60195145 -106.84171913 268.60195145 -105.56040955 268.86935425 C-102.87519209 269.42741775 -100.18765082 269.97332119 -97.5 270.51953125 C-95.69060164 270.89509422 -93.88135459 271.271387 -92.07226562 271.6484375 C-90.35169782 272.00456068 -88.63099882 272.36005067 -86.91015625 272.71484375 C-85.68354027 272.96791794 -85.68354027 272.96791794 -84.43214417 273.22610474 C-80.46703288 274.08187372 -80.46703288 274.08187372 -76.4375 274.39453125 C-75.13042339 272.56850582 -75.13042339 272.56850582 -73.8125 270.26953125 C-69.7923481 264.06366569 -65.21212639 260.36183193 -58.29248047 257.81396484 C-57.57091766 257.54715912 -56.84935486 257.28035339 -56.10592651 257.00546265 C-55.55534576 256.80385529 -55.00476501 256.60224792 -54.4375 256.39453125 C-54.4141715 239.07075773 -54.39652107 221.74698909 -54.38568783 204.42320347 C-54.38052477 196.38003071 -54.37348188 188.33686768 -54.36206055 180.29370117 C-54.35211402 173.28580165 -54.34564665 166.27790917 -54.34341151 159.27000278 C-54.34210434 155.55709933 -54.33901816 151.84421605 -54.33176994 148.13131905 C-54.32375668 143.99321714 -54.32350884 139.85515064 -54.32397461 135.71704102 C-54.3185817 133.85696159 -54.3185817 133.85696159 -54.31307983 131.95930481 C-54.3144545 130.83884766 -54.31582916 129.7183905 -54.31724548 128.5639801 C-54.31586279 127.09418119 -54.31586279 127.09418119 -54.31445217 125.59468937 C-54.1909652 123.41889305 -54.1909652 123.41889305 -55.4375 122.39453125 C-57.28641946 122.16089244 -59.14238031 121.9814949 -61 121.83203125 C-62.51787109 121.70634766 -62.51787109 121.70634766 -64.06640625 121.578125 C-65.24009766 121.48724609 -65.24009766 121.48724609 -66.4375 121.39453125 Z M-42.4375 123.39453125 C-42.53374593 125.11545778 -42.55937598 126.84036507 -42.55775452 128.5639801 C-42.55912918 129.68443726 -42.56050385 130.80489441 -42.56192017 131.95930481 C-42.55832489 133.19935776 -42.55472961 134.43941071 -42.55102539 135.71704102 C-42.55117142 137.01441193 -42.55131744 138.31178284 -42.5514679 139.64846802 C-42.55175586 143.21649054 -42.54585932 146.78447973 -42.53889394 150.35249448 C-42.53266021 154.07743745 -42.53205659 157.80238111 -42.53086853 161.52732849 C-42.52775527 168.58570488 -42.51954195 175.64406585 -42.50951904 182.70243543 C-42.49835774 190.73616096 -42.49284741 198.76988721 -42.48782361 206.80361855 C-42.47735934 223.33393182 -42.45976 239.86422957 -42.4375 256.39453125 C-41.74562592 256.66383957 -41.05375183 256.93314789 -40.34091187 257.21061707 C-39.43612091 257.56674576 -38.53132996 257.92287445 -37.59912109 258.28979492 C-36.70099701 258.64160324 -35.80287292 258.99341156 -34.87753296 259.35588074 C-32.21549031 260.48903427 -30.19727929 261.75403448 -28.0625 263.70703125 C-27.15371094 264.50560547 -27.15371094 264.50560547 -26.2265625 265.3203125 C-23.80531295 268.12748174 -22.20476101 271.13638705 -20.4375 274.39453125 C-16.18714982 273.58385601 -11.93728258 272.77067633 -7.6875 271.95703125 C-5.87765625 271.61188477 -5.87765625 271.61188477 -4.03125 271.25976562 C-2.87109375 271.03740234 -1.7109375 270.81503906 -0.515625 270.5859375 C0.55268555 270.38170166 1.62099609 270.17746582 2.72167969 269.96704102 C5.02418559 269.50301761 7.29151666 268.99102371 9.5625 268.39453125 C8.97352015 260.66318499 6.65255994 253.55416375 4.35546875 246.18359375 C3.91726909 244.75994405 3.47969894 243.33610045 3.04270935 241.91207886 C2.10694487 238.86689293 1.16718544 235.82298129 0.22418213 232.7800293 C-1.26090187 227.98752236 -2.73713757 223.19232183 -4.21142578 218.39648438 C-4.71428618 216.76092275 -5.21715488 215.12536369 -5.72003174 213.48980713 C-6.09654247 212.26518139 -6.09654247 212.26518139 -6.48065948 211.01581573 C-7.25082961 208.51194717 -8.02188155 206.00835165 -8.79315186 203.50482178 C-13.9642684 186.71466735 -19.06282987 169.90274555 -24.14928818 153.08678436 C-25.24583457 149.46213963 -26.34330196 145.83777379 -27.44067383 142.21337891 C-29.44062748 135.60740227 -31.43950826 129.00110156 -33.4375 122.39453125 C-38.23720742 121.86619409 -38.23720742 121.86619409 -42.4375 123.39453125 Z M-230.4375 255.39453125 C-231.0975 256.71453125 -231.7575 258.03453125 -232.4375 259.39453125 C-231.82003906 259.93980469 -231.20257813 260.48507812 -230.56640625 261.046875 C-225.40488729 265.64274804 -220.43786206 270.357322 -215.5859375 275.27734375 C-212.98321077 277.84221264 -210.24188833 280.20505554 -207.46875 282.58203125 C-205.20111428 284.60546005 -203.0717305 286.73106472 -200.9375 288.89453125 C-198.20920593 291.66013533 -195.45233166 294.30740156 -192.5 296.83203125 C-188.41250747 300.33443538 -184.67556533 304.1412516 -180.89453125 307.96875 C-178.14050568 310.68774822 -175.28092112 313.23164444 -172.32421875 315.7265625 C-170.4375 317.39453125 -170.4375 317.39453125 -168.30786133 320.04174805 C-165.5700828 322.78450648 -165.5700828 322.78450648 -161.66796875 322.4453125 C-160.31543939 322.22758826 -158.9673409 321.98063758 -157.625 321.70703125 C-156.58569336 321.53010742 -156.58569336 321.53010742 -155.52539062 321.34960938 C-153.82489502 321.05642048 -152.13038977 320.72885036 -150.4375 320.39453125 C-148.26783641 314.49177761 -146.1150299 308.58307662 -143.97387695 302.66992188 C-143.24338029 300.65874333 -142.50902476 298.64896207 -141.77075195 296.640625 C-140.71069882 293.75488521 -139.66459007 290.86441758 -138.62109375 287.97265625 C-138.28782578 287.07460266 -137.9545578 286.17654907 -137.6111908 285.25128174 C-137.31080399 284.41071228 -137.01041718 283.57014282 -136.70092773 282.70410156 C-136.43223373 281.96685852 -136.16353973 281.22961548 -135.88670349 280.47003174 C-135.37047716 278.08485883 -135.78324451 276.71170449 -136.4375 274.39453125 C-148.249877 271.91371429 -160.06292397 269.43611584 -171.87684345 266.96265411 C-177.36215986 265.81409584 -182.84723694 264.66441917 -188.33178711 263.51220703 C-193.62208014 262.40084765 -198.91297537 261.29239936 -204.20430565 260.18598938 C-206.22558625 259.76280408 -208.2466455 259.3385602 -210.26748085 258.91325378 C-213.09221594 258.31894457 -215.91770591 257.72836262 -218.7434082 257.13867188 C-220.00360527 256.87217583 -220.00360527 256.87217583 -221.28926086 256.60029602 C-224.39073484 255.95620459 -227.26046864 255.39453125 -230.4375 255.39453125 Z M126.42553711 256.18504333 C125.58433319 256.36029541 124.74312927 256.53554749 123.87643433 256.71611023 C122.95685944 256.91090469 122.03728455 257.10569916 121.08984375 257.30639648 C120.11886749 257.50961517 119.14789124 257.71283386 118.14749146 257.92221069 C114.9310308 258.5962175 111.71550709 259.27458475 108.5 259.953125 C106.26949448 260.42176695 104.03894374 260.89019371 101.80834961 261.3584137 C97.1306235 262.34098088 92.45333644 263.3256042 87.77636719 264.31176758 C81.77446699 265.57721008 75.77168891 266.83842774 69.76860046 268.09821987 C65.16161186 269.06536105 60.55500283 270.03429975 55.94851685 271.00383186 C53.7349706 271.46957877 51.52132729 271.93486467 49.30758667 272.39968681 C46.21640207 273.04911934 43.1257136 273.70086145 40.03515625 274.35327148 C39.11558136 274.54604172 38.19600647 274.73881195 37.24856567 274.93742371 C36.40736176 275.11549561 35.56615784 275.2935675 34.69946289 275.47703552 C33.96869034 275.63097495 33.23791779 275.78491438 32.48500061 275.94351864 C30.36161117 276.41083097 30.36161117 276.41083097 27.5625 277.39453125 C28.14009426 282.03702574 29.0186303 286.34543183 30.39404297 290.81469727 C30.77375748 292.05769592 31.15347198 293.30069458 31.54469299 294.58135986 C31.96459898 295.93708097 32.38460017 297.29277258 32.8046875 298.6484375 C33.24544966 300.08447408 33.68574053 301.52065538 34.12559509 302.95697021 C35.31096917 306.82321896 36.50267884 310.68748803 37.69556046 314.55142593 C38.9371289 318.57698795 40.17279798 322.60435949 41.40893555 326.6315918 C43.4444988 333.26110738 45.48323146 339.88964034 47.52392578 346.51757812 C50.43018028 355.95810055 53.32442239 365.40227585 56.21484375 374.84765625 C56.65980323 376.30147008 57.10476978 377.75528176 57.54974365 379.20909119 C58.19762543 381.32587914 58.84549904 383.44266959 59.49333954 385.55947018 C61.68798402 392.73023746 63.88414687 399.90053752 66.08203125 407.0703125 C66.42266098 408.1825116 66.76329071 409.29471069 67.11424255 410.44061279 C67.42434769 411.45190247 67.73445282 412.46319214 68.05395508 413.50512695 C68.32291092 414.38272171 68.59186676 415.26031647 68.86897278 416.164505 C69.41315046 417.91430007 69.98302506 419.65610642 70.5625 421.39453125 C72.5425 421.39453125 74.5225 421.39453125 76.5625 421.39453125 C85.92198865 400.2393295 95.27204899 379.08015757 104.5625 357.89453125 C110.44522247 344.48010067 116.34737235 331.0744434 122.27041626 317.67776489 C123.48301338 314.93298145 124.69336478 312.18721844 125.90307617 309.44116211 C129.3163603 301.69805029 132.74427067 293.96450784 136.2734375 286.2734375 C136.80718994 285.09910156 137.34094238 283.92476563 137.89086914 282.71484375 C138.84566857 280.61896555 139.81265941 278.52857614 140.79467773 276.4453125 C141.40098022 275.10726563 141.40098022 275.10726563 142.01953125 273.7421875 C142.36991455 272.98945557 142.72029785 272.23672363 143.08129883 271.46118164 C143.77444365 269.35104418 143.77444365 269.35104418 142.7487793 267.23632812 C141.48501585 265.27423069 140.11859375 263.57096601 138.5625 261.83203125 C136.68503722 259.72457928 135.14028314 257.76120596 133.5625 255.39453125 C130.95819756 255.39453125 128.94932089 255.65470281 126.42553711 256.18504333 Z M-122.4375 278.39453125 C-124.77177005 284.74146257 -127.084899 291.0958031 -129.38330078 297.45581055 C-130.16813028 299.61969758 -130.95783164 301.78182394 -131.75244141 303.94213867 C-132.8920153 307.04288935 -134.01407172 310.14949456 -135.1328125 313.2578125 C-135.67326706 314.71106682 -135.67326706 314.71106682 -136.22463989 316.19367981 C-136.54512299 317.09438705 -136.86560608 317.9950943 -137.19580078 318.9230957 C-137.62882004 320.1122332 -137.62882004 320.1122332 -138.07058716 321.32539368 C-138.73669919 323.69481148 -138.73669919 323.69481148 -136.4375 326.39453125 C-132.53460852 325.68638889 -129.27263909 323.86130988 -125.8203125 322 C-125.17440155 321.65612244 -124.5284906 321.31224487 -123.86300659 320.95794678 C-121.76047863 319.83699641 -119.661446 318.70967234 -117.5625 317.58203125 C-116.11994068 316.81100043 -114.67723152 316.0402499 -113.234375 315.26977539 C-101.59734443 309.04803303 -90.00095034 302.75197905 -78.4375 296.39453125 C-78.7675 293.09453125 -79.0975 289.79453125 -79.4375 286.39453125 C-84.91741831 285.25015509 -90.39837987 284.11096716 -95.88037109 282.9765625 C-97.74492463 282.58996521 -99.60918573 282.20195467 -101.47314453 281.8125 C-104.15321334 281.25278398 -106.83429455 280.69816755 -109.515625 280.14453125 C-110.76427338 279.8820459 -110.76427338 279.8820459 -112.03814697 279.61425781 C-113.20890778 279.37400879 -113.20890778 279.37400879 -114.40332031 279.12890625 C-115.08726868 278.98678711 -115.77121704 278.84466797 -116.47589111 278.69824219 C-118.76548683 278.29252828 -118.76548683 278.29252828 -122.4375 278.39453125 Z M-0.5168457 282.62841797 C-1.83867581 282.88910636 -3.1626548 283.13912641 -4.48852539 283.37841797 C-6.40473533 283.72526267 -8.31392844 284.11019233 -10.22265625 284.49609375 C-11.36613525 284.71604004 -12.50961426 284.93598633 -13.68774414 285.16259766 C-16.72210597 286.15661564 -16.72210597 286.15661564 -17.76342773 289.3371582 C-17.98587158 290.34609131 -18.20831543 291.35502441 -18.4375 292.39453125 C-19.09678178 294.25133657 -19.76329217 296.10559335 -20.4375 297.95703125 C-20.7675 298.86582031 -21.0975 299.77460938 -21.4375 300.7109375 C-22.4375 303.39453125 -22.4375 303.39453125 -23.67578125 305.78637695 C-24.7413812 308.37088733 -24.7413812 308.37088733 -23.41796875 310.58837891 C-22.82628906 311.3210498 -22.23460937 312.0537207 -21.625 312.80859375 C-20.96886719 313.64197266 -20.31273437 314.47535156 -19.63671875 315.33398438 C-18.91097656 316.22021484 -18.18523437 317.10644531 -17.4375 318.01953125 C-15.93600147 319.91678377 -14.43602927 321.81524512 -12.9375 323.71484375 C-12.17695313 324.66907227 -11.41640625 325.62330078 -10.6328125 326.60644531 C-7.46536179 330.62916407 -4.44776335 334.75366491 -1.4375 338.89453125 C3.48549157 345.62139931 8.4960329 352.27512404 13.5625 358.89453125 C18.62901963 365.51400709 23.63664375 372.16970948 28.5625 378.89453125 C33.74560543 385.96684105 39.00285336 392.97918324 44.3125 399.95703125 C45.00472656 400.86839844 45.69695312 401.77976562 46.41015625 402.71875 C47.05339844 403.56179688 47.69664062 404.40484375 48.359375 405.2734375 C48.93010742 406.02181885 49.50083984 406.7702002 50.08886719 407.54125977 C51.57685085 409.48446604 51.57685085 409.48446604 53.5625 411.39453125 C52.1205692 402.84534088 49.64046739 394.65584683 47.08203125 386.390625 C46.6316366 384.92282522 46.18168083 383.45489071 45.73213196 381.98683167 C44.532677 378.07398417 43.32738456 374.16295813 42.12094879 370.2522583 C40.87314546 366.20376674 39.63087729 362.15357791 38.38818359 358.10351562 C36.3946609 351.60841959 34.39832343 345.11419593 32.39990234 338.62060547 C28.80579456 326.94076424 25.23160904 315.25485226 21.65829468 303.56863403 C20.13029361 298.57269355 18.60038201 293.57733857 17.0703125 288.58203125 C16.81204178 287.73878799 16.55377106 286.89554474 16.28767395 286.02674866 C15.71264356 284.1493344 15.13757671 282.27193132 14.5625 280.39453125 C9.44462199 280.39453125 4.48775097 281.62238745 -0.5168457 282.62841797 Z M-78.6875 310.10546875 C-79.76241699 310.68611084 -80.83733398 311.26675293 -81.94482422 311.86499023 C-83.09740723 312.49348877 -84.24999023 313.1219873 -85.4375 313.76953125 C-86.6237323 314.41307849 -87.81009372 315.05638777 -88.99658203 315.69946289 C-102.58601264 323.0746435 -116.13213963 330.5156708 -129.4375 338.39453125 C-129.49982823 341.53047294 -129.32282917 344.37465981 -128.4375 347.39453125 C-125.85439279 349.4388082 -124.13771182 350.45792975 -121.1875 351.68359375 C-120.43551331 352.02946533 -119.68352661 352.37533691 -118.90875244 352.73168945 C-116.43203986 353.86132265 -113.93630009 354.93975233 -111.4375 356.01953125 C-109.69870746 356.80187734 -107.96141508 357.58756556 -106.22558594 358.37646484 C-102.68011496 359.98117552 -99.12676652 361.5658494 -95.56445312 363.1328125 C-90.94836458 365.1638398 -86.3524088 367.23577784 -81.765625 369.33203125 C-80.40699007 369.95257208 -79.04834758 370.57309636 -77.68969727 371.19360352 C-76.69789963 371.64668381 -76.69789963 371.64668381 -75.68606567 372.10891724 C-73.67656029 373.02451575 -71.66477102 373.93488992 -69.65209961 374.84350586 C-59.72251996 379.32780557 -49.85134825 383.92859867 -40 388.58203125 C-28.22185188 394.14455409 -16.42520524 399.66143285 -4.58984375 405.1015625 C0.25046561 407.32656056 5.0853662 409.56289687 9.91749573 411.80560303 C13.45849573 413.44886499 17.0005412 415.08986707 20.54263306 416.73077393 C22.28900219 417.54045471 24.03492236 418.35110464 25.78036499 419.16278076 C28.24036149 420.30652024 30.7020332 421.44658178 33.1640625 422.5859375 C33.89326401 422.92606369 34.62246552 423.26618988 35.37376404 423.61662292 C40.03437262 425.76803289 44.73711573 427.64221909 49.5625 429.39453125 C48.22808629 426.56703161 46.72480649 424.09842557 44.8671875 421.5859375 C44.32449219 420.84988281 43.78179687 420.11382812 43.22265625 419.35546875 C42.63355469 418.56398438 42.04445313 417.7725 41.4375 416.95703125 C40.82003906 416.12300781 40.20257813 415.28898437 39.56640625 414.4296875 C34.28386103 407.31571879 28.91191831 400.27110987 23.52685547 393.23461914 C18.5576304 386.73129099 13.68762813 380.1612587 8.8515625 373.55859375 C4.48972768 367.6178142 0.04183864 361.74708995 -4.4375 355.89453125 C-14.64783841 342.54956962 -24.5875006 329.00710807 -34.4375 315.39453125 C-35.30375 315.55953125 -36.17 315.72453125 -37.0625 315.89453125 C-47.72212833 317.34320285 -58.31524498 317.63235629 -67.3125 311.015625 C-68.71087136 309.83574917 -70.07754602 308.61848983 -71.4375 307.39453125 C-74.34760536 307.39453125 -76.13415076 308.72084002 -78.6875 310.10546875 Z " fill="#CFE8FE" transform="translate(304.4375,28.60546875)"/>
<path d="M0 0 C13.18156464 12.31752915 21.76488635 30.37604991 22.72265625 48.41015625 C23.1696848 65.74708975 18.33171553 80.61747019 9.5625 95.39453125 C13.64338639 99.59019257 17.83842469 103.56413939 22.26953125 107.38671875 C25.03155882 109.80525737 27.73647712 112.28344501 30.4375 114.76953125 C35.7786535 119.68268891 41.16045736 124.5483258 46.5625 129.39453125 C48.22942647 130.89424253 49.89609149 132.39424446 51.5625 133.89453125 C52.8 135.00828125 52.8 135.00828125 54.0625 136.14453125 C61.5625 142.89453125 61.5625 142.89453125 64.0703125 145.15234375 C65.70989879 146.62745743 67.35049655 148.10144777 68.9921875 149.57421875 C73.5828061 153.69550893 78.14697107 157.84326913 82.6875 162.01953125 C85.94640494 165.01633136 89.21749549 167.99367672 92.5625 170.89453125 C96.44067013 174.25775763 100.21777811 177.72788796 103.99560547 181.20263672 C108.81834891 185.63676753 113.6859112 190.01971365 118.5625 194.39453125 C120.22942647 195.89424253 121.89609149 197.39424446 123.5625 198.89453125 C124.38105469 199.63058594 125.19960938 200.36664063 126.04296875 201.125 C127.77731186 202.68725326 129.50892979 204.25253548 131.23828125 205.8203125 C132.10839844 206.60792969 132.97851562 207.39554688 133.875 208.20703125 C134.65488281 208.91472656 135.43476563 209.62242187 136.23828125 210.3515625 C138.62131449 212.44622869 141.0702918 214.4316416 143.5625 216.39453125 C142.19879701 219.38673393 140.61341917 221.68479654 138.4375 224.14453125 C137.62925781 225.06492188 137.62925781 225.06492188 136.8046875 226.00390625 C136.39476562 226.4628125 135.98484375 226.92171875 135.5625 227.39453125 C130.74220588 223.97650451 126.43261169 220.40154107 122.3203125 216.16015625 C119.96770844 213.79709617 117.45439511 211.65252645 114.9296875 209.4765625 C111.92528158 206.83407346 108.99497611 204.11631811 106.0625 201.39453125 C101.97697834 197.60551599 97.85855949 193.87280588 93.64453125 190.2265625 C90.42758207 187.39588864 87.2827932 184.48686109 84.12915039 181.58618164 C79.30646118 177.15216186 74.43900331 172.76927216 69.5625 168.39453125 C67.89557353 166.89481997 66.22890851 165.39481804 64.5625 163.89453125 C63.325 162.78078125 63.325 162.78078125 62.0625 161.64453125 C54.5625 154.89453125 54.5625 154.89453125 52.0546875 152.63671875 C50.41510121 151.16160507 48.77450345 149.68761473 47.1328125 148.21484375 C42.5421939 144.09355357 37.97802893 139.94579337 33.4375 135.76953125 C29.57017416 132.21324387 25.66223052 128.71371323 21.69140625 125.2734375 C18.92501404 122.83190602 16.2133582 120.33207775 13.5 117.83203125 C9.2615001 113.92727672 4.97352423 110.10380162 0.5625 106.39453125 C-3.20274613 107.74117622 -6.1084835 109.45205094 -9.3125 111.83203125 C-18.84942991 118.61011359 -29.9394469 121.75195224 -41.4375 123.39453125 C-41.7675 167.28453125 -42.0975 211.17453125 -42.4375 256.39453125 C-46.3975 256.39453125 -50.3575 256.39453125 -54.4375 256.39453125 C-54.7675 212.50453125 -55.0975 168.61453125 -55.4375 123.39453125 C-59.0675 122.73453125 -62.6975 122.07453125 -66.4375 121.39453125 C-66.52926514 122.17393066 -66.62103027 122.95333008 -66.71557617 123.75634766 C-67.66988906 128.56567151 -69.30962527 133.00631681 -70.98828125 137.60546875 C-71.35431458 138.62138596 -71.7203479 139.63730316 -72.09747314 140.68400574 C-73.31038766 144.04752609 -74.53028685 147.40847099 -75.75 150.76953125 C-76.6027218 153.13121622 -77.45484392 155.4931178 -78.30639648 157.85522461 C-79.64097396 161.55693261 -80.97573169 165.25857272 -82.3127594 168.95939636 C-86.81735625 181.42970576 -91.27782671 193.9156444 -95.73251343 206.40386963 C-97.35056345 210.93977034 -98.96979382 215.47524915 -100.5891571 220.01068115 C-101.3582423 222.1650829 -102.12705669 224.31958134 -102.89558411 226.47418213 C-104.77053226 231.73002865 -106.64827011 236.98484655 -108.53307819 242.2371645 C-109.47127437 244.85194605 -110.40833273 247.46713473 -111.34531975 250.08234978 C-112.01649172 251.9541109 -112.68933119 253.82527382 -113.36219788 255.69642639 C-113.76466232 256.82004074 -114.16712677 257.94365509 -114.58178711 259.10131836 C-114.94066513 260.10086044 -115.29954315 261.10040253 -115.66929626 262.13023376 C-116.49104689 264.15385146 -116.49104689 264.15385146 -116.4375 265.39453125 C-115.29684082 265.62640137 -114.15618164 265.85827148 -112.98095703 266.09716797 C-108.75638428 266.95801004 -104.53391389 267.82879939 -100.31201172 268.70263672 C-98.48314476 269.07971264 -96.65371613 269.45407481 -94.82373047 269.82568359 C-92.19607193 270.35976053 -89.5705764 270.90350882 -86.9453125 271.44921875 C-85.71399094 271.69622025 -85.71399094 271.69622025 -84.45779419 271.94821167 C-78.66524341 273.16678784 -78.66524341 273.16678784 -76.4375 275.39453125 C-77.4275 279.02453125 -78.4175 282.65453125 -79.4375 286.39453125 C-88.66786599 285.74308395 -97.54645464 283.80211081 -106.5625 281.83203125 C-108.10666245 281.49884626 -109.65093261 281.16616003 -111.1953125 280.83398438 C-114.94397436 280.02657594 -118.69111573 279.21243977 -122.4375 278.39453125 C-122.53732178 279.19648926 -122.63714355 279.99844727 -122.73999023 280.82470703 C-123.60326859 285.2429276 -125.05232585 289.29202158 -126.59765625 293.51171875 C-126.90698593 294.36887482 -127.21631561 295.22603088 -127.53501892 296.10916138 C-128.51853751 298.83105363 -129.50915441 301.55029878 -130.5 304.26953125 C-131.17039299 306.12092323 -131.84031999 307.97248401 -132.50976562 309.82421875 C-134.14695444 314.34962868 -135.79051178 318.87267901 -137.4375 323.39453125 C-141.01813513 323.39453125 -142.91237986 323.050456 -146.1875 321.89453125 C-147.38632813 321.476875 -147.38632813 321.476875 -148.609375 321.05078125 C-149.21265625 320.83421875 -149.8159375 320.61765625 -150.4375 320.39453125 C-149.78650511 315.29264158 -148.28425098 310.82381096 -146.49609375 306.0390625 C-146.20896011 305.25560959 -145.92182648 304.47215668 -145.62599182 303.66496277 C-144.71397081 301.17712103 -143.79526998 298.69183245 -142.875 296.20703125 C-141.65982619 292.92388016 -140.45112955 289.63844591 -139.24609375 286.3515625 C-138.96487167 285.59841263 -138.6836496 284.84526276 -138.39390564 284.06929016 C-137.28532233 281.04531846 -136.4375 278.64242641 -136.4375 275.39453125 C-138.13758965 275.040812 -138.13758965 275.040812 -139.87202454 274.6799469 C-150.54068747 272.45999007 -161.20895753 270.23815408 -171.87684345 268.01446629 C-177.36162748 266.87124338 -182.84654893 265.72868856 -188.33178711 264.58764648 C-193.62295326 263.48694997 -198.91375485 262.38451693 -204.20430565 261.28086662 C-206.22523231 260.85960652 -208.24629068 260.4389778 -210.26748085 260.01898384 C-213.09313876 259.43171392 -215.91832474 258.84222343 -218.7434082 258.25219727 C-219.58353958 258.07812851 -220.42367096 257.90405975 -221.28926086 257.72471619 C-224.40154723 257.07282167 -227.41790701 256.40106225 -230.4375 255.39453125 C-230.29519192 253.97750612 -230.14849254 252.56092165 -230 251.14453125 C-229.91878906 250.355625 -229.83757812 249.56671875 -229.75390625 248.75390625 C-229.46084935 246.56864244 -228.98993725 244.52564151 -228.4375 242.39453125 C-218.98827424 243.83515464 -209.66436421 245.75984285 -200.32069588 247.75432205 C-197.66836047 248.32017734 -195.01525897 248.88230613 -192.36192322 249.44345093 C-184.82764083 251.03741754 -177.29458954 252.63714443 -169.76245117 254.24121094 C-165.13298698 255.22684765 -160.50250688 256.2075852 -155.8713665 257.18531418 C-154.11391536 257.55739818 -152.35686612 257.93138591 -150.60023689 258.30733109 C-148.15118676 258.83138573 -145.70089825 259.34922892 -143.25024414 259.86572266 C-142.52966324 260.02154312 -141.80908234 260.17736359 -141.06666565 260.33790588 C-137.46705875 261.08966063 -134.11693277 261.56929447 -130.4375 261.39453125 C-130.20407394 260.73548294 -129.97064789 260.07643463 -129.73014832 259.39741516 C-93.17030585 156.18478765 -93.17030585 156.18478765 -78.4375 116.39453125 C-79.21544922 116.09417969 -79.99339844 115.79382813 -80.79492188 115.484375 C-84.27312242 114.04990648 -87.09262764 111.98951178 -90.15625 109.83203125 C-92.51111263 108.34814521 -94.828801 107.34982948 -97.4375 106.39453125 C-98.283125 107.17957031 -99.12875 107.96460938 -100 108.7734375 C-110.303404 118.32174569 -110.303404 118.32174569 -114.4375 121.89453125 C-118.01101786 124.98350432 -121.47461114 128.18295338 -124.9375 131.39453125 C-129.02318731 135.18337282 -133.14143369 138.91625072 -137.35546875 142.5625 C-140.57241793 145.39317386 -143.7172068 148.30220141 -146.87084961 151.20288086 C-151.69353882 155.63690064 -156.56099669 160.01979034 -161.4375 164.39453125 C-163.10442647 165.89424253 -164.77109149 167.39424446 -166.4375 168.89453125 C-168.91252234 171.12282239 -171.38821754 173.35031965 -173.8671875 175.57421875 C-178.4578061 179.69550893 -183.02197107 183.84326913 -187.5625 188.01953125 C-191.43388264 191.57954915 -195.34697915 195.08158993 -199.3203125 198.52734375 C-202.01721977 200.90579703 -204.66571398 203.33568591 -207.3125 205.76953125 C-215.2637166 213.08105224 -223.28262125 220.31026507 -231.4375 227.39453125 C-234.4375 224.39453125 -237.4375 221.39453125 -240.4375 218.39453125 C-238.93903206 214.77051912 -236.87961507 212.76276095 -233.9375 210.20703125 C-233.0403125 209.41941406 -232.143125 208.63179687 -231.21875 207.8203125 C-230.3009375 207.01980469 -229.383125 206.21929687 -228.4375 205.39453125 C-226.76801794 203.89766539 -225.10128377 202.39772829 -223.4375 200.89453125 C-220.10416667 197.89453125 -216.77083333 194.89453125 -213.4375 191.89453125 C-212.60992187 191.14945313 -211.78234375 190.404375 -210.9296875 189.63671875 C-209.29010121 188.16160507 -207.64950345 186.68761473 -206.0078125 185.21484375 C-201.4171939 181.09355357 -196.85302893 176.94579337 -192.3125 172.76953125 C-188.44111736 169.20951335 -184.52802085 165.70747257 -180.5546875 162.26171875 C-177.32861482 159.41658454 -174.1701456 156.49820246 -171.00439453 153.58642578 C-166.18165109 149.15229497 -161.3140888 144.76934885 -156.4375 140.39453125 C-154.77057353 138.89481997 -153.10390851 137.39481804 -151.4375 135.89453125 C-148.96247766 133.66624011 -146.48678246 131.43874285 -144.0078125 129.21484375 C-139.41719297 125.09355273 -134.85308619 120.94573184 -130.3125 116.76953125 C-126.40790804 113.17986542 -122.46826421 109.63876984 -118.4609375 106.1640625 C-114.41065928 102.62202383 -110.42944962 99.00201031 -106.4375 95.39453125 C-107.23414063 93.88826172 -107.23414063 93.88826172 -108.046875 92.3515625 C-113.66652015 81.54526778 -118.6420133 70.72457514 -119.4375 58.39453125 C-119.4890625 57.61335938 -119.540625 56.8321875 -119.59375 56.02734375 C-120.29912619 36.21802903 -112.93409077 16.91006307 -99.484375 2.359375 C-71.53351198 -24.47131984 -29.24426949 -25.04871378 0 0 Z " fill="#4FB1FC" transform="translate(304.4375,28.60546875)"/>
<path d="M0 0 C6.19678313 5.35638482 12.74020957 11.94914357 13.44921875 20.5390625 C13.57615163 28.43005663 12.30642084 35.47453694 10.24609375 43.078125 C10.70757812 43.46742188 11.1690625 43.85671875 11.64453125 44.2578125 C15.6774645 47.71688964 19.51165605 51.2974404 23.24609375 55.078125 C26.78841574 58.66371199 30.42165036 62.02704162 34.25 65.30078125 C37.31413188 68.02911785 40.15091207 70.97480408 43.03125 73.89453125 C45.02268836 75.85787171 47.05911953 77.69892169 49.18359375 79.515625 C53.27108628 83.01802913 57.00802842 86.82484535 60.7890625 90.65234375 C63.58949939 93.417163 66.50113051 95.99845662 69.5078125 98.53515625 C71.24609375 100.078125 71.24609375 100.078125 73.87109375 103.078125 C74.65484375 103.738125 75.43859375 104.398125 76.24609375 105.078125 C78.25740439 104.82172563 80.25788062 104.47576763 82.24609375 104.078125 C90.31315528 103.36150786 96.16249266 103.74954355 103.125 108.08203125 C105.82665984 109.35076653 106.44260918 109.03078865 109.24609375 108.078125 C111.50766909 106.97499637 113.72024478 105.84088247 115.93359375 104.6484375 C116.58488251 104.30182571 117.23617126 103.95521393 117.90719604 103.59809875 C120.02248309 102.47072912 122.13428599 101.33699653 124.24609375 100.203125 C125.69531864 99.42947541 127.14470076 98.6561203 128.59423828 97.88305664 C137.63822208 93.05187846 146.65108271 88.16527607 155.58203125 83.12744141 C161.03503942 80.078125 161.03503942 80.078125 163.24609375 80.078125 C163.08753906 79.5109375 162.92898437 78.94375 162.765625 78.359375 C160.84355644 69.91961532 162.5503865 61.7913567 166.24609375 54.078125 C171.23580499 46.67083243 176.83551605 42.8816509 185.24609375 40.078125 C196.8354305 39.28379967 205.21585133 39.86417904 214.55859375 47.328125 C221.25434488 53.61121552 223.41528177 61.07766189 224.24609375 70.078125 C224.44867144 77.49471922 222.73587819 84.10121787 218.24609375 90.078125 C209.26885495 98.31354715 201.92465584 101.58648832 189.79296875 101.39453125 C183.19896364 100.80629952 177.82968644 98.75019029 172.99609375 94.203125 C171.63484375 93.15125 171.63484375 93.15125 170.24609375 92.078125 C164.36687206 93.26301429 159.24811564 96.78643938 154.12109375 99.765625 C144.76541733 105.1337872 135.32500389 110.31523679 125.80859375 115.390625 C125.17910828 115.72653656 124.5496228 116.06244812 123.90106201 116.40853882 C120.35133889 118.30204598 116.7996349 120.19179379 113.24609375 122.078125 C113.2917749 122.9438916 113.2917749 122.9438916 113.33837891 123.82714844 C113.58791918 132.03311923 110.9994043 138.39424159 105.828125 144.84765625 C101.44420169 148.91230224 95.62455724 150.9471768 89.7265625 151.17578125 C82.06317576 150.69314092 76.05568182 148.38875525 70.87109375 142.640625 C66.95286013 137.92342196 65.98046484 133.65797507 66.05859375 127.578125 C66.06503906 126.4746875 66.07148438 125.37125 66.078125 124.234375 C66.24609375 121.078125 66.24609375 121.078125 67.19140625 118.6328125 C67.26065538 115.39788874 66.50245349 114.88538324 64.34375 112.5546875 C63.01427761 111.25470681 61.66817528 109.97158261 60.30859375 108.703125 C59.61362793 108.03265137 58.91866211 107.36217773 58.20263672 106.67138672 C54.25890432 102.89016823 50.24184167 99.20440572 46.06640625 95.6796875 C43.04915655 93.02502575 40.28213013 90.12149179 37.4609375 87.26171875 C35.46949914 85.29837829 33.43306797 83.45732831 31.30859375 81.640625 C27.21690834 78.13462815 23.47642492 74.32350609 19.69140625 70.4921875 C16.96472575 67.80035276 14.11747483 65.30513249 11.20703125 62.81640625 C7.72836395 59.73272707 4.49286812 56.40261472 1.24609375 53.078125 C0.19421875 53.51125 0.19421875 53.51125 -0.87890625 53.953125 C-10.31393064 57.64509107 -20.8671297 59.16678692 -30.59375 55.3125 C-39.42113623 50.2682793 -44.58534859 43.58379797 -47.75390625 34.078125 C-48.72479631 23.47207288 -48.12893511 15.07650644 -41.75390625 6.078125 C-31.77506972 -5.65888749 -12.79940558 -8.93235113 0 0 Z " fill="#FCDA34" transform="translate(62.75390625,244.921875)"/>
<path d="M0 0 C13.18156464 12.31752915 21.76488635 30.37604991 22.72265625 48.41015625 C23.1696848 65.74708975 18.33171553 80.61747019 9.5625 95.39453125 C13.64338639 99.59019257 17.83842469 103.56413939 22.26953125 107.38671875 C25.03155882 109.80525737 27.73647712 112.28344501 30.4375 114.76953125 C35.7786535 119.68268891 41.16045736 124.5483258 46.5625 129.39453125 C48.22942647 130.89424253 49.89609149 132.39424446 51.5625 133.89453125 C52.3875 134.63703125 53.2125 135.37953125 54.0625 136.14453125 C61.5625 142.89453125 61.5625 142.89453125 64.0703125 145.15234375 C65.70989879 146.62745743 67.35049655 148.10144777 68.9921875 149.57421875 C73.5828061 153.69550893 78.14697107 157.84326913 82.6875 162.01953125 C85.94640494 165.01633136 89.21749549 167.99367672 92.5625 170.89453125 C96.44067013 174.25775763 100.21777811 177.72788796 103.99560547 181.20263672 C108.81834891 185.63676753 113.6859112 190.01971365 118.5625 194.39453125 C120.22942647 195.89424253 121.89609149 197.39424446 123.5625 198.89453125 C124.38105469 199.63058594 125.19960938 200.36664063 126.04296875 201.125 C127.77731186 202.68725326 129.50892979 204.25253548 131.23828125 205.8203125 C132.10839844 206.60792969 132.97851562 207.39554688 133.875 208.20703125 C134.65488281 208.91472656 135.43476563 209.62242187 136.23828125 210.3515625 C138.62131449 212.44622869 141.0702918 214.4316416 143.5625 216.39453125 C142.19879701 219.38673393 140.61341917 221.68479654 138.4375 224.14453125 C137.89867187 224.758125 137.35984375 225.37171875 136.8046875 226.00390625 C136.18980469 226.69226563 136.18980469 226.69226563 135.5625 227.39453125 C130.74220588 223.97650451 126.43261169 220.40154107 122.3203125 216.16015625 C119.96770844 213.79709617 117.45439511 211.65252645 114.9296875 209.4765625 C111.92528158 206.83407346 108.99497611 204.11631811 106.0625 201.39453125 C101.97697834 197.60551599 97.85855949 193.87280588 93.64453125 190.2265625 C90.42758207 187.39588864 87.2827932 184.48686109 84.12915039 181.58618164 C79.30646118 177.15216186 74.43900331 172.76927216 69.5625 168.39453125 C67.89557353 166.89481997 66.22890851 165.39481804 64.5625 163.89453125 C63.7375 163.15203125 62.9125 162.40953125 62.0625 161.64453125 C54.5625 154.89453125 54.5625 154.89453125 52.0546875 152.63671875 C50.41510121 151.16160507 48.77450345 149.68761473 47.1328125 148.21484375 C42.5421939 144.09355357 37.97802893 139.94579337 33.4375 135.76953125 C29.57017416 132.21324387 25.66223052 128.71371323 21.69140625 125.2734375 C18.92501404 122.83190602 16.2133582 120.33207775 13.5 117.83203125 C9.2615001 113.92727672 4.97352423 110.10380162 0.5625 106.39453125 C-3.20274613 107.74117622 -6.1084835 109.45205094 -9.3125 111.83203125 C-18.84942991 118.61011359 -29.9394469 121.75195224 -41.4375 123.39453125 C-41.7675 167.28453125 -42.0975 211.17453125 -42.4375 256.39453125 C-46.3975 256.39453125 -50.3575 256.39453125 -54.4375 256.39453125 C-54.44780746 254.73273834 -54.45811493 253.07094543 -54.46873474 251.35879517 C-54.56630861 235.73083201 -54.66896808 220.10291103 -54.77683926 204.47501564 C-54.83217118 196.43973889 -54.88565312 188.4044577 -54.93481445 180.36914062 C-54.97765668 173.36742978 -55.02393476 166.36575163 -55.07437855 159.36409128 C-55.10097919 155.65508765 -55.12583225 151.94609051 -55.14657402 148.2370491 C-55.16976515 144.10150575 -55.20062542 139.96605441 -55.23217773 135.83056641 C-55.24081093 133.9758799 -55.24081093 133.9758799 -55.24961853 132.08372498 C-55.25940735 130.96189316 -55.26919617 129.84006134 -55.27928162 128.68423462 C-55.28573417 127.70529047 -55.29218672 126.72634632 -55.2988348 125.7177372 C-55.28623479 123.36945477 -55.28623479 123.36945477 -56.4375 121.39453125 C-55.13039063 121.06582031 -55.13039063 121.06582031 -53.796875 120.73046875 C-34.58461821 115.61551727 -19.03005017 105.64798394 -8.1875 88.58203125 C-4.89501477 82.81558366 -2.64952392 76.63909435 -0.4375 70.39453125 C-2.12966781 72.08669906 -2.97383148 74.34082265 -4.0625 76.45703125 C-10.66672833 88.55434997 -19.80330793 96.2204335 -32.89453125 100.66796875 C-44.57376623 104.00489303 -58.3132838 104.11865044 -69.4453125 99.0625 C-82.97761345 91.5190372 -92.29550983 81.11430569 -97.4375 66.39453125 C-100.70391088 51.29785018 -98.55154922 36.79098814 -90.18359375 23.76953125 C-82.381957 13.15790901 -70.70460163 4.42297241 -57.4375 2.39453125 C-49.03223039 1.79656117 -41.12463519 1.4725235 -33.4375 5.39453125 C-32.4375 6.39453125 -32.4375 6.39453125 -32.1875 9.26953125 C-32.4375 12.39453125 -32.4375 12.39453125 -33.67407227 14.08251953 C-35.94425577 15.77156372 -37.10231589 15.68068842 -39.90234375 15.51171875 C-40.77914795 15.47554443 -41.65595215 15.43937012 -42.55932617 15.40209961 C-43.95308472 15.33647827 -43.95308472 15.33647827 -45.375 15.26953125 C-56.95373119 15.02677201 -64.72601591 17.04364995 -73.8125 24.51953125 C-81.48242614 31.89303512 -85.52233703 40.27565889 -85.75 50.83203125 C-85.6246425 61.8065107 -82.99903976 70.88105745 -75.71875 79.234375 C-66.31536745 88.1386054 -56.29715841 89.98740733 -43.86328125 89.703125 C-33.61470504 89.18369138 -25.58871561 83.95550265 -18.71875 76.5390625 C-14.51991426 71.0013123 -12.84195794 64.80546275 -11.17285156 58.15869141 C-9.73535661 52.59310233 -9.73535661 52.59310233 -6.4375 50.39453125 C-0.88194444 50.95008681 -0.88194444 50.95008681 0.5625 52.39453125 C1.26129488 34.14822038 -5.53198674 18.77607051 -17.0625 4.76953125 C-29.10134284 -8.19895197 -44.40587351 -13.74359709 -61.4375 -16.60546875 C-61.4375 -16.93546875 -61.4375 -17.26546875 -61.4375 -17.60546875 C-38.88064769 -21.29659004 -17.29963384 -14.81772614 0 0 Z " fill="#2A93FC" transform="translate(304.4375,28.60546875)"/>
<path d="M0 0 C3.96 1.32 7.92 2.64 12 4 C11.40078124 10.15369789 9.57282455 15.52196829 7.44921875 21.30859375 C7.08318542 22.32309601 6.7171521 23.33759827 6.34002686 24.38284302 C5.12857696 27.73662211 3.90793742 31.08698219 2.6875 34.4375 C1.83460804 36.7945657 0.9824891 39.15191125 0.13110352 41.50952148 C-1.43099878 45.8345762 -2.99464913 50.15906137 -4.56049442 54.48276234 C-8.84292852 66.31117996 -13.06974814 78.15938429 -17.29501343 90.0083313 C-18.91277746 94.54471568 -20.53212651 99.08053327 -22.1516571 103.61628723 C-22.9207549 105.77063362 -23.68956953 107.92508111 -24.45808411 110.07963562 C-26.33302598 115.33548948 -28.21076849 120.59031079 -30.09557819 125.84263325 C-31.03377437 128.4574148 -31.97083273 131.07260348 -32.90781975 133.68781853 C-33.57899172 135.55957965 -34.25183119 137.43074257 -34.92469788 139.30189514 C-35.32716232 140.42550949 -35.72962677 141.54912384 -36.14428711 142.70678711 C-36.50316513 143.70632919 -36.86204315 144.70587128 -37.23179626 145.73570251 C-38.05354689 147.75932021 -38.05354689 147.75932021 -38 149 C-36.85934082 149.23187012 -35.71868164 149.46374023 -34.54345703 149.70263672 C-30.31888428 150.56347879 -26.09641389 151.43426814 -21.87451172 152.30810547 C-20.04564476 152.68518139 -18.21621613 153.05954356 -16.38623047 153.43115234 C-13.75857193 153.96522928 -11.1330764 154.50897757 -8.5078125 155.0546875 C-7.27649094 155.301689 -7.27649094 155.301689 -6.02029419 155.55368042 C-0.22774341 156.77225659 -0.22774341 156.77225659 2 159 C1.01 162.63 0.02 166.26 -1 170 C-10.23036599 169.3485527 -19.10895464 167.40757956 -28.125 165.4375 C-29.66916245 165.10431501 -31.21343261 164.77162878 -32.7578125 164.43945312 C-36.50647436 163.63204469 -40.25361573 162.81790852 -44 162 C-44.09982178 162.80195801 -44.19964355 163.60391602 -44.30249023 164.43017578 C-45.16576859 168.84839635 -46.61482585 172.89749033 -48.16015625 177.1171875 C-48.46948593 177.97434357 -48.77881561 178.83149963 -49.09751892 179.71463013 C-50.08103751 182.43652238 -51.07165441 185.15576753 -52.0625 187.875 C-52.73289299 189.72639198 -53.40281999 191.57795276 -54.07226562 193.4296875 C-55.70945444 197.95509743 -57.35301178 202.47814776 -59 207 C-62.58063513 207 -64.47487986 206.65592475 -67.75 205.5 C-68.94882813 205.08234375 -68.94882813 205.08234375 -70.171875 204.65625 C-70.77515625 204.4396875 -71.3784375 204.223125 -72 204 C-71.34900511 198.89811033 -69.84675098 194.42927971 -68.05859375 189.64453125 C-67.77146011 188.86107834 -67.48432648 188.07762543 -67.18849182 187.27043152 C-66.27647081 184.78258978 -65.35776998 182.2973012 -64.4375 179.8125 C-63.22232619 176.52934891 -62.01362955 173.24391466 -60.80859375 169.95703125 C-60.52737167 169.20388138 -60.2461496 168.45073151 -59.95640564 167.67475891 C-58.84782233 164.65078721 -58 162.24789516 -58 159 C-59.70008965 158.64628075 -59.70008965 158.64628075 -61.43452454 158.28541565 C-72.10318747 156.06545882 -82.77145753 153.84362283 -93.43934345 151.61993504 C-98.92412748 150.47671213 -104.40904893 149.33415731 -109.89428711 148.19311523 C-115.18545326 147.09241872 -120.47625485 145.98998568 -125.76680565 144.88633537 C-127.78773231 144.46507527 -129.80879068 144.04444655 -131.82998085 143.62445259 C-134.65563876 143.03718267 -137.48082474 142.44769218 -140.3059082 141.85766602 C-141.14603958 141.68359726 -141.98617096 141.5095285 -142.85176086 141.33018494 C-145.96404723 140.67829042 -148.98040701 140.006531 -152 139 C-151.85769192 137.58297487 -151.71099254 136.1663904 -151.5625 134.75 C-151.48128906 133.96109375 -151.40007812 133.1721875 -151.31640625 132.359375 C-151.02334935 130.17411119 -150.55243725 128.13111026 -150 126 C-140.55077424 127.44062339 -131.22686421 129.3653116 -121.88319588 131.3597908 C-119.23086047 131.92564609 -116.57775897 132.48777488 -113.92442322 133.04891968 C-106.39014083 134.64288629 -98.85708954 136.24261318 -91.32495117 137.84667969 C-86.69548698 138.8323164 -82.06500688 139.81305395 -77.4338665 140.79078293 C-75.67641536 141.16286693 -73.91936612 141.53685466 -72.16273689 141.91279984 C-69.71368676 142.43685448 -67.26339825 142.95469767 -64.81274414 143.47119141 C-64.09216324 143.62701187 -63.37158234 143.78283234 -62.62916565 143.94337463 C-59.02955875 144.69512938 -55.67943277 145.17476322 -52 145 C-51.76657394 144.34095169 -51.53314789 143.68190338 -51.29264832 143.00288391 C-15.04998725 40.68569587 -15.04998725 40.68569587 0 0 Z " fill="#CFE8FE" transform="translate(226,145)"/>
<path d="M0 0 C7.41541061 4.04090253 13.27951578 9.31877746 16 17.4375 C18.73654956 27.39674593 18.84593671 36.72868294 13.8515625 45.97265625 C9.01602706 52.40983529 1.8069444 57.45319321 -6 59.4375 C-14.60816358 60.31463515 -22.42408191 59.85678556 -30 55.4375 C-31.10990918 54.51007588 -32.1965073 53.55354339 -33.25 52.5625 C-34.61125 51.510625 -34.61125 51.510625 -36 50.4375 C-41.87922169 51.62238929 -46.99797811 55.14581438 -52.125 58.125 C-61.48067642 63.4931622 -70.92108986 68.67461179 -80.4375 73.75 C-81.38172821 74.25386734 -81.38172821 74.25386734 -82.34503174 74.76791382 C-85.89475486 76.66142098 -89.44645885 78.55116879 -93 80.4375 C-100 71.17102436 -100 71.17102436 -100 68.4375 C-99.39341553 68.11177002 -98.78683105 67.78604004 -98.16186523 67.45043945 C-85.58395201 60.68787953 -73.06100491 53.84607895 -60.66577148 46.75317383 C-46.08661758 38.4375 -46.08661758 38.4375 -43 38.4375 C-43.23783203 37.58671875 -43.23783203 37.58671875 -43.48046875 36.71875 C-45.40253731 28.27899032 -43.69570725 20.1507317 -40 12.4375 C-31.38352844 -0.3537664 -14.61447993 -5.9996286 0 0 Z " fill="#2DD52D" transform="translate(269,286.5625)"/>
<path d="M0 0 C7.15075408 6.12921778 10.70979082 12.34010033 12.125 21.75 C12.54845532 31.38983592 9.9757453 39.18990688 3.75 46.5625 C-4.72941367 53.62867806 -11.09289946 56.23703836 -22.39453125 56.0703125 C-27.21265016 55.62689415 -30.75856417 54.21304338 -34.875 51.75 C-35.926875 51.151875 -36.97875 50.55375 -38.0625 49.9375 C-44.8373892 44.66814173 -48.4703466 39.30561615 -49.875 30.75 C-50.96133307 18.82715928 -49.20098201 12.53719514 -41.6875 3.5 C-30.72450917 -8.25767221 -12.98721163 -9.63218196 0 0 Z " fill="#FE8648" transform="translate(485.875,246.25)"/>
<path d="M0 0 C1 1 1 1 1.25 3.875 C1 7 1 7 -0.23657227 8.68798828 C-2.50675577 10.37703247 -3.66481589 10.28615717 -6.46484375 10.1171875 C-7.34164795 10.08101318 -8.21845215 10.04483887 -9.12182617 10.00756836 C-10.05099854 9.9638208 -10.9801709 9.92007324 -11.9375 9.875 C-23.51623119 9.63224076 -31.28851591 11.6491187 -40.375 19.125 C-48.04492614 26.49850387 -52.08483703 34.88112764 -52.3125 45.4375 C-52.1871425 56.41197945 -49.56153976 65.4865262 -42.28125 73.83984375 C-32.87786745 82.74407415 -22.85965841 84.59287608 -10.42578125 84.30859375 C-0.17720504 83.78916013 7.84878439 78.5609714 14.71875 71.14453125 C18.91758574 65.60678105 20.59554206 59.4109315 22.26464844 52.76416016 C23.70214339 47.19857108 23.70214339 47.19857108 27 45 C30.0625 45.1875 30.0625 45.1875 33 46 C35.71674521 50.07511782 35.28412559 52.62844804 34.796875 57.40234375 C31.75283654 71.14528208 23.27119364 82.71750715 11.69140625 90.4609375 C-0.65412446 97.52064592 -15.87824748 99.18187094 -29.71484375 96.19921875 C-43.61289213 91.29699805 -53.6989598 81.95270298 -60.5625 69.06640625 C-65.99169789 57.69902318 -67.1693209 43.70117806 -63.375 31.5625 C-57.21746246 15.85756104 -46.8885745 5.83202808 -31.57421875 -1.09765625 C-21.86566328 -4.60578974 -9.24519965 -4.7169386 0 0 Z " fill="#EFF1FE" transform="translate(271,34)"/>
<path d="M0 0 C3.42768661 0.58763037 5.12590397 1.7315889 7.609375 4.1328125 C8.28226562 4.77476562 8.95515625 5.41671875 9.6484375 6.078125 C10.34195312 6.75359375 11.03546875 7.4290625 11.75 8.125 C13.11849123 9.44145734 14.48828177 10.75656537 15.859375 12.0703125 C16.54257812 12.72547852 17.22578125 13.38064453 17.9296875 14.05566406 C20.59323759 16.55713965 23.34066126 18.95148366 26.10253906 21.34326172 C28.95743515 23.83596949 31.72784031 26.41610243 34.5 29 C38.58199899 32.78737956 42.69773876 36.51770645 46.91015625 40.16015625 C50.18114489 43.03984905 53.37503091 46.00354253 56.58056641 48.95556641 C59.33491097 51.48754824 62.1075121 53.99042801 64.9375 56.4375 C69.12032011 60.06144644 73.16271807 63.83255746 77.22021484 67.59521484 C80.73482029 70.84864787 84.29608667 74.03408762 87.91796875 77.16796875 C91.13491793 79.99864261 94.2797068 82.90767016 97.43334961 85.80834961 C102.25603882 90.24236939 107.12349669 94.62525909 112 99 C113.66692647 100.49971128 115.33359149 101.99971321 117 103.5 C118.22783203 104.60408203 118.22783203 104.60408203 119.48046875 105.73046875 C121.21481186 107.29272201 122.94642979 108.85800423 124.67578125 110.42578125 C125.54589844 111.21339844 126.41601562 112.00101562 127.3125 112.8125 C128.09238281 113.52019531 128.87226563 114.22789062 129.67578125 114.95703125 C132.05881449 117.05169744 134.5077918 119.03711035 137 121 C135.63629701 123.99220268 134.05091917 126.29026529 131.875 128.75 C131.33617187 129.36359375 130.79734375 129.9771875 130.2421875 130.609375 C129.62730469 131.29773438 129.62730469 131.29773438 129 132 C124.17970588 128.58197326 119.87011169 125.00700982 115.7578125 120.765625 C113.40520844 118.40256492 110.89189511 116.2579952 108.3671875 114.08203125 C105.36278158 111.43954221 102.43247611 108.72178686 99.5 106 C95.41447834 102.21098474 91.29605949 98.47827463 87.08203125 94.83203125 C83.86508207 92.00135739 80.7202932 89.09232984 77.56665039 86.19165039 C72.74396118 81.75763061 67.87650331 77.37474091 63 73 C61.33307353 71.50028872 59.66640851 70.00028679 58 68.5 C57.175 67.7575 56.35 67.015 55.5 66.25 C48 59.5 48 59.5 45.4921875 57.2421875 C43.85260121 55.76707382 42.21200345 54.29308348 40.5703125 52.8203125 C35.9796939 48.69902232 31.41552893 44.55126212 26.875 40.375 C23.00632178 36.81746901 19.09665875 33.31710425 15.125 29.875 C11.85462717 26.98937691 8.65641891 24.02533353 5.44824219 21.07104492 C1.35795147 17.31114397 -2.79147922 13.62675467 -7 10 C-5.17495091 6.07699728 -2.81729174 3.26212728 0 0 Z " fill="#CFE8FE" transform="translate(311,124)"/>
<path d="M0 0 C1.82421875 1.75 1.82421875 1.75 3.6875 4 C4.62142578 5.11375 4.62142578 5.11375 5.57421875 6.25 C6.04472656 6.8275 6.51523438 7.405 7 8 C5.42773348 12.04432412 2.54822086 14.50566362 -0.625 17.3125 C-1.16842041 17.80177979 -1.71184082 18.29105957 -2.27172852 18.79516602 C-5.75168687 21.92005818 -9.27373809 24.99603614 -12.80859375 28.05859375 C-15.74689306 30.66168601 -18.62173008 33.33088055 -21.5 36 C-25.58570879 39.78881936 -29.70393273 43.52171864 -33.91796875 47.16796875 C-37.13491793 49.99864261 -40.2797068 52.90767016 -43.43334961 55.80834961 C-48.25603882 60.24236939 -53.12349669 64.62525909 -58 69 C-59.66692647 70.49971128 -61.33359149 71.99971321 -63 73.5 C-65.47502234 75.72829114 -67.95071754 77.9557884 -70.4296875 80.1796875 C-75.0203061 84.30097768 -79.58447107 88.44873788 -84.125 92.625 C-87.99638264 96.1850179 -91.90947915 99.68705868 -95.8828125 103.1328125 C-98.57971977 105.51126578 -101.22821398 107.94115466 -103.875 110.375 C-111.8262166 117.68652099 -119.84512125 124.91573382 -128 132 C-131 129 -134 126 -137 123 C-135.50153206 119.37598787 -133.44211507 117.3682297 -130.5 114.8125 C-129.6028125 114.02488281 -128.705625 113.23726563 -127.78125 112.42578125 C-126.8634375 111.62527344 -125.945625 110.82476562 -125 110 C-123.33051794 108.50313414 -121.66378377 107.00319704 -120 105.5 C-116.66666667 102.5 -113.33333333 99.5 -110 96.5 C-109.17242187 95.75492187 -108.34484375 95.00984375 -107.4921875 94.2421875 C-105.85260121 92.76707382 -104.21200345 91.29308348 -102.5703125 89.8203125 C-97.9796939 85.69902232 -93.41552893 81.55126212 -88.875 77.375 C-85.00361736 73.8149821 -81.09052085 70.31294132 -77.1171875 66.8671875 C-73.89111482 64.02205329 -70.7326456 61.10367121 -67.56689453 58.19189453 C-62.74415109 53.75776372 -57.8765888 49.3748176 -53 45 C-51.33307353 43.50028872 -49.66640851 42.00028679 -48 40.5 C-45.52497766 38.27170886 -43.04928246 36.0442116 -40.5703125 33.8203125 C-35.97969297 29.69902148 -31.41558619 25.55120059 -26.875 21.375 C-22.96822918 17.78333105 -19.03223413 14.2337489 -15.01171875 10.76953125 C-13.45030559 9.39609404 -11.91650839 7.99123195 -10.39453125 6.57421875 C-9.50121094 5.74535156 -8.60789063 4.91648438 -7.6875 4.0625 C-6.86636719 3.29035156 -6.04523438 2.51820312 -5.19921875 1.72265625 C-3 0 -3 0 0 0 Z " fill="#CFE8FE" transform="translate(201,124)"/>
<path d="M0 0 C3.96 1.65 7.92 3.3 12 5 C10.09384153 10.93780023 7.97337171 16.64194602 5.4375 22.3359375 C5.09421158 23.11557861 4.75092316 23.89521973 4.39723206 24.69848633 C3.26865154 27.25903412 2.1343613 29.81700859 1 32.375 C0.19487523 34.19857338 -0.60988634 36.02230716 -1.41430664 37.84619141 C-3.52019485 42.61841775 -5.63083368 47.38852806 -7.74249268 52.15820312 C-9.74671247 56.68746942 -11.74631876 61.21876992 -13.74609375 65.75 C-17.28156477 73.75923189 -20.82097955 81.76671302 -24.36222839 89.77339172 C-27.2901479 96.39371179 -30.21589528 103.01498893 -33.140625 109.63671875 C-33.99422134 111.56917347 -34.84781834 113.5016279 -35.70141602 115.43408203 C-36.92235422 118.19818543 -38.14325229 120.9623065 -39.36398315 123.72650146 C-44.55986823 135.49152826 -49.7713496 147.2494968 -55 159 C-58.23655184 159 -59.78752639 158.3449153 -62.6875 157 C-63.89986328 156.443125 -63.89986328 156.443125 -65.13671875 155.875 C-65.75160156 155.58625 -66.36648438 155.2975 -67 155 C-66.4171537 150.09378611 -64.87029541 145.98892383 -62.81640625 141.54296875 C-62.48979507 140.82033844 -62.1631839 140.09770813 -61.82667542 139.35317993 C-61.11755849 137.78597063 -60.40529755 136.22018092 -59.69024658 134.65567017 C-57.73598236 130.37859522 -55.80568386 126.09068743 -53.87109375 121.8046875 C-53.46765747 120.91270157 -53.06422119 120.02071564 -52.64855957 119.10169983 C-48.40205654 109.70341307 -44.25878323 100.26077252 -40.125 90.8125 C-38.62553579 87.38908804 -37.12535064 83.9659923 -35.625 80.54296875 C-35.2495253 79.6861702 -34.8740506 78.82937164 -34.48719788 77.9466095 C-30.05229021 67.83095273 -25.59027361 57.72728173 -21.125 47.625 C-20.52735336 46.27281372 -20.52735336 46.27281372 -19.91763306 44.89331055 C-13.29855171 29.91991228 -6.66005777 14.95521954 0 0 Z " fill="#CFE8FE" transform="translate(448,296)"/>
<path d="M0 0 C5.9381426 7.37910088 7.97676127 14.6451033 7 24 C5.01410159 30.99036239 1.09694963 37.14480624 -4.89453125 41.3203125 C-12.23815945 45.21693155 -21.00585216 45.45467125 -28.91015625 43.15234375 C-35.89360052 40.04507971 -40.01504582 35.52452791 -43.0625 28.578125 C-45.81113734 20.67579264 -45.2920196 14.41986817 -41.9375 6.8125 C-38.5652071 0.50905716 -33.41455228 -3.08779327 -27 -6 C-16.87756064 -8.18327123 -8.26087569 -6.37121634 0 0 Z " fill="#64DDFE" transform="translate(395,457)"/>
<path d="M0 0 C6.65366091 3.79745525 10.03804836 10.01882912 12.5625 17.0625 C13.65258479 24.82935413 10.65244731 30.53738866 6.5625 37.0625 C2.80287586 41.76461945 -2.62852006 44.00547144 -8.4375 45.0625 C-15.05239743 45.31889137 -21.01872859 43.93471219 -26.4375 40.0625 C-31.06767017 35.73071858 -34.065416 31.44154187 -34.7734375 25.01171875 C-34.88083662 16.04389221 -33.71443226 10.80756544 -27.8125 4.0625 C-25.4375 2.0625 -25.4375 2.0625 -23.4375 2.0625 C-23.4375 1.4025 -23.4375 0.7425 -23.4375 0.0625 C-16.01775592 -3.35250236 -7.47698084 -3.28534006 0 0 Z " fill="#FE4C4C" transform="translate(163.4375,350.9375)"/>
<path d="M0 0 C3.96 0 7.92 0 12 0 C12 44.22 12 88.44 12 134 C8.04 134 4.08 134 0 134 C0 89.78 0 45.56 0 0 Z " fill="#CEE7FE" transform="translate(250,151)"/>
<path d="M0 0 C7.15075408 6.12921778 10.70979082 12.34010033 12.125 21.75 C12.54845532 31.38983592 9.9757453 39.18990688 3.75 46.5625 C-3.59052585 52.67960487 -9.20225464 56.03083166 -19.125 56.0625 C-20.34703125 56.07925781 -21.5690625 56.09601563 -22.828125 56.11328125 C-23.83359375 55.99339844 -24.8390625 55.87351562 -25.875 55.75 C-26.535 54.76 -27.195 53.77 -27.875 52.75 C-26.89660156 52.25693359 -26.89660156 52.25693359 -25.8984375 51.75390625 C-17.99047674 47.4500161 -13.98768163 42.74361113 -10.5 34.5 C-8.6667713 23.50062778 -9.47088336 15.12393776 -15.875 5.75 C-19.56812537 1.56941513 -23.76712083 -1.00751646 -28.875 -3.25 C-28.545 -3.91 -28.215 -4.57 -27.875 -5.25 C-18.32866381 -8.05774594 -7.89946226 -5.85876784 0 0 Z " fill="#F2671F" transform="translate(485.875,246.25)"/>
<path d="M0 0 C4.98006538 3.05010083 8.82822907 6.62332723 12.875 10.8125 C17.16362158 15.18183802 21.46861416 19.40520218 26.14453125 23.36328125 C29.17099557 26.03294135 31.95209943 28.94460678 34.78515625 31.81640625 C36.77659461 33.77974671 38.81302578 35.62079669 40.9375 37.4375 C45.02639016 40.94110171 48.76451264 44.74935329 52.546875 48.578125 C55.32081724 51.31673039 58.21760458 53.86239175 61.171875 56.40234375 C63.93427455 58.81649208 66.50014218 61.31265285 69 64 C69 64.66 69 65.32 69 66 C67.52295788 67.25227484 66.04172601 68.50166522 64.5078125 69.68359375 C62.73237056 71.11764091 62.73237056 71.11764091 61 74 C56.65077562 72.34264993 53.90864133 69.08846754 50.75 65.8125 C46.59872641 61.57796967 42.41436023 57.51134776 37.890625 53.671875 C34.85486135 50.98735673 32.05974551 48.06740015 29.21484375 45.18359375 C27.22340539 43.22025329 25.18697422 41.37920331 23.0625 39.5625 C18.96941697 36.0553056 15.22775296 32.24274842 11.44140625 28.41015625 C8.73783567 25.74119137 5.91340844 23.27171212 3.02734375 20.8046875 C-0.81923304 17.38056712 -4.39755425 13.6774967 -8 10 C-7.59007812 9.52949219 -7.18015625 9.05898438 -6.7578125 8.57421875 C-6.21898438 7.95160156 -5.68015625 7.32898438 -5.125 6.6875 C-4.59132813 6.07261719 -4.05765625 5.45773437 -3.5078125 4.82421875 C-1.8359553 2.86501788 -1.8359553 2.86501788 0 0 Z " fill="#CFE8FE" transform="translate(71,287)"/>
<path d="M0 0 C7.41541061 4.04090253 13.27951578 9.31877746 16 17.4375 C18.73654956 27.39674593 18.84593671 36.72868294 13.8515625 45.97265625 C9.02994389 52.39130888 1.80109949 57.49218766 -6 59.4375 C-9.54296875 59.703125 -9.54296875 59.703125 -13.1875 59.6875 C-15.00314453 59.69523437 -15.00314453 59.69523437 -16.85546875 59.703125 C-20 59.4375 -20 59.4375 -23 57.4375 C-22.43152344 57.169375 -21.86304688 56.90125 -21.27734375 56.625 C-12.57955025 52.2107609 -6.94320077 46.35485977 -3.66015625 37.07421875 C-1.11352333 26.90275589 -4.02614968 19.16491544 -8.6875 10.1875 C-12.80269134 5.29375895 -18.2827913 2.1921551 -24 -0.5625 C-17.0159651 -2.89051163 -6.87168097 -2.82100587 0 0 Z " fill="#29B933" transform="translate(269,286.5625)"/>
<path d="M0 0 C6.21216532 5.3696809 12.74858489 11.96450645 13.44921875 20.57421875 C13.57028838 28.17133798 12.41216835 34.80630313 10.24609375 42.078125 C9.58609375 42.078125 8.92609375 42.078125 8.24609375 42.078125 C7.86324219 42.94244141 7.86324219 42.94244141 7.47265625 43.82421875 C4.34968626 49.56292475 -1.03234832 54.7360603 -7.33984375 56.68359375 C-13.8861402 57.75345773 -21.91326991 58.70683718 -27.75390625 55.078125 C-27.23441406 54.83578125 -26.71492188 54.5934375 -26.1796875 54.34375 C-17.59774636 50.21934206 -13.08216853 45.6250733 -8.75390625 37.078125 C-6.38200254 30.18966214 -6.57547389 20.91489526 -9.31640625 14.203125 C-13.19938692 6.86101014 -18.32786502 1.71536969 -25.75390625 -1.921875 C-25.75390625 -2.581875 -25.75390625 -3.241875 -25.75390625 -3.921875 C-16.89700356 -6.06900293 -7.58860519 -5.29587767 0 0 Z " fill="#FCC72E" transform="translate(62.75390625,244.921875)"/>
<path d="M0 0 C3.20117188 1.06469727 3.20117188 1.06469727 5.20117188 4.06469727 C4.98016719 8.89421685 3.68582194 11.21052583 0.32739258 14.60131836 C-0.49403732 15.44173676 -1.31546722 16.28215515 -2.16178894 17.14804077 C-3.05650406 18.03577179 -3.95121918 18.92350281 -4.87304688 19.83813477 C-5.78963577 20.76187897 -6.70622467 21.68562317 -7.65058899 22.63735962 C-9.58855024 24.58717921 -11.53547938 26.52745758 -13.48901367 28.46166992 C-15.98844975 30.93819781 -18.46216278 33.43874358 -20.929492 35.94721031 C-23.29233254 38.34180351 -25.677424 40.71372496 -28.06054688 43.08813477 C-28.94514084 43.98801117 -29.8297348 44.88788757 -30.74113464 45.81503296 C-31.57832535 46.63653839 -32.41551605 47.45804382 -33.27807617 48.30444336 C-34.00786179 49.03247162 -34.7376474 49.76049988 -35.48954773 50.5105896 C-38.45897349 52.50896422 -40.28811836 52.49808005 -43.79882812 52.06469727 C-48.20614765 47.94424469 -51.07545375 41.8755325 -54.11132812 36.68969727 C-54.67400391 35.76930664 -55.23667969 34.84891602 -55.81640625 33.90063477 C-60.2741311 26.26193856 -60.2741311 26.26193856 -59.77929688 21.96313477 C-58.79882812 19.06469727 -58.79882812 19.06469727 -56.79882812 18.06469727 C-53.92382812 17.68969727 -53.92382812 17.68969727 -50.79882812 18.06469727 C-47.63477159 21.49977857 -45.35878812 25.33476728 -43.04882812 29.37719727 C-42.43523437 30.44583008 -41.82164062 31.51446289 -41.18945312 32.61547852 C-40.73054688 33.4237207 -40.27164063 34.23196289 -39.79882812 35.06469727 C-34.88917778 31.01027222 -30.40075113 26.71317757 -26.01757812 22.09985352 C-24.75171958 20.79217768 -23.48476003 19.48556689 -22.21679688 18.17993164 C-20.24485655 16.14607525 -18.27990524 14.10720535 -16.33251953 12.04980469 C-14.433386 10.0478034 -12.50977234 8.0723553 -10.58007812 6.09985352 C-10.0038269 5.47917496 -9.42757568 4.8584964 -8.8338623 4.2190094 C-5.69931097 1.06291213 -4.62117062 0.07870246 0 0 Z " fill="#EFF1FE" transform="translate(291.798828125,47.935302734375)"/>
<path d="M0 0 C5.06028724 3.90275631 8.35465285 9.66606434 9.52734375 15.94921875 C10.47156604 24.91159098 8.28311611 31.63542903 2.83984375 38.76171875 C-1.7015081 43.60732991 -6.45866303 45.68984461 -13.05859375 46.2578125 C-22.75486368 46.42774713 -22.75486368 46.42774713 -26.47265625 43.94921875 C-25.9415625 43.57410156 -25.41046875 43.19898438 -24.86328125 42.8125 C-18.60063368 38.27550897 -13.54471884 33.69693104 -11.47265625 25.94921875 C-10.58338331 18.59469118 -11.51917073 12.04052246 -15.90234375 5.96875 C-18.27952351 3.1007595 -20.3487496 1.03182318 -23.47265625 -1.05078125 C-23.14265625 -2.04078125 -22.81265625 -3.03078125 -22.47265625 -4.05078125 C-14.31198411 -6.42000865 -7.15002988 -4.14160216 0 0 Z " fill="#2DCFFC" transform="translate(392.47265625,455.05078125)"/>
<path d="M0 0 C2.19549682 3.29324523 4.17811188 6.48187121 6 10 C4.70371681 13.88884956 3.42490921 14.13248538 -0.15234375 16.00390625 C-1.2304834 16.57496094 -2.30862305 17.14601563 -3.41943359 17.734375 C-4.58039551 18.33765625 -5.74135742 18.9409375 -6.9375 19.5625 C-8.7276319 20.50572667 -10.51599204 21.45225619 -12.30432129 22.39889526 C-13.50123627 23.03212122 -14.69874844 23.66421964 -15.89685059 24.29519653 C-20.93509233 26.95113728 -25.91254756 29.70578447 -30.875 32.5 C-37.48839907 36.20784013 -44.1690874 39.70508922 -51 43 C-51.81567174 41.56429734 -52.62742093 40.12636566 -53.4375 38.6875 C-54.11619141 37.48673828 -54.11619141 37.48673828 -54.80859375 36.26171875 C-56 34 -56 34 -57 31 C-56.39341553 30.67427002 -55.78683105 30.34854004 -55.16186523 30.01293945 C-42.64153797 23.28134082 -30.1731134 16.47628397 -17.84155273 9.40356445 C-11.98872813 6.06221907 -6.06000249 2.94925559 0 0 Z " fill="#CEE8FE" transform="translate(226,324)"/>
<path d="M0 0 C8.6641584 -0.61110835 15.93420746 -0.53252833 23 5 C27.76821762 10.4819633 31.64370506 17.16329576 31.4453125 24.6171875 C30.27465224 30.88124678 26.90458336 37.70217084 22.1875 42.0625 C14.649544 46.64439482 8.67225152 47.50270747 0 46 C2.82107488 43.08195067 5.91569229 40.56850001 9.0625 38.01171875 C13.33871423 33.57169792 14.44610291 29.1749486 14.5 23.125 C14.35277368 16.77419176 13.35082869 12.66807662 9 8 C7.07501402 6.17126332 5.12232615 4.61481337 3 3 C1.98712859 2.01303926 0.98386225 1.01588143 0 0 Z " fill="#E8343D" transform="translate(145,349)"/>
<path d="M0 0 C0.66 0.33 1.32 0.66 2 1 C-2.95 5.95 -7.9 10.9 -13 16 C-13 11.08924079 -9.30469813 8.39044878 -6 5 C-4.05397986 3.23549584 -2.07285289 1.6178364 0 0 Z " fill="#38B0FC" transform="translate(213,24)"/>
</svg>
