<?xml version="1.0" encoding="UTF-8"?>
<svg version="1.1" xmlns="http://www.w3.org/2000/svg" width="512" height="512">
<path d="M0 0 C0.63921387 0.268125 1.27842773 0.53625 1.93701172 0.8125 C11.2338188 4.80377519 19.18293493 10.11176645 27.27978516 16.1328125 C47.18275435 30.84463466 68.31006346 39.15573741 93.40136719 35.66601562 C102.63723752 33.86687297 111.50880489 30.49870399 120.39404297 27.4765625 C121.65852585 27.04686676 122.92301156 26.61717936 124.1875 26.1875 C124.8198053 25.97206543 125.4521106 25.75663086 126.10357666 25.53466797 C168.86655931 11.02051584 223.95088835 -3.58477788 266.66796875 17.3046875 C280.54757241 24.92233044 288.49505414 36.84943138 292.875 51.8125 C302.1988765 91.05286369 283.7429445 133.50556629 267 168 C266.11685894 169.85791678 265.23403332 171.71598353 264.3515625 173.57421875 C257.12600416 188.58229706 248.62529047 202.767806 240 217 C238.86701024 218.87150105 237.73537923 220.74382574 236.60546875 222.6171875 C236.13391357 223.39690918 235.6623584 224.17663086 235.17651367 224.97998047 C231.51496112 231.26669677 230.98284769 237.86193115 232 245 C235.95720308 254.92821414 243.84632803 261.32358121 252.1875 267.5 C253.09725586 268.18739258 253.09725586 268.18739258 254.02539062 268.88867188 C257.3224546 271.31764859 257.3224546 271.31764859 261.25 271.9765625 C263.26374577 270.85282044 264.36765534 269.66544151 265.8125 267.875 C267.33984375 266.234375 267.33984375 266.234375 269 265 C272.875 265.125 272.875 265.125 276 266 C277.58205603 271.96313425 277.58205603 271.96313425 275.92456055 274.91577148 C275.45832275 275.51977783 274.99208496 276.12378418 274.51171875 276.74609375 C274.04596436 277.36025146 273.58020996 277.97440918 273.1003418 278.60717773 C272.737229 279.06680908 272.37411621 279.52644043 272 280 C272.65895264 280.43231934 273.31790527 280.86463867 273.99682617 281.31005859 C310.40528084 305.24751286 342.35051512 330.24361947 351.61376953 374.93212891 C352.79232604 381.24209961 353.43683171 387.61026492 354 394 C354.11214844 395.22203125 354.22429687 396.4440625 354.33984375 397.703125 C356.58597565 426.1336164 356.70272048 459.17096183 338.7265625 483.015625 C336.57642557 485.46663433 334.35996538 487.75200378 332 490 C331.43796875 490.56976563 330.8759375 491.13953125 330.296875 491.7265625 C318.1601356 503.21522358 299.28253893 507.06123424 283.12890625 507.23828125 C282.38398926 507.24825638 281.63907227 507.25823151 280.87158203 507.26850891 C260.60875449 507.48239257 241.02200433 506.1743869 221 503 C219.32290955 502.73488617 219.32290955 502.73488617 217.61193848 502.4644165 C213.7228238 501.84887363 209.834002 501.231503 205.9453125 500.61328125 C205.26608923 500.50536507 204.58686596 500.39744888 203.88706017 500.28626251 C196.96695756 499.18623629 190.04772118 498.08199491 183.13372707 496.94412708 C134.74899769 488.98700045 87.58377543 483.25051676 40.90625 501.546875 C32.59719408 504.72998016 22.70700406 505.6327525 14.078125 503.1640625 C4.14231679 498.56643696 -3.26030333 490.05135046 -7.19140625 479.93359375 C-10 471.80139373 -10 471.80139373 -10 468 C-11.63705147 468.00999275 -11.63705147 468.00999275 -13.30717468 468.02018738 C-23.59217056 468.08100188 -33.87712995 468.12597431 -44.16226482 468.15543652 C-49.44996827 468.17109253 -54.73752657 468.1923298 -60.02514648 468.22631836 C-65.1279779 468.25891385 -70.23066969 468.2768535 -75.33359718 468.28463173 C-77.28045665 468.29017488 -79.22730847 468.30099925 -81.17410851 468.31719017 C-83.90098969 468.33896687 -86.6272939 468.34196681 -89.35424805 468.34057617 C-90.56158096 468.35675491 -90.56158096 468.35675491 -91.79330444 468.3732605 C-96.35946406 468.34806267 -99.39194497 467.88968628 -103 465 C-103.59594727 463.07055664 -103.59594727 463.07055664 -103.56640625 460.91015625 C-103.57736328 460.12576172 -103.58832031 459.34136719 -103.59960938 458.53320312 C-103.58124023 457.31020508 -103.58124023 457.31020508 -103.5625 456.0625 C-103.5458427 454.44930422 -103.54655605 452.8358159 -103.56640625 451.22265625 C-103.55009155 450.15156616 -103.55009155 450.15156616 -103.53344727 449.05883789 C-103.8187047 446.80447706 -103.8187047 446.80447706 -105.99581909 445.41110229 C-108.86789466 441.95589126 -108.56765932 438.6588804 -108.53344727 434.36352539 C-108.54206284 433.4931514 -108.55067841 432.6227774 -108.55955505 431.72602844 C-108.58225319 428.84960164 -108.57546888 425.97414612 -108.56640625 423.09765625 C-108.57164037 421.09752614 -108.57791607 419.09739851 -108.58518982 417.09727478 C-108.59560132 412.90498237 -108.5910221 408.71302923 -108.57641602 404.52075195 C-108.5592328 399.14911705 -108.58271402 393.77855224 -108.61790562 388.40703678 C-108.63987056 384.27629003 -108.63844021 380.14579964 -108.6301403 376.01501274 C-108.62932018 374.03467066 -108.63619522 372.05430987 -108.65091133 370.07402229 C-108.66833921 367.3039699 -108.6538296 364.53584414 -108.63110352 361.76586914 C-108.64279572 360.94856323 -108.65448792 360.13125732 -108.66653442 359.28918457 C-108.59513052 355.00986614 -108.37711745 353.46629118 -105.58555603 350.01463318 C-102.03613021 347.24896462 -100.41537772 346.87692312 -95.9921875 346.90234375 C-95.00605469 346.90556641 -94.01992187 346.90878906 -93.00390625 346.91210938 C-91.97136719 346.92048828 -90.93882813 346.92886719 -89.875 346.9375 C-88.31458984 346.94426758 -88.31458984 346.94426758 -86.72265625 346.95117188 C-84.14838038 346.96298048 -81.57421854 346.97944925 -79 347 C-79.01047363 345.89487061 -79.02094727 344.78974121 -79.03173828 343.65112305 C-79.06792407 339.55301144 -79.09089529 335.45491397 -79.10986328 331.35668945 C-79.11992411 329.58257676 -79.13357422 327.80848065 -79.15087891 326.03442383 C-79.17512378 323.48514716 -79.18648218 320.93608963 -79.1953125 318.38671875 C-79.20563507 317.59287277 -79.21595764 316.79902679 -79.22659302 315.98112488 C-79.2273811 312.11776957 -79.19440369 310.29160554 -77 307 C-75.16500854 306.60127258 -75.16500854 306.60127258 -72.91748047 306.56762695 C-72.07675995 306.54783279 -71.23603943 306.52803864 -70.36984253 306.50764465 C-69.00727829 306.49805977 -69.00727829 306.49805977 -67.6171875 306.48828125 C-66.22308151 306.46135445 -66.22308151 306.46135445 -64.80081177 306.43388367 C-61.82558767 306.37960152 -58.85052557 306.3458278 -55.875 306.3125 C-53.86065444 306.27934271 -51.84633032 306.24485456 -49.83203125 306.20898438 C-44.88813744 306.12386485 -39.94429318 306.05713939 -35 306 C-44.52284455 301.66859726 -53.98457669 298.29989938 -64.0625 295.4375 C-88.58681274 288.41799625 -109.86089184 279.76371136 -123.04248047 256.734375 C-147.20935054 212.96042167 -135.11148269 147.47354156 -122.03051758 101.8371582 C-119.11807054 92.05241253 -115.90792746 82.43299831 -112 73 C-111.66387695 72.18772949 -111.32775391 71.37545898 -110.98144531 70.53857422 C-103.71204884 53.22304475 -94.89698469 37.54307411 -83 23 C-82.48050781 22.32710937 -81.96101563 21.65421875 -81.42578125 20.9609375 C-61.99837889 -3.42073079 -28.51319455 -12.33323518 0 0 Z M-68 318 C-68 322.29 -68 326.58 -68 331 C-49.19 331 -30.38 331 -11 331 C-13.21247605 323.65417929 -13.21247605 323.65417929 -18 318 C-21.81744236 317.03400191 -25.50949303 317.18390894 -29.42578125 317.31640625 C-30.52850876 317.32631088 -31.63123627 317.33621552 -32.76737976 317.34642029 C-36.28378209 317.38555458 -39.79704395 317.47338253 -43.3125 317.5625 C-45.69852258 317.59761474 -48.08459416 317.62955345 -50.47070312 317.65820312 C-56.31500907 317.73531505 -62.15697244 317.85609864 -68 318 Z M-68 342 C-68 343.65 -68 345.3 -68 347 C-67.17757812 347.02835937 -66.35515625 347.05671875 -65.5078125 347.0859375 C-63.83332031 347.22902344 -63.83332031 347.22902344 -62.125 347.375 C-61.03445312 347.44460938 -59.94390625 347.51421875 -58.8203125 347.5859375 C-54.80031935 348.46104525 -53.32324877 350.94824305 -50.8125 354.0625 C-46.71726091 358.39703593 -43.83672436 359.63810173 -38.06808472 359.95498657 C-33.6599336 359.99190961 -29.27737 359.83535486 -24.875 359.625 C-23.04178858 359.57476171 -21.20844428 359.52914796 -19.375 359.48828125 C-14.91334787 359.37885004 -10.45815768 359.20677911 -6 359 C-6.14021805 356.35375716 -6.28689776 353.70815422 -6.4375 351.0625 C-6.47681641 350.30775391 -6.51613281 349.55300781 -6.55664062 348.77539062 C-6.44038024 345.08055813 -6.44038024 345.08055813 -8 342 C-9.8718094 341.90613619 -11.7471806 341.88256196 -13.62133789 341.88647461 C-15.42309227 341.88658791 -15.42309227 341.88658791 -17.26124573 341.88670349 C-19.22214394 341.89444542 -19.22214394 341.89444542 -21.22265625 341.90234375 C-22.56644132 341.90420802 -23.91022707 341.90563188 -25.25401306 341.90663147 C-28.79682277 341.91045598 -32.3395917 341.92028568 -35.88238525 341.93133545 C-39.49515227 341.94155101 -43.10792584 341.9461294 -46.72070312 341.95117188 C-53.8138188 341.96190802 -60.90690674 341.97898364 -68 342 Z " fill="#E2E2FE" transform="translate(146,5)"/>
<path d="M0 0 C1.55817553 1.31400263 3.10128609 2.64618693 4.625 4 C5.26050781 4.56460938 5.89601562 5.12921875 6.55078125 5.7109375 C21.02080185 19.37885053 29.20129119 39.2303567 30.01928711 58.94848633 C30.43136083 79.70349876 22.68015829 99.72805239 8.625 115 C-2.20028943 126.25486441 -15.92207655 134.90941531 -31.375 138 C-31.375 158.46 -31.375 178.92 -31.375 200 C17.465 200 66.305 200 116.625 200 C116.66625 183.70625 116.7075 167.4125 116.75 150.625 C116.76820801 145.47471191 116.78641602 140.32442383 116.80517578 135.01806641 C116.81186345 130.41301098 116.81186345 130.41301098 116.81588745 125.80795288 C116.81896445 123.75219864 116.82601051 121.69644808 116.83615112 119.64071655 C116.8507229 116.53206075 116.85281428 113.42362608 116.85205078 110.31494141 C116.859247 109.39466974 116.86644321 108.47439808 116.8738575 107.5262394 C116.86972501 106.27522218 116.86972501 106.27522218 116.86550903 104.99893188 C116.86735262 104.27071543 116.86919621 103.54249897 116.87109566 102.79221535 C116.774068 100.74617432 116.774068 100.74617432 114.625 99 C111.44043533 98.68055527 111.44043533 98.68055527 107.63671875 98.71289062 C106.91787506 98.70605759 106.19903137 98.69922455 105.45840454 98.69218445 C103.8956923 98.67858198 102.33293535 98.66953799 100.77017212 98.66447449 C98.29934047 98.65620596 95.82888211 98.63572135 93.3581543 98.61193848 C88.11382465 98.5636505 82.869458 98.5307456 77.625 98.5 C71.54933009 98.46438142 65.47384255 98.42254132 59.39834595 98.36405945 C56.95979441 98.343934 54.52138112 98.33566015 52.08276367 98.32775879 C50.59293102 98.31479069 49.10310303 98.30127102 47.61328125 98.28710938 C46.30915283 98.27981812 45.00502441 98.27252686 43.66137695 98.26501465 C40.625 98 40.625 98 38.625 96 C38.2767405 93.28357588 38.17332612 91.67911758 39.71235657 89.36509705 C42.60226007 87.3025073 45.01943943 87.61097076 48.53979492 87.59594727 C49.23939331 87.58908401 49.9389917 87.58222076 50.65979004 87.57514954 C52.97522229 87.55683383 55.28997949 87.56072783 57.60546875 87.56640625 C59.21869629 87.56184446 60.83192188 87.55653889 62.44514465 87.55052185 C65.83045326 87.54157973 69.21552616 87.54402362 72.60083008 87.55395508 C76.9239736 87.56540591 81.24629559 87.54529947 85.56933117 87.51603794 C88.90410988 87.49761706 92.23869426 87.49798074 95.57351112 87.50367546 C97.1662034 87.50382817 98.75890927 87.49782529 100.35155296 87.48538399 C115.88630965 87.38119263 115.88630965 87.38119263 122.625 92 C127.61483871 97.37367245 127.78108211 101.15857579 127.80200195 108.27978516 C127.80857315 109.24258392 127.81514435 110.20538269 127.82191467 111.19735718 C127.84167933 114.39459303 127.85331905 117.59178178 127.86328125 120.7890625 C127.86735678 121.88049938 127.8714323 122.97193626 127.87563133 124.09644699 C127.89650836 129.8763078 127.91080143 135.65614477 127.92016602 141.43603516 C127.931217 147.40133577 127.96559741 153.36626197 128.00533772 159.33143044 C128.03151289 163.92118005 128.03985882 168.51084073 128.04344749 173.10065842 C128.04831328 175.29903051 128.059927 177.49739864 128.07848549 179.69569778 C128.10288911 182.77871346 128.10190905 185.86076453 128.0949707 188.94384766 C128.11418579 190.29860199 128.11418579 190.29860199 128.13378906 191.6807251 C128.085676 197.56698693 127.01133859 202.10680848 123.625 207 C117.31410755 212.54287132 109.7246746 211.51226642 101.72265625 211.390625 C100.27535284 211.38315469 98.82803923 211.37746549 97.38072205 211.37347412 C93.59113106 211.35827961 89.80216376 211.31905289 86.01281738 211.2746582 C81.45568478 211.22633332 76.89834238 211.20814189 72.34102631 211.18484497 C65.43525186 211.14619636 58.53084297 211.06950247 51.625 211 C51.625 224.86 51.625 238.72 51.625 253 C57.21348877 252.97905273 62.80197754 252.95810547 68.55981445 252.93652344 C86.98403817 252.87036861 105.40826643 252.82590722 123.83257771 252.79275131 C135.00783138 252.77210703 146.18297272 252.7439508 157.3581543 252.69824219 C167.09598287 252.65843153 176.83373012 252.63258078 186.57163781 252.62364602 C191.73004896 252.61842148 196.88822738 252.60610327 202.0465641 252.57707977 C206.89826638 252.55000181 211.74963925 252.54153952 216.60140991 252.54756927 C218.38526891 252.54646561 220.16913853 252.53846647 221.95293236 252.5231781 C224.38267115 252.50336883 226.81115512 252.50802681 229.24092102 252.51898193 C229.95200793 252.50733057 230.66309484 252.4956792 231.39572984 252.48367476 C234.61541996 252.52310002 236.20735037 252.59373396 238.56395721 254.8861084 C239.82449081 257.39744103 239.98771774 259.05575238 239.96557617 261.86035156 C239.96534958 262.82104553 239.96512299 263.7817395 239.96488953 264.77154541 C239.94940567 265.80084167 239.93392181 266.83013794 239.91796875 267.890625 C239.91372391 268.95037537 239.90947906 270.01012573 239.90510559 271.10198975 C239.8883203 274.48491887 239.85066755 277.86725109 239.8125 281.25 C239.79745301 283.54426223 239.78376463 285.8385338 239.77148438 288.1328125 C239.73841728 293.7554118 239.68821903 299.37766325 239.625 305 C240.22973145 304.97905273 240.83446289 304.95810547 241.45751953 304.93652344 C244.22150771 304.85291055 246.98522913 304.80119946 249.75 304.75 C250.70132812 304.71648437 251.65265625 304.68296875 252.6328125 304.6484375 C258.49134689 304.56706897 262.04998029 304.93656397 266.625 309 C269.11456141 312.73434211 268.88396652 314.68232127 268.8996582 319.14599609 C268.9073246 320.23188271 268.9073246 320.23188271 268.91514587 321.33970642 C268.92905294 323.73436742 268.92808408 326.1287409 268.92578125 328.5234375 C268.92966804 330.18869127 268.93400267 331.85394406 268.93876648 333.51919556 C268.94623142 337.0112021 268.94593579 340.50310756 268.94067383 343.99511719 C268.93488375 348.46638009 268.9517975 352.93722814 268.9750185 357.40842247 C268.98976454 360.84856581 268.99062628 364.2886095 268.98750877 367.72877884 C268.98802171 369.376978 268.99325434 371.02518278 269.00332069 372.67335129 C269.01568268 374.98091149 269.00889508 377.28766714 268.99731445 379.59521484 C268.99794388 380.90743011 268.9985733 382.21964539 268.9992218 383.57162476 C268.59625303 387.26336097 267.92998915 389.11370702 265.625 392 C262.57580772 393.89454682 260.22755487 394.25781163 256.66665649 394.28761292 C255.66854446 394.30047836 254.67043243 394.31334381 253.64207458 394.32659912 C252.55314407 394.33040588 251.46421356 394.33421265 250.34228516 394.33813477 C249.19066391 394.34967087 248.03904266 394.36120697 246.8525238 394.37309265 C243.03968969 394.40742723 239.22701733 394.42590535 235.4140625 394.44140625 C234.11234478 394.44830915 232.81062706 394.45521206 231.46946335 394.46232414 C225.29289136 394.49447209 219.11639628 394.51893362 212.93975317 394.531138 C205.81760983 394.54539559 198.69645696 394.58928257 191.57464182 394.65863949 C186.0636711 394.71045298 180.55298184 394.73531346 175.04177129 394.73996013 C171.75251304 394.743355 168.4644851 394.76158706 165.17543411 394.80124092 C161.50500194 394.84258042 157.83708783 394.83987263 154.16650391 394.82641602 C153.08162186 394.84844086 151.99673981 394.8704657 150.87898254 394.89315796 C143.86542639 394.80572556 143.86542639 394.80572556 140.60659504 392.68893433 C137.08850386 389.07515898 135.93147708 385.70742565 135.84515381 380.72692871 C135.86201233 379.95578735 135.87887085 379.184646 135.89624023 378.39013672 C135.8905452 377.55833893 135.88485016 376.72654114 135.87898254 375.86953735 C135.86792922 373.13870529 135.89985743 370.41030413 135.93359375 367.6796875 C135.93717333 365.77353191 135.93852775 363.86737096 135.9377594 361.96121216 C135.94244157 357.97494159 135.96721472 353.98948405 136.00756836 350.00341797 C136.05860698 344.89772187 136.07000871 339.79291592 136.06773281 334.68699455 C136.06854898 330.75439989 136.08500828 326.82199923 136.10673714 322.88946915 C136.11627161 321.00684195 136.12219339 319.12419284 136.12441826 317.24154282 C136.13093292 314.61100641 136.15721208 311.9814084 136.18920898 309.35107422 C136.18784943 308.5758844 136.18648987 307.80069458 136.18508911 307.00201416 C136.2650321 302.5011074 136.81339315 299.56146687 139.625 296 C142.73546244 293.92635837 143.51465987 293.73705657 147.0612793 293.66186523 C147.95618576 293.63942245 148.85109222 293.61697968 149.77311707 293.59385681 C150.73873062 293.58222 151.70434418 293.57058319 152.69921875 293.55859375 C153.69701859 293.54482193 154.69481842 293.53105011 155.72285461 293.51686096 C157.83690847 293.49357609 159.95103594 293.47631724 162.06518555 293.46459961 C165.28377333 293.43773973 168.49904076 293.36285902 171.71679688 293.28710938 C173.77341543 293.2704456 175.83005993 293.2566814 177.88671875 293.24609375 C178.84221115 293.21623886 179.79770355 293.18638397 180.78215027 293.15562439 C187.1992364 293.19738709 190.40556818 294.66857812 194.95954895 299.20228577 C195.5091478 299.79553146 196.05874664 300.38877716 196.625 301 C197.19252487 301.52883286 197.76004974 302.05766571 198.34477234 302.6025238 C199.625 304 199.625 304 199.625 306 C209.525 306 219.425 306 229.625 306 C229.625 291.81 229.625 277.62 229.625 263 C170.885 263 112.145 263 51.625 263 C51.625 276.86 51.625 290.72 51.625 305 C55.38132812 304.95359375 59.13765625 304.9071875 63.0078125 304.859375 C66.65167897 304.82816714 70.29553046 304.80388621 73.93945312 304.78027344 C76.46914347 304.76017595 78.99878746 304.73289332 81.52832031 304.69824219 C85.16743417 304.64964444 88.805933 304.62701188 92.4453125 304.609375 C93.57365509 304.58872986 94.70199768 304.56808472 95.86453247 304.54681396 C102.09050516 304.5450405 105.94718835 304.71933369 110.625 309 C113.11456141 312.73434211 112.88396652 314.68232127 112.8996582 319.14599609 C112.9073246 320.23188271 112.9073246 320.23188271 112.91514587 321.33970642 C112.92905294 323.73436742 112.92808408 326.1287409 112.92578125 328.5234375 C112.92966804 330.18869127 112.93400267 331.85394406 112.93876648 333.51919556 C112.94623142 337.0112021 112.94593579 340.50310756 112.94067383 343.99511719 C112.93488375 348.46638009 112.9517975 352.93722814 112.9750185 357.40842247 C112.98976454 360.84856581 112.99062628 364.2886095 112.98750877 367.72877884 C112.98802171 369.376978 112.99325434 371.02518278 113.00332069 372.67335129 C113.01568268 374.98091149 113.00889508 377.28766714 112.99731445 379.59521484 C112.99794388 380.90743011 112.9985733 382.21964539 112.9992218 383.57162476 C112.59625303 387.26336097 111.92998915 389.11370702 109.625 392 C106.57108801 393.89935224 104.2270734 394.25502889 100.65992737 394.27415466 C99.66037018 394.28412979 98.66081299 394.29410492 97.63096619 394.30438232 C95.99521385 394.30537933 95.99521385 394.30537933 94.32641602 394.30639648 C93.17318848 394.31472 92.01996094 394.32304352 90.83178711 394.33161926 C87.01412598 394.35574365 83.19663555 394.3644938 79.37890625 394.37109375 C77.39829579 394.37779214 75.41768532 394.38449271 73.43707603 394.39152867 C67.20991541 394.4129896 60.98280926 394.42233317 54.75561523 394.42553711 C48.3354666 394.42917394 41.91579555 394.45908235 35.49579293 394.50094169 C29.97973958 394.53564413 24.46384457 394.55108551 18.9476828 394.55178314 C15.65479466 394.55257585 12.36250376 394.56367825 9.06970406 394.58978081 C5.39703653 394.6165806 1.72569328 394.61190267 -1.94702148 394.59936523 C-3.57973747 394.62161667 -3.57973747 394.62161667 -5.24543762 394.64431763 C-12.62716958 394.57241595 -12.62716958 394.57241595 -16.52674866 391.58753967 C-20.53415981 385.97719053 -19.56102144 379.93946814 -19.56030273 373.28710938 C-19.56249143 371.00892523 -19.58065804 368.73122357 -19.59960938 366.453125 C-19.60254293 365.01041833 -19.60452798 363.56770935 -19.60546875 362.125 C-19.60957764 360.80757813 -19.61368652 359.49015625 -19.61791992 358.1328125 C-19.375 355 -19.375 355 -17.375 353 C-14.375 352.75 -14.375 352.75 -11.375 353 C-4.05303912 360.32196088 -9.375 373.64518362 -9.375 384 C27.585 384 64.545 384 102.625 384 C102.625 361.56 102.625 339.12 102.625 316 C82.81984891 316.15815684 82.81984891 316.15815684 63.01513672 316.36035156 C60.52832729 316.37203636 58.04151021 316.38222868 55.5546875 316.390625 C54.26828369 316.41108887 52.98187988 316.43155273 51.65649414 316.45263672 C40.26259934 316.45708659 40.26259934 316.45708659 35.625 312 C34.70798611 310.79193998 33.81798639 309.56257586 32.96484375 308.30859375 C28.52439304 303.73125053 23.09489008 304.16826125 17.09262085 304.04598999 C14.45709398 304.02900782 11.82300143 304.0449348 9.1875 304.0625 C7.38864608 304.0493815 5.58981207 304.03313689 3.79101562 304.01367188 C-0.5982528 303.9729552 -4.98563431 303.97493242 -9.375 304 C-9.35143433 305.20329956 -9.35143433 305.20329956 -9.32739258 306.4309082 C-9.26511417 310.05803404 -9.22603136 313.68504749 -9.1875 317.3125 C-9.16236328 318.57513672 -9.13722656 319.83777344 -9.11132812 321.13867188 C-9.09682617 322.95141602 -9.09682617 322.95141602 -9.08203125 324.80078125 C-9.0663208 325.91622314 -9.05061035 327.03166504 -9.03442383 328.1809082 C-9.375 331 -9.375 331 -10.7331543 332.89916992 C-12.375 334 -12.375 334 -14.9375 333.8125 C-17.375 333 -17.375 333 -19.375 331 C-19.79840499 326.63750544 -19.74659134 322.25985923 -19.74560547 317.87915039 C-19.74996343 315.70573687 -19.78622919 313.53438001 -19.82421875 311.36132812 C-19.83009015 309.97396526 -19.83405738 308.58659277 -19.8359375 307.19921875 C-19.84415527 305.93940186 -19.85237305 304.67958496 -19.86083984 303.3815918 C-19.29306937 299.42973812 -18.15770946 297.80442406 -15.375 295 C-13.05949214 293.84224607 -11.63216119 293.83719762 -9.05224609 293.77539062 C-8.1572641 293.75287231 -7.2622821 293.730354 -6.34017944 293.70715332 C-2.23029055 293.63603662 1.87941721 293.578587 5.98974609 293.54003906 C8.15273229 293.51347551 10.31559288 293.47259858 12.47802734 293.41699219 C15.60305784 293.33758685 18.72566897 293.30468112 21.8515625 293.28125 C22.81019196 293.24825806 23.76882141 293.21526611 24.75650024 293.18127441 C33.09520216 293.20590082 33.52466962 294.78721092 40.625 301 C40.955 288.46 41.285 275.92 41.625 263 C38.03963379 263.03029297 34.45426758 263.06058594 30.76025391 263.09179688 C18.68664382 263.19349598 6.61301551 263.29286719 -5.46062279 263.39115143 C-12.75468267 263.45058126 -20.04873515 263.51072502 -27.34277344 263.57275391 C-63.35411301 263.8785542 -99.36197254 264.0808897 -135.375 264 C-135.375 268.29 -135.375 272.58 -135.375 277 C-116.235 277 -97.095 277 -77.375 277 C-75.375 283 -75.375 283 -75.375 288 C-95.175 288 -114.975 288 -135.375 288 C-135.375 289.65 -135.375 291.3 -135.375 293 C-134.71113281 292.96519531 -134.04726562 292.93039062 -133.36328125 292.89453125 C-124.38943789 292.61942072 -124.38943789 292.61942072 -120.375 296 C-119.63608017 296.94797455 -119.63608017 296.94797455 -118.88223267 297.9151001 C-116.02157791 301.36861058 -113.78986972 303.66471418 -109.34246826 304.71862793 C-105.69322824 304.95387571 -102.11663936 304.95108321 -98.4609375 304.859375 C-97.11911198 304.85673152 -95.77727267 304.85820836 -94.43545532 304.86358643 C-90.92219556 304.86933416 -87.410971 304.83109927 -83.89813232 304.77972412 C-78.2708222 304.70185795 -72.64364793 304.67827109 -67.0158577 304.6798172 C-65.06040224 304.67202235 -63.10512408 304.6360554 -61.1499939 304.59954834 C-49.91775418 304.54218449 -49.91775418 304.54218449 -45.375 309 C-42.97913103 312.60785623 -43.10967969 315.89439673 -43.08447266 320.15185547 C-43.07775543 320.86456604 -43.07103821 321.57727661 -43.06411743 322.31158447 C-43.04514738 324.66352342 -43.04121376 327.01517685 -43.0390625 329.3671875 C-43.03263379 331.00619625 -43.02590537 332.64520386 -43.01889038 334.28421021 C-43.00692006 337.71896016 -43.00320929 341.15360956 -43.00439453 344.58837891 C-43.00459769 348.98227093 -42.97729825 353.37551594 -42.94285011 357.76925468 C-42.92057471 361.15454042 -42.91655718 364.53967061 -42.91761398 367.92502213 C-42.91525888 369.54449823 -42.90644042 371.16397869 -42.89094925 372.78338242 C-42.87127563 375.05249638 -42.87713134 377.3202174 -42.88916016 379.58935547 C-42.88631012 380.87856903 -42.88346008 382.16778259 -42.88052368 383.49606323 C-43.45882211 387.59397659 -44.92152662 389.72102432 -47.375 393 C-47.94625251 395.14499002 -47.94625251 395.14499002 -47.87890625 397.19921875 C-47.89759766 397.93333984 -47.91628906 398.66746094 -47.93554688 399.42382812 C-47.93651367 400.5443457 -47.93651367 400.5443457 -47.9375 401.6875 C-47.98375864 409.46556047 -47.98375864 409.46556047 -49.62397766 411.70611572 C-51.81174147 413.32272171 -53.05496607 413.4181238 -55.76245117 413.50292969 C-56.69084305 413.53719055 -57.61923492 413.57145142 -58.57575989 413.60675049 C-59.61681381 413.62824158 -60.65786774 413.64973267 -61.73046875 413.671875 C-62.8522905 413.70448425 -63.97411224 413.73709351 -65.12992859 413.77069092 C-82.30111736 414.20718985 -99.48374325 414.22397093 -116.65942383 414.24023438 C-121.73643993 414.24580682 -126.81319958 414.27008981 -131.89013386 414.29820633 C-135.83376347 414.31678729 -139.77732906 414.32203498 -143.72099876 414.32357025 C-145.59528252 414.32658705 -147.46956542 414.33458256 -149.34380531 414.34775543 C-151.94336143 414.36478574 -154.54225667 414.36294801 -157.1418457 414.35644531 C-157.90588715 414.3656601 -158.66992859 414.37487488 -159.4571228 414.3843689 C-163.92474618 414.3493128 -166.83677546 413.79589618 -170.375 411 C-170.97094727 409.07055664 -170.97094727 409.07055664 -170.94140625 406.91015625 C-170.95236328 406.12576172 -170.96332031 405.34136719 -170.97460938 404.53320312 C-170.96236328 403.71787109 -170.95011719 402.90253906 -170.9375 402.0625 C-170.9208427 400.44930422 -170.92155605 398.8358159 -170.94140625 397.22265625 C-170.93052979 396.50859619 -170.91965332 395.79453613 -170.90844727 395.05883789 C-171.1937047 392.80447706 -171.1937047 392.80447706 -173.37081909 391.41110229 C-176.24289466 387.95589126 -175.94265932 384.6588804 -175.90844727 380.36352539 C-175.91706284 379.4931514 -175.92567841 378.6227774 -175.93455505 377.72602844 C-175.95725319 374.84960164 -175.95046888 371.97414612 -175.94140625 369.09765625 C-175.94664037 367.09752614 -175.95291607 365.09739851 -175.96018982 363.09727478 C-175.97060132 358.90498237 -175.9660221 354.71302923 -175.95141602 350.52075195 C-175.9342328 345.14911705 -175.95771402 339.77855224 -175.99290562 334.40703678 C-176.01487056 330.27629003 -176.01344021 326.14579964 -176.0051403 322.01501274 C-176.00432018 320.03467066 -176.01119522 318.05430987 -176.02591133 316.07402229 C-176.04333921 313.3039699 -176.0288296 310.53584414 -176.00610352 307.76586914 C-176.01779572 306.94856323 -176.02948792 306.13125732 -176.04153442 305.28918457 C-175.97013052 301.00986614 -175.75211745 299.46629118 -172.96055603 296.01463318 C-169.41113021 293.24896462 -167.79037772 292.87692312 -163.3671875 292.90234375 C-162.38105469 292.90556641 -161.39492187 292.90878906 -160.37890625 292.91210938 C-159.34636719 292.92048828 -158.31382812 292.92886719 -157.25 292.9375 C-155.68958984 292.94426758 -155.68958984 292.94426758 -154.09765625 292.95117188 C-151.52338038 292.96298048 -148.94921854 292.97944925 -146.375 293 C-146.38547363 291.89487061 -146.39594727 290.78974121 -146.40673828 289.65112305 C-146.44292407 285.55301144 -146.46589529 281.45491397 -146.48486328 277.35668945 C-146.49492411 275.58257676 -146.50857422 273.80848065 -146.52587891 272.03442383 C-146.55012378 269.48514716 -146.56148218 266.93608963 -146.5703125 264.38671875 C-146.58063507 263.59287277 -146.59095764 262.79902679 -146.60159302 261.98112488 C-146.6023811 258.11776957 -146.56940369 256.29160554 -144.375 253 C-141.85992054 252.70534852 -139.59048878 252.6085949 -137.07321167 252.63923645 C-136.31196208 252.63667318 -135.55071249 252.6341099 -134.76639473 252.63146895 C-132.20196144 252.62650652 -129.63811 252.64306398 -127.07373047 252.65942383 C-125.24094659 252.66026957 -123.4081617 252.65979599 -121.57537842 252.65809631 C-116.58796426 252.65723287 -111.60076499 252.67491492 -106.61340094 252.69581819 C-101.4056999 252.71452703 -96.19799435 252.71633084 -90.99026489 252.71989441 C-81.12339531 252.72923195 -71.25662502 252.7538688 -61.38979924 252.78394288 C-50.15902525 252.8174338 -38.92824661 252.83395952 -27.69743514 252.84902918 C-4.58988897 252.88041691 18.51752102 252.93545027 41.625 253 C41.625 239.14 41.625 225.28 41.625 211 C36.35273438 211.04640625 31.08046875 211.0928125 25.6484375 211.140625 C22.30336566 211.16106922 18.95837112 211.18032532 15.61328125 211.1953125 C10.30664014 211.21920098 5.00027577 211.24742578 -0.30615234 211.30175781 C-4.58555504 211.34529877 -8.86466088 211.36915454 -13.14426804 211.37950897 C-14.77493333 211.38688559 -16.40558284 211.4012906 -18.03612137 211.42292023 C-20.32472777 211.45206509 -22.61211604 211.45595156 -24.90087891 211.45410156 C-26.20215729 211.46298401 -27.50343567 211.47186646 -28.84414673 211.48101807 C-34.29165774 210.73888833 -37.31181736 208.30578882 -40.72558594 204.11303711 C-43.55853913 198.57755949 -42.86351279 192.24290098 -42.765625 186.19140625 C-42.75815338 184.85620475 -42.7524648 183.5209922 -42.74847412 182.18577576 C-42.73328979 178.69207843 -42.69407259 175.19905911 -42.6496582 171.70562744 C-42.60854823 168.13262094 -42.59042978 164.55950358 -42.5703125 160.98632812 C-42.52756942 153.99060903 -42.45940743 146.99533718 -42.375 140 C-43.85238647 140.02610352 -43.85238647 140.02610352 -45.35961914 140.05273438 C-68.32751063 140.28895144 -88.02661016 132.50998582 -105 116.8125 C-119.25918802 101.76494341 -127.18909689 82.35419119 -126.9375 61.6875 C-126.9221521 59.78000977 -126.9221521 59.78000977 -126.90649414 57.83398438 C-126.41459757 36.0177446 -116.89075476 17.94241331 -101.25 2.875 C-95.15256781 -2.50359483 -88.59361956 -6.34832743 -81.375 -10 C-80.12976563 -10.63228516 -80.12976563 -10.63228516 -78.859375 -11.27734375 C-52.81880049 -23.01331695 -22.06770581 -17.0868036 0 0 Z " fill="#0403CB" transform="translate(213.375,59)"/>
<path d="M0 0 C1.14355957 0.00572021 2.28711914 0.01144043 3.46533203 0.01733398 C21.85692408 0.40314433 37.37944491 7.47435015 50.54296875 20.40234375 C63.6749875 34.15821137 70.22248579 52.54027856 69.7890625 71.43359375 C68.29764788 90.33891551 59.8703164 106.76242852 46.125 119.6875 C28.68840983 134.51758958 9.49552505 137.09724924 -12.625 135.5 C-28.55977376 132.98105862 -43.63389108 122.21834825 -53.4375 109.75 C-62.60498528 96.84336151 -67.22266923 83.02846347 -67.125 67.25 C-67.11533203 65.60692871 -67.11533203 65.60692871 -67.10546875 63.93066406 C-66.70753355 46.20683985 -59.10432597 31.53521103 -46.96484375 18.7109375 C-33.9555277 6.41832834 -17.75620649 -0.10337069 0 0 Z " fill="#FFAB66" transform="translate(163.625,52.5)"/>
<path d="M0 0 C0.680625 -0.00708984 1.36125 -0.01417969 2.0625 -0.02148438 C4.0390625 0.00390625 4.0390625 0.00390625 7.375 0.4375 C8.365 1.9225 8.365 1.9225 9.375 3.4375 C12.54783919 3.8967081 12.54783919 3.8967081 16.34741211 3.82226562 C17.06464951 3.8276384 17.7818869 3.83301117 18.52085876 3.83854675 C20.08029927 3.84834061 21.63979438 3.85126405 23.19926262 3.84819031 C25.66627523 3.84372478 28.13256568 3.8576757 30.59950256 3.87658691 C35.83715645 3.91343071 41.07473557 3.92708885 46.3125 3.9375 C52.3774281 3.94956413 58.44200616 3.97104546 64.50677681 4.01750183 C66.93930286 4.03110715 69.37139042 4.02689464 71.80393982 4.02209473 C73.29369674 4.03143362 74.78344876 4.04160201 76.27319336 4.05273438 C77.57510117 4.05478882 78.87700897 4.05684326 80.21836853 4.05895996 C83.375 4.4375 83.375 4.4375 85.04848003 5.7097168 C86.66032944 7.80913965 86.75176392 8.83729736 86.75595093 11.46057129 C86.7644104 12.27653275 86.77286987 13.0924942 86.78158569 13.93318176 C86.77247665 15.27046577 86.77247665 15.27046577 86.76318359 16.63476562 C86.77106903 18.04733894 86.77106903 18.04733894 86.77911377 19.4884491 C86.79233752 22.60705054 86.78356717 25.7251432 86.7734375 28.84375 C86.77545755 31.00704039 86.77836841 33.17033011 86.78213501 35.33361816 C86.78656159 39.86977617 86.78011647 44.40575709 86.76611328 48.94189453 C86.74902134 54.76302435 86.75886072 60.58373924 86.77683067 66.40485382 C86.78765943 70.87261087 86.78422632 75.34026919 86.7764473 79.80802917 C86.77444278 81.95468698 86.77691335 84.10135368 86.78388596 86.2480011 C86.79148539 89.24565456 86.77991717 92.24263145 86.76318359 95.24023438 C86.76925629 96.13175705 86.77532898 97.02327972 86.78158569 97.94181824 C86.76889648 99.16576042 86.76889648 99.16576042 86.75595093 100.41442871 C86.75481985 101.12307823 86.75368877 101.83172775 86.75252342 102.5618515 C86.23741983 105.12103914 85.52080394 105.95298319 83.375 107.4375 C80.76533508 107.81502342 80.76533508 107.81502342 77.56762695 107.81845093 C76.35620026 107.8269104 75.14477356 107.83536987 73.89663696 107.84408569 C72.55218372 107.83825264 71.2077318 107.83210812 69.86328125 107.82568359 C68.449001 107.82974817 67.03472392 107.83508941 65.62045288 107.84161377 C61.77749747 107.85530687 57.93478329 107.84998061 54.09182358 107.84047651 C50.07333467 107.83289019 46.05486665 107.83992266 42.03637695 107.84463501 C35.28755987 107.85009557 28.53884121 107.84289311 21.79003906 107.82861328 C13.98342024 107.81228614 6.17703645 107.81757444 -1.62957668 107.8340925 C-8.32773827 107.84769885 -15.02582904 107.84963121 -21.72399998 107.84177649 C-25.72647009 107.83709527 -29.72882967 107.83648739 -33.73129272 107.84638596 C-37.49389036 107.85504103 -41.25618446 107.84906076 -45.01874924 107.83170319 C-46.40106069 107.82773048 -47.78339762 107.82888578 -49.16569901 107.83549118 C-51.04966582 107.84366497 -52.93368834 107.8316066 -54.81762695 107.81845093 C-56.40049248 107.81675431 -56.40049248 107.81675431 -58.01533508 107.81502342 C-60.625 107.4375 -60.625 107.4375 -62.46541309 106.07860279 C-64.21340125 103.60476644 -63.98445048 101.59012582 -63.96557617 98.58911133 C-63.96534958 97.3880928 -63.96512299 96.18707428 -63.96488953 94.94966125 C-63.94940567 93.65271835 -63.93392181 92.35577545 -63.91796875 91.01953125 C-63.91237234 89.67860895 -63.90810245 88.33768051 -63.90510559 86.99674988 C-63.89366018 83.47025569 -63.86419618 79.94413316 -63.83099365 76.41778564 C-63.80028589 72.81828845 -63.78659878 69.2187311 -63.77148438 65.61914062 C-63.73932579 58.55844186 -63.68813345 51.49799521 -63.625 44.4375 C-62.81129692 44.1325058 -62.81129692 44.1325058 -61.9811554 43.8213501 C-61.26590195 43.55320496 -60.5506485 43.28505981 -59.8137207 43.00878906 C-58.75251762 42.61098236 -58.75251762 42.61098236 -57.6698761 42.20513916 C-38.65542565 35.06718259 -23.91837083 25.09880795 -13.5625 7.50390625 C-9.70240931 1.39469013 -7.2514118 -0.2153197 0 0 Z " fill="#FCFCFD" transform="translate(244.625,152.5625)"/>
<path d="M0 0 C5.25152441 -0.20780336 10.48858956 -0.38642963 15.7409668 -0.49438477 C17.52303584 -0.53940036 19.30477702 -0.60063876 21.08569336 -0.67895508 C35.93985089 -1.31538356 35.93985089 -1.31538356 41.09033203 1.97314453 C43.47265625 4.41015625 43.47265625 4.41015625 45.32836914 6.85571289 C47.18621199 9.23886372 48.21166258 9.91365591 51 11 C53.86859624 11.3264515 53.86859624 11.3264515 57.05371094 11.31884766 C58.91068604 11.34893921 58.91068604 11.34893921 60.80517578 11.37963867 C62.10181152 11.39099854 63.39844727 11.4023584 64.734375 11.4140625 C65.92949707 11.43170654 67.12461914 11.44935059 68.35595703 11.4675293 C72.82050113 11.53059742 77.28527081 11.5767833 81.75 11.625 C91.7325 11.74875 101.715 11.8725 112 12 C112 34.44 112 56.88 112 80 C75.04 80 38.08 80 0 80 C-0.33 70.43 -0.66 60.86 -1 51 C-2.65 50.34 -4.3 49.68 -6 49 C-5.67 42.73 -5.34 36.46 -5 30 C-3.68 29.67 -2.36 29.34 -1 29 C-0.67 19.43 -0.34 9.86 0 0 Z " fill="#8282FE" transform="translate(204,363)"/>
<path d="M0 0 C12.54 0 25.08 0 38 0 C42.455 4.455 42.455 4.455 47 9 C49.73364147 10.36682074 51.95037479 10.16265463 55.01025391 10.20532227 C56.28908447 10.22550415 57.56791504 10.24568604 58.88549805 10.26647949 C60.24918464 10.2832492 61.61287279 10.29989246 62.9765625 10.31640625 C64.83124146 10.34438293 64.83124146 10.34438293 66.72338867 10.3729248 C71.35718408 10.44139825 75.99110105 10.50143453 80.625 10.5625 C90.97875 10.706875 101.3325 10.85125 112 11 C112 33.77 112 56.54 112 80 C75.04 80 38.08 80 0 80 C0 53.6 0 27.2 0 0 Z " fill="#FC6B6C" transform="translate(48,363)"/>
<path d="M0 0 C12.54 0 25.08 0 38 0 C40.64 2.97 43.28 5.94 46 9 C50.8317042 11.89902252 51.93324995 12.37819099 57.16723633 12.43237305 C59.02403015 12.46228333 59.02403015 12.46228333 60.91833496 12.49279785 C62.85561462 12.5021637 62.85561462 12.5021637 64.83203125 12.51171875 C66.62320374 12.53667419 66.62320374 12.53667419 68.45056152 12.56213379 C72.90436247 12.61989832 77.35846454 12.65217682 81.8125 12.6875 C91.774375 12.790625 101.73625 12.89375 112 13 C112 35.44 112 57.88 112 81 C75.04 81 38.08 81 0 81 C0 54.27 0 27.54 0 0 Z " fill="#FDA966" transform="translate(360,362)"/>
<path d="M0 0 C1.14355957 0.00572021 2.28711914 0.01144043 3.46533203 0.01733398 C21.85692408 0.40314433 37.37944491 7.47435015 50.54296875 20.40234375 C63.6749875 34.15821137 70.22248579 52.54027856 69.7890625 71.43359375 C68.29764788 90.33891551 59.8703164 106.76242852 46.125 119.6875 C28.68840983 134.51758958 9.49552505 137.09724924 -12.625 135.5 C-28.55977376 132.98105862 -43.63389108 122.21834825 -53.4375 109.75 C-62.60498528 96.84336151 -67.22266923 83.02846347 -67.125 67.25 C-67.11533203 65.60692871 -67.11533203 65.60692871 -67.10546875 63.93066406 C-66.70753355 46.20683985 -59.10432597 31.53521103 -46.96484375 18.7109375 C-33.9555277 6.41832834 -17.75620649 -0.10337069 0 0 Z M-41.625 31.5 C-52.6842659 44.948744 -56.1032376 59.41896454 -54.625 76.5 C-51.89056956 92.12975584 -43.44306399 105.04010558 -30.625 114.375 C-17.56632224 122.92652242 -2.4653327 125.75427524 13 122.8125 C22.70079341 120.21600511 30.8807037 116.182535 38.375 109.5 C38.98988281 108.97792969 39.60476562 108.45585937 40.23828125 107.91796875 C49.40529884 99.56399041 55.61793183 86.90190929 56.51757812 74.54101562 C57.26690102 58.04061971 54.13698768 44.11060314 43.125 31.375 C34.26908203 21.98103775 22.54686367 13.40236198 9.18359375 12.32299805 C-11.66881871 11.7840817 -26.78127342 16.03258743 -41.625 31.5 Z " fill="#FB9B35" transform="translate(163.625,52.5)"/>
<path d="M0 0 C1.91090384 0.02977338 3.82185918 0.05639339 5.73284912 0.08000183 C9.72809071 0.13760792 13.72155284 0.22170971 17.71582031 0.3269043 C22.8392324 0.46134439 27.96196869 0.54735431 33.08664322 0.61592579 C37.02792472 0.67090828 40.9687593 0.74230443 44.90966034 0.81964684 C46.79948113 0.85647608 48.6893631 0.89029273 50.5792923 0.92106056 C53.21528047 0.96823531 55.84997798 1.0353042 58.48535156 1.10864258 C59.65892212 1.12534248 59.65892212 1.12534248 60.85620117 1.14237976 C66.08403781 1.31794199 66.08403781 1.31794199 68.59286499 2.98954773 C70.33372517 5.86398703 70.03536464 9.03167249 70.0078125 12.29296875 C70.01068268 13.03627441 70.01355286 13.77958008 70.01651001 14.54541016 C70.01854976 16.11556765 70.013026 17.68575061 70.00048828 19.25585938 C69.98443203 21.65943207 70.00033852 24.06132336 70.01953125 26.46484375 C70.0175488 27.99088913 70.01370509 29.51693346 70.0078125 31.04296875 C70.01388519 31.76178223 70.01995789 32.4805957 70.0262146 33.22119141 C69.95726502 38.11213232 69.95726502 38.11213232 68.5539093 40.35432434 C65.5896467 42.35685368 62.5666439 42.10724791 59.10864258 42.1003418 C58.34742599 42.11053345 57.58620941 42.1207251 56.80192566 42.13122559 C54.28584495 42.16141982 51.77014453 42.17063111 49.25390625 42.1796875 C47.50940174 42.19652946 45.76490939 42.21467905 44.02043152 42.23408508 C39.42884118 42.2816438 34.83730017 42.31141508 30.24554443 42.33752441 C25.56008152 42.36730039 20.87478872 42.41384085 16.18945312 42.45898438 C6.99618263 42.54508423 -2.19712282 42.61239972 -11.390625 42.66796875 C-11.390625 42.00796875 -11.390625 41.34796875 -11.390625 40.66796875 C-17.67692263 37.41643549 -23.36409342 36.92984742 -30.390625 37.66796875 C-33.06460976 39.60694754 -33.06460976 39.60694754 -35.390625 41.66796875 C-38.47303147 42.25082379 -41.33632058 42.41105534 -44.390625 41.66796875 C-46.65234375 40.08984375 -46.65234375 40.08984375 -48.390625 37.66796875 C-48.78125 34.21484375 -48.78125 34.21484375 -48.640625 30.41796875 C-48.60453125 29.1546875 -48.5684375 27.89140625 -48.53125 26.58984375 C-48.48484375 25.625625 -48.4384375 24.66140625 -48.390625 23.66796875 C-47.72417969 23.33925781 -47.05773437 23.01054687 -46.37109375 22.671875 C-34.26825082 16.48969394 -34.26825082 16.48969394 -25.27709961 6.6934967 C-19.64567738 -2.28685906 -9.33552096 -0.27976964 0 0 Z " fill="#9696FE" transform="translate(245.390625,167.33203125)"/>
<path d="M0 0 C6.1241816 5.06500238 11.70715861 10.5782921 17.30859375 16.2109375 C18.28485986 17.18907267 19.26134994 18.16698435 20.23805237 19.14468384 C22.78672577 21.69714399 25.33237958 24.25259448 27.87738037 26.80871582 C30.48346618 29.42509914 33.09244621 32.03859303 35.70117188 34.65234375 C40.80359118 39.76543246 45.90281857 44.88168912 51 50 C47.07285241 52.07549859 43.0279825 53.13742605 38.75 54.25 C31.73401966 56.12512685 24.96569934 58.35433993 18.21582031 61.03222656 C9.43445596 64.49406626 -0.71142069 65.799139 -9.921875 63.1640625 C-19.8575421 58.56650226 -27.2229717 50.06548839 -31.19140625 39.96875 C-32.76603928 35.44785238 -34 31.81970584 -34 27 C-33.22285645 26.98018066 -32.44571289 26.96036133 -31.64501953 26.93994141 C-28.13799309 26.84492991 -24.63158206 26.73515441 -21.125 26.625 C-19.90167969 26.5940625 -18.67835938 26.563125 -17.41796875 26.53125 C-16.25136719 26.49257813 -15.08476562 26.45390625 -13.8828125 26.4140625 C-12.26463623 26.36693115 -12.26463623 26.36693115 -10.61376953 26.31884766 C-7.84238346 26.25323678 -7.84238346 26.25323678 -6 24 C-5.82170761 21.25546629 -5.72882643 18.5588293 -5.6875 15.8125 C-5.46900962 9.08566581 -4.93842568 4.93842568 0 0 Z " fill="#FAFAFE" transform="translate(170,445)"/>
<path d="M0 0 C0.99 0.495 0.99 0.495 2 1 C1.67 1.33 1.34 1.66 1 2 C0.79664337 5.36668196 0.65326821 8.72609932 0.5703125 12.09765625 C0.33245044 17.53875088 0.33245044 17.53875088 -1.23326111 19.71105385 C-3.53403179 21.38960948 -4.9087976 21.37717217 -7.74438477 21.38095093 C-9.20813034 21.39364014 -9.20813034 21.39364014 -10.70144653 21.40658569 C-12.30522659 21.39747665 -12.30522659 21.39747665 -13.94140625 21.38818359 C-15.06843964 21.39344055 -16.19547302 21.39869751 -17.35665894 21.40411377 C-21.09207916 21.41734655 -24.82707524 21.40856376 -28.5625 21.3984375 C-31.15177492 21.40045728 -33.74104929 21.40336792 -36.33032227 21.40713501 C-41.76096527 21.41156283 -47.19144806 21.40539752 -52.62207031 21.39111328 C-58.90182457 21.37478637 -65.18128664 21.3800748 -71.46103382 21.3965925 C-77.50042068 21.41184255 -83.53966449 21.41023393 -89.57907104 21.4014473 C-92.14997396 21.39944184 -94.72088431 21.40191659 -97.29177856 21.40888596 C-100.88091975 21.4164797 -104.46949487 21.40492466 -108.05859375 21.38818359 C-109.12778046 21.39425629 -110.19696716 21.40032898 -111.29855347 21.40658569 C-112.27438385 21.39812622 -113.25021423 21.38966675 -114.25561523 21.38095093 C-115.10437729 21.37981985 -115.95313934 21.37868877 -116.82762146 21.37752342 C-119.53482846 20.90705567 -120.42139341 20.2312671 -122 18 C-122.34057617 16.09887695 -122.34057617 16.09887695 -122.29296875 13.98828125 C-122.28330078 13.23095703 -122.27363281 12.47363281 -122.26367188 11.69335938 C-122.23853516 10.90767578 -122.21339844 10.12199219 -122.1875 9.3125 C-122.17396484 8.51521484 -122.16042969 7.71792969 -122.14648438 6.89648438 C-122.11117089 4.93070033 -122.05736447 2.96526418 -122 1 C-121.38339571 1.00092179 -120.76679142 1.00184359 -120.13150215 1.00279331 C-105.14282145 1.0248573 -90.15414571 1.04141584 -75.16545296 1.05181217 C-67.91709943 1.05697311 -60.66875673 1.06401199 -53.42041016 1.07543945 C-47.10431724 1.08539243 -40.78823215 1.0918549 -34.47213161 1.09408849 C-31.12640149 1.09539455 -27.7806938 1.09847382 -24.43497086 1.10573006 C-20.70419207 1.11294511 -16.97346038 1.11399074 -13.24267578 1.11352539 C-12.12777771 1.11712067 -11.01287964 1.12071594 -9.86419678 1.12442017 C-8.85174896 1.1230455 -7.83930115 1.12167084 -6.7961731 1.12025452 C-5.47155658 1.12163721 -5.47155658 1.12163721 -4.12018013 1.12304783 C-1.94453768 1.13670222 -1.94453768 1.13670222 0 0 Z " fill="#C3C3F7" transform="translate(477,451)"/>
<path d="M0 0 C40.26 0 80.52 0 122 0 C122 14 122 14 120 19 C117.59770119 20.20114941 116.09697577 20.13096623 113.41383362 20.14044189 C111.96477127 20.14900711 111.96477127 20.14900711 110.48643494 20.15774536 C109.42300369 20.15886322 108.35957245 20.15998108 107.26391602 20.16113281 C105.58821533 20.16858017 105.58821533 20.16858017 103.87866211 20.17617798 C100.17040398 20.19082476 96.4621886 20.19760523 92.75390625 20.203125 C90.18562315 20.20887365 87.61734007 20.21463142 85.04905701 20.22039795 C80.34904871 20.22956922 75.64905761 20.23586711 70.9490419 20.2388947 C64.02699407 20.24337796 57.10514345 20.26093825 50.1831556 20.2898953 C44.19131893 20.31409308 38.19957578 20.32183782 32.20768547 20.32357025 C29.65630964 20.32660539 27.10493482 20.33466266 24.55359077 20.34775543 C20.99073296 20.36473612 17.42835993 20.36295523 13.86547852 20.35644531 C12.8040715 20.3656601 11.74266449 20.37487488 10.64909363 20.3843689 C9.68023224 20.37879974 8.71137085 20.37323059 7.71315002 20.36749268 C6.44912023 20.36969252 6.44912023 20.36969252 5.15955448 20.3719368 C3 20 3 20 0 17 C0 11.39 0 5.78 0 0 Z " fill="#B0B0F1" transform="translate(199,452)"/>
<path d="M0 0 C2.875 2.4375 2.875 2.4375 5 5 C5.495 5.495 5.495 5.495 6 6 C6.55517161 11.66275043 5.48185479 14.70052585 2 19 C-0.97909441 22.25651453 -4.09092458 25.37121194 -7.21875 28.484375 C-8.11364136 29.38117981 -9.00853271 30.27798462 -9.93054199 31.20196533 C-11.81765922 33.09044007 -13.70665097 34.97677899 -15.59912109 36.85986328 C-18.02019454 39.26951031 -20.43213309 41.68807072 -22.84151459 44.1094017 C-25.14990057 46.42675987 -27.46590115 48.73647681 -29.78125 51.046875 C-30.64488159 51.91455505 -31.50851318 52.78223511 -32.39831543 53.6762085 C-33.20595337 54.47754211 -34.01359131 55.27887573 -34.84570312 56.10449219 C-35.55311646 56.81031433 -36.26052979 57.51613647 -36.98937988 58.24334717 C-39.78964974 60.68990678 -42.11920735 61.81983787 -45.75 62.5625 C-53.4502806 61.22975913 -59.99700346 52.18545151 -65.375 46.8125 C-66.08527344 46.11447266 -66.79554688 45.41644531 -67.52734375 44.69726562 C-68.20667969 44.01986328 -68.88601562 43.34246094 -69.5859375 42.64453125 C-70.1948584 42.03971924 -70.8037793 41.43490723 -71.43115234 40.81176758 C-74.15369695 37.66766495 -75.01384545 35.76149962 -74.9375 31.5625 C-73.79175034 27.20865127 -72.68226218 25.58541812 -69 23 C-64.72242341 22.15850952 -62.57504646 21.96572934 -58.91796875 24.3671875 C-56.20979167 26.69735898 -53.75192621 29.20129497 -51.3046875 31.80078125 C-49.92415001 33.25416117 -48.4665404 34.63345099 -47 36 C-45.68 36 -44.36 36 -43 36 C-43 35.34 -43 34.68 -43 34 C-42.34 34 -41.68 34 -41 34 C-41 33.34 -41 32.68 -41 32 C-40.34 32 -39.68 32 -39 32 C-39 31.34 -39 30.68 -39 30 C-37.625 28.375 -37.625 28.375 -36 27 C-35.34 27 -34.68 27 -34 27 C-33.773125 26.4225 -33.54625 25.845 -33.3125 25.25 C-31.67083893 22.43572387 -29.56440947 20.97262267 -27 19 C-26.67 18.34 -26.34 17.68 -26 17 C-25.34 17 -24.68 17 -24 17 C-24 16.34 -24 15.68 -24 15 C-23.34 15 -22.68 15 -22 15 C-22 14.34 -22 13.68 -22 13 C-21.34 13 -20.68 13 -20 13 C-20 12.34 -20 11.68 -20 11 C-18.625 9.375 -18.625 9.375 -17 8 C-16.34 8 -15.68 8 -15 8 C-15 7.34 -15 6.68 -15 6 C-14.34 6 -13.68 6 -13 6 C-13 5.34 -13 4.68 -13 4 C-8.67444427 0.41295378 -5.60725068 -0.91755011 0 0 Z " fill="#FFFDFC" transform="translate(199,93)"/>
<path d="M0 0 C58.74 0 117.48 0 178 0 C178 14.19 178 28.38 178 43 C168.1 43 158.2 43 148 43 C148 42.67 148 42.34 148 42 C157.57 42 167.14 42 177 42 C177 36.06 177 30.12 177 24 C118.59 24 60.18 24 0 24 C0 20.7 0 17.4 0 14 C58.41 14 116.82 14 177 14 C177 9.71 177 5.42 177 1 C118.59 1 60.18 1 0 1 C0 0.67 0 0.34 0 0 Z " fill="#BFBFF7" transform="translate(265,322)"/>
<path d="M0 0 C1.00978157 0.48513565 1.00978157 0.48513565 2.03996277 0.98007202 C5.61470815 2.21180749 8.57888274 2.28019301 12.3605957 2.31884766 C13.08309006 2.32889328 13.80558441 2.3389389 14.54997253 2.34928894 C16.92523442 2.38004662 19.30038396 2.39713516 21.67578125 2.4140625 C23.32774314 2.43278014 24.97969553 2.452354 26.63163757 2.4727478 C30.97000521 2.52401211 35.30840382 2.56366826 39.64691162 2.60089111 C44.07783638 2.64096657 48.50863291 2.69204274 52.93945312 2.7421875 C61.62622084 2.83887934 70.31304174 2.92228838 79 3 C79 9.27 79 15.54 79 22 C69.56836009 22.11301416 60.13717069 22.20472314 50.7050066 22.25906086 C46.32513564 22.28514188 41.94575238 22.3205118 37.56616211 22.37719727 C33.33861698 22.43157163 29.11154057 22.46143179 24.88367271 22.47438622 C23.27169097 22.48361648 21.65973455 22.50164159 20.04795265 22.52865028 C17.78767336 22.56501547 15.52932415 22.56994264 13.26879883 22.56762695 C11.98306473 22.57873001 10.69733063 22.58983307 9.37263489 22.60127258 C5.12505854 21.84401563 3.68405767 20.29685498 1 17 C-0.53266582 13.93466836 -0.10276471 10.73245728 -0.0625 7.375 C-0.05798828 6.66859375 -0.05347656 5.9621875 -0.04882812 5.234375 C-0.03703875 3.48954725 -0.01910324 1.744763 0 0 Z " fill="#C1C1F6" transform="translate(176,267)"/>
<path d="M0 0 C1.95066248 2.92599372 3.46976191 5.86723855 5.0625 9 C14.88004232 27.27323095 31.0958344 40.85268649 51 47 C60.68452082 49.62510821 70.02749228 50.52959869 80 51 C80 56.94 80 62.88 80 69 C68.34815711 69.41821171 57.92010147 69.66813498 47 65 C45.86304688 64.525625 44.72609375 64.05125 43.5546875 63.5625 C25.64266794 55.3741482 12.46283199 41.31579192 5 23 C2.39489873 15.41013764 0.55229771 8.0083168 0 0 Z " fill="#C3C3F7" transform="translate(91,148)"/>
<path d="M0 0 C0.08139142 2.39652528 0.14067009 4.79025436 0.1875 7.1875 C0.21263672 7.86103516 0.23777344 8.53457031 0.26367188 9.22851562 C0.32907829 13.69795374 -0.15948381 16.5083992 -3 20 C-6.41836971 22.23362637 -9.30292556 22.24290187 -13.32910156 22.22705078 C-15.25064056 22.22682419 -15.25064056 22.22682419 -17.21099854 22.22659302 C-18.60420894 22.21638051 -19.99741776 22.20594853 -21.390625 22.1953125 C-22.81980186 22.19158064 -24.24898128 22.18873448 -25.67816162 22.18673706 C-29.43305571 22.17911419 -33.18779419 22.15947739 -36.94262695 22.1373291 C-40.77683406 22.11684159 -44.61106639 22.10772914 -48.4453125 22.09765625 C-55.9636207 22.0762301 -63.48176869 22.04105907 -71 22 C-71 15.73 -71 9.46 -71 3 C-69.0519043 2.98018066 -67.10380859 2.96036133 -65.09667969 2.93994141 C-58.65847709 2.87215655 -52.22043081 2.79538012 -45.78240585 2.71247292 C-41.87922466 2.66253781 -37.97607016 2.61620763 -34.07275391 2.578125 C-30.30547664 2.54123683 -26.53842424 2.49486748 -22.77133942 2.44193649 C-21.33448483 2.42341127 -19.89758207 2.40829637 -18.46065521 2.39665604 C-16.44730677 2.37976235 -14.43408299 2.34959317 -12.42089844 2.31884766 C-11.27506287 2.30552399 -10.12922729 2.29220032 -8.94866943 2.2784729 C-5.62614399 1.96469297 -3.19438711 0 0 0 Z " fill="#C2C2F8" transform="translate(336,267)"/>
<path d="M0 0 C39.27 0 78.54 0 119 0 C119 3.3 119 6.6 119 10 C80.72 10 42.44 10 3 10 C2.67 10.66 2.34 11.32 2 12 C1.34 8.04 0.68 4.08 0 0 Z " fill="#BDBDF4" transform="translate(136,336)"/>
<path d="M0 0 C3.84001256 1.90756564 6.27925117 4.58141749 8.15234375 8.34375 C9.82392515 13.41819352 9.50555342 17.85838301 7.24609375 22.6484375 C6.77171875 23.5353125 6.29734375 24.4221875 5.80859375 25.3359375 C6.01966718 27.72810307 6.63195529 29.04500356 7.87109375 31.0859375 C9.33520397 34.59980202 9.05340451 37.54137079 8.80859375 41.3359375 C8.14859375 41.9959375 7.48859375 42.6559375 6.80859375 43.3359375 C3.18359375 42.9609375 3.18359375 42.9609375 -0.19140625 42.3359375 C-0.39636719 41.77003906 -0.60132813 41.20414063 -0.8125 40.62109375 C-1.08191406 39.88761719 -1.35132813 39.15414062 -1.62890625 38.3984375 C-1.89574219 37.66753906 -2.16257813 36.93664062 -2.4375 36.18359375 C-3.04527573 34.35288072 -3.04527573 34.35288072 -4.19140625 33.3359375 C-7.64962027 33.08589786 -7.64962027 33.08589786 -11.19140625 33.3359375 C-13.87696565 36.0214969 -14.25190599 38.71215078 -15.19140625 42.3359375 C-18.65640625 42.8309375 -18.65640625 42.8309375 -22.19140625 43.3359375 C-24.67526684 39.61014661 -24.57182745 37.74882348 -24.19140625 33.3359375 C-23.21448768 31.65563756 -22.21752574 29.98665146 -21.19140625 28.3359375 C-21.40522 25.98398622 -22.06149272 24.56563253 -23.21875 22.51953125 C-24.97154929 18.58453204 -24.72582565 14.55117053 -24.19140625 10.3359375 C-22.56640625 7.0234375 -22.56640625 7.0234375 -20.19140625 4.3359375 C-19.36640625 3.3871875 -18.54140625 2.4384375 -17.69140625 1.4609375 C-12.80500624 -2.38104113 -5.66879 -1.71781515 0 0 Z " fill="#FE6F6F" transform="translate(229.19140625,204.6640625)"/>
<path d="M0 0 C1.22264305 -0.0049926 1.22264305 -0.0049926 2.46998596 -0.01008606 C4.19751418 -0.01515867 5.92505223 -0.01749428 7.65258789 -0.01733398 C10.3017587 -0.01951917 12.95051241 -0.03766746 15.59960938 -0.05664062 C17.27473815 -0.05957469 18.94986892 -0.0615594 20.625 -0.0625 C21.42087021 -0.06968552 22.21674042 -0.07687103 23.03672791 -0.08427429 C28.65008398 -0.06085352 28.65008398 -0.06085352 30.87890625 2.16796875 C31.14453125 5.35546875 31.14453125 5.35546875 31.12890625 9.16796875 C31.13664062 11.05515625 31.13664062 11.05515625 31.14453125 12.98046875 C30.87890625 16.16796875 30.87890625 16.16796875 28.87890625 18.16796875 C26.17755302 18.36770608 23.58093414 18.44778448 20.87890625 18.43359375 C20.08742187 18.4355072 19.2959375 18.43742065 18.48046875 18.43939209 C16.80598635 18.44075393 15.1314934 18.43705757 13.45703125 18.42871094 C10.88908244 18.41801115 8.32183322 18.428606 5.75390625 18.44140625 C4.1289047 18.44008465 2.50390359 18.43752226 0.87890625 18.43359375 C0.10804687 18.43764221 -0.6628125 18.44169067 -1.45703125 18.44586182 C-6.89117243 18.39789007 -6.89117243 18.39789007 -9.12109375 16.16796875 C-9.29273106 13.60504558 -9.35373933 11.16451018 -9.30859375 8.60546875 C-9.30794922 7.90744141 -9.30730469 7.20941406 -9.30664062 6.49023438 C-9.24027528 -1.11228467 -6.78776536 0.0094669 0 0 Z " fill="#FFB1B1" transform="translate(118.12109375,414.83203125)"/>
<path d="M0 0 C0.94673584 0.00410889 1.89347168 0.00821777 2.86889648 0.01245117 C3.89563477 0.01438477 4.92237305 0.01631836 5.98022461 0.01831055 C7.05594727 0.03055664 8.13166992 0.04280273 9.23999023 0.05541992 C10.31958008 0.05606445 11.39916992 0.05670898 12.51147461 0.05737305 C20.53734426 0.10277394 20.53734426 0.10277394 21.67749023 1.24291992 C21.77695476 3.01151185 21.80829241 4.78403443 21.81030273 6.55541992 C21.81223633 8.16803711 21.81223633 8.16803711 21.81420898 9.81323242 C21.8103418 10.9450293 21.80647461 12.07682617 21.80249023 13.24291992 C21.80829102 14.94061523 21.80829102 14.94061523 21.81420898 16.67260742 C21.81291992 17.74768555 21.81163086 18.82276367 21.81030273 19.93041992 C21.8091748 20.92428711 21.80804688 21.9181543 21.80688477 22.94213867 C21.67749023 25.24291992 21.67749023 25.24291992 20.67749023 26.24291992 C16.87160879 26.49500714 13.05323567 26.42814336 9.23999023 26.43041992 C7.62640625 26.44878906 7.62640625 26.44878906 5.98022461 26.4675293 C4.95348633 26.46946289 3.92674805 26.47139648 2.86889648 26.47338867 C1.44879272 26.479552 1.44879272 26.479552 0 26.48583984 C-2.32250977 26.24291992 -2.32250977 26.24291992 -4.32250977 24.24291992 C-4.58129883 22.02807617 -4.58129883 22.02807617 -4.58813477 19.30541992 C-4.59071289 18.32831055 -4.59329102 17.35120117 -4.59594727 16.34448242 C-4.58821289 15.3209668 -4.58047852 14.29745117 -4.57250977 13.24291992 C-4.58024414 12.2194043 -4.58797852 11.19588867 -4.59594727 10.14135742 C-4.59336914 9.16424805 -4.59079102 8.18713867 -4.58813477 7.18041992 C-4.58587891 6.28194336 -4.58362305 5.3834668 -4.58129883 4.45776367 C-4.20609545 1.2465891 -3.1968006 0.33436525 0 0 Z " fill="#FFD4B8" transform="translate(438.322509765625,404.757080078125)"/>
<path d="M0 0 C1.66676537 -0.01418472 1.66676537 -0.01418472 3.36720276 -0.02865601 C4.56207809 -0.02258331 5.75695343 -0.01651062 6.98803711 -0.01025391 C8.83334267 -0.01455917 8.83334267 -0.01455917 10.71592712 -0.01895142 C13.3158311 -0.02099257 15.91575041 -0.0154592 18.515625 -0.00292969 C21.18459248 0.00782242 23.85174264 0.01075336 26.52050781 -0.00292969 C30.364038 -0.02142302 34.2069829 -0.01922825 38.05053711 -0.01025391 C39.24743668 -0.0163266 40.44433624 -0.02239929 41.67750549 -0.02865601 C43.33954262 -0.01447128 43.33954262 -0.01447128 45.03515625 0 C46.01126358 0.00238678 46.98737091 0.00477356 47.99305725 0.00723267 C50.45288086 0.38818359 50.45288086 0.38818359 52.2719574 1.75228882 C53.93396265 4.05461052 53.80803569 5.61797589 53.45288086 8.38818359 C50.79679332 11.04427113 49.54983227 10.64128621 45.84155273 10.64697266 C44.66693481 10.65327698 43.49231689 10.6595813 42.28210449 10.66607666 C40.37117004 10.66000397 40.37117004 10.66000397 38.42163086 10.65380859 C37.11963745 10.65572205 35.81764404 10.6576355 34.47619629 10.65960693 C31.71886458 10.6625575 28.96166237 10.65826283 26.2043457 10.64892578 C22.66661013 10.63753112 19.12917799 10.64409098 15.59145355 10.65607071 C12.22232152 10.66502753 8.85327152 10.65875999 5.48413086 10.65380859 C4.21017456 10.65785706 2.93621826 10.66190552 1.62365723 10.66607666 C0.44903931 10.65977234 -0.72557861 10.65346802 -1.93579102 10.64697266 C-2.97344604 10.64538147 -4.01110107 10.64379028 -5.0802002 10.64215088 C-7.54711914 10.38818359 -7.54711914 10.38818359 -9.54711914 8.38818359 C-9.92211914 5.95068359 -9.92211914 5.95068359 -9.54711914 3.38818359 C-6.47906884 0.39487526 -4.20879807 0.01028298 0 0 Z " fill="#FFAF6D" transform="translate(259.547119140625,219.61181640625)"/>
<path d="M0 0 C1.13134872 -0.00953201 2.26269745 -0.01906403 3.42832947 -0.02888489 C4.65540115 -0.02797348 5.88247284 -0.02706207 7.14672852 -0.02612305 C8.40195816 -0.03040817 9.65718781 -0.0346933 10.95045471 -0.03910828 C13.60952683 -0.04486078 16.26821194 -0.04627639 18.92724609 -0.04101562 C22.33495313 -0.03522228 25.74211642 -0.05214571 29.14973354 -0.0753603 C32.39872799 -0.09363528 35.6476919 -0.08991239 38.89672852 -0.08862305 C40.7342997 -0.10243767 40.7342997 -0.10243767 42.60899353 -0.11653137 C43.74349442 -0.11030258 44.8779953 -0.10407379 46.046875 -0.09765625 C47.04677963 -0.09828568 48.04668427 -0.0989151 49.07688904 -0.0995636 C51.58813477 0.2746582 51.58813477 0.2746582 53.41493225 1.63777161 C55.06634864 3.94187624 54.94276705 5.50852637 54.58813477 8.2746582 C51.95273936 10.91005361 50.76117287 10.53265751 47.08447266 10.54931641 C45.93310318 10.55884842 44.7817337 10.56838043 43.59547424 10.57820129 C42.34652878 10.57728989 41.09758331 10.57637848 39.81079102 10.57543945 C37.89465248 10.58186714 37.89465248 10.58186714 35.93980408 10.58842468 C33.23365598 10.59417732 30.52788814 10.59559261 27.82177734 10.59033203 C24.35353984 10.58453859 20.88583658 10.60146228 17.41768742 10.6246767 C14.11122575 10.64295063 10.80479411 10.63922882 7.49829102 10.63793945 C6.25136978 10.6471492 5.00444855 10.65635895 3.71974182 10.66584778 C2.56522018 10.65961899 1.41069855 10.6533902 0.22119141 10.64697266 C-0.79647812 10.64760208 -1.81414764 10.64823151 -2.86265564 10.64888 C-5.41186523 10.2746582 -5.41186523 10.2746582 -7.27565002 8.9115448 C-8.41186523 7.2746582 -8.41186523 7.2746582 -8.22436523 4.7121582 C-6.65328421 -0.00108487 -4.56692616 0.02106038 0 0 Z " fill="#FFAD69" transform="translate(258.411865234375,237.725341796875)"/>
<path d="M0 0 C0.08089542 2.77141717 0.14044062 5.54047819 0.1875 8.3125 C0.21263672 9.09818359 0.23777344 9.88386719 0.26367188 10.69335938 C0.27333984 11.45068359 0.28300781 12.20800781 0.29296875 12.98828125 C0.3086792 13.68477783 0.32438965 14.38127441 0.34057617 15.09887695 C0 17 0 17 -1.14453125 18.73242188 C-3.8010818 20.54726536 -5.78520947 20.33972864 -8.98046875 20.29296875 C-10.14384766 20.28330078 -11.30722656 20.27363281 -12.50585938 20.26367188 C-14.32827148 20.2259668 -14.32827148 20.2259668 -16.1875 20.1875 C-17.41404297 20.17396484 -18.64058594 20.16042969 -19.90429688 20.14648438 C-22.93663664 20.11108741 -25.96809996 20.0617076 -29 20 C-30.62849969 15.64409432 -31.34118446 11.76065388 -31.625 7.125 C-31.69976562 5.97257812 -31.77453125 4.82015625 -31.8515625 3.6328125 C-31.92503906 2.32957031 -31.92503906 2.32957031 -32 1 C-27.60344084 0.85738019 -23.206875 0.71496892 -18.81030273 0.57275391 C-17.31355607 0.52430919 -15.81681127 0.47580672 -14.32006836 0.42724609 C-12.17301917 0.3575967 -10.02596343 0.28815263 -7.87890625 0.21875 C-6.5854126 0.17685547 -5.29191895 0.13496094 -3.95922852 0.09179688 C-1 0 -1 0 0 0 Z " fill="#7070E2" transform="translate(165,452)"/>
<path d="M0 0 C3.43615111 2.12017834 5.80717883 4.09622164 7 8 C7.4583991 12.73679066 7.47747465 15.02668629 5.375 19.3125 C1.80635297 23.35070586 -1.17079706 24.77134963 -6.5 25.4375 C-10.76506 24.9043675 -12.75593838 23.80168958 -16 21 C-18.910372 16.634442 -19.6506249 13.20499921 -19 8 C-17.19531421 4.39062842 -15.58165967 2.41933604 -12.3125 0.0625 C-7.92156804 -1.34591214 -4.4347481 -1.21096443 0 0 Z " fill="#B1B1FF" transform="translate(297,408)"/>
<path d="M0 0 C3.17041651 1.28326383 3.21096225 1.90937252 4.5 4.9375 C5.93904575 8.24789742 6.93942446 9.63290828 10.3125 11 C11.405625 11.350625 12.49875 11.70125 13.625 12.0625 C13.955 12.3925 14.285 12.7225 14.625 13.0625 C14.33769945 15.40194736 14.00563221 17.7364143 13.625 20.0625 C13.07070312 20.19785156 12.51640625 20.33320313 11.9453125 20.47265625 C9.64547626 21.15605954 7.69401443 21.83970824 5.625 23.0625 C4.08413678 26.57650668 4.08413678 26.57650668 3.625 30.0625 C2.625 31.0625 2.625 31.0625 -0.9375 31.125 C-2.071875 31.104375 -3.20625 31.08375 -4.375 31.0625 C-7.375 24.3125 -7.375 24.3125 -7.375 22.0625 C-10.015 21.4025 -12.655 20.7425 -15.375 20.0625 C-16 16.6875 -16 16.6875 -16.375 13.0625 C-14.375 11.0625 -14.375 11.0625 -11.5 10.4375 C-7.47572605 8.66681946 -6.85565459 6.77215783 -5.234375 2.83984375 C-3.9631804 0.2107822 -2.85035134 0.07500925 0 0 Z " fill="#FE6F70" transform="translate(92.375,186.9375)"/>
<path d="M0 0 C3.0625 1.0625 3.0625 1.0625 4.8125 4.5 C5.225 5.675625 5.6375 6.85125 6.0625 8.0625 C8.52776886 10.52776886 10.77731573 11.01403693 14.0625 12.0625 C15.0625 13.0625 15.0625 13.0625 15.3125 15.4375 C15.0625 18.0625 15.0625 18.0625 13.9375 19.75 C12.0625 21.0625 12.0625 21.0625 9.0625 21.8125 C5.69318894 22.83594679 5.69318894 22.83594679 4.25 26.625 C3.858125 27.759375 3.46625 28.89375 3.0625 30.0625 C2.0625 31.0625 2.0625 31.0625 -1 31.125 C-1.969375 31.104375 -2.93875 31.08375 -3.9375 31.0625 C-6.9375 24.3125 -6.9375 24.3125 -6.9375 22.0625 C-9.5775 21.4025 -12.2175 20.7425 -14.9375 20.0625 C-15.5625 16.6875 -15.5625 16.6875 -15.9375 13.0625 C-13.9375 11.0625 -13.9375 11.0625 -10.4375 9.8125 C-6.69771841 8.41360876 -6.69771841 8.41360876 -5.625 5 C-5.398125 4.030625 -5.17125 3.06125 -4.9375 2.0625 C-2.9375 0.0625 -2.9375 0.0625 0 0 Z " fill="#6F6FFF" transform="translate(124.9375,231.9375)"/>
<path d="M0 0 C3.0625 0.1875 3.0625 0.1875 5.0625 2.1875 C5.475 3.3425 5.8875 4.4975 6.3125 5.6875 C7.71139124 9.42728159 7.71139124 9.42728159 11.125 10.5 C12.094375 10.726875 13.06375 10.95375 14.0625 11.1875 C14.7225 11.8475 15.3825 12.5075 16.0625 13.1875 C15.73278521 16.48464793 15.4398161 17.8101839 13.0625 20.1875 C11.6084375 20.5278125 11.6084375 20.5278125 10.125 20.875 C6.70199803 21.9549788 6.70199803 21.9549788 5.25 25.75 C4.858125 26.884375 4.46625 28.01875 4.0625 29.1875 C3.0625 30.1875 3.0625 30.1875 0 30.25 C-0.969375 30.229375 -1.93875 30.20875 -2.9375 30.1875 C-5.9375 23.4375 -5.9375 23.4375 -5.9375 21.1875 C-7.05125 21.084375 -8.165 20.98125 -9.3125 20.875 C-11.106875 20.5346875 -11.106875 20.5346875 -12.9375 20.1875 C-14.9375 17.1875 -14.9375 17.1875 -14.5625 14 C-14.35625 13.071875 -14.15 12.14375 -13.9375 11.1875 C-11.2975 10.5275 -8.6575 9.8675 -5.9375 9.1875 C-5.628125 7.888125 -5.31875 6.58875 -5 5.25 C-3.80787037 0.24305556 -3.80787037 0.24305556 0 0 Z " fill="#FE9E37" transform="translate(294.9375,96.8125)"/>
<path d="M0 0 C2.7265625 0.47265625 2.7265625 0.47265625 4.7265625 2.47265625 C5.2890625 5.09765625 5.2890625 5.09765625 4.7265625 8.47265625 C2.66331752 11.41207375 0.24231041 13.91879095 -2.2734375 16.47265625 C-2.9746875 17.27703125 -3.6759375 18.08140625 -4.3984375 18.91015625 C-6.73196779 20.85476482 -8.24829359 21.32139905 -11.2734375 21.47265625 C-13.5859375 20.53515625 -13.5859375 20.53515625 -15.2734375 19.47265625 C-15.94221517 13.57998187 -15.94221517 13.57998187 -14.24511719 10.77001953 C-12.79232345 9.08635547 -11.2669047 7.55988244 -9.6484375 6.03515625 C-9.12636719 5.49439453 -8.60429688 4.95363281 -8.06640625 4.39648438 C-5.4118296 1.80417557 -3.70698304 0.5352565 0 0 Z " fill="#FF6B6B" transform="translate(48.2734375,294.52734375)"/>
<path d="M0 0 C2.33944736 0.28730055 4.6739143 0.61936779 7 1 C7.875 4.0625 7.875 4.0625 8 8 C6.41365386 10.76878865 4.31180482 12.82266258 2 15 C1.24396484 15.76763672 1.24396484 15.76763672 0.47265625 16.55078125 C-2.09015807 18.96404142 -3.73816125 19.96475248 -7.25 20.4375 C-10 20 -10 20 -12 18 C-12.46484375 15.765625 -12.46484375 15.765625 -12 13 C-10.24576955 10.72267941 -8.56654622 8.77639618 -6.5625 6.75 C-6.04623047 6.20859375 -5.52996094 5.6671875 -4.99804688 5.109375 C-3.35117569 3.38715677 -1.68500008 1.68500008 0 0 Z " fill="#FE9E35" transform="translate(415,270)"/>
<path d="M0 0 C8.91 0 17.82 0 27 0 C27 0.33 27 0.66 27 1 C19.41 1 11.82 1 4 1 C9.81751496 7.65892826 9.81751496 7.65892826 15.9375 13.9375 C17.30987145 15.27321379 18.67017209 16.62192437 20 18 C20 18.33 20 18.66 20 19 C14.39 19 8.78 19 3 19 C1 13 1 13 0 0 Z " fill="#5959DE" transform="translate(133,453)"/>
<path d="M0 0 C1.9375 1.125 1.9375 1.125 3 3 C3.38976435 6.11811483 3.50422245 8.11019567 1.9375 10.875 C-1.14071911 12.66235303 -3.52906068 12.43386742 -7 12 C-9.42061048 9.89172636 -9.9127007 8.59654522 -10.375 5.4375 C-10 3 -10 3 -8.9375 1.1875 C-5.90624457 -0.67036623 -3.46577141 -0.37133265 0 0 Z " fill="#FFFCFC" transform="translate(225,214)"/>
<path d="M0 0 C4.89978413 3.95751795 9.00520914 8.12830382 13 13 C9.37 13 5.74 13 2 13 C0.24252386 8.49646738 -0.19294408 4.82360189 0 0 Z " fill="#5353DC" transform="translate(134,459)"/>
<path d="M0 0 C2.5625 0.3125 2.5625 0.3125 4.4375 1.5 C5.5625 3.3125 5.5625 3.3125 5.375 5.875 C4.5625 8.3125 4.5625 8.3125 2.5625 10.3125 C0.0625 10.5625 0.0625 10.5625 -2.4375 10.3125 C-4.4375 8.3125 -4.4375 8.3125 -4.6875 5.3125 C-4.37675292 1.58353509 -3.7821044 0.48488518 0 0 Z " fill="#F7F7FF" transform="translate(282.4375,177.6875)"/>
<path d="M0 0 C2.5 0.25 2.5 0.25 4.5 2.25 C4.8125 5.25 4.8125 5.25 4.5 8.25 C1.5 10.25 1.5 10.25 -1.0625 10 C-3.5 9.25 -3.5 9.25 -5.5 7.25 C-5.08994391 3.14943907 -4.53376372 0.45337637 0 0 Z " fill="#F8F8FF" transform="translate(300.5,177.75)"/>
<path d="M0 0 C1.32278481 5.41139241 1.32278481 5.41139241 -0.0625 7.9375 C-2.91093248 9.49954362 -4.93504903 8.74921024 -8 8 C-9.32278481 2.58860759 -9.32278481 2.58860759 -7.9375 0.0625 C-5.08906752 -1.49954362 -3.06495097 -0.74921024 0 0 Z " fill="#F9F9FF" transform="translate(269,179)"/>
<path d="M0 0 C0 5.61 0 11.22 0 17 C-0.33 17 -0.66 17 -1 17 C-1.185625 15.989375 -1.37125 14.97875 -1.5625 13.9375 C-2.74123354 9.65040246 -5.3166262 7.31588717 -8.5390625 4.3828125 C-9.02117187 3.92648437 -9.50328125 3.47015625 -10 3 C-10 2.67 -10 2.34 -10 2 C-8.52112267 1.66538533 -7.04188942 1.33234333 -5.5625 1 C-4.32693359 0.7215625 -4.32693359 0.7215625 -3.06640625 0.4375 C-1 0 -1 0 0 0 Z " fill="#8A8AE7" transform="translate(165,452)"/>
<path d="M0 0 C1.14926266 0.95421808 2.29430541 1.91352045 3.4375 2.875 C4.07558594 3.40867187 4.71367187 3.94234375 5.37109375 4.4921875 C7 6 7 6 8 8 C6.02 8 4.04 8 2 8 C0 2.25 0 2.25 0 0 Z " fill="#4040D9" transform="translate(134,464)"/>
</svg>
