<?xml version="1.0" encoding="UTF-8"?>
<svg version="1.1" xmlns="http://www.w3.org/2000/svg" width="512" height="512">
<path d="M0 0 C33.44193329 14.1409256 62.02576951 21.4466081 97 7.9375 C101.8232193 5.86712447 106.51763475 3.52716964 111.20953369 1.17755127 C114.80015583 -0.61958351 118.40708542 -2.38353005 122.01171875 -4.15234375 C122.71026978 -4.49614075 123.4088208 -4.83993774 124.12854004 -5.19415283 C129.58348052 -7.87425933 135.07168371 -10.4666039 140.625 -12.9375 C141.63300659 -13.39153198 141.63300659 -13.39153198 142.66137695 -13.85473633 C152.2956885 -18.08751993 163.2660621 -20.17903626 173.640625 -17.33984375 C185.470833 -11.76339074 192.3650952 1.56741144 196.609375 13.296875 C197.1616575 14.88354476 197.70850941 16.47211488 198.25 18.0625 C198.50845703 18.81450684 198.76691406 19.56651367 199.03320312 20.34130859 C199.27490234 21.07687988 199.51660156 21.81245117 199.765625 22.5703125 C199.97993164 23.21887207 200.19423828 23.86743164 200.41503906 24.53564453 C201.25291366 27.97596603 201.60086927 31.41952674 202 34.9375 C202.58802399 34.92861755 203.17604797 34.91973511 203.78189087 34.9105835 C209.91390237 34.82194217 216.04573122 34.76169617 222.17822266 34.71777344 C224.46540726 34.69768483 226.75254068 34.67040872 229.03955078 34.63574219 C232.33118334 34.58710442 235.62213557 34.56450321 238.9140625 34.546875 C239.93303619 34.52622986 240.95200989 34.50558472 242.00186157 34.48431396 C247.98263884 34.4824328 251.46132121 34.91413381 256 38.9375 C257.61454805 42.1665961 257.12915781 45.69608658 257.11352539 49.24267578 C257.11367142 50.10128204 257.11381744 50.95988831 257.1139679 51.84451294 C257.11326963 54.69063824 257.10548125 57.53669859 257.09765625 60.3828125 C257.09579176 62.35293543 257.09436801 64.32305882 257.09336853 66.29318237 C257.08954576 71.48489659 257.07971751 76.67658294 257.06866455 81.86828613 C257.05844528 87.163489 257.0538698 92.45869637 257.04882812 97.75390625 C257.03809504 108.14844976 257.02102148 118.54297256 257 128.9375 C257.76352783 129.22488037 258.52705566 129.51226074 259.3137207 129.80834961 C262.67442038 131.2209858 265.34842723 133.26039075 268.1875 135.5 C268.75629883 135.94400146 269.32509766 136.38800293 269.91113281 136.84545898 C275.15476091 140.98110229 280.1408076 145.35597573 285 149.9375 C285.73605469 150.60910156 286.47210938 151.28070313 287.23046875 151.97265625 C314.72738867 178.00956273 325.90231974 217.56205838 331 253.9375 C331.1045752 254.6701709 331.20915039 255.4028418 331.31689453 256.15771484 C332.40223811 265.11422632 332.24389653 274.17950857 332.25 283.1875 C332.25067474 284.08111237 332.25134949 284.97472473 332.25204468 285.89541626 C332.23578899 299.45098549 331.76606132 312.62348918 329 325.9375 C328.82307617 326.80777832 328.64615234 327.67805664 328.46386719 328.57470703 C327.17518297 334.75215617 325.67380554 340.85358073 324 346.9375 C323.79568359 347.68386719 323.59136719 348.43023437 323.38085938 349.19921875 C317.88449675 368.63714879 308.60711418 387.43770093 297 403.9375 C294.8245714 406.83069867 294.8245714 406.83069867 294.18408203 410.27880859 C292.821066 414.49038761 291.17917351 416.3766304 288.0546875 419.4765625 C287.56598175 419.96530853 287.077276 420.45405457 286.57376099 420.95761108 C285.54242638 421.98361357 284.50501578 423.00354116 283.46191406 424.01757812 C281.88621613 425.55158067 280.3327704 427.10565083 278.78125 428.6640625 C274.09429839 433.32046924 269.51019807 437.65253454 263.72607422 440.93798828 C260.97382409 442.53172407 258.59168117 444.56375293 256.125 446.5625 C207.6513183 484.69599792 144.13006509 494.62580274 84.11108398 494.32861328 C80.63061243 494.31150572 77.15082897 494.3217307 73.67038059 494.33893585 C9.70561675 494.60628593 -54.40747949 482.58035751 -103.5078125 439.25048828 C-104.78788579 438.12414107 -106.08026806 437.01180977 -107.375 435.90234375 C-135.3982538 411.87459294 -150.48382608 378.63493261 -161 343.9375 C-161.22333008 343.24140625 -161.44666016 342.5453125 -161.67675781 341.828125 C-173.61783344 304.15965197 -155.55067638 260.04787654 -140.25 226.0625 C-135.02645914 214.41855955 -130.52655747 202.84960482 -130 189.9375 C-129.96003906 189.08671875 -129.92007813 188.2359375 -129.87890625 187.359375 C-129.5415301 172.83235497 -132.0189718 158.52798099 -135.22799683 144.42025757 C-135.95083542 141.24192296 -136.65200785 138.05890136 -137.35520935 134.87617493 C-137.71361444 133.25555929 -138.0731148 131.63518547 -138.43373108 130.01506042 C-140.16566818 122.2314725 -141.81703406 114.43246965 -143.4375 106.625 C-143.6840332 105.45283936 -143.93056641 104.28067871 -144.18457031 103.07299805 C-149.24822329 78.64969601 -150.33799948 51.84288696 -138.13671875 29.46875 C-136.46102765 25.73731414 -136.67193689 23.75568143 -138 19.9375 C-140.64396764 17.29353236 -143.57503819 16.36975676 -147 14.9375 C-147.495 14.4425 -147.495 14.4425 -148 13.9375 C-147.71269945 11.59805264 -147.38063221 9.2635857 -147 6.9375 C-145.14375 6.4734375 -145.14375 6.4734375 -143.25 6 C-140.41055167 4.97700016 -139.27639985 4.41838375 -137.75390625 1.76953125 C-137.1351506 0.15460467 -136.52548233 -1.46383854 -135.92578125 -3.0859375 C-135 -5.0625 -135 -5.0625 -132.5 -6.3125 C-129.27416273 -5.98991627 -128.22647847 -5.43741037 -126 -3.0625 C-125.505 -1.86625 -125.01 -0.67 -124.5 0.5625 C-123.39930548 3.94028946 -123.39930548 3.94028946 -121.25 4.9296875 C-117.64367233 4.94220947 -116.1032511 2.81681552 -113.5 0.4375 C-78.30249592 -30.35694363 -38.17265429 -16.19512169 0 0 Z " fill="#6F4DDC" transform="translate(172,18.0625)"/>
<path d="M0 0 C33.44193329 14.1409256 62.02576951 21.4466081 97 7.9375 C101.8232193 5.86712447 106.51763475 3.52716964 111.20953369 1.17755127 C114.80015583 -0.61958351 118.40708542 -2.38353005 122.01171875 -4.15234375 C122.71026978 -4.49614075 123.4088208 -4.83993774 124.12854004 -5.19415283 C129.58348052 -7.87425933 135.07168371 -10.4666039 140.625 -12.9375 C141.63300659 -13.39153198 141.63300659 -13.39153198 142.66137695 -13.85473633 C152.2956885 -18.08751993 163.2660621 -20.17903626 173.640625 -17.33984375 C185.470833 -11.76339074 192.3650952 1.56741144 196.609375 13.296875 C197.1616575 14.88354476 197.70850941 16.47211488 198.25 18.0625 C198.50845703 18.81450684 198.76691406 19.56651367 199.03320312 20.34130859 C199.27490234 21.07687988 199.51660156 21.81245117 199.765625 22.5703125 C199.97993164 23.21887207 200.19423828 23.86743164 200.41503906 24.53564453 C201.25291366 27.97596603 201.60086927 31.41952674 202 34.9375 C202.58802399 34.92861755 203.17604797 34.91973511 203.78189087 34.9105835 C209.91390237 34.82194217 216.04573122 34.76169617 222.17822266 34.71777344 C224.46540726 34.69768483 226.75254068 34.67040872 229.03955078 34.63574219 C232.33118334 34.58710442 235.62213557 34.56450321 238.9140625 34.546875 C239.93303619 34.52622986 240.95200989 34.50558472 242.00186157 34.48431396 C247.98263884 34.4824328 251.46132121 34.91413381 256 38.9375 C266.88321848 60.70393696 257 87.60188367 257 111.9375 C152.06 111.9375 47.12 111.9375 -61 111.9375 C-61 208.6275 -61 305.3175 -61 404.9375 C-51.1 404.9375 -41.2 404.9375 -31 404.9375 C-31.02618408 402.60606934 -31.05236816 400.27463867 -31.0793457 397.87255859 C-31.16227021 390.16134228 -31.21745373 382.45010603 -31.25906086 374.73856163 C-31.28513194 370.06391144 -31.32048415 365.38971886 -31.37719727 360.71533203 C-31.4316064 356.20249574 -31.46143927 351.69009902 -31.47438622 347.17695999 C-31.48361018 345.45695706 -31.5016229 343.73697763 -31.52865028 342.01716232 C-31.56506071 339.60385294 -31.56994061 337.19234936 -31.56762695 334.77880859 C-31.59459152 333.71712967 -31.59459152 333.71712967 -31.62210083 332.63400269 C-31.58286851 328.84079792 -30.97011369 326.4372557 -28.65202332 323.50991821 C-24.19338913 319.18511771 -19.81069034 319.79991703 -13.9387207 319.82397461 C-13.01169342 319.82382858 -12.08466614 319.82368256 -11.12954712 319.8235321 C-8.06160146 319.82422946 -4.99371632 319.83201363 -1.92578125 319.83984375 C0.1998542 319.84170856 2.32549007 319.84313216 4.4511261 319.84413147 C10.04889103 319.84795171 15.64663007 319.85777781 21.24438477 319.86883545 C26.95523732 319.87906016 32.66609406 319.88363137 38.37695312 319.88867188 C49.5846468 319.89940049 60.79232125 319.91647103 72 319.9375 C71.98428955 320.94127686 71.9685791 321.94505371 71.95239258 322.97924805 C71.89794886 326.71581955 71.86359774 330.45235621 71.83520508 334.18920898 C71.82015124 335.80417789 71.79970352 337.41910613 71.77368164 339.03393555 C71.73714714 341.35996555 71.72023985 343.68545341 71.70703125 346.01171875 C71.69154739 346.72962082 71.67606354 347.44752289 71.66011047 348.18717957 C71.65862931 352.63425349 72.27650203 355.39874198 75 358.9375 C78.49777668 361.58462381 81.19148457 362.31829267 85.52734375 362.578125 C101.91287938 364.05233986 101.91287938 364.05233986 105.73583984 367.50537109 C108.52328448 371.64881076 109.62822284 376.00348591 110 380.9375 C108.89194146 385.79474292 105.4698561 389.59774722 102.5 393.5 C101.50759264 394.8116702 100.51791546 396.12541143 99.53125 397.44140625 C99.09361328 398.01705322 98.65597656 398.5927002 98.20507812 399.18579102 C95.49183397 403.12977943 94.16287422 406.10077329 95 410.9375 C99.51296688 417.13635524 105.39065267 422.48136697 110.8125 427.875 C111.57498047 428.64134766 112.33746094 429.40769531 113.12304688 430.19726562 C113.85201172 430.92494141 114.58097656 431.65261719 115.33203125 432.40234375 C115.98921143 433.058396 116.6463916 433.71444824 117.32348633 434.39038086 C119.66382776 436.55009305 120.87412533 436.92011047 124.08203125 437.36328125 C129.46689557 436.77808662 132.45591902 434.34605418 136.6875 431.125 C137.43322266 430.57779297 138.17894531 430.03058594 138.94726562 429.46679688 C141.70389161 427.43805786 144.43872717 425.39962012 147.08129883 423.22387695 C149 421.9375 149 421.9375 151.5625 422.4375 C152.696875 422.9325 153.83125 423.4275 155 423.9375 C155.89976562 424.15535156 156.79953125 424.37320312 157.7265625 424.59765625 C161.15199273 425.64155385 163.29720648 426.56060602 166 428.9375 C168.02969429 433.63460542 168.33638732 438.894509 168.80566406 443.94091797 C169.28500841 448.86563919 169.85131668 453.50164585 173 457.4375 C176.75749199 460.25561899 179.91209459 460.11371207 184.45703125 460.140625 C185.19700851 460.14632507 185.93698578 460.15202515 186.6993866 460.15789795 C188.26710581 460.16735018 189.83484491 460.17388282 191.40258789 460.17773438 C193.79283707 460.18742032 196.18221905 460.21843195 198.57226562 460.25 C200.09634907 460.25653223 201.62043865 460.26178184 203.14453125 460.265625 C203.85615921 460.2779718 204.56778717 460.2903186 205.30097961 460.30303955 C209.70342441 460.28343321 212.59400193 459.79758762 216 456.9375 C217.83733168 453.50231637 218.45668804 450.02414458 219.0703125 446.19921875 C219.33134766 444.59916992 219.33134766 444.59916992 219.59765625 442.96679688 C219.85869141 441.31260742 219.85869141 441.31260742 220.125 439.625 C220.30675781 438.50287109 220.48851562 437.38074219 220.67578125 436.22460938 C221.12233533 433.46302493 221.56355527 430.70069705 222 427.9375 C224.72470413 426.93876503 227.45051338 425.94803718 230.18823242 424.98535156 C233.10715782 423.96583828 233.10715782 423.96583828 236.11328125 422.296875 C240.38180803 421.76547518 242.43210844 423.77684134 245.77929688 426.28515625 C246.57400391 426.91292969 247.36871094 427.54070312 248.1875 428.1875 C248.99380859 428.79980469 249.80011719 429.41210938 250.63085938 430.04296875 C252.12861512 431.18091451 253.61986185 432.32751522 255.10229492 433.48535156 C258.80772199 436.32079222 261.39876707 437.32400228 266 437.9375 C262.31313786 441.80522708 258.44309798 445.04711648 254.125 448.1875 C253.47007568 448.66421143 252.81515137 449.14092285 252.14038086 449.63208008 C203.21979582 484.73071423 143.11705609 494.62078673 84.11108398 494.32861328 C80.63061243 494.31150572 77.15082897 494.3217307 73.67038059 494.33893585 C9.70561675 494.60628593 -54.40747949 482.58035751 -103.5078125 439.25048828 C-104.78788579 438.12414107 -106.08026806 437.01180977 -107.375 435.90234375 C-135.3982538 411.87459294 -150.48382608 378.63493261 -161 343.9375 C-161.22333008 343.24140625 -161.44666016 342.5453125 -161.67675781 341.828125 C-173.61783344 304.15965197 -155.55067638 260.04787654 -140.25 226.0625 C-135.02645914 214.41855955 -130.52655747 202.84960482 -130 189.9375 C-129.96003906 189.08671875 -129.92007813 188.2359375 -129.87890625 187.359375 C-129.5415301 172.83235497 -132.0189718 158.52798099 -135.22799683 144.42025757 C-135.95083542 141.24192296 -136.65200785 138.05890136 -137.35520935 134.87617493 C-137.71361444 133.25555929 -138.0731148 131.63518547 -138.43373108 130.01506042 C-140.16566818 122.2314725 -141.81703406 114.43246965 -143.4375 106.625 C-143.6840332 105.45283936 -143.93056641 104.28067871 -144.18457031 103.07299805 C-149.24822329 78.64969601 -150.33799948 51.84288696 -138.13671875 29.46875 C-136.46102765 25.73731414 -136.67193689 23.75568143 -138 19.9375 C-140.64396764 17.29353236 -143.57503819 16.36975676 -147 14.9375 C-147.495 14.4425 -147.495 14.4425 -148 13.9375 C-147.71269945 11.59805264 -147.38063221 9.2635857 -147 6.9375 C-145.14375 6.4734375 -145.14375 6.4734375 -143.25 6 C-140.41055167 4.97700016 -139.27639985 4.41838375 -137.75390625 1.76953125 C-137.1351506 0.15460467 -136.52548233 -1.46383854 -135.92578125 -3.0859375 C-135 -5.0625 -135 -5.0625 -132.5 -6.3125 C-129.27416273 -5.98991627 -128.22647847 -5.43741037 -126 -3.0625 C-125.505 -1.86625 -125.01 -0.67 -124.5 0.5625 C-123.39930548 3.94028946 -123.39930548 3.94028946 -121.25 4.9296875 C-117.64367233 4.94220947 -116.1032511 2.81681552 -113.5 0.4375 C-78.30249592 -30.35694363 -38.17265429 -16.19512169 0 0 Z " fill="#F0F0FE" transform="translate(172,18.0625)"/>
<path d="M0 0 C4.27667732 1.6096769 7.6174329 3.74624414 11.1875 6.5625 C11.75629883 7.00650146 12.32509766 7.45050293 12.91113281 7.90795898 C18.15476091 12.04360229 23.1408076 16.41847573 28 21 C28.73605469 21.67160156 29.47210938 22.34320313 30.23046875 23.03515625 C57.72738867 49.07206273 68.90231974 88.62455838 74 125 C74.1045752 125.7326709 74.20915039 126.4653418 74.31689453 127.22021484 C75.40223811 136.17672632 75.24389653 145.24200857 75.25 154.25 C75.25067474 155.14361237 75.25134949 156.03722473 75.25204468 156.95791626 C75.23578899 170.51348549 74.76606132 183.68598918 72 197 C71.82307617 197.87027832 71.64615234 198.74055664 71.46386719 199.63720703 C70.17518297 205.81465617 68.67380554 211.91608073 67 218 C66.69352539 219.11955078 66.69352539 219.11955078 66.38085938 220.26171875 C60.88449675 239.69964879 51.60711418 258.50020093 40 275 C37.82382159 277.89114022 37.82382159 277.89114022 37.19726562 281.33251953 C35.7961262 285.62450901 34.05348127 287.53760478 30.84375 290.6796875 C30.08934631 291.42703659 30.08934631 291.42703659 29.31970215 292.18948364 C27.7245406 293.76345433 26.11255794 295.31887918 24.5 296.875 C23.41687617 297.94159996 22.33483344 299.00929896 21.25390625 300.078125 C12.30468437 308.87409727 12.30468437 308.87409727 7.31640625 309.35546875 C2.41769842 309.28802998 -0.33132377 307.29152519 -4.0625 304.3125 C-4.63548828 303.87744141 -5.20847656 303.44238281 -5.79882812 302.99414062 C-8.17446521 301.19036668 -10.53185518 299.36325859 -12.88842773 297.53466797 C-14.54491515 296.29072738 -16.26903598 295.13802562 -18 294 C-21.05179416 294.37692014 -21.05179416 294.37692014 -24 296 C-25.38979432 296.55697864 -26.78600327 297.09815999 -28.1875 297.625 C-28.84105469 297.88539063 -29.49460937 298.14578125 -30.16796875 298.4140625 C-32 299 -32 299 -35 299 C-35.12117187 300.02738281 -35.24234375 301.05476563 -35.3671875 302.11328125 C-35.79892604 305.72216143 -36.25755018 309.32702404 -36.73095703 312.93066406 C-36.96504103 314.73111411 -37.18494134 316.53339711 -37.40234375 318.3359375 C-38.251192 324.23745392 -39.15745237 327.36808928 -44 331 C-47.00687826 332.50343913 -50.12152293 332.20416325 -53.421875 332.23828125 C-54.15948059 332.246353 -54.89708618 332.25442474 -55.65704346 332.26274109 C-57.22055716 332.27658051 -58.78410106 332.28730331 -60.34765625 332.29516602 C-62.72715445 332.31233516 -65.10524693 332.35621387 -67.484375 332.40039062 C-69.00519814 332.41052183 -70.52603307 332.4190366 -72.046875 332.42578125 C-72.75334167 332.44328934 -73.45980835 332.46079742 -74.18768311 332.47883606 C-79.25423722 332.45683752 -82.09990134 331.1797288 -86 328 C-88.67879789 323.55991297 -88.87571283 317.94050963 -89.5625 312.875 C-89.8113963 311.08039386 -90.06260003 309.28610583 -90.31640625 307.4921875 C-90.42412354 306.70183105 -90.53184082 305.91147461 -90.64282227 305.09716797 C-90.97636722 302.81680158 -90.97636722 302.81680158 -92 300 C-94.64287997 298.55817826 -94.64287997 298.55817826 -97.8125 297.375 C-98.87082031 296.94960938 -99.92914063 296.52421875 -101.01953125 296.0859375 C-102.00308594 295.72757812 -102.98664063 295.36921875 -104 295 C-104.62914307 294.75217773 -105.25828613 294.50435547 -105.90649414 294.24902344 C-108.95484266 293.88642105 -110.07701788 295.08704417 -112.4765625 296.9296875 C-113.311875 297.56003906 -114.1471875 298.19039063 -115.0078125 298.83984375 C-115.87148438 299.51144531 -116.73515625 300.18304688 -117.625 300.875 C-119.34563576 302.18583937 -121.06695647 303.49578029 -122.7890625 304.8046875 C-123.54912598 305.39233887 -124.30918945 305.97999023 -125.09228516 306.58544922 C-128.82346393 309.3520796 -131.35165493 309.59978646 -136 309 C-137.79663086 307.74731445 -137.79663086 307.74731445 -139.65234375 306.05078125 C-140.3484375 305.41543457 -141.04453125 304.78008789 -141.76171875 304.12548828 C-145.71434242 300.37204787 -149.592732 296.5511612 -153.4375 292.6875 C-154.25154297 291.87732422 -155.06558594 291.06714844 -155.90429688 290.23242188 C-156.67708984 289.45833984 -157.44988281 288.68425781 -158.24609375 287.88671875 C-158.94404053 287.18764404 -159.6419873 286.48856934 -160.36108398 285.76831055 C-162.51045815 283.44924052 -162.9661208 282.37955296 -163.25 279.19921875 C-162.9617582 275.51062452 -162.06131362 273.85385782 -160 270.8125 C-159.37351562 269.86246094 -158.74703125 268.91242188 -158.1015625 267.93359375 C-156.6861677 265.95782889 -155.19852801 264.03210941 -153.6484375 262.16015625 C-149.40787598 257.4038982 -149.40787598 257.4038982 -148.09375 251.484375 C-148.86544575 249.15385383 -149.80458218 247.14053154 -151 245 C-153 240.15789474 -153 240.15789474 -153 237 C-154.9490625 236.8453125 -154.9490625 236.8453125 -156.9375 236.6875 C-161.91560476 236.16686727 -166.86644098 235.51334302 -171.8125 234.75 C-172.90582642 234.60437622 -172.90582642 234.60437622 -174.02124023 234.45581055 C-179.10568731 233.62623364 -181.6827841 232.17021427 -185 228 C-186.16793932 224.49618203 -186.18068143 221.31146111 -186.203125 217.6640625 C-186.20882507 216.94769623 -186.21452515 216.23132996 -186.22039795 215.49325562 C-186.22983536 213.97859163 -186.23637693 212.46390723 -186.24023438 210.94921875 C-186.24993589 208.64025797 -186.28096775 206.33218931 -186.3125 204.0234375 C-186.31903105 202.54948443 -186.32428112 201.07552502 -186.328125 199.6015625 C-186.3466452 198.57163681 -186.3466452 198.57163681 -186.36553955 197.52090454 C-186.34544975 193.16553043 -185.67748076 190.45311886 -183 187 C-180.00431502 185.00287668 -178.49325582 184.55685622 -175.03515625 183.96484375 C-174.07029297 183.79533203 -173.10542969 183.62582031 -172.11132812 183.45117188 C-171.10521484 183.28166016 -170.09910156 183.11214844 -169.0625 182.9375 C-167.07403394 182.59351455 -165.08574522 182.248502 -163.09765625 181.90234375 C-162.21601807 181.75273193 -161.33437988 181.60312012 -160.42602539 181.44897461 C-159.22514282 181.22673218 -159.22514282 181.22673218 -158 181 C-157.27143799 180.87794189 -156.54287598 180.75588379 -155.79223633 180.63012695 C-153.61591479 180.08028857 -153.61591479 180.08028857 -152.2265625 177.015625 C-151.67677432 175.76731367 -151.14345072 174.51164856 -150.625 173.25 C-150.34011719 172.62867188 -150.05523437 172.00734375 -149.76171875 171.3671875 C-148.58967463 168.60326256 -147.89125874 166.57344752 -148.45703125 163.58984375 C-150.78712832 159.67882006 -153.39096463 155.99640667 -156.0625 152.3125 C-157.15866641 150.78856133 -158.25377098 149.26385815 -159.34765625 147.73828125 C-159.83242432 147.06837158 -160.31719238 146.39846191 -160.81665039 145.70825195 C-163.14069007 142.35333023 -163.36446284 140.07995904 -163 136 C-161.59375 133.7890625 -161.59375 133.7890625 -159.5 131.625 C-158.69433594 130.78324219 -157.88867188 129.94148437 -157.05859375 129.07421875 C-156.03994828 128.04859865 -155.02030585 127.02396833 -154 126 C-152.63657506 124.61081809 -151.27330472 123.22148445 -149.91015625 121.83203125 C-147.07546705 118.96095077 -144.23700393 116.09388579 -141.37890625 113.24609375 C-140.7763501 112.64466553 -140.17379395 112.0432373 -139.55297852 111.42358398 C-137.28462902 109.3442339 -136.02104046 109.00290673 -132.91796875 108.57421875 C-127.53310443 109.15941338 -124.54408098 111.59144582 -120.3125 114.8125 C-119.19391602 115.63331055 -119.19391602 115.63331055 -118.05273438 116.47070312 C-115.29600544 118.49951791 -112.56086038 120.53629654 -109.92260742 122.7175293 C-109.28814697 123.14074463 -108.65368652 123.56395996 -108 124 C-105.18882252 123.48472611 -105.18882252 123.48472611 -102 122 C-100.74316406 121.60941406 -100.74316406 121.60941406 -99.4609375 121.2109375 C-98.56632812 120.91445313 -97.67171875 120.61796875 -96.75 120.3125 C-95.89921875 120.04050781 -95.0484375 119.76851563 -94.171875 119.48828125 C-90.87251315 117.22738761 -90.75971225 114.84920872 -90 111 C-89.51249533 107.63455108 -89.18130624 104.25937575 -88.87695312 100.87304688 C-88.39208947 96.32581208 -87.49744333 92.84952674 -85 89 C-80.91032588 85.83699914 -77.250887 85.55831538 -72.25 85.6015625 C-71.51426758 85.59869232 -70.77853516 85.59582214 -70.02050781 85.59286499 C-68.47069526 85.59083074 -66.92085666 85.59631585 -65.37109375 85.60888672 C-63.00722507 85.6249509 -60.64506589 85.6090178 -58.28125 85.58984375 C-56.77082958 85.5918263 -55.26041022 85.59567021 -53.75 85.6015625 C-53.0477832 85.59548981 -52.34556641 85.58941711 -51.62207031 85.5831604 C-47.24571405 85.64546933 -44.48297532 86.32436337 -41 89 C-37.41170819 94.22231943 -37.04393032 100.11078157 -36.3125 106.25 C-36.11817383 107.75820312 -36.11817383 107.75820312 -35.91992188 109.296875 C-35 116.53943452 -35 116.53943452 -35 119 C-34.41992188 119.10957031 -33.83984375 119.21914063 -33.2421875 119.33203125 C-29.3660191 120.1187783 -26.26469631 120.85747122 -22.75 122.75 C-20.12672637 124.31217738 -20.12672637 124.31217738 -17.77896118 123.29891968 C-16.86190399 122.87027618 -15.9448468 122.44163269 -15 122 C-13.84664154 121.50923981 -12.69328308 121.01847961 -11.50497437 120.5128479 C-6.4834568 117.94092432 -2.01266723 115.11752503 -0.19983673 109.5366745 C1.09253112 101.92745617 0.75207369 94.21017282 0.5859375 86.5234375 C0.58226006 84.02666373 0.58476317 81.52987389 0.59317017 79.03311157 C0.59814368 73.15309285 0.54122952 67.27627287 0.45364916 61.39695895 C0.34789692 54.03945982 0.33942943 46.68236412 0.328125 39.32421875 C0.29632308 26.2149926 0.17888196 13.10800245 0 0 Z " fill="#9493FE" transform="translate(429,147)"/>
<path d="M0 0 C4.55835094 -0.04793777 9.11676151 -0.08299782 13.67523175 -0.11742097 C16.69397392 -0.14659582 19.71183394 -0.1971849 22.73026222 -0.2487244 C24.51035752 -0.2626692 26.29046178 -0.27553047 28.07057422 -0.28708023 C28.8546861 -0.30758812 29.63879798 -0.328096 30.44667083 -0.34922534 C35.63645967 -0.35041231 38.57657666 0.80035098 42.5600304 4.10505539 C53.44324888 25.87149235 43.5600304 52.76943906 43.5600304 77.10505539 C-80.8499696 77.10505539 -205.2599696 77.10505539 -333.4399696 77.10505539 C-333.4399696 6.10505539 -333.4399696 6.10505539 -328.4399696 1.10505539 C-325.84159589 0.47765088 -325.84159589 0.47765088 -323.00810295 0.47419888 C-321.92351286 0.46076024 -320.83892276 0.4473216 -319.7214663 0.43347573 C-318.53534165 0.44414899 -317.34921699 0.45482225 -316.12714916 0.46581894 C-314.8622581 0.45746327 -313.59736704 0.44910759 -312.29414594 0.44049871 C-308.78360112 0.41798253 -305.27371331 0.42656266 -301.76314801 0.4401843 C-297.97422177 0.449445 -294.1854314 0.42990033 -290.39654309 0.41386276 C-283.82142669 0.38998745 -277.24649779 0.38442485 -270.67134434 0.39120919 C-261.11256913 0.40104127 -251.55399963 0.38321103 -241.99525771 0.35884187 C-226.41766045 0.3198849 -210.84012198 0.30328757 -195.26247936 0.30061203 C-180.24942714 0.29798634 -165.2364452 0.28505592 -150.22341686 0.25764328 C-148.84577992 0.25513322 -148.84577992 0.25513322 -147.44031193 0.25257244 C-142.82588832 0.24410227 -138.21146511 0.23543279 -133.59704202 0.22667974 C-110.75858074 0.18358638 -87.92011279 0.14706023 -65.08161694 0.12927109 C-64.27065264 0.12860165 -63.45968835 0.12793222 -62.62414937 0.1272425 C-54.00915139 0.12024333 -45.39417509 0.11673327 -36.77917534 0.12185818 C-33.84549931 0.12325772 -30.91182333 0.12433182 -27.97814709 0.12516648 C-26.91596494 0.12553452 -26.91596494 0.12553452 -25.83232457 0.12590999 C-17.22098391 0.12735991 -8.61095689 0.09095323 0 0 Z " fill="#FE9A34" transform="translate(385.439969599247,52.89494460821152)"/>
<path d="M0 0 C33.44193329 14.1409256 62.02576951 21.4466081 97 7.9375 C101.8232193 5.86712447 106.51763475 3.52716964 111.20953369 1.17755127 C114.80015583 -0.61958351 118.40708542 -2.38353005 122.01171875 -4.15234375 C122.71026978 -4.49614075 123.4088208 -4.83993774 124.12854004 -5.19415283 C129.58348052 -7.87425933 135.07168371 -10.4666039 140.625 -12.9375 C141.63300659 -13.39153198 141.63300659 -13.39153198 142.66137695 -13.85473633 C152.2956885 -18.08751993 163.2660621 -20.17903626 173.640625 -17.33984375 C185.46926476 -11.76412997 192.33513786 1.54798494 196.609375 13.26171875 C197.16166188 14.83926158 197.70851376 16.41871735 198.25 18 C198.50845703 18.74362793 198.76691406 19.48725586 199.03320312 20.25341797 C199.27490234 20.9857666 199.51660156 21.71811523 199.765625 22.47265625 C199.97993164 23.115979 200.19423828 23.75930176 200.41503906 24.42211914 C200.97509772 26.83041811 201.27443052 29.13835588 201.53656006 31.5947113 C201.66786127 32.81363398 201.66786127 32.81363398 201.80181503 34.05718136 C201.86721607 34.67768651 201.93261711 35.29819166 202 35.9375 C201.33037678 35.93923625 200.66075356 35.9409725 199.97083873 35.94276136 C160.31434808 36.04571124 120.65787447 36.15380678 81.00141631 36.26861694 C76.24353871 36.2823871 71.485661 36.29611411 66.7277832 36.30981445 C65.30692628 36.31390691 65.30692628 36.31390691 63.85736517 36.31808204 C48.50463156 36.36219914 33.15189058 36.40281826 17.79914405 36.44215261 C2.05465548 36.48256818 -13.68981938 36.52672438 -29.43428773 36.57437855 C-39.15535467 36.60368288 -48.87642056 36.63004311 -58.59750535 36.65267897 C-65.25678861 36.66846437 -71.91605507 36.68787164 -78.57531969 36.71016841 C-82.4216716 36.72293865 -86.26801056 36.73407239 -90.11437798 36.74091911 C-94.27784433 36.74837185 -98.44124772 36.76343104 -102.60469055 36.77928162 C-104.44172868 36.78074878 -104.44172868 36.78074878 -106.31587869 36.78224558 C-107.42608823 36.78772002 -108.53629778 36.79319446 -109.68015003 36.7988348 C-110.64198163 36.80149284 -111.60381323 36.80415089 -112.59479123 36.80688947 C-115.1454137 36.83912579 -115.1454137 36.83912579 -118 37.9375 C-118.95710196 40.80880589 -119.14776848 42.6829989 -119.19639587 45.67018127 C-119.22362008 47.16208953 -119.22362008 47.16208953 -119.25139427 48.68413734 C-119.26632235 49.79585493 -119.28125042 50.90757252 -119.29663086 52.05297852 C-119.31589945 53.25598791 -119.33516804 54.45899731 -119.35502052 55.69846153 C-119.40752852 59.13954179 -119.45474468 62.58060951 -119.49864316 66.02180552 C-119.52768288 68.28028124 -119.55832068 70.53873105 -119.58921623 72.79718208 C-120.30645737 125.99527545 -120.34158618 179.2032524 -120.51740968 232.40536082 C-120.55247833 242.99721621 -120.5894582 253.58906375 -120.62768555 264.1809082 C-120.63040982 264.93588669 -120.63313409 265.69086518 -120.63594092 266.4687218 C-120.64962881 270.2593813 -120.66334741 274.05004069 -120.67708123 277.84070003 C-120.78947406 308.87295095 -120.89654175 339.90521794 -121 370.9375 C-122.32 370.6075 -123.64 370.2775 -125 369.9375 C-124.67 368.9475 -124.34 367.9575 -124 366.9375 C-126.31 366.2775 -128.62 365.6175 -131 364.9375 C-130.67 363.9475 -130.34 362.9575 -130 361.9375 C-130.7425 361.793125 -131.485 361.64875 -132.25 361.5 C-134.52027739 361.03562508 -136.75759479 360.51886431 -139 359.9375 C-138.67 359.2775 -138.34 358.6175 -138 357.9375 C-137.34 357.9375 -136.68 357.9375 -136 357.9375 C-137.1645201 356.27128575 -137.1645201 356.27128575 -139 354.9375 C-141.65466049 355.16793864 -141.65466049 355.16793864 -144 355.9375 C-144 354.9475 -144 353.9575 -144 352.9375 C-143.34 352.9375 -142.68 352.9375 -142 352.9375 C-144.39509338 350.03817643 -146.31245243 349.43581724 -150 348.9375 C-149.67 347.9475 -149.34 346.9575 -149 345.9375 C-151.31 345.2775 -153.62 344.6175 -156 343.9375 C-155.67 342.9475 -155.34 341.9575 -155 340.9375 C-157.31 340.2775 -159.62 339.6175 -162 338.9375 C-172.03620405 301.16122795 -155.55924346 260.06690546 -140.25 226.0625 C-135.02645914 214.41855955 -130.52655747 202.84960482 -130 189.9375 C-129.96003906 189.08671875 -129.92007813 188.2359375 -129.87890625 187.359375 C-129.5415301 172.83235497 -132.0189718 158.52798099 -135.22799683 144.42025757 C-135.95083542 141.24192296 -136.65200785 138.05890136 -137.35520935 134.87617493 C-137.71361444 133.25555929 -138.0731148 131.63518547 -138.43373108 130.01506042 C-140.16566818 122.2314725 -141.81703406 114.43246965 -143.4375 106.625 C-143.6840332 105.45283936 -143.93056641 104.28067871 -144.18457031 103.07299805 C-149.24822329 78.64969601 -150.33799948 51.84288696 -138.13671875 29.46875 C-136.46102765 25.73731414 -136.67193689 23.75568143 -138 19.9375 C-140.64396764 17.29353236 -143.57503819 16.36975676 -147 14.9375 C-147.495 14.4425 -147.495 14.4425 -148 13.9375 C-147.71269945 11.59805264 -147.38063221 9.2635857 -147 6.9375 C-145.14375 6.4734375 -145.14375 6.4734375 -143.25 6 C-140.41055167 4.97700016 -139.27639985 4.41838375 -137.75390625 1.76953125 C-137.1351506 0.15460467 -136.52548233 -1.46383854 -135.92578125 -3.0859375 C-135 -5.0625 -135 -5.0625 -132.5 -6.3125 C-129.27416273 -5.98991627 -128.22647847 -5.43741037 -126 -3.0625 C-125.505 -1.86625 -125.01 -0.67 -124.5 0.5625 C-123.39930548 3.94028946 -123.39930548 3.94028946 -121.25 4.9296875 C-117.64367233 4.94220947 -116.1032511 2.81681552 -113.5 0.4375 C-78.30249592 -30.35694363 -38.17265429 -16.19512169 0 0 Z " fill="#E1E0FD" transform="translate(172,18.0625)"/>
<path d="M0 0 C19.8 0 39.6 0 60 0 C60 96.69 60 193.38 60 293 C7 293 7 293 1 288 C-0.21871749 285.56256501 -0.12423983 284.01224477 -0.12304783 281.28733635 C-0.12503888 280.28710312 -0.12702993 279.28686989 -0.12908131 278.25632656 C-0.12471205 276.59584826 -0.12471205 276.59584826 -0.12025452 274.90182495 C-0.12110894 273.73222013 -0.12196337 272.5626153 -0.12284368 271.35756791 C-0.12421033 268.10122181 -0.12106865 264.84491512 -0.11606562 261.58857369 C-0.11175995 258.08073694 -0.11320763 254.57290213 -0.1139679 251.06506348 C-0.11449306 244.9842065 -0.11134707 238.90336023 -0.10573006 232.82250595 C-0.097614 224.03053763 -0.09499973 215.2385745 -0.09374207 206.44660284 C-0.09155171 192.18331171 -0.08489208 177.9200263 -0.07543945 163.65673828 C-0.0662649 149.79866566 -0.05918428 135.94059458 -0.05493164 122.08251953 C-0.05466892 121.22876424 -0.05440619 120.37500895 -0.05413551 119.49538229 C-0.0528305 115.21247919 -0.05156679 110.92957608 -0.05032361 106.64667296 C-0.03995152 71.09777691 -0.02151349 35.5488914 0 0 Z " fill="#C498D2" transform="translate(51,130)"/>
<path d="M0 0 C4.40362766 1.76145106 7.54072083 3.68572964 11.1875 6.5625 C11.75629883 7.00650146 12.32509766 7.45050293 12.91113281 7.90795898 C18.15476091 12.04360229 23.1408076 16.41847573 28 21 C29.10408203 22.00740234 29.10408203 22.00740234 30.23046875 23.03515625 C57.72738867 49.07206273 68.90231974 88.62455838 74 125 C74.1045752 125.7326709 74.20915039 126.4653418 74.31689453 127.22021484 C75.40223811 136.17672632 75.24389653 145.24200857 75.25 154.25 C75.25067474 155.14361237 75.25134949 156.03722473 75.25204468 156.95791626 C75.23578899 170.51348549 74.76606132 183.68598918 72 197 C71.82307617 197.87027832 71.64615234 198.74055664 71.46386719 199.63720703 C70.17518297 205.81465617 68.67380554 211.91608073 67 218 C66.69352539 219.11955078 66.69352539 219.11955078 66.38085938 220.26171875 C61.01870741 239.22501172 51.85926088 264.39058349 37 278 C36.59910156 277.27296875 36.19820313 276.5459375 35.78515625 275.796875 C31.97448443 269.03339119 31.97448443 269.03339119 27.4609375 262.7421875 C27.04191162 262.21915039 26.62288574 261.69611328 26.19116211 261.15722656 C24.98773054 259.68639179 23.75803303 258.2371669 22.52734375 256.7890625 C21 254 21 254 21.65234375 251.0078125 C22.09707031 250.01523437 22.54179687 249.02265625 23 248 C23.26039063 247.03578125 23.52078125 246.0715625 23.7890625 245.078125 C24.64140466 242.19450014 25.55226299 239.63819546 27 237 C30.1708208 235.53202741 31.64083896 235.23736007 35 235 C47.56658216 234.2289173 47.56658216 234.2289173 57.65307617 227.86743164 C59.31489069 224.32963727 59.4148527 221.26084963 59.36328125 217.43359375 C59.36377975 216.7176857 59.36427826 216.00177765 59.36479187 215.26417542 C59.36246039 213.75722464 59.35278661 212.2502693 59.33618164 210.7434082 C59.31253814 208.44121404 59.31563363 206.14017585 59.32226562 203.83789062 C59.31668972 202.36978479 59.30958038 200.90168381 59.30078125 199.43359375 C59.30169266 198.74808945 59.30260406 198.06258514 59.30354309 197.35630798 C59.25048739 193.77040948 59.11852647 190.96735177 57 188 C51.63268118 185.06290315 46.32563082 184.22710304 40.3125 183.4375 C38.64106601 183.21336134 36.97043879 182.98310303 35.30078125 182.74609375 C34.57028564 182.64997803 33.83979004 182.5538623 33.0871582 182.45483398 C30.76572816 181.94894743 29.02354742 181.24498877 27 180 C25.55078125 177.3203125 25.55078125 177.3203125 24.3125 174.125 C23.89613281 173.07570313 23.47976563 172.02640625 23.05078125 170.9453125 C22.70402344 169.97335937 22.35726563 169.00140625 22 168 C21.75813965 167.36562012 21.5162793 166.73124023 21.26708984 166.07763672 C20.88983681 163.14306332 21.91019292 162.13872287 23.67578125 159.8125 C24.25650391 159.03132812 24.83722656 158.25015625 25.43554688 157.4453125 C26.05494141 156.63835937 26.67433594 155.83140625 27.3125 155 C28.51936774 153.39766871 29.72388418 151.79356312 30.92578125 150.1875 C31.73656128 149.12595703 31.73656128 149.12595703 32.5637207 148.04296875 C35.40393636 144.00303596 36.86566282 141.00160743 36 136 C31.48703312 129.80114476 25.60934733 124.45613303 20.1875 119.0625 C19.42501953 118.29615234 18.66253906 117.52980469 17.87695312 116.74023438 C17.14798828 116.01255859 16.41902344 115.28488281 15.66796875 114.53515625 C15.01078857 113.879104 14.3536084 113.22305176 13.67651367 112.54711914 C10.30747738 109.43810749 7.46063414 109.84348652 3 110 C1.515 110.495 1.515 110.495 0 111 C0 74.37 0 37.74 0 0 Z " fill="#D9D9FE" transform="translate(429,147)"/>
<path d="M0 0 C0.92702728 -0.00014603 1.85405457 -0.00029205 2.80917358 -0.0004425 C5.87711924 0.00025485 8.94500439 0.00803902 12.01293945 0.01586914 C14.1385749 0.01773395 16.26421077 0.01915756 18.3898468 0.02015686 C23.98761174 0.0239771 29.58535077 0.0338032 35.18310547 0.04486084 C40.89395802 0.05508555 46.60481476 0.05965676 52.31567383 0.06469727 C63.52336751 0.07542588 74.73104195 0.09249642 85.9387207 0.11352539 C85.92301025 1.11730225 85.9072998 2.1210791 85.89111328 3.15527344 C85.83666957 6.89184494 85.80231844 10.6283816 85.77392578 14.36523438 C85.75887195 15.98020328 85.73842422 17.59513152 85.71240234 19.20996094 C85.67586784 21.53599094 85.65896056 23.8614788 85.64575195 26.18774414 C85.6302681 26.90564621 85.61478424 27.62354828 85.59883118 28.36320496 C85.59735001 32.81027888 86.21522273 35.57476737 88.9387207 39.11352539 C92.43649738 41.7606492 95.13020528 42.49431806 99.46606445 42.75415039 C115.85160008 44.22836525 115.85160008 44.22836525 119.67456055 47.68139648 C122.46200518 51.82483615 123.56694354 56.17951131 123.9387207 61.11352539 C122.83066216 65.97076831 119.4085768 69.77377261 116.4387207 73.67602539 C115.44631334 74.98769559 114.45663616 76.30143682 113.4699707 77.61743164 C113.03233398 78.19307861 112.59469727 78.76872559 112.14379883 79.36181641 C110.67474691 81.41064842 110.67474691 81.41064842 108.9387207 85.11352539 C67.3587207 85.11352539 25.7787207 85.11352539 -17.0612793 85.11352539 C-17.1644043 72.36727539 -17.2675293 59.62102539 -17.3737793 46.48852539 C-17.41929932 42.47100098 -17.46481934 38.45347656 -17.51171875 34.31420898 C-17.53430176 29.39013672 -17.53430176 29.39013672 -17.53849792 27.08145142 C-17.54615193 25.4766445 -17.5636883 23.87186549 -17.5891571 22.26724243 C-17.62590253 19.82926875 -17.63080507 17.39304418 -17.62890625 14.95483398 C-17.64689679 14.24569036 -17.66488733 13.53654675 -17.68342304 12.80591393 C-17.6440436 9.01407608 -17.03037361 6.61199381 -14.71330261 3.6859436 C-10.25466843 -0.6388569 -5.87196963 -0.02405758 0 0 Z " fill="#FD997E" transform="translate(158.061279296875,337.886474609375)"/>
<path d="M0 0 C11.01459623 7.39808711 19.23382392 18.09769605 22.0546875 31.23828125 C23.50317882 48.26630517 21.6124872 61.75909954 10.69921875 75.44140625 C1.05848384 85.63751584 -10.56692923 91.17957774 -24.61425781 91.75537109 C-38.73017643 91.98690203 -49.3037299 88.94090068 -59.9453125 79.23828125 C-60.58210938 78.66980469 -61.21890625 78.10132813 -61.875 77.515625 C-70.40694735 69.47801794 -75.66885715 59.38122129 -76.21875 47.61328125 C-76.6495601 31.55064643 -73.89659443 19.59815198 -62.9453125 7.23828125 C-45.8684356 -9.29697829 -20.23661098 -12.10439198 0 0 Z " fill="#894DC2" transform="translate(392.9453125,313.76171875)"/>
<path d="M0 0 C0.84013799 -0.00782324 1.68027597 -0.01564648 2.54587269 -0.02370679 C3.93043675 -0.01366855 3.93043675 -0.01366855 5.3429718 -0.00342751 C6.32347095 -0.00810748 7.30397009 -0.01278745 8.31418133 -0.01760924 C11.61468538 -0.02961889 14.91477879 -0.02007861 18.21528625 -0.01066017 C20.57536564 -0.01472321 22.93544311 -0.02006358 25.29551697 -0.02659035 C31.71687074 -0.04030149 38.1380804 -0.03494959 44.5594368 -0.02545309 C48.56714903 -0.02012842 52.57485132 -0.02112228 56.58256531 -0.02392387 C57.24737937 -0.02438357 57.91219343 -0.02484327 58.59715337 -0.0253169 C59.94761158 -0.02627605 61.29806978 -0.02724869 62.64852798 -0.02823468 C75.31875071 -0.03679411 87.98890838 -0.02694579 100.65912044 -0.01083358 C111.53627341 0.00257013 122.41333033 0.00024219 133.29048157 -0.01358986 C145.9146384 -0.02963593 158.53873818 -0.03597008 171.16290379 -0.02675307 C172.50845908 -0.0257974 173.85401439 -0.02485429 175.1995697 -0.02392387 C175.86164907 -0.02346105 176.52372843 -0.02299822 177.20587081 -0.02252137 C181.87678546 -0.01992855 186.54764411 -0.02445476 191.21855164 -0.03136253 C197.50252772 -0.04000613 203.78632181 -0.03405799 210.07027817 -0.01667976 C212.38142468 -0.01270096 214.69258643 -0.01387261 217.00372696 -0.02046776 C220.14908166 -0.02861829 223.29384649 -0.01844026 226.43916321 -0.00342751 C227.36220592 -0.01011967 228.28524862 -0.01681184 229.23626232 -0.02370679 C230.4964693 -0.01197193 230.4964693 -0.01197193 231.78213501 0 C232.50843266 0.00048706 233.23473032 0.00097411 233.98303699 0.00147593 C236.46439851 0.49051936 237.35802116 1.40029637 238.8910675 3.37752342 C239.26338196 5.88948631 239.26338196 5.88948631 239.25434875 8.85017967 C239.25338196 10.44636131 239.25338196 10.44636131 239.25239563 12.07478905 C239.23628235 13.18531639 239.22016907 14.29584373 239.2035675 15.44002342 C239.20679016 16.55441795 239.21001282 17.66881248 239.21333313 18.81697655 C239.1580089 27.11058203 239.1580089 27.11058203 236.8910675 29.37752342 C235.09326077 29.62822175 235.09326077 29.62822175 232.87115479 29.6292057 C232.02542436 29.6344212 231.17969393 29.63963669 230.3083353 29.64501023 C229.37391574 29.64054879 228.43949617 29.63608735 227.47676086 29.63149071 C225.99398478 29.63617068 225.99398478 29.63617068 224.48125362 29.6409452 C221.14774665 29.64896314 217.81441979 29.6425868 214.48091125 29.63631248 C212.09965406 29.63902066 209.7183977 29.64258061 207.33714294 29.6469326 C201.52807346 29.65512826 195.71906184 29.65389736 189.90999055 29.64810732 C185.19037085 29.64359723 180.47076564 29.64297509 175.75114441 29.64515495 C175.08035541 29.64546142 174.40956642 29.64576789 173.71845049 29.64608364 C172.35591101 29.64672307 170.99337154 29.64737149 169.63083208 29.64802882 C156.84334252 29.65373689 144.0558816 29.64716675 131.26839674 29.63642809 C120.28746275 29.62749214 109.30657104 29.62904405 98.32563782 29.63826561 C85.58504445 29.64895983 72.8444762 29.65318753 60.10387897 29.64704108 C58.74624952 29.64640396 57.38862006 29.64577522 56.0309906 29.64515495 C55.36294732 29.6448464 54.69490403 29.64453785 54.00661701 29.64421995 C49.29067537 29.64249046 44.57474961 29.64541357 39.85881042 29.65011406 C33.51579246 29.65587261 27.17285469 29.65191805 20.82984543 29.64032555 C18.49570219 29.63767095 16.16155226 29.63845757 13.82741165 29.64285088 C10.65330665 29.64827633 7.47946232 29.64150884 4.30537415 29.63149071 C3.37095458 29.63595215 2.43653502 29.64041359 1.47379971 29.64501023 C0.20520406 29.63718699 0.20520406 29.63718699 -1.08901978 29.6292057 C-2.18896224 29.62871865 -2.18896224 29.62871865 -3.31112576 29.62822175 C-5.1089325 29.37752342 -5.1089325 29.37752342 -7.1089325 27.37752342 C-7.56549047 23.4170352 -7.43295292 19.42378532 -7.4214325 15.44002342 C-7.43754578 14.32949608 -7.45365906 13.21896873 -7.47026062 12.07478905 C-7.47090515 11.01066795 -7.47154968 9.94654686 -7.47221375 8.85017967 C-7.4751947 7.87315086 -7.47817566 6.89612206 -7.48124695 5.88948631 C-6.80947356 1.35710838 -4.38164947 0.00293834 0 0 Z " fill="#FFBF94" transform="translate(95.10893249511719,77.62247657775879)"/>
<path d="M0 0 C2.31 0.33 4.62 0.66 7 1 C7 1.99 7 2.98 7 4 C7.598125 4.103125 8.19625 4.20625 8.8125 4.3125 C11.31258286 5.09824033 12.37535082 5.96918853 14 8 C14 8.66 14 9.32 14 10 C15.65 10.33 17.3 10.66 19 11 C19.33 11.99 19.66 12.98 20 14 C19.34 14.66 18.68 15.32 18 16 C18.763125 15.79375 19.52625 15.5875 20.3125 15.375 C23 15 23 15 26 17 C26 17.66 26 18.32 26 19 C25.34 19.66 24.68 20.32 24 21 C25.11375 20.938125 26.2275 20.87625 27.375 20.8125 C29.169375 20.9053125 29.169375 20.9053125 31 21 C33 24 33 24 33 26 C34.65 26.33 36.3 26.66 38 27 C38 27.99 38 28.98 38 30 C38.99 30.66 39.98 31.32 41 32 C41.36889648 34.6262207 41.36889648 34.6262207 41.37109375 37.92578125 C41.38849609 39.11494141 41.40589844 40.30410156 41.42382812 41.52929688 C41.43290032 44.03970255 41.43814493 46.55012515 41.43945312 49.06054688 C41.46749023 50.85008789 41.46749023 50.85008789 41.49609375 52.67578125 C41.49887329 54.3141394 41.49887329 54.3141394 41.50170898 55.9855957 C42.11198846 59.67747257 43.4259846 61.33533122 46 64 C49.27315509 65.63657754 52.90622231 65.2430807 56.5078125 65.31640625 C57.34843231 65.33718735 58.18905212 65.35796844 59.05514526 65.37937927 C61.74501235 65.44485439 64.43497843 65.5037502 67.125 65.5625 C68.94662489 65.60568716 70.76823971 65.64930152 72.58984375 65.69335938 C77.05979394 65.80053368 81.52984386 65.90180685 86 66 C87.0625 68.375 87.0625 68.375 88 71 C87.67 71.66 87.34 72.32 87 73 C89.31 73.33 91.62 73.66 94 74 C94 74.99 94 75.98 94 77 C94.598125 77.103125 95.19625 77.20625 95.8125 77.3125 C98.28243264 78.08876455 99.32251235 79.07088921 101 81 C100.34 81.99 99.68 82.98 99 84 C100.1446875 83.690625 100.1446875 83.690625 101.3125 83.375 C104 83 104 83 107 85 C107 85.66 107 86.32 107 87 C106.34 87.66 105.68 88.32 105 89 C106.1446875 88.690625 106.1446875 88.690625 107.3125 88.375 C110 88 110 88 113 90 C112.505 91.98 112.505 91.98 112 94 C113.98 94 115.96 94 118 94 C118 95.32 118 96.64 118 98 C119.81414051 99.81414051 122.54959054 99.6350454 125 100 C125 100.99 125 101.98 125 103 C125.598125 103.12375 126.19625 103.2475 126.8125 103.375 C129 104 129 104 132 106 C132 106.66 132 107.32 132 108 C131.34 108.66 130.68 109.32 130 110 C131.1446875 109.690625 131.1446875 109.690625 132.3125 109.375 C135 109 135 109 138 111 C138 111.66 138 112.32 138 113 C137.34 113.66 136.68 114.32 136 115 C138.31 115 140.62 115 143 115 C143 116.32 143 117.64 143 119 C144.81414051 120.81414051 147.54959054 120.6350454 150 121 C150 121.99 150 122.98 150 124 C150.598125 124.103125 151.19625 124.20625 151.8125 124.3125 C154.31258286 125.09824033 155.37535082 125.96918853 157 128 C157 128.66 157 129.32 157 130 C158.65 130.33 160.3 130.66 162 131 C162.33 131.99 162.66 132.98 163 134 C162.34 134.66 161.68 135.32 161 136 C161.763125 135.79375 162.52625 135.5875 163.3125 135.375 C166 135 166 135 169 137 C169 137.66 169 138.32 169 139 C168.34 139.66 167.68 140.32 167 141 C169.31 141 171.62 141 174 141 C174 142.32 174 143.64 174 145 C175.81414051 146.81414051 178.54959054 146.6350454 181 147 C181 148.66666667 181 150.33333333 181 152 C135.51609759 146.20651969 92.85573718 131.56792649 58.52587891 100.37890625 C56.56966648 98.6111162 54.56703692 96.90011407 52.5625 95.1875 C25.97297909 71.68579442 6.37143388 34.81519369 0 0 Z " fill="#FCFCFE" transform="translate(10,357)"/>
<path d="M0 0 C10.9737424 7.37064714 19.30519173 18.10943894 22.0546875 31.23828125 C22.13335709 32.82520764 22.16252864 34.41506374 22.15234375 36.00390625 C22.14750977 37.33808594 22.14750977 37.33808594 22.14257812 38.69921875 C22.13000977 40.07980469 22.13000977 40.07980469 22.1171875 41.48828125 C22.11267578 42.42414063 22.10816406 43.36 22.10351562 44.32421875 C22.09175668 46.62897166 22.07532176 48.93359352 22.0546875 51.23828125 C21.0646875 51.73328125 21.0646875 51.73328125 20.0546875 52.23828125 C19.7659375 51.02140625 19.4771875 49.80453125 19.1796875 48.55078125 C15.58927166 37.88067222 6.9252416 28.43409329 -2.9453125 23.23828125 C-16.68563546 17.29206958 -31.68917327 15.7778466 -45.98046875 20.9140625 C-60.76802384 27.51878078 -67.40417553 37.08238603 -73.9453125 51.23828125 C-74.6053125 50.90828125 -75.2653125 50.57828125 -75.9453125 50.23828125 C-76.75326313 33.23540902 -74.66935848 20.4703114 -62.9453125 7.23828125 C-45.8684356 -9.29697829 -20.23661098 -12.10439198 0 0 Z " fill="#6B33CA" transform="translate(392.9453125,313.76171875)"/>
<path d="M0 0 C0.83123383 0.00404846 1.66246765 0.00809692 2.51889038 0.01226807 C3.3937912 0.00876343 4.26869202 0.00525879 5.17010498 0.00164795 C8.07160296 -0.00717824 10.97285852 -0.00131709 13.87435913 0.00543213 C15.88453214 0.00408573 17.89470482 0.00214542 19.90487671 -0.00036621 C24.12162368 -0.00331868 28.33828604 0.00098411 32.55502319 0.01031494 C37.96928137 0.02170952 43.38334127 0.01515071 48.79759216 0.00317001 C52.94961042 -0.00404527 57.10158142 -0.00176218 61.25360107 0.0034256 C63.25036645 0.00476301 65.24713607 0.00311119 67.24389648 -0.00153351 C70.03098983 -0.0065933 72.81775879 0.00110375 75.60482788 0.01226807 C76.43606171 0.0082196 77.26729553 0.00417114 78.12371826 0 C83.83333114 0.04252914 83.83333114 0.04252914 86.06185913 2.27105713 C86.37435913 5.27105713 86.37435913 5.27105713 86.06185913 8.27105713 C82.23557506 10.82191318 79.12566811 10.55932391 74.69076538 10.54571533 C73.83683197 10.55082626 72.98289856 10.55593719 72.10308838 10.561203 C69.27677427 10.57511793 66.45070345 10.57414099 63.62435913 10.57183838 C61.66285104 10.5757239 59.7013438 10.58005827 57.73983765 10.58482361 C53.62742384 10.59228964 49.51509587 10.59199149 45.40267944 10.58673096 C40.12636428 10.58093191 34.85039964 10.597876 29.57414246 10.62107563 C25.52330462 10.63578845 21.47255171 10.63668809 17.42169189 10.6335659 C15.47598577 10.63408022 13.53027502 10.63933861 11.58459473 10.64937782 C8.8671471 10.66167924 6.15038901 10.65498894 3.43295288 10.64337158 C2.62558685 10.65101532 1.81822083 10.65865906 0.98638916 10.66653442 C-4.4322974 10.61518801 -4.4322974 10.61518801 -6.94180298 8.90794373 C-8.35793837 6.58137052 -8.28017461 4.93892029 -7.93814087 2.27105713 C-5.33864418 -0.32843956 -3.54130862 0.02637811 0 0 Z " fill="#FBA868" transform="translate(251.93814086914063,211.72894287109375)"/>
<path d="M0 0 C0.85393341 -0.00365067 1.70786682 -0.00730133 2.587677 -0.01106262 C5.41412155 -0.01917739 8.23999447 -0.00555036 11.06640625 0.0090332 C13.02791341 0.0095517 14.98942109 0.00903441 16.95092773 0.00752258 C21.06339263 0.00761235 25.17566167 0.01805054 29.28808594 0.03613281 C34.56434858 0.05882007 39.84032493 0.05936452 45.11662292 0.05261517 C49.16746575 0.04927658 53.21824308 0.0559032 57.26907349 0.0657444 C59.21476906 0.0695986 61.16047191 0.07074371 63.10617065 0.06915855 C65.82352626 0.06878845 68.54051231 0.08139276 71.2578125 0.09765625 C72.06517853 0.09517883 72.87254456 0.09270142 73.70437622 0.09014893 C77.53967574 0.12685672 79.36137853 0.19396264 82.62890625 2.37231445 C82.94140625 5.37231445 82.94140625 5.37231445 82.62890625 8.37231445 C80.02940956 10.97181114 78.232074 10.61699347 74.69076538 10.64337158 C73.44391464 10.63729889 73.44391464 10.63729889 72.171875 10.63110352 C71.29697418 10.63460815 70.42207336 10.63811279 69.5206604 10.64172363 C66.61916242 10.65054982 63.71790686 10.64468868 60.81640625 10.63793945 C58.80623325 10.63928585 56.79606056 10.64122616 54.78588867 10.64373779 C50.5691417 10.64669026 46.35247934 10.64238747 42.13574219 10.63305664 C36.72148402 10.62166206 31.30742411 10.62822087 25.89317322 10.64020157 C21.74115496 10.64741686 17.58918396 10.64513376 13.43716431 10.63994598 C11.44039893 10.63860857 9.44362932 10.6402604 7.4468689 10.64490509 C4.65977555 10.64996488 1.87300659 10.64226783 -0.9140625 10.63110352 C-1.74529633 10.63515198 -2.57653015 10.63920044 -3.43295288 10.64337158 C-9.14256576 10.60084244 -9.14256576 10.60084244 -11.37109375 8.37231445 C-11.71312749 5.70445129 -11.79089125 4.06200106 -10.37475586 1.73542786 C-7.17788465 -0.43943884 -3.73458736 -0.03535721 0 0 Z " fill="#F7A66C" transform="translate(215.37109375,190.627685546875)"/>
<path d="M0 0 C1.21644196 0.00607269 1.21644196 0.00607269 2.4574585 0.01226807 C3.31124588 0.00876343 4.16503326 0.00525879 5.04469299 0.00164795 C7.87645519 -0.00717859 10.70796899 -0.00131646 13.53973389 0.00543213 C15.50267078 0.00408562 17.46560734 0.00214521 19.42854309 -0.00036621 C23.54693775 -0.00331883 27.66524577 0.00098412 31.78363037 0.01031494 C37.0677554 0.02170205 42.3516771 0.01515555 47.63579464 0.00317001 C51.69091834 -0.00405126 55.74599371 -0.00175929 59.80111885 0.0034256 C61.74960924 0.00476174 63.69810398 0.00311561 65.64658928 -0.00153351 C68.3688204 -0.00660228 71.0907208 0.0011168 73.81292725 0.01226807 C74.62186432 0.0082196 75.43080139 0.00417114 76.26425171 0 C80.10547556 0.02920825 81.92712983 0.08921693 85.19989014 2.27105713 C85.51239014 5.27105713 85.51239014 5.27105713 85.19989014 8.27105713 C82.60196424 10.86898303 80.8015149 10.52009959 77.26174927 10.55322266 C76.43051544 10.55074524 75.59928162 10.54826782 74.74285889 10.54571533 C73.86795807 10.55082626 72.99305725 10.55593719 72.09164429 10.561203 C69.1901573 10.57514071 66.28890669 10.57413926 63.38739014 10.57183838 C61.3772167 10.5757227 59.36704409 10.58005682 57.35687256 10.58482361 C53.14013002 10.59229459 48.92347119 10.59198796 44.70672607 10.58673096 C39.29240372 10.58093186 33.87842295 10.59787376 28.4641571 10.62107563 C24.31213362 10.63577773 20.16019309 10.63668955 16.00814819 10.6335659 C14.01137617 10.63408078 12.01459969 10.63934957 10.01785278 10.64937782 C7.23064699 10.66165832 4.44411567 10.6550016 1.65692139 10.64337158 C0.82568756 10.65101532 -0.00554626 10.65865906 -0.86196899 10.66653442 C-3.15631104 10.64527893 -3.15631104 10.64527893 -6.80010986 10.27105713 C-8.80010986 7.27105713 -8.80010986 7.27105713 -8.55010986 4.70855713 C-7.05228363 -0.15937814 -4.66891967 0.03563745 0 0 Z " fill="#9392FE" transform="translate(212.80010986328125,231.72894287109375)"/>
<path d="M0 0 C1.23282463 0.00607269 1.23282463 0.00607269 2.49055481 0.01226807 C3.35570206 0.00876343 4.2208493 0.00525879 5.11221313 0.00164795 C7.98124641 -0.00717794 10.85003451 -0.0013172 13.71907043 0.00543213 C15.7068232 0.00408573 17.69457564 0.0021454 19.68232727 -0.00036621 C23.85199615 -0.00331864 28.02157945 0.00098398 32.1912384 0.01031494 C37.54496319 0.02170953 42.89848747 0.01515069 48.2522049 0.00317001 C52.35790019 -0.00404538 56.46354768 -0.00176213 60.56924438 0.0034256 C62.54368107 0.00476298 64.51812204 0.00311129 66.49255371 -0.00153351 C69.24851534 -0.00659348 72.00414896 0.001104 74.76008606 0.01226807 C75.58196915 0.0082196 76.40385223 0.00417114 77.25064087 0 C82.89679237 0.04252907 82.89679237 0.04252907 85.12532043 2.27105713 C85.37532043 5.27105713 85.37532043 5.27105713 85.12532043 8.27105713 C82.54142765 10.85494992 80.78349389 10.51983343 77.26174927 10.55322266 C76.44143723 10.55074524 75.62112518 10.54826782 74.7759552 10.54571533 C73.91241425 10.55082626 73.04887329 10.55593719 72.15916443 10.561203 C69.29494867 10.57514172 66.43097239 10.57413901 63.56672668 10.57183838 C61.58136912 10.57572301 59.59601238 10.58005719 57.61065674 10.58482361 C53.44518848 10.59229507 49.27980497 10.59198788 45.11433411 10.58673096 C39.7696106 10.58093562 34.42523356 10.59786444 29.08056736 10.62107563 C24.97911543 10.63578957 20.87774737 10.63668786 16.77627373 10.6335659 C14.80544791 10.63408031 12.83461754 10.63934035 10.86381721 10.64937782 C8.11034092 10.66167943 5.35754515 10.65498843 2.6040802 10.64337158 C1.78579239 10.65101532 0.96750458 10.65865906 0.12442017 10.66653442 C-5.43509913 10.61454595 -5.43509913 10.61454595 -7.61927891 8.90782452 C-8.87467957 7.27105713 -8.87467957 7.27105713 -8.68717957 4.70855713 C-7.06622828 -0.15429673 -4.72820668 0.03561474 0 0 Z " fill="#FDAA67" transform="translate(252.8746795654297,170.72894287109375)"/>
<path d="M0 0 C0.76420761 0.00404846 1.52841522 0.00809692 2.31578064 0.01226807 C3.52330994 0.00701111 3.52330994 0.00701111 4.75523376 0.00164795 C7.4246729 -0.00717701 10.09384842 -0.00131702 12.76329041 0.00543213 C14.61412609 0.00408556 16.46496143 0.00214511 18.3157959 -0.00036621 C22.19880026 -0.00331862 26.08171273 0.00098341 29.96470642 0.01031494 C34.94616492 0.0217016 39.92740774 0.01515573 44.9088583 0.00317001 C48.73236724 -0.00405223 52.55582493 -0.00175884 56.3793354 0.0034256 C58.21618233 0.0047615 60.05303388 0.00311646 61.88987541 -0.00153351 C64.45644855 -0.00660382 67.02267115 0.00111892 69.58921814 0.01226807 C70.35140152 0.0082196 71.1135849 0.00417114 71.89886475 0 C75.6512058 0.03024818 77.31356684 0.13530392 80.51719666 2.27105713 C80.93417415 4.98141087 80.96397269 6.55961236 79.48925781 8.90794373 C76.41630308 11.03200857 73.19364369 10.67951942 69.58921814 10.64337158 C68.78244629 10.64702225 67.97567444 10.65067291 67.14445496 10.6544342 C64.47551988 10.66254584 61.80719071 10.64892589 59.13829041 10.63433838 C57.28648886 10.6338199 55.43468675 10.63433714 53.58288574 10.635849 C49.7016122 10.63575925 45.82054627 10.62532373 41.9393158 10.60723877 C36.9566525 10.58453569 31.97429225 10.58401007 26.99159145 10.59075642 C23.16811413 10.59409259 19.3447063 10.58747322 15.52124214 10.57762718 C13.68357265 10.57377001 11.84589544 10.5726291 10.00822258 10.57421303 C7.4439245 10.57458258 4.88001981 10.56199525 2.31578064 10.54571533 C1.16946922 10.54943146 1.16946922 10.54943146 0 10.55322266 C-5.25406006 10.49980042 -5.25406006 10.49980042 -7.48280334 8.27105713 C-7.73280334 5.27105713 -7.73280334 5.27105713 -7.48280334 2.27105713 C-4.96864818 -0.24309804 -3.43028176 0.02776392 0 0 Z " fill="#FBA868" transform="translate(149.48280334472656,211.72894287109375)"/>
<path d="M0 0 C0.76420761 0.00247742 1.52841522 0.00495483 2.31578064 0.00750732 C3.12080017 0.00239639 3.9258197 -0.00271454 4.75523376 -0.00798035 C7.42466095 -0.0219161 10.0938311 -0.02091658 12.76329041 -0.01861572 C14.61412655 -0.02250054 16.46496181 -0.02683476 18.3157959 -0.03160095 C22.19879544 -0.03907178 26.08170408 -0.03876571 29.96470642 -0.0335083 C34.94623479 -0.02771323 39.92739141 -0.04464136 44.9088583 -0.06785297 C48.73237288 -0.08256924 52.55579752 -0.08346489 56.3793354 -0.08034325 C58.21618956 -0.08085754 60.05304862 -0.08611555 61.88987541 -0.09615517 C64.4565702 -0.10846129 67.02253545 -0.10176324 69.58921814 -0.09014893 C70.35140152 -0.09779266 71.1135849 -0.1054364 71.89886475 -0.11331177 C74.87869264 -0.08343585 76.998195 -0.06120135 79.52441406 1.61012268 C80.51719666 3.28216553 80.51719666 3.28216553 80.32969666 6.40716553 C80.06157166 7.35591553 79.79344666 8.30466553 79.51719666 9.28216553 C76.40874969 10.83638901 73.11464105 10.42944835 69.70274353 10.4274292 C68.49280479 10.43246712 68.49280479 10.43246712 67.25842285 10.43760681 C64.58424859 10.44712881 61.91013683 10.44906043 59.23594666 10.45013428 C57.38271559 10.45334556 55.52948479 10.45670953 53.67625427 10.46022034 C49.78908195 10.46621443 45.90193187 10.46805991 42.01475525 10.46746826 C37.02424618 10.46736652 32.03387902 10.48102939 27.04340363 10.49824047 C23.21565592 10.50933616 19.38794281 10.51138824 15.56018066 10.51085854 C13.7197114 10.51204192 11.87924134 10.51648363 10.03878784 10.5241909 C7.46963937 10.5339436 4.90080283 10.5311318 2.33164978 10.52508545 C1.56587112 10.53070496 0.80009247 10.53632446 0.0111084 10.54211426 C-5.25448654 10.51048233 -5.25448654 10.51048233 -7.48280334 8.28216553 C-7.73280334 5.28216553 -7.73280334 5.28216553 -7.48280334 2.28216553 C-4.97037274 -0.23026508 -3.42850598 0.03486037 0 0 Z " fill="#FDAA67" transform="translate(149.48280334472656,170.71783447265625)"/>
<path d="M0 0 C0.81984375 0.79019531 1.6396875 1.58039063 2.484375 2.39453125 C6.17648697 5.46443795 9.58188372 6.07614317 14.25 6.6875 C15.37498901 6.8736084 15.37498901 6.8736084 16.52270508 7.06347656 C19.7488347 7.5912431 22.84946804 7.99528999 26.12109375 8.09765625 C29.00476959 8.26883335 30.56218783 8.42314261 33 10 C35.91640524 14.7810854 37.86462353 19.51427795 39 25 C38.13236524 28.52602732 36.54488867 31.39451874 34 34 C32.046875 34.2421875 32.046875 34.2421875 29.75 33.875 C28.43515625 33.67970703 28.43515625 33.67970703 27.09375 33.48046875 C26.0728125 33.32191406 25.051875 33.16335938 24 33 C22.12828125 32.80857422 22.12828125 32.80857422 20.21875 32.61328125 C18.9090625 32.47277344 17.599375 32.33226562 16.25 32.1875 C15.01765625 32.05730469 13.7853125 31.92710937 12.515625 31.79296875 C7.80083083 30.72952073 4.61603146 28.75736558 1.34741211 25.20288086 C-0.33040725 22.45981797 -0.34626859 20.77611511 -0.29296875 17.578125 C-0.28330078 16.55332031 -0.27363281 15.52851563 -0.26367188 14.47265625 C-0.23853516 13.40917969 -0.21339844 12.34570312 -0.1875 11.25 C-0.17396484 10.17105469 -0.16042969 9.09210938 -0.14648438 7.98046875 C-0.11116584 5.3198058 -0.06184199 2.66015704 0 0 Z " fill="#FE885E" transform="translate(243,374)"/>
<path d="M0 0 C3.125 0.3125 3.125 0.3125 4.875 2 C6.125 4.3125 6.125 4.3125 6.8125 6.875 C8.64246534 10.27350706 10.88355477 10.68491711 14.4453125 11.83203125 C14.99960937 11.99058594 15.55390625 12.14914063 16.125 12.3125 C16.62 15.7775 16.62 15.7775 17.125 19.3125 C14.9483836 21.08603929 13.35760679 22.24853313 10.625 23 C7.21010113 24.79282191 6.44203998 27.08986431 4.921875 30.53515625 C4.125 32.3125 4.125 32.3125 3.125 33.3125 C0.25 33.6875 0.25 33.6875 -2.875 33.3125 C-5.43764345 30.21965445 -6.31261722 27.24917948 -6.875 23.3125 C-8.15375 23.044375 -9.4325 22.77625 -10.75 22.5 C-14.37175855 21.74059901 -14.67551868 21.61172197 -16.875 18.3125 C-16.5508631 14.99009676 -16.26723697 13.70473697 -13.875 11.3125 C-12.740625 10.920625 -11.60625 10.52875 -10.4375 10.125 C-5.77116238 7.7508984 -5.48329685 6.13739054 -3.875 1.3125 C-2.875 0.3125 -2.875 0.3125 0 0 Z " fill="#FF6B6B" transform="translate(464.875,113.6875)"/>
<path d="M0 0 C2 2 2 2 3.25 5.4375 C5.30887718 9.62878569 6.77591432 10.2923909 11 12 C13 14 13 14 13.25 16.5 C13 19 13 19 11 21 C9.88625 21.185625 8.7725 21.37125 7.625 21.5625 C3.49499371 23.20026111 3.25342097 23.75224551 1.5625 27.625 C1.01626435 29.07401004 0.4869711 30.53001271 0 32 C-5.46325879 32.36421725 -5.46325879 32.36421725 -7.75 30.8125 C-9 29 -9 29 -9.6875 26.5625 C-11.47043553 23.08153063 -13.73290026 22.33665884 -17.22265625 20.796875 C-19 20 -19 20 -20 19 C-19.71269945 16.66055264 -19.38063221 14.3260857 -19 12 C-17.7625 11.690625 -16.525 11.38125 -15.25 11.0625 C-12.41493266 10.03566466 -11.26169199 9.41976605 -9.6484375 6.83203125 C-8.98016896 5.22767662 -8.3577531 3.60323091 -7.7890625 1.9609375 C-6.19927617 -1.98991763 -3.52914644 -0.97051527 0 0 Z " fill="#8383FF" transform="translate(44,13)"/>
<path d="M0 0 C0.83853516 0.00064453 1.67707031 0.00128906 2.54101562 0.00195312 C3.8490918 0.02612305 3.8490918 0.02612305 5.18359375 0.05078125 C6.05951172 0.04755859 6.93542969 0.04433594 7.83789062 0.04101562 C14.35400694 0.09619444 14.35400694 0.09619444 16.62109375 2.36328125 C17.06736158 5.48874281 16.94519677 8.64707965 16.93359375 11.80078125 C16.94970703 12.67283203 16.96582031 13.54488281 16.98242188 14.44335938 C16.98306641 15.28189453 16.98371094 16.12042969 16.984375 16.984375 C16.98735596 17.75193115 16.99033691 18.5194873 16.9934082 19.31030273 C16.51625877 21.94135164 15.77764212 22.80815104 13.62109375 24.36328125 C11.67578125 24.75146484 11.67578125 24.75146484 9.49609375 24.76171875 C8.7071875 24.76558594 7.91828125 24.76945312 7.10546875 24.7734375 C6.285625 24.76183594 5.46578125 24.75023437 4.62109375 24.73828125 C3.39132813 24.75568359 3.39132813 24.75568359 2.13671875 24.7734375 C0.95335938 24.76763672 0.95335938 24.76763672 -0.25390625 24.76171875 C-0.97320312 24.75833496 -1.6925 24.75495117 -2.43359375 24.75146484 C-4.97978503 24.24337698 -5.85514948 23.44721681 -7.37890625 21.36328125 C-7.76708984 19.41796875 -7.76708984 19.41796875 -7.77734375 17.23828125 C-7.78121094 16.449375 -7.78507812 15.66046875 -7.7890625 14.84765625 C-7.77746094 14.0278125 -7.76585938 13.20796875 -7.75390625 12.36328125 C-7.76550781 11.5434375 -7.77710937 10.72359375 -7.7890625 9.87890625 C-7.78326172 8.69554687 -7.78326172 8.69554687 -7.77734375 7.48828125 C-7.77395996 6.76898438 -7.77057617 6.0496875 -7.76708984 5.30859375 C-6.88617079 0.89402582 -4.15466404 -0.01613546 0 0 Z " fill="#FDAB8A" transform="translate(78.37890625,237.63671875)"/>
<path d="M0 0 C0.83853516 -0.00386719 1.67707031 -0.00773438 2.54101562 -0.01171875 C3.8490918 0.00568359 3.8490918 0.00568359 5.18359375 0.0234375 C6.4974707 0.00603516 6.4974707 0.00603516 7.83789062 -0.01171875 C8.67513672 -0.00785156 9.51238281 -0.00398437 10.375 0 C11.52464233 0.00507568 11.52464233 0.00507568 12.69750977 0.01025391 C14.62109375 0.3984375 14.62109375 0.3984375 16.62109375 3.3984375 C17.0427089 6.38459704 16.94543659 9.38562005 16.93359375 12.3984375 C16.94970703 13.21828125 16.96582031 14.038125 16.98242188 14.8828125 C16.98306641 15.67171875 16.98371094 16.460625 16.984375 17.2734375 C16.98735596 17.99273437 16.99033691 18.71203125 16.9934082 19.453125 C16.50446202 22.00782876 15.7089428 22.87375246 13.62109375 24.3984375 C11.67578125 24.78662109 11.67578125 24.78662109 9.49609375 24.796875 C8.7071875 24.80074219 7.91828125 24.80460937 7.10546875 24.80859375 C6.285625 24.79699219 5.46578125 24.78539062 4.62109375 24.7734375 C3.39132813 24.79083984 3.39132813 24.79083984 2.13671875 24.80859375 C0.95335938 24.80279297 0.95335938 24.80279297 -0.25390625 24.796875 C-0.97320312 24.79349121 -1.6925 24.79010742 -2.43359375 24.78662109 C-4.97978503 24.27853323 -5.85514948 23.48237306 -7.37890625 21.3984375 C-7.76708984 19.453125 -7.76708984 19.453125 -7.77734375 17.2734375 C-7.78121094 16.48453125 -7.78507812 15.695625 -7.7890625 14.8828125 C-7.77746094 14.06296875 -7.76585938 13.243125 -7.75390625 12.3984375 C-7.76550781 11.57859375 -7.77710937 10.75875 -7.7890625 9.9140625 C-7.78326172 8.73070312 -7.78326172 8.73070312 -7.77734375 7.5234375 C-7.77395996 6.80414063 -7.77057617 6.08484375 -7.76708984 5.34375 C-6.88774334 0.93706262 -4.14799408 0.01828653 0 0 Z " fill="#FDB691" transform="translate(78.37890625,148.6015625)"/>
<path d="M0 0 C0.78890625 -0.00386719 1.5778125 -0.00773438 2.390625 -0.01171875 C3.21046875 -0.00011719 4.0303125 0.01148438 4.875 0.0234375 C6.10476562 0.00603516 6.10476562 0.00603516 7.359375 -0.01171875 C8.54273437 -0.00591797 8.54273437 -0.00591797 9.75 0 C10.46929687 0.00338379 11.18859375 0.00676758 11.9296875 0.01025391 C14.47587878 0.51834177 15.35124323 1.31450194 16.875 3.3984375 C17.26318359 5.34375 17.26318359 5.34375 17.2734375 7.5234375 C17.27923828 8.70679688 17.27923828 8.70679688 17.28515625 9.9140625 C17.27355469 10.73390625 17.26195313 11.55375 17.25 12.3984375 C17.26160156 13.21828125 17.27320312 14.038125 17.28515625 14.8828125 C17.28128906 15.67171875 17.27742188 16.460625 17.2734375 17.2734375 C17.26836182 18.35238281 17.26836182 18.35238281 17.26318359 19.453125 C16.75509573 21.99931628 15.95893556 22.87468073 13.875 24.3984375 C11.9296875 24.78662109 11.9296875 24.78662109 9.75 24.796875 C8.96109375 24.80074219 8.1721875 24.80460937 7.359375 24.80859375 C6.53953125 24.79699219 5.7196875 24.78539062 4.875 24.7734375 C3.64523438 24.79083984 3.64523438 24.79083984 2.390625 24.80859375 C1.20726563 24.80279297 1.20726563 24.80279297 0 24.796875 C-0.71929687 24.79349121 -1.43859375 24.79010742 -2.1796875 24.78662109 C-4.72587878 24.27853323 -5.60124323 23.48237306 -7.125 21.3984375 C-7.51318359 19.453125 -7.51318359 19.453125 -7.5234375 17.2734375 C-7.52730469 16.48453125 -7.53117187 15.695625 -7.53515625 14.8828125 C-7.52355469 14.06296875 -7.51195313 13.243125 -7.5 12.3984375 C-7.51160156 11.57859375 -7.52320312 10.75875 -7.53515625 9.9140625 C-7.52935547 8.73070312 -7.52935547 8.73070312 -7.5234375 7.5234375 C-7.52005371 6.80414063 -7.51666992 6.08484375 -7.51318359 5.34375 C-6.66386947 1.0875645 -4.04682146 0.01903747 0 0 Z " fill="#FDB18D" transform="translate(78.125,192.6015625)"/>
<path d="M0 0 C5.32876821 0.94433867 8.04703325 4.42336167 11.70703125 8.2265625 C12.43470703 8.93941406 13.16238281 9.65226562 13.91210938 10.38671875 C16.94753519 13.47023612 19.10323572 15.77294482 20.55078125 19.890625 C20.36464591 23.1200732 19.82458744 24.06344648 17.58203125 26.3515625 C16.9375 27.01671875 16.29296875 27.681875 15.62890625 28.3671875 C14.8915625 29.10453125 14.15421875 29.841875 13.39453125 30.6015625 C12.16476563 31.95507812 12.16476563 31.95507812 10.91015625 33.3359375 C10.059375 34.24859375 9.20859375 35.16125 8.33203125 36.1015625 C7.53667969 36.9575 6.74132812 37.8134375 5.921875 38.6953125 C3.39453125 40.6015625 3.39453125 40.6015625 0.2109375 41.0078125 C-2.60546875 40.6015625 -2.60546875 40.6015625 -4.60546875 38.6015625 C-5.1015625 36.36328125 -5.1015625 36.36328125 -4.60546875 33.6015625 C-2.67873165 31.33771906 -0.83974578 29.40835037 1.33203125 27.4140625 C5.35298074 23.8916382 5.35298074 23.8916382 8.39453125 19.6015625 C7.79769531 19.34246094 7.20085937 19.08335937 6.5859375 18.81640625 C4.23194688 17.51143106 3.01167469 16.24682037 1.33203125 14.1640625 C-0.14652217 12.34822634 -1.56106234 10.64325866 -3.26953125 9.0390625 C-4.60546875 7.6015625 -4.60546875 7.6015625 -4.91796875 5.0390625 C-4.46771179 1.52705818 -3.39435564 0.7837043 0 0 Z " fill="#FBFAFD" transform="translate(201.60546875,279.3984375)"/>
<path d="M0 0 C2 2 2 2 2.5 4.23046875 C1.73710027 8.45621805 -0.93047785 10.46766134 -4 13.3125 C-4.57234375 13.86228516 -5.1446875 14.41207031 -5.734375 14.97851562 C-7.14523949 16.3305941 -8.57120512 17.66688335 -10 19 C-8.0114534 23.94850965 -3.96826356 26.93559983 -0.1171875 30.46484375 C2 33 2 33 2.4296875 35.69140625 C2 38 2 38 0 40 C-3.434477 40.41396927 -5.31181314 40.44984726 -8.24169922 38.53466797 C-8.92248535 37.86064941 -9.60327148 37.18663086 -10.3046875 36.4921875 C-11.05234375 35.75226563 -11.8 35.01234375 -12.5703125 34.25 C-13.33085937 33.46625 -14.09140625 32.6825 -14.875 31.875 C-15.65875 31.11445313 -16.4425 30.35390625 -17.25 29.5703125 C-17.98992187 28.82265625 -18.72984375 28.075 -19.4921875 27.3046875 C-20.16620605 26.62390137 -20.84022461 25.94311523 -21.53466797 25.24169922 C-23.48991074 22.25052308 -23.51327486 20.51176028 -23 17 C-21.53466797 14.75830078 -21.53466797 14.75830078 -19.4921875 12.6953125 C-18.38230469 11.57382812 -18.38230469 11.57382812 -17.25 10.4296875 C-16.46625 9.66914063 -15.6825 8.90859375 -14.875 8.125 C-14.11445313 7.34125 -13.35390625 6.5575 -12.5703125 5.75 C-11.82265625 5.01007813 -11.075 4.27015625 -10.3046875 3.5078125 C-9.62390137 2.83379395 -8.94311523 2.15977539 -8.24169922 1.46533203 C-5.31181314 -0.44984726 -3.434477 -0.41396927 0 0 Z " fill="#FCFBFE" transform="translate(165,280)"/>
<path d="M0 0 C0.8510582 -0.00953201 1.70211639 -0.01906403 2.57896423 -0.02888489 C3.9602224 -0.02751778 3.9602224 -0.02751778 5.36938477 -0.02612305 C6.31386978 -0.03040817 7.2583548 -0.0346933 8.23146057 -0.03910828 C10.23128456 -0.04485766 12.23112947 -0.04534738 14.23095703 -0.04101562 C17.29504005 -0.03785803 20.35815577 -0.06129905 23.42211914 -0.08666992 C25.36287313 -0.08894304 27.30362972 -0.08964635 29.24438477 -0.08862305 C30.62260658 -0.10243767 30.62260658 -0.10243767 32.02867126 -0.11653137 C32.88288162 -0.11030258 33.73709198 -0.10407379 34.6171875 -0.09765625 C35.36838364 -0.09828568 36.11957977 -0.0989151 36.89353943 -0.0995636 C39.44300893 0.38234892 40.3567554 1.19342214 41.87329102 3.2746582 C41.43850841 8.70944081 41.43850841 8.70944081 39.87329102 10.2746582 C38.50269509 10.37777857 37.12689443 10.41314773 35.75244141 10.41992188 C34.44086815 10.42949165 34.44086815 10.42949165 33.10279846 10.43925476 C31.67628212 10.440924 31.67628212 10.440924 30.22094727 10.44262695 C28.76524574 10.44761955 28.76524574 10.44761955 27.28013611 10.45271301 C25.22305782 10.4577865 23.16597126 10.46012121 21.10888672 10.45996094 C17.95274358 10.46214646 14.79695031 10.48029512 11.64086914 10.49926758 C9.64672972 10.50220154 7.65258863 10.50418632 5.65844727 10.50512695 C4.23496727 10.51590523 4.23496727 10.51590523 2.7827301 10.52690125 C1.90519577 10.52382462 1.02766144 10.52074799 0.12353516 10.51757812 C-0.65066269 10.51900314 -1.42486053 10.52042816 -2.22251892 10.52189636 C-4.12670898 10.2746582 -4.12670898 10.2746582 -6.12670898 8.2746582 C-6.37670898 5.2746582 -6.37670898 5.2746582 -6.12670898 2.2746582 C-3.74403542 -0.10801536 -3.24157469 0.01990297 0 0 Z " fill="#9392FE" transform="translate(148.126708984375,231.725341796875)"/>
<path d="M0 0 C1.24644287 -0.01429802 1.24644287 -0.01429802 2.51806641 -0.02888489 C3.41187012 -0.02797348 4.30567383 -0.02706207 5.2265625 -0.02612305 C6.14743652 -0.03040817 7.06831055 -0.0346933 8.01708984 -0.03910828 C9.96385882 -0.04485068 11.91064926 -0.04535249 13.85742188 -0.04101562 C16.84021457 -0.03785383 19.82201733 -0.06132215 22.8046875 -0.08666992 C24.69531125 -0.08894269 26.58593766 -0.08964652 28.4765625 -0.08862305 C29.37036621 -0.09783279 30.26416992 -0.10704254 31.18505859 -0.11653137 C32.43150146 -0.10718819 32.43150146 -0.10718819 33.703125 -0.09765625 C34.43354004 -0.09828568 35.16395508 -0.0989151 35.91650391 -0.0995636 C38.41997698 0.38458412 39.31225204 1.27531772 40.8515625 3.2746582 C41.1640625 5.8371582 41.1640625 5.8371582 40.8515625 8.2746582 C38.4453003 10.6809204 37.90049073 10.52667279 34.6171875 10.53344727 C33.74288086 10.53975159 32.86857422 10.54605591 31.96777344 10.55255127 C30.54899902 10.54647858 30.54899902 10.54647858 29.1015625 10.5402832 C28.13250977 10.54219666 27.16345703 10.54411011 26.16503906 10.54608154 C24.11392965 10.54744399 22.06281164 10.54374338 20.01171875 10.53540039 C16.86438711 10.5247018 13.7176263 10.53529374 10.5703125 10.5480957 C8.5807279 10.54677412 6.59114366 10.54421175 4.6015625 10.5402832 C3.65571289 10.54433167 2.70986328 10.54838013 1.73535156 10.55255127 C0.86104492 10.54624695 -0.01326172 10.53994263 -0.9140625 10.53344727 C-1.68524414 10.53185608 -2.45642578 10.53026489 -3.25097656 10.52862549 C-5.1484375 10.2746582 -5.1484375 10.2746582 -7.1484375 8.2746582 C-7.4609375 5.2746582 -7.4609375 5.2746582 -7.1484375 2.2746582 C-4.08700868 0.23370566 -3.45102254 0.02176873 0 0 Z " fill="#9190FD" transform="translate(149.1484375,190.725341796875)"/>
<path d="M0 0 C3.23428516 1.61714258 5.47493646 3.54299268 8.0859375 6.04296875 C8.98054688 6.87183594 9.87515625 7.70070313 10.796875 8.5546875 C12.7109375 11.35546875 12.7109375 11.35546875 12.5 15.1875 C12.23960937 16.23292969 11.97921875 17.27835937 11.7109375 18.35546875 C9.0859375 19.16796875 9.0859375 19.16796875 5.7109375 19.35546875 C3.3522877 17.93177923 1.70390913 16.30098867 -0.2890625 14.35546875 C-2.55365527 15.40688682 -4.29633639 16.36201525 -6.1640625 18.04296875 C-8.2890625 19.35546875 -8.2890625 19.35546875 -11.5390625 19.04296875 C-12.4465625 18.81609375 -13.3540625 18.58921875 -14.2890625 18.35546875 C-15.12109375 15.22265625 -15.12109375 15.22265625 -15.2890625 11.35546875 C-13.54353606 8.97326687 -12.13892346 7.38483585 -9.9765625 5.48046875 C-9.20795898 4.7534375 -9.20795898 4.7534375 -8.42382812 4.01171875 C-3.17015693 -0.89262098 -3.17015693 -0.89262098 0 0 Z " fill="#8585FF" transform="translate(191.2890625,464.64453125)"/>
<path d="M0 0 C3.99238386 0.85773872 6.14577405 2.90681055 8.875 5.76953125 C9.37257812 6.24390625 9.87015625 6.71828125 10.3828125 7.20703125 C12.87146638 9.7367069 13.95465905 11.35504675 14.5078125 14.88671875 C14.34023437 15.79679687 14.17265625 16.706875 14 17.64453125 C11 19.64453125 11 19.64453125 8.6875 19.58203125 C5.00802759 18.29849436 2.8810852 16.25760852 0 13.64453125 C-0.44730469 14.08925781 -0.89460937 14.53398437 -1.35546875 14.9921875 C-6.32574032 19.64453125 -6.32574032 19.64453125 -9.8125 19.64453125 C-12 18.64453125 -12 18.64453125 -14 16.64453125 C-14.4453125 14.3828125 -14.4453125 14.3828125 -14 11.64453125 C-12.34422547 9.46138369 -10.81710816 7.71627867 -8.875 5.83203125 C-8.400625 5.32994141 -7.92625 4.82785156 -7.4375 4.31054688 C-5.04880695 1.93799364 -3.30770972 0.71064076 0 0 Z " fill="#FEAC69" transform="translate(240,451.35546875)"/>
<path d="M0 0 C3.63900239 0.93249436 5.77191523 3.14702494 8.3125 5.765625 C9.06563477 6.4771875 9.06563477 6.4771875 9.83398438 7.203125 C12.3459665 9.73219544 13.45157343 11.33380014 14.01171875 14.8828125 C13.84285156 15.79289063 13.67398437 16.70296875 13.5 17.640625 C10.5 19.640625 10.5 19.640625 8.1875 19.578125 C4.50802759 18.29458811 2.3810852 16.25370227 -0.5 13.640625 C-0.94730469 14.08535156 -1.39460938 14.53007812 -1.85546875 14.98828125 C-6.84104438 19.65495012 -6.84104438 19.65495012 -10.375 19.578125 C-12.5 18.640625 -12.5 18.640625 -13.5 17.640625 C-14.09039484 13.52575187 -13.78996164 12.02961032 -11.26953125 8.6484375 C-10.29945054 7.67175761 -9.31311039 6.71100272 -8.3125 5.765625 C-7.82974609 5.26804688 -7.34699219 4.77046875 -6.84960938 4.2578125 C-4.68593807 2.14351356 -2.95162738 0.75635452 0 0 Z " fill="#FD6E6F" transform="translate(467.5,229.359375)"/>
<path d="M0 0 C1.06734375 -0.00257813 2.1346875 -0.00515625 3.234375 -0.0078125 C4.91273438 0.00378906 4.91273438 0.00378906 6.625 0.015625 C7.74390625 0.00789062 8.8628125 0.00015625 10.015625 -0.0078125 C11.08296875 -0.00523437 12.1503125 -0.00265625 13.25 0 C14.23226562 0.00225586 15.21453125 0.00451172 16.2265625 0.00683594 C18.625 0.265625 18.625 0.265625 20.625 2.265625 C20.98220495 5.05182357 21.11332203 6.60317034 19.41796875 8.90307617 C17.04562077 10.7059185 15.58505878 10.63885558 12.625 10.62890625 C11.655625 10.62826172 10.68625 10.62761719 9.6875 10.62695312 C8.1715625 10.6027832 8.1715625 10.6027832 6.625 10.578125 C5.614375 10.58134766 4.60375 10.58457031 3.5625 10.58789062 C-3.97428571 10.53276786 -3.97428571 10.53276786 -7.375 8.265625 C-7.6875 5.265625 -7.6875 5.265625 -7.375 2.265625 C-4.76631631 -0.34305869 -3.62967636 0.00833587 0 0 Z " fill="#F86A70" transform="translate(149.375,150.734375)"/>
<path d="M0 0 C0 4.29 0 8.58 0 13 C-8.89291917 13.48506832 -17.30940593 11.67625695 -26 10 C-26 8.02 -26 6.04 -26 4 C-6.76595745 0 -6.76595745 0 0 0 Z " fill="#B1B1FF" transform="translate(293,349)"/>
<path d="M0 0 C4.62 0 9.24 0 14 0 C13.52356944 3.58371665 13.04397098 7.16696012 12.5625 10.75 C12.42779297 11.76578125 12.29308594 12.7815625 12.15429688 13.828125 C12.02216797 14.8078125 11.89003906 15.7875 11.75390625 16.796875 C11.63345947 17.69760742 11.5130127 18.59833984 11.38891602 19.52636719 C11.04205758 21.73250008 10.58252295 23.84576418 10 26 C8.02 26 6.04 26 4 26 C2.68 17.42 1.36 8.84 0 0 Z " fill="#B1B1FF" transform="translate(359,429)"/>
<path d="M0 0 C17.85649203 1.92710706 17.85649203 1.92710706 26 4 C26 5.98 26 7.96 26 10 C8.14350797 13.44419134 8.14350797 13.44419134 0 13 C0 8.71 0 4.42 0 0 Z " fill="#B1B1FF" transform="translate(439,349)"/>
<path d="M0 0 C1.98 0 3.96 0 6 0 C7.82654616 8.76307265 9.42194237 16.9985627 9 26 C4.71 26 0.42 26 -4 26 C-3.52356944 22.41628335 -3.04397098 18.83303988 -2.5625 15.25 C-2.42779297 14.23421875 -2.29308594 13.2184375 -2.15429688 12.171875 C-2.02216797 11.1921875 -1.89003906 10.2125 -1.75390625 9.203125 C-1.63345947 8.30239258 -1.5130127 7.40166016 -1.38891602 6.47363281 C-1.04205758 4.26749992 -0.58252295 2.15423582 0 0 Z " fill="#B1B1FF" transform="translate(363,257)"/>
<path d="M0 0 C4.01533751 1.78682519 7.44637974 4.32501726 11 6.875 C11.61617188 7.30941406 12.23234375 7.74382812 12.8671875 8.19140625 C13.76824219 8.83529297 13.76824219 8.83529297 14.6875 9.4921875 C15.22761719 9.87745605 15.76773437 10.26272461 16.32421875 10.65966797 C18.35287521 12.28223848 20.16313009 14.16313009 22 16 C19.03 18.97 16.06 21.94 13 25 C9.32282309 21.32282309 6.32427246 17.65551264 3.25 13.5 C2.74339844 12.83613281 2.23679687 12.17226563 1.71484375 11.48828125 C1.23660156 10.84246094 0.75835937 10.19664062 0.265625 9.53125 C-0.16975586 8.94923828 -0.60513672 8.36722656 -1.05371094 7.76757812 C-2 6 -2 6 -2 2 C-1.34 1.34 -0.68 0.68 0 0 Z " fill="#B1B1FF" transform="translate(297,284)"/>
<path d="M0 0 C5.12426157 2.10340868 7.69652085 6.0925879 10 11 C9.625 14 9.625 14 8 17 C7.28303013 18.62120798 6.57512563 20.2464469 5.875 21.875 C5.25273891 23.25124167 4.62867668 24.62667716 4 26 C-0.8032745 21.47119833 -5.38010009 17.15585407 -6.6875 10.5 C-5.75891083 5.77263696 -3.37694353 3.30659054 0 0 Z " fill="#6833CD" transform="translate(272,300)"/>
<path d="M0 0 C1.32 0.66 2.64 1.32 4 2 C3.44678308 5.8904606 2.39065897 8.27862527 0.05859375 11.42578125 C-0.52470703 12.22177734 -1.10800781 13.01777344 -1.70898438 13.83789062 C-2.62647461 15.06282227 -2.62647461 15.06282227 -3.5625 16.3125 C-4.17802734 17.14845703 -4.79355469 17.98441406 -5.42773438 18.84570312 C-6.94422096 20.90295237 -8.46842004 22.95397685 -10 25 C-11.10865985 24.08877273 -12.21172219 23.17073341 -13.3125 22.25 C-13.92738281 21.73953125 -14.54226563 21.2290625 -15.17578125 20.703125 C-17.05932329 18.94461466 -18.51573656 17.10080364 -20 15 C-19.14450562 14.37170288 -19.14450562 14.37170288 -18.27172852 13.73071289 C-15.70133567 11.84219142 -13.13190626 9.9523635 -10.5625 8.0625 C-9.66466797 7.40314453 -8.76683594 6.74378906 -7.84179688 6.06445312 C-6.98779297 5.43603516 -6.13378906 4.80761719 -5.25390625 4.16015625 C-4.46314697 3.57886963 -3.6723877 2.99758301 -2.85766602 2.39868164 C-1.08574745 1.13227114 -1.08574745 1.13227114 0 0 Z " fill="#B1B1FF" transform="translate(433,284)"/>
<path d="M0 0 C3.92736845 3.72923094 7.16311167 7.66268785 10.3125 12.0625 C10.9940918 12.97999023 10.9940918 12.97999023 11.68945312 13.91601562 C14.12731829 17.30703108 15 18.70489419 15 23 C13.0078125 23.859375 13.0078125 23.859375 10 24 C7.03489074 22.41881549 4.49131697 20.34686606 1.875 18.25 C1.15957031 17.69828125 0.44414062 17.1465625 -0.29296875 16.578125 C-3.39078815 14.16935328 -6.21736318 11.78263682 -9 9 C-6.03 6.03 -3.06 3.06 0 0 Z " fill="#B1B1FF" transform="translate(422,403)"/>
<path d="M0 0 C1.10865985 0.91122727 2.21172219 1.82926659 3.3125 2.75 C4.23482422 3.51570313 4.23482422 3.51570313 5.17578125 4.296875 C7.05932329 6.05538534 8.51573656 7.89919636 10 10 C7.09073823 12.15601867 4.17140604 14.29797334 1.25 16.4375 C0.425 17.04916016 -0.4 17.66082031 -1.25 18.29101562 C-2.44882812 19.1659668 -2.44882812 19.1659668 -3.671875 20.05859375 C-4.4050293 20.59798584 -5.13818359 21.13737793 -5.89355469 21.69311523 C-8.00277516 23.00172177 -9.53140482 23.7455358 -12 24 C-12.66 23.34 -13.32 22.68 -14 22 C-13.64921327 18.59696555 -12.05178814 16.38107126 -10.05859375 13.671875 C-9.18364258 12.47304688 -9.18364258 12.47304688 -8.29101562 11.25 C-7.37352539 10.0125 -7.37352539 10.0125 -6.4375 8.75 C-5.82197266 7.90953125 -5.20644531 7.0690625 -4.57226562 6.203125 C-3.05368836 4.13126764 -1.52947228 2.06382036 0 0 Z " fill="#B2B2FF" transform="translate(309,403)"/>
<path d="M0 0 C3.0625 0.1875 3.0625 0.1875 5.0625 2.1875 C5.3125 4.6875 5.3125 4.6875 5.0625 7.1875 C3.0625 9.1875 3.0625 9.1875 0.0625 9.5 C-0.9275 9.396875 -1.9175 9.29375 -2.9375 9.1875 C-4.9375 6.1875 -4.9375 6.1875 -4.625 3.5625 C-3.63731654 0.1505026 -3.65603948 0.23336422 0 0 Z " fill="#FFF1ED" transform="translate(378.9375,97.8125)"/>
<path d="M0 0 C3 0.25 3 0.25 5 2.25 C4.43181818 7.81818182 4.43181818 7.81818182 3 9.25 C0.0625 9.4375 0.0625 9.4375 -3 9.25 C-5 7.25 -5 7.25 -5.25 4.75 C-4.86630891 0.91308908 -3.76694968 0.31391247 0 0 Z " fill="#FFF1EC" transform="translate(362,97.75)"/>
<path d="M0 0 C3.0625 0.1875 3.0625 0.1875 5.0625 2.1875 C5.3125 4.6875 5.3125 4.6875 5.0625 7.1875 C3.0625 9.1875 3.0625 9.1875 0.0625 9.5 C-0.9275 9.396875 -1.9175 9.29375 -2.9375 9.1875 C-4.9375 6.1875 -4.9375 6.1875 -4.625 3.5625 C-3.63731654 0.1505026 -3.65603948 0.23336422 0 0 Z " fill="#FFF5F0" transform="translate(378.9375,78.8125)"/>
<path d="M0 0 C3 0.25 3 0.25 5 2.25 C4.43181818 7.81818182 4.43181818 7.81818182 3 9.25 C0.0625 9.4375 0.0625 9.4375 -3 9.25 C-5 7.25 -5 7.25 -5.25 4.75 C-4.86630891 0.91308908 -3.76694968 0.31391247 0 0 Z " fill="#FFF5F0" transform="translate(362,78.75)"/>
<path d="M0 0 C0.763125 0.20625 1.52625 0.4125 2.3125 0.625 C2.9375 4 2.9375 4 3.3125 7.625 C1.3125 9.625 1.3125 9.625 -1.1875 9.875 C-3.6875 9.625 -3.6875 9.625 -5.6875 7.625 C-6 4.625 -6 4.625 -5.6875 1.625 C-2.6875 -0.375 -2.6875 -0.375 0 0 Z " fill="#FFF1ED" transform="translate(397.6875,97.375)"/>
<path d="M0 0 C3.0625 0.1875 3.0625 0.1875 5.0625 2.1875 C5.3125 4.6875 5.3125 4.6875 5.0625 7.1875 C3.0625 9.1875 3.0625 9.1875 0.5625 9.4375 C-1.9375 9.1875 -1.9375 9.1875 -3.9375 7.1875 C-4.125 4.125 -4.125 4.125 -3.9375 1.1875 C-2.9375 0.1875 -2.9375 0.1875 0 0 Z " fill="#FFF7F6" transform="translate(395.9375,78.8125)"/>
</svg>
