<?xml version="1.0" encoding="UTF-8"?>
<svg version="1.1" xmlns="http://www.w3.org/2000/svg" width="512" height="512">
<path d="M0 0 C1.12420252 -0.06054917 1.12420252 -0.06054917 2.2711162 -0.12232155 C4.80420539 -0.25596129 7.33762165 -0.38112 9.87120056 -0.50511169 C10.75642773 -0.54977381 11.64165489 -0.59443592 12.55370712 -0.64045143 C30.22879995 -1.52549219 47.91073663 -2.06515492 65.60242558 -2.48652744 C76.84811174 -2.76137013 88.07025533 -3.13900496 99.30137634 -3.78245544 C181.09119204 -8.37566688 181.09119204 -8.37566688 208.82165813 16.2672472 C212.77723506 19.9274696 216.51066202 23.77040626 220.17564392 27.71974182 C220.76594241 28.3535435 221.35624091 28.98734518 221.96442723 29.64035296 C225.88159769 33.89658463 229.59727578 38.27959209 233.19297791 42.80982971 C233.65691035 43.38205804 234.1208428 43.95428637 234.5988338 44.54385495 C241.85180132 53.69198408 243.08020485 61.18775761 241.92955017 72.49708557 C242.90825356 72.48983554 243.88695696 72.48258551 244.89531803 72.47511578 C253.13888849 72.41474486 261.38240194 72.37067759 269.62614346 72.34164906 C273.91381619 72.32604041 278.20130781 72.30489069 282.48887634 72.27076721 C286.63211899 72.2380014 290.7751882 72.22019651 294.91855049 72.21245384 C296.49368581 72.20694107 298.0688124 72.19617644 299.64387321 72.1798954 C310.52055524 72.07200945 320.01468335 72.32643182 328.92955017 79.49708557 C335.44691168 85.91633627 339.52315081 92.39836709 340.05835134 101.7469002 C340.06013991 102.51670604 340.06192848 103.28651187 340.06377125 104.07964516 C340.06822909 104.97456598 340.07268694 105.8694868 340.07727987 106.79152644 C340.07700332 108.2525493 340.07700332 108.2525493 340.07672119 109.74308777 C340.08039788 110.78498807 340.08407457 111.82688838 340.08786267 112.90036142 C340.09888918 116.39696326 340.10274161 119.89353536 340.10655212 123.39015198 C340.11281754 125.89517816 340.11946441 128.40020342 340.12646484 130.90522766 C340.14568178 138.42569172 340.15629127 145.94615056 340.16519263 153.4666329 C340.16958031 157.01167008 340.17494585 160.55670578 340.1801815 164.10174179 C340.19719022 175.89201612 340.2116835 187.68228953 340.21893024 199.47257423 C340.22084001 202.5300611 340.22276036 205.58754795 340.22471619 208.64503479 C340.22519993 209.40491925 340.22568367 210.16480371 340.22618207 210.94771497 C340.23447915 223.25227884 340.25981219 235.55674541 340.29229686 247.86126681 C340.32540441 260.50518891 340.34338231 273.14906162 340.34657449 285.79302728 C340.3487361 292.88765462 340.35743351 299.98214002 340.38303566 307.07672501 C340.40707362 313.75309928 340.41054524 320.42917447 340.40027428 327.10559845 C340.39977907 329.55207798 340.40609492 331.99857012 340.41983032 334.44501114 C340.43757331 337.79337185 340.43043035 341.14081937 340.41729736 344.48918152 C340.43375123 345.93012788 340.43375123 345.93012788 340.4505375 347.40018427 C340.35514793 357.52251399 337.15899673 367.20131381 329.92955017 374.49708557 C323.86478945 379.25185798 317.6220917 381.75143948 309.8551178 381.7375946 C308.66047409 381.74034393 307.46583038 381.74309326 306.23498535 381.7459259 C304.93810287 381.73873535 303.6412204 381.7315448 302.30503845 381.72413635 C300.91500863 381.72357174 299.52497821 381.72388977 298.13494873 381.72502136 C294.37297469 381.72559393 290.61112883 381.7138552 286.84918451 381.69987345 C282.91340444 381.68735007 278.97762126 381.68619432 275.04182434 381.68382263 C267.59401797 381.67761258 260.14627049 381.6612082 252.69849002 381.64112365 C244.21726298 381.61874986 235.73603309 381.6077675 227.25478387 381.59773278 C209.81299916 381.57684154 192.37129515 381.54017125 174.92955017 381.49708557 C174.92955017 394.03708557 174.92955017 406.57708557 174.92955017 419.49708557 C181.79567824 419.45750088 181.79567824 419.45750088 188.66172791 419.40699768 C189.93705383 419.40325134 189.93705383 419.40325134 191.23814392 419.39942932 C192.54996643 419.3915741 192.54996643 419.3915741 193.88829041 419.38356018 C195.92955017 419.49708557 195.92955017 419.49708557 196.92955017 420.49708557 C197.00280185 423.35976124 197.02193222 426.19780457 196.99205017 429.05958557 C196.98753845 429.86589417 196.98302673 430.67220276 196.9783783 431.50294495 C196.96655535 433.50102313 196.94861931 435.4990634 196.92955017 437.49708557 C197.74715002 437.49524199 198.56474987 437.4933984 199.40712547 437.49149895 C219.27774122 437.44737925 239.14834855 437.41425795 259.01900291 437.39346123 C268.62820059 437.38313744 278.23736563 437.3690561 287.84654236 437.34620667 C296.21940622 437.32630647 304.59224645 437.31337716 312.96513331 437.30890858 C317.40076473 437.30629547 321.83632852 437.30013077 326.27193832 437.28562546 C330.44315262 437.27209472 334.61427114 437.26785374 338.78550529 437.27087021 C340.31982505 437.27031802 341.85414787 437.26631379 343.38844872 437.25867462 C345.47668057 437.24878369 347.56454665 437.25109494 349.65278625 437.25657654 C350.82346334 437.25473295 351.99414043 437.25288937 353.20029259 437.25098991 C355.92955017 437.49708557 355.92955017 437.49708557 357.92955017 439.49708557 C357.39383589 443.03279986 357.39383589 443.03279986 355.92955017 444.49708557 C353.39317704 444.59776526 350.88394515 444.63254785 348.34698582 444.62572002 C347.53938854 444.62747306 346.73179127 444.6292261 345.89972135 444.63103226 C343.15847277 444.63573208 340.41727631 444.63321662 337.67602539 444.63079834 C335.7049327 444.63266431 333.73384038 444.63496415 331.76274866 444.63766366 C326.31891276 444.6438145 320.87509214 444.64364424 315.43125355 444.64246929 C309.57091667 444.6422661 303.71058481 444.6477761 297.85025024 444.65252686 C286.35874099 444.66085185 274.86723687 444.66358253 263.37572486 444.66413923 C254.04033282 444.66459811 244.70494228 444.66665296 235.3695507 444.66983986 C232.6860504 444.67073735 230.00255009 444.67162716 227.31904978 444.67251474 C226.31846935 444.67284631 226.31846935 444.67284631 225.29767519 444.67318458 C206.52533709 444.67934194 187.75299958 444.68328482 168.98066044 444.6828413 C168.27236969 444.68282572 167.56407894 444.68281014 166.83432483 444.68279409 C163.24410102 444.68271098 159.65387722 444.68261194 156.06365342 444.68250939 C155.35057299 444.68248944 154.63749257 444.68246949 153.90280364 444.68244895 C152.4607804 444.68240851 151.01875715 444.68236671 149.5767339 444.68232355 C127.13419288 444.68171061 104.69166695 444.68921962 82.24913025 444.70289612 C57.05768831 444.71824133 31.8662563 444.72686329 6.6748094 444.7259329 C3.99099473 444.72585826 1.30718007 444.72580956 -1.3766346 444.72577858 C-2.36793147 444.7257611 -2.36793147 444.7257611 -3.37925455 444.72574326 C-13.37481043 444.72571434 -23.37035223 444.73107554 -33.36590385 444.73911095 C-44.72798363 444.74818597 -56.09003866 444.75041602 -67.45212048 444.74360152 C-73.25478105 444.74032111 -79.05739406 444.74033399 -84.8600502 444.74895477 C-90.16407312 444.75675407 -95.46801024 444.75545648 -100.7720309 444.74667064 C-102.69867294 444.74512102 -104.62532118 444.74700598 -106.55195593 444.75253072 C-109.15542513 444.75950631 -111.75858625 444.75436457 -114.36204433 444.74597454 C-115.12338158 444.75094272 -115.88471883 444.7559109 -116.6691269 444.76102963 C-121.84215366 444.72538174 -121.84215366 444.72538174 -124.07044983 442.49708557 C-123.53473554 438.96137129 -123.53473554 438.96137129 -122.07044983 437.49708557 C-120.02017244 437.40028516 -117.96650104 437.37521614 -115.91394043 437.37683105 C-115.26380118 437.37597663 -114.61366193 437.37512221 -113.94382149 437.37424189 C-111.74959403 437.37258531 -109.55544181 437.37811132 -107.36122131 437.38356018 C-105.79459129 437.38384204 -104.22796113 437.38368434 -102.66133118 437.38311768 C-98.39498606 437.38282965 -94.12866881 437.38872714 -89.8623302 437.39569163 C-85.40867932 437.40192439 -80.95502786 437.40252891 -76.50137329 437.40371704 C-68.06177539 437.40683059 -59.62219038 437.41504429 -51.18259817 437.42506653 C-41.57695539 437.43622694 -31.97131201 437.44173794 -22.36566436 437.44676197 C-2.60058565 437.45722689 17.16448145 437.47482678 36.92955017 437.49708557 C36.91794861 436.28149963 36.90634705 435.0659137 36.89439392 433.81349182 C36.88501739 432.22885793 36.87591704 430.64422239 36.86705017 429.05958557 C36.85867126 428.25714417 36.85029236 427.45470276 36.84165955 426.62794495 C36.83303587 424.58413336 36.87726867 422.54024655 36.92955017 420.49708557 C37.92955017 419.49708557 37.92955017 419.49708557 39.97080994 419.38356018 C40.84535828 419.388797 41.71990662 419.39403381 42.62095642 419.39942932 C43.47117371 419.40192688 44.32139099 419.40442444 45.19737244 419.40699768 C46.82823792 419.42065369 46.82823792 419.42065369 48.49205017 419.43458557 C51.93642517 419.45521057 55.38080017 419.47583557 58.92955017 419.49708557 C58.92955017 406.95708557 58.92955017 394.41708557 58.92955017 381.49708557 C52.60113953 381.52850647 52.60113953 381.52850647 46.1448822 381.56056213 C32.19506924 381.62688402 18.24525001 381.67124582 4.29532051 381.70433426 C-4.16132032 381.72492764 -12.61781139 381.75298626 -21.07435608 381.79884338 C-28.44821118 381.83881025 -35.82195779 381.86454181 -43.1959182 381.87343955 C-47.09759022 381.87863771 -50.99895193 381.89078721 -54.90052414 381.9200058 C-58.57938716 381.94733107 -62.25781461 381.95549646 -65.93676949 381.9495163 C-67.91730455 381.95112654 -69.89779313 381.97255924 -71.87820435 381.99476624 C-80.94069058 381.95324491 -87.71564832 380.34445579 -95.32044983 375.37208557 C-103.92615679 366.37521011 -106.37825175 357.07986573 -106.33114624 345.00384521 C-106.33497179 343.95953049 -106.33879733 342.91521577 -106.34273881 341.83925515 C-106.35304206 338.34648504 -106.34908167 334.85388013 -106.34510803 331.36109924 C-106.34945601 328.85415495 -106.35463944 326.34721198 -106.3605957 323.840271 C-106.37259781 317.74111073 -106.37513807 311.64201117 -106.37279544 305.5428414 C-106.37101037 300.58313473 -106.37276598 295.62344141 -106.37701988 290.66373634 C-106.37761507 289.95707952 -106.37821026 289.25042271 -106.37882349 288.52235204 C-106.38003528 287.08662809 -106.38124941 285.65090414 -106.38246586 284.2151802 C-106.39333636 270.75787159 -106.39118139 257.30058805 -106.38508102 243.84327803 C-106.37991384 231.54464722 -106.39116288 219.24609566 -106.41017924 206.94748052 C-106.42957387 194.30688442 -106.43781069 181.66632577 -106.43405598 169.0257147 C-106.4321462 161.93397845 -106.43460956 154.84230963 -106.44877052 147.75058556 C-106.46195621 141.07995794 -106.45940223 134.40951429 -106.44635963 127.73887825 C-106.44399478 125.29359763 -106.44672525 122.84830585 -106.45498276 120.40303802 C-106.46545935 117.0589344 -106.45734162 113.71536166 -106.44467163 110.37127686 C-106.45204592 109.40909734 -106.4594202 108.44691783 -106.46701795 107.45558137 C-106.38979811 97.73318472 -104.33422474 88.72704608 -97.24623108 81.68458557 C-89.61601876 74.70839145 -83.18263583 72.36554059 -72.89344788 72.38356018 C-72.19046066 72.38341415 -71.48747345 72.38326813 -70.76318359 72.38311768 C-68.45281324 72.38381116 -66.14252475 72.39157701 -63.83216858 72.39942932 C-62.22505741 72.40129551 -60.61794568 72.40271846 -59.01083374 72.40371704 C-54.79076046 72.40752642 -50.57072186 72.41734318 -46.35066223 72.42842102 C-42.04046599 72.43866914 -37.73026413 72.44322194 -33.4200592 72.44825745 C-24.97017354 72.45896691 -16.520316 72.4760243 -8.07044983 72.49708557 C-8.07267044 71.60981277 -8.07489105 70.72253998 -8.07717896 69.80838013 C-8.09717944 61.464639 -8.11242272 53.12090588 -8.122262 44.77714634 C-8.12749043 40.48708642 -8.13458736 36.19704624 -8.14588928 31.90699768 C-8.15671958 27.77029157 -8.16272696 23.63360449 -8.16532707 19.4968853 C-8.16718106 17.91516253 -8.17080119 16.33344086 -8.17617989 14.75172615 C-8.18339223 12.54385719 -8.18444069 10.33606785 -8.18397522 8.12818909 C-8.18619583 6.86910233 -8.18841644 5.61001556 -8.19070435 4.31277466 C-7.96491199 -0.9740212 -4.39187648 0.21831797 0 0 Z " fill="#41397B" transform="translate(139.07044982910156,22.502914428710938)"/>
<path d="M0 0 C60.39 0 120.78 0 183 0 C183.33 17.82 183.66 35.64 184 54 C201.82 54.33 219.64 54.66 238 55 C238 112.75 238 170.5 238 230 C159.46 230 80.92 230 0 230 C0 154.1 0 78.2 0 0 Z " fill="#F5AD24" transform="translate(137,29)"/>
<path d="M0 0 C1.58039953 0.0056033 3.16080431 0.00986993 4.74121094 0.01286316 C8.8775297 0.02425426 13.01352662 0.05367113 17.14971924 0.0869751 C21.37971647 0.11780049 25.60976629 0.13139501 29.83984375 0.14648438 C38.12254264 0.17854712 46.40498115 0.22967293 54.6875 0.29296875 C54.6875 3.92296875 54.6875 7.55296875 54.6875 11.29296875 C53.39536842 11.29843719 53.39536842 11.29843719 52.07713318 11.30401611 C43.94105718 11.34195388 35.80537967 11.39887212 27.66958523 11.47687149 C23.48730892 11.51630471 19.30524185 11.54851336 15.12280273 11.56396484 C11.08305151 11.57915911 7.04387565 11.61365291 3.00438118 11.66127777 C1.46674679 11.67606319 -0.07096976 11.68400814 -1.608675 11.6848526 C-12.72133177 11.42338331 -12.72133177 11.42338331 -22.3125 16.29296875 C-24.01390579 19.08088033 -24.56326169 21.16009377 -24.56976891 24.40724754 C-24.5762178 25.22314271 -24.58266669 26.03903788 -24.589311 26.87965715 C-24.5862138 27.77050402 -24.5831166 28.66135089 -24.57992554 29.57919312 C-24.58445665 30.52984512 -24.58898776 31.48049712 -24.59365618 32.45995677 C-24.60634216 35.65352935 -24.6046771 38.84693231 -24.60302734 42.04052734 C-24.60900995 44.3269218 -24.61581487 46.61331422 -24.62338257 48.89970398 C-24.64107653 55.11662463 -24.64573937 61.33349025 -24.64701414 67.55043364 C-24.64891143 72.73695479 -24.65626696 77.92346307 -24.66335833 83.10997927 C-24.67872152 94.64536269 -24.68469509 106.18071465 -24.68334763 117.71610682 C-24.68326772 118.40823883 -24.6831878 119.10037085 -24.68310547 119.81347656 C-24.68302371 120.50645394 -24.68294195 121.19943131 -24.68285771 121.913408 C-24.68204476 133.14474765 -24.70118459 144.37595321 -24.7293822 155.60725407 C-24.75810892 167.14033102 -24.77155633 178.67332523 -24.77019465 190.20644057 C-24.76968418 196.68108788 -24.77541442 203.15558345 -24.79655075 209.63019943 C-24.81588402 215.71888188 -24.81609108 221.80726706 -24.80151749 227.89595985 C-24.79942223 230.13167694 -24.80417272 232.3674124 -24.8162384 234.60309792 C-24.83163499 237.65334262 -24.82241922 240.70255521 -24.80697632 243.7527771 C-24.81726344 244.63916252 -24.82755057 245.52554795 -24.83814943 246.43879354 C-24.77758736 251.84544411 -24.01761569 255.0708575 -20.3125 259.29296875 C-16.84301755 261.5870531 -13.82814222 261.54444214 -9.73067665 261.54744434 C-9.06770474 261.55065082 -8.40473283 261.5538573 -7.72167087 261.55716094 C-5.49035489 261.56549139 -3.25930521 261.55952613 -1.02798462 261.55366516 C0.58399019 261.55668446 2.19596357 261.56057283 3.8079344 261.56525773 C8.24535325 261.57557508 12.68269163 261.57334643 17.12011719 261.56907713 C21.90276469 261.56661666 26.68539248 261.57561563 31.46803284 261.58311462 C40.84088903 261.59588274 50.2137166 261.59765268 59.58658002 261.59531436 C67.20323744 261.59353334 74.81988614 261.59527619 82.43654251 261.5995388 C84.06088043 261.60043159 84.06088043 261.60043159 85.71803326 261.60134241 C87.91773974 261.60255412 90.11744622 261.60376826 92.31715269 261.60498478 C112.95967098 261.61586853 133.60217295 261.61369392 154.24469216 261.60759994 C173.13882862 261.60243043 192.03291353 261.61368563 210.92703979 261.63269816 C230.31595305 261.65205936 249.7048419 261.66033555 269.0937649 261.6565749 C279.98378547 261.6546602 290.87376217 261.65717658 301.76377487 261.67128944 C311.03485086 261.68318237 320.30585597 261.68463167 329.57693289 261.67249928 C334.30877272 261.66659579 339.04048276 261.6655516 343.77231407 261.67750168 C348.10254148 261.68831059 352.43252994 261.68531695 356.76274593 261.67123999 C358.33069031 261.66857923 359.89865312 261.67100261 361.46657948 261.67897586 C363.59600734 261.68905428 365.7246002 261.68068454 367.85399437 261.66769886 C369.03731295 261.66775388 370.22063153 261.66780889 371.43980825 261.66786557 C376.04719729 261.13601229 379.45374913 259.69199185 382.53869057 256.19379425 C384.17821365 252.05388189 384.10170531 248.29542854 384.06845093 243.87976074 C384.0731309 242.92754875 384.07781087 241.97533675 384.08263266 240.99426985 C384.09460522 237.80137705 384.08511643 234.60891166 384.07568359 231.41601562 C384.07974828 229.12785084 384.08508958 226.83968802 384.09161377 224.55152893 C384.10530533 218.33469658 384.09998105 212.11801337 384.09047651 205.90117836 C384.08288949 199.39989439 384.08992286 192.89862333 384.09463501 186.39733887 C384.10044525 174.77922533 384.09111311 163.16117996 384.075857 151.54307717 C384.06245381 141.00996701 384.06478191 130.47695603 384.07861328 119.94384766 C384.0946694 107.71079103 384.10064305 95.47780504 384.09177649 83.2447381 C384.08709562 76.76961542 384.08648655 70.29456106 384.09638596 63.81944275 C384.10504172 57.73241806 384.09905896 51.64558097 384.08170319 45.55857658 C384.07773093 43.32244618 384.07888496 41.08630003 384.08549118 38.85017586 C384.09366739 35.80196183 384.08343223 32.7543521 384.06845093 29.70617676 C384.07514309 28.81756061 384.08183526 27.92894446 384.08873022 27.01340055 C384.04361358 22.29309476 383.79045078 19.10330798 380.6875 15.29296875 C376.28535187 12.42784823 372.77623288 11.907488 367.58056641 11.8605957 C366.89694031 11.85040405 366.21331421 11.8402124 365.50897217 11.82971191 C363.26891734 11.79972732 361.02929113 11.79033877 358.7890625 11.78125 C357.22820633 11.76439244 355.66736365 11.74624075 354.10653687 11.72685242 C350.01312474 11.67946291 345.91976732 11.64958237 341.82617188 11.62341309 C337.64311932 11.59355155 333.460255 11.54704052 329.27734375 11.50195312 C321.0808219 11.41604585 312.8842827 11.34864497 304.6875 11.29296875 C304.6875 7.99296875 304.6875 4.69296875 304.6875 1.29296875 C314.05001443 1.200005 323.41236827 1.12907071 332.77524471 1.08572006 C337.12352317 1.0649066 341.47148424 1.03670426 345.81958008 0.99121094 C350.02119092 0.94752883 354.2224978 0.92378478 358.42431831 0.91345978 C360.02180321 0.9061083 361.61927276 0.89175303 363.21662712 0.87004852 C381.72115189 0.6287705 381.72115189 0.6287705 388.52012634 7.01409912 C394.79977493 13.74769447 396.12944794 19.90648937 396.07518005 28.86923218 C396.08325836 30.46716596 396.08325836 30.46716596 396.09149987 32.09738123 C396.1058076 35.6670891 396.09866855 39.23642762 396.09155273 42.80615234 C396.09725483 45.36545612 396.10421846 47.92475735 396.11235046 50.48405457 C396.1284492 56.71438497 396.13037871 62.94457897 396.12513756 69.17492388 C396.12109407 74.24003559 396.12254154 79.30511752 396.12788582 84.37022781 C396.12863424 85.09147437 396.12938266 85.81272094 396.13015376 86.55582345 C396.13168526 88.02110541 396.13322361 89.48638735 396.13476873 90.95166929 C396.14849351 104.68981439 396.14305644 118.42790254 396.13158352 132.16604634 C396.12165302 144.72801122 396.13458863 157.28982877 396.15851771 169.85177092 C396.18291463 182.75675645 396.19251502 195.66167338 396.18586498 208.5666815 C396.18237383 215.80929258 396.18459781 223.05179038 396.20211601 230.294384 C396.21838618 237.10539247 396.21364714 243.91607477 396.19481087 250.72709084 C396.19112048 253.22642398 396.19424645 255.72577791 396.20469666 258.22509193 C396.21787679 261.63796603 396.20638404 265.04990422 396.18870544 268.46273804 C396.19831045 269.45088009 396.20791546 270.43902215 396.21781152 271.4571079 C396.14089703 278.67806716 394.51177822 283.9406217 389.828125 289.5 C389.20421875 290.02980469 388.5803125 290.55960937 387.9375 291.10546875 C387.32390625 291.64816406 386.7103125 292.19085938 386.078125 292.75 C377.79074923 298.09887815 369.38132508 297.72285636 359.87295532 297.68737793 C358.25212697 297.69226997 356.63130211 297.69846123 355.01048315 297.70583582 C350.56699294 297.72221863 346.12368036 297.7199208 341.68017054 297.71446085 C336.8838703 297.71178863 332.08761719 297.72632603 327.29133606 297.73855591 C317.89896332 297.7596036 308.50665232 297.76415115 299.11425878 297.76236802 C291.47961109 297.76106012 283.84498266 297.76486598 276.21033859 297.77229309 C274.0107404 297.7743923 271.81114221 297.7764899 269.61154401 297.77858591 C267.96931775 297.7801512 267.96931775 297.7801512 266.2939152 297.78174812 C245.59116452 297.80064766 224.88844928 297.7996011 204.18569355 297.79277879 C185.24921292 297.78720293 166.31286756 297.80803113 147.37641855 297.84113926 C127.92859192 297.87487737 108.48083009 297.89004448 89.03297365 297.88542223 C78.11602447 297.88317775 67.19920033 297.88841778 56.28227615 297.91331482 C46.9886823 297.9343294 37.69528206 297.93791825 28.40168025 297.91901523 C23.66113233 297.90985861 18.92094542 297.90871218 14.18042564 297.92937088 C9.83766865 297.9480867 5.49556817 297.94357076 1.15283613 297.92082506 C-0.41506096 297.91664085 -1.98300843 297.92083338 -3.55085222 297.934421 C-13.75383868 298.01679701 -21.73639658 297.0112101 -29.75 290.23046875 C-30.265625 289.59109375 -30.78125 288.95171875 -31.3125 288.29296875 C-31.84875 287.65359375 -32.385 287.01421875 -32.9375 286.35546875 C-36.72701449 280.67119701 -36.60274934 275.47349183 -36.58665466 268.84368896 C-36.59450968 267.24809517 -36.59450968 267.24809517 -36.60252339 265.62026715 C-36.6175453 262.0498668 -36.61822903 258.47960949 -36.61889648 254.90917969 C-36.6265165 252.3516465 -36.63494373 249.79411561 -36.64411926 247.23658752 C-36.66608712 240.28401513 -36.67488809 233.3314924 -36.67994571 226.37889004 C-36.68320468 222.03576389 -36.68972838 217.69264659 -36.6969471 213.34952545 C-36.71651093 201.31905274 -36.73291639 189.28858824 -36.73582363 177.2580986 C-36.7360112 176.48849173 -36.73619877 175.71888486 -36.73639202 174.92595656 C-36.73675827 173.36584965 -36.73712197 171.80574275 -36.73748314 170.24563584 C-36.73766595 169.47122152 -36.73784876 168.6968072 -36.73803711 167.89892578 C-36.73821766 167.12356363 -36.73839821 166.34820147 -36.73858423 165.5493435 C-36.74212527 152.9879703 -36.76914416 140.42676861 -36.806535 127.86545488 C-36.84463725 114.96163234 -36.86398125 102.05789486 -36.86428314 89.15401483 C-36.86486729 81.91187371 -36.87333129 74.66993719 -36.90228081 67.42784882 C-36.929389 60.61517642 -36.93068329 53.80297714 -36.91462517 46.99024773 C-36.91280825 44.49132594 -36.91952311 41.99238102 -36.93544388 39.49350929 C-36.95587257 36.07858734 -36.94536946 32.66508708 -36.92723083 29.25018311 C-36.9404308 28.26427177 -36.95363077 27.27836044 -36.96723074 26.262573 C-36.8758723 18.71783188 -34.77200513 13.01206298 -29.58638567 7.43733287 C-21.09100142 -0.69913878 -11.03215973 -0.11529056 0 0 Z " fill="#CDCDCD" transform="translate(76.3125,100.70703125)"/>
<path d="M0 0 C78.54 0 157.08 0 238 0 C238 30.36 238 60.72 238 92 C159.46 92 80.92 92 0 92 C0 61.64 0 31.28 0 0 Z " fill="#F26175" transform="translate(137,265)"/>
<path d="M0 0 C0 78.87 0 157.74 0 239 C-23.1 239 -46.2 239 -70 239 C-74.50003247 234.49996753 -74.50003247 234.49996753 -74.50615788 230.91136932 C-74.51720556 230.10120755 -74.52825325 229.29104577 -74.53963572 228.45633364 C-74.53139495 227.57190443 -74.52315418 226.68747521 -74.5146637 225.77624512 C-74.52160922 224.83234909 -74.52855475 223.88845305 -74.53571075 222.91595411 C-74.55404385 219.74516311 -74.54369876 216.57511496 -74.53344727 213.40429688 C-74.54050249 211.13435809 -74.54924582 208.86442402 -74.55955505 206.59449768 C-74.582102 200.42309843 -74.57909702 194.25195498 -74.57023358 188.08053017 C-74.56513254 182.93357387 -74.57240899 177.78666602 -74.57970566 172.63971472 C-74.59769473 159.80665491 -74.59127673 146.97377316 -74.57353585 134.14072484 C-74.55883643 122.99205514 -74.57346983 111.84365489 -74.60230602 100.6950199 C-74.63168844 89.25006638 -74.64216735 77.80528364 -74.63312382 66.36028528 C-74.62818532 59.93375075 -74.63046034 53.50742575 -74.65091133 47.08091736 C-74.66921492 41.03976524 -74.66337457 34.99911547 -74.63871193 28.95799065 C-74.6336874 26.73756603 -74.63723604 24.51710348 -74.64986038 22.29670906 C-74.66570175 19.27180679 -74.65092386 16.24857691 -74.62818909 13.22375488 C-74.64002482 12.33932567 -74.65186054 11.45489646 -74.66405493 10.54366636 C-74.65163289 9.73350459 -74.63921085 8.92334281 -74.62641239 8.08863068 C-74.6261427 7.39059468 -74.62587301 6.69255868 -74.62559515 5.97337008 C-67.08435011 -17.81464561 -24.95476041 0 0 0 Z " fill="#62BBE6" transform="translate(131,118)"/>
<path d="M0 0 C69 0 69 0 74 4 C74.62674582 5.97337008 74.62674582 5.97337008 74.6292057 8.08863068 C74.64224444 8.89879245 74.65528318 9.70895423 74.66871703 10.54366636 C74.65756342 11.42809557 74.64640981 12.31252479 74.63491821 13.22375488 C74.64271817 14.16765091 74.65051812 15.11154695 74.65855443 16.08404589 C74.67853892 19.25499234 74.66268423 22.42474723 74.64697266 25.59570312 C74.65374588 27.86564334 74.66264734 30.13557806 74.67352295 32.40550232 C74.69635765 38.57696131 74.68746245 44.74800336 74.67162752 50.91946983 C74.65899026 57.3705192 74.67070258 63.82153228 74.67855835 70.27258301 C74.68824471 81.80156275 74.67268252 93.33032886 74.64726166 104.85927516 C74.62492249 115.314318 74.62880253 125.76908327 74.65185547 136.22412109 C74.67860801 148.36271327 74.68857596 160.50108755 74.67379415 172.63971472 C74.66598907 179.06623851 74.66498726 185.49257105 74.68147659 191.91908264 C74.69589377 197.96025233 74.68594935 204.00089658 74.65700531 210.04200935 C74.65037985 212.26242766 74.65231691 214.48289 74.66331863 216.70329094 C74.67692758 219.72821098 74.65991396 222.75143403 74.63491821 225.77624512 C74.64607182 226.66067433 74.65722543 227.54510354 74.66871703 228.45633364 C74.64915892 229.6715763 74.64915892 229.6715763 74.6292057 230.91136932 C74.62839394 231.60940532 74.62758218 232.30744132 74.62674582 233.02662992 C74 235 74 235 69 239 C46.23 239 23.46 239 0 239 C0 160.13 0 81.26 0 0 Z " fill="#62BBE6" transform="translate(381,118)"/>
<path d="M0 0 C0.6737265 -0.00058411 1.347453 -0.00116821 2.04159546 -0.00177002 C4.25507223 0.00100331 6.46718022 0.03205616 8.68041992 0.06347656 C10.22026331 0.07094171 11.76011623 0.07663335 13.29997253 0.08062744 C17.34274766 0.09586244 21.38494327 0.13512507 25.42749023 0.17944336 C29.55664227 0.22044261 33.68588841 0.23864834 37.81518555 0.25878906 C45.90985183 0.30162209 54.00404805 0.36984671 62.09838867 0.45410156 C62.09838867 0.78410156 62.09838867 1.11410156 62.09838867 1.45410156 C46.91838867 1.78410156 31.73838867 2.11410156 16.09838867 2.45410156 C14.40810823 5.83466245 14.95817415 9.67415157 14.9646759 13.39265442 C14.96241035 14.33005248 14.96014479 15.26745055 14.95781058 16.23325461 C14.95144904 19.39387801 14.95230133 22.55445877 14.953125 25.71508789 C14.95013482 27.97325191 14.94673263 30.23141542 14.94294739 32.48957825 C14.93408813 38.6383625 14.93176845 44.78713285 14.9311316 50.93592286 C14.93018394 56.0627856 14.92650725 61.18964508 14.92295951 66.31650656 C14.91527352 77.71850194 14.91229154 89.12048868 14.91296486 100.52248577 C14.91302479 101.54933261 14.91302479 101.54933261 14.91308594 102.59692383 C14.91312682 103.28232267 14.9131677 103.96772151 14.91320982 104.67389002 C14.9136162 115.77989207 14.90404957 126.8858602 14.88994757 137.99185244 C14.87558816 149.3903785 14.86886036 160.78888287 14.86954135 172.18742007 C14.86979671 178.58880198 14.86692435 184.99014554 14.8563633 191.39151955 C14.84670255 197.41197653 14.84658924 203.43235833 14.85387993 209.45281792 C14.85492834 211.6647617 14.85254778 213.87671012 14.84651947 216.08864594 C14.83883268 219.10405242 14.84342246 222.11919716 14.85115051 225.13459778 C14.84600695 226.01358744 14.84086339 226.8925771 14.83556396 227.79820281 C14.86019734 232.13643513 15.06998251 235.50352399 17.09838867 239.45410156 C13.01529447 239.57025085 8.9326249 239.64133613 4.84838867 239.70410156 C3.68952148 239.73761719 2.5306543 239.77113281 1.33666992 239.80566406 C0.22163086 239.81855469 -0.8934082 239.83144531 -2.04223633 239.84472656 C-3.06865234 239.86567383 -4.09506836 239.88662109 -5.15258789 239.90820312 C-8.81069682 239.30393291 -9.71342969 238.45122865 -11.90161133 235.45410156 C-12.50310881 232.383777 -12.44534986 229.35076387 -12.41627502 226.23034668 C-12.42322055 225.28645065 -12.43016608 224.34255462 -12.43732208 223.37005568 C-12.45565518 220.19926467 -12.44531008 217.02921652 -12.43505859 213.85839844 C-12.44211382 211.58845965 -12.45085715 209.31852558 -12.46116638 207.04859924 C-12.48371332 200.87719999 -12.48070835 194.70605655 -12.47184491 188.53463173 C-12.46674387 183.38767543 -12.47402032 178.24076759 -12.48131698 173.09381628 C-12.49930605 160.26075648 -12.49288806 147.42787472 -12.47514718 134.5948264 C-12.46044776 123.44615671 -12.47508115 112.29775646 -12.50391734 101.14912146 C-12.53329977 89.70416794 -12.54377868 78.2593852 -12.53473514 66.81438684 C-12.52979665 60.38785231 -12.53207166 53.96152731 -12.55252266 47.53501892 C-12.57082625 41.4938668 -12.5649859 35.45321703 -12.54032326 29.41209221 C-12.53529873 27.19166759 -12.53884736 24.97120504 -12.55147171 22.75081062 C-12.56731308 19.72590836 -12.55253519 16.70267847 -12.52980042 13.67785645 C-12.54163614 12.79342723 -12.55347187 11.90899802 -12.56566626 10.99776793 C-12.4749076 5.0785142 -12.4749076 5.0785142 -9.56364822 1.90768051 C-6.17339969 0.05646879 -3.85676715 -0.02820305 0 0 Z " fill="#6277E6" transform="translate(68.901611328125,117.5458984375)"/>
<path d="M0 0 C4.10403363 -0.08694042 8.20783129 -0.14037149 12.3125 -0.1875 C13.47974609 -0.21263672 14.64699219 -0.23777344 15.84960938 -0.26367188 C16.96787109 -0.27333984 18.08613281 -0.28300781 19.23828125 -0.29296875 C20.26993408 -0.3086792 21.30158691 -0.32438965 22.36450195 -0.34057617 C25.46003134 0.05944824 26.10757967 0.59614415 28 3 C28.29954115 6.10055887 28.41303709 9.00110589 28.39440918 12.10350037 C28.40354584 13.51806278 28.40354584 13.51806278 28.41286707 14.9612022 C28.42957417 18.1349816 28.42471025 21.30836318 28.41992188 24.48217773 C28.42725771 26.75196757 28.4358425 29.02175366 28.44558716 31.29153442 C28.46786256 37.46708109 28.47073084 43.64249457 28.46883965 49.8180759 C28.46872023 54.96746166 28.47727263 60.11681892 28.48561716 65.26619679 C28.50597481 78.10601144 28.50699333 90.94572795 28.49981004 103.78554935 C28.49423374 114.94074219 28.51506223 126.09570542 28.54817051 137.25084459 C28.58188896 148.70027625 28.59660327 160.14955396 28.59245348 171.59904438 C28.59038143 178.02895866 28.59593567 184.45864431 28.62034607 190.88851738 C28.64253679 196.93374274 28.64079914 202.97848882 28.62041855 209.02371597 C28.61699494 211.24575863 28.62215524 213.46783307 28.63640213 215.68983269 C28.65447596 218.71695981 28.64193361 221.74244039 28.62145996 224.76951599 C28.64023673 226.09718299 28.64023673 226.09718299 28.65939283 227.45167154 C28.5730345 233.38267274 28.5730345 233.38267274 25.63433075 236.5485239 C22.57129427 238.23621032 20.74127736 238.46505406 17.26171875 238.390625 C16.19501953 238.37773437 15.12832031 238.36484375 14.02929688 238.3515625 C12.92650391 238.31804687 11.82371094 238.28453125 10.6875 238.25 C9.56537109 238.23195313 8.44324219 238.21390625 7.28710938 238.1953125 C4.52386553 238.14827856 1.76237302 238.08256317 -1 238 C-0.51264893 237.05061397 -0.51264893 237.05061397 -0.01545238 236.08204842 C1.36383055 231.89572039 1.27288791 228.06713991 1.24723816 223.68722534 C1.24965257 222.74585287 1.25206699 221.8044804 1.25455457 220.83458149 C1.26019272 217.67855028 1.25152752 214.52272136 1.24291992 211.36669922 C1.24399276 209.10484767 1.24593147 206.84299639 1.24867249 204.58114624 C1.25352311 198.43678164 1.24586275 192.29248958 1.23571944 186.14813375 C1.22694407 179.72466201 1.22869628 173.30119258 1.2290802 166.87771606 C1.22814343 156.09212777 1.21951096 145.3065739 1.20581055 134.52099609 C1.19171685 123.42007945 1.18464007 112.31918743 1.18530273 101.21826172 C1.18534269 100.53426256 1.18538265 99.85026341 1.18542381 99.145537 C1.18548435 98.12132206 1.18548435 98.12132206 1.1855461 97.0764159 C1.1862007 85.08153996 1.18105632 73.0866743 1.17275429 61.09180069 C1.16921781 55.98100837 1.16739052 50.8702196 1.16686058 45.75942612 C1.16585833 39.74633527 1.15977133 33.73327042 1.14969444 27.72018814 C1.14676613 25.50901702 1.14554474 23.29784291 1.14612198 21.08666992 C1.14661042 18.07735449 1.1409792 15.06811259 1.13371277 12.05880737 C1.13526137 11.17603839 1.13680997 10.2932694 1.1384055 9.38374984 C1.12486478 6.00713955 1.07523557 3.2257067 0 0 Z " fill="#62E1E6" transform="translate(427,119)"/>
<path d="M0 0 C1.58039953 0.0056033 3.16080431 0.00986993 4.74121094 0.01286316 C8.8775297 0.02425426 13.01352662 0.05367113 17.14971924 0.0869751 C21.37971647 0.11780049 25.60976629 0.13139501 29.83984375 0.14648438 C38.12254264 0.17854712 46.40498115 0.22967293 54.6875 0.29296875 C54.6875 3.92296875 54.6875 7.55296875 54.6875 11.29296875 C53.39536842 11.29843719 53.39536842 11.29843719 52.07713318 11.30401611 C43.94105718 11.34195388 35.80537967 11.39887212 27.66958523 11.47687149 C23.48730892 11.51630471 19.30524185 11.54851336 15.12280273 11.56396484 C11.08305151 11.57915911 7.04387565 11.61365291 3.00438118 11.66127777 C1.46674679 11.67606319 -0.07096976 11.68400814 -1.608675 11.6848526 C-12.72133177 11.42338331 -12.72133177 11.42338331 -22.3125 16.29296875 C-24.01390579 19.08088033 -24.56326169 21.16009377 -24.56976891 24.40724754 C-24.5762178 25.22314271 -24.58266669 26.03903788 -24.589311 26.87965715 C-24.5862138 27.77050402 -24.5831166 28.66135089 -24.57992554 29.57919312 C-24.58445665 30.52984512 -24.58898776 31.48049712 -24.59365618 32.45995677 C-24.60634216 35.65352935 -24.6046771 38.84693231 -24.60302734 42.04052734 C-24.60900995 44.3269218 -24.61581487 46.61331422 -24.62338257 48.89970398 C-24.64107653 55.11662463 -24.64573937 61.33349025 -24.64701414 67.55043364 C-24.64891143 72.73695479 -24.65626696 77.92346307 -24.66335833 83.10997927 C-24.67872152 94.64536269 -24.68469509 106.18071465 -24.68334763 117.71610682 C-24.68326772 118.40823883 -24.6831878 119.10037085 -24.68310547 119.81347656 C-24.68302371 120.50645394 -24.68294195 121.19943131 -24.68285771 121.913408 C-24.68204476 133.14474765 -24.70118459 144.37595321 -24.7293822 155.60725407 C-24.75810892 167.14033102 -24.77155633 178.67332523 -24.77019465 190.20644057 C-24.76968418 196.68108788 -24.77541442 203.15558345 -24.79655075 209.63019943 C-24.81588402 215.71888188 -24.81609108 221.80726706 -24.80151749 227.89595985 C-24.79942223 230.13167694 -24.80417272 232.3674124 -24.8162384 234.60309792 C-24.83163499 237.65334262 -24.82241922 240.70255521 -24.80697632 243.7527771 C-24.81726344 244.63916252 -24.82755057 245.52554795 -24.83814943 246.43879354 C-24.77574569 252.00985755 -23.91950314 254.99528779 -20.3125 259.29296875 C-17.21945379 261.45810109 -13.99273853 261.70633672 -10.3125 262.29296875 C-10.27511719 263.27136719 -10.23773438 264.24976563 -10.19921875 265.2578125 C-9.59510997 277.30445235 -8.3972983 285.7116653 0.6875 294.29296875 C3.4474306 295.67293405 5.66832952 295.42437915 8.75887489 295.43163395 C10.06216354 295.43710839 11.36545219 295.44258284 12.70823443 295.44822317 C14.16833339 295.44929952 15.62843242 295.45028418 17.08853149 295.45118713 C18.62880946 295.45574992 20.16908618 295.46074952 21.70936143 295.4661507 C25.95762705 295.47977355 30.20588463 295.48716212 34.45416641 295.49357736 C39.02950741 295.50156315 43.60483159 295.51526716 48.18016052 295.52828979 C56.11244812 295.55007846 64.0447374 295.56821418 71.97703934 295.58389473 C83.44592931 295.60657164 94.91480068 295.63471745 106.3836749 295.66421401 C124.98949903 295.71191669 143.59533074 295.7551736 162.20117188 295.7956543 C180.27897737 295.83499562 198.35677611 295.87641856 216.43457031 295.9206543 C217.54819422 295.92337857 218.66181812 295.92610284 219.8091882 295.92890967 C225.3957056 295.94258892 230.98222289 295.95630924 236.56874013 295.97004998 C282.94164601 296.08405678 329.3145665 296.19085682 375.6875 296.29296875 C375.6875 296.62296875 375.6875 296.95296875 375.6875 297.29296875 C325.79187108 297.40740985 275.89625542 297.49551548 226.00052107 297.5482954 C220.11004769 297.55454894 214.21957456 297.56102055 208.32910156 297.56762695 C207.15641306 297.56893851 205.98372456 297.57025006 204.77550004 297.57160135 C185.78679404 297.59335865 166.79816372 297.63278201 147.80950262 297.67873273 C128.32578524 297.72548825 108.8421075 297.75326225 89.35833633 297.76341122 C77.33551644 297.77027223 65.31291046 297.79194314 53.29015641 297.83255108 C45.04600911 297.85897823 36.80197241 297.86696977 28.55778582 297.86047564 C23.80107435 297.85727274 19.04473669 297.86218696 14.28809166 297.88899612 C9.93024086 297.91337799 5.57301427 297.91452448 1.21513437 297.89746322 C-0.35839702 297.89535548 -1.93196779 297.90165647 -3.50542198 297.91738466 C-13.72969676 298.01361416 -21.71868693 297.02619519 -29.75 290.23046875 C-30.265625 289.59109375 -30.78125 288.95171875 -31.3125 288.29296875 C-31.84875 287.65359375 -32.385 287.01421875 -32.9375 286.35546875 C-36.72701449 280.67119701 -36.60274934 275.47349183 -36.58665466 268.84368896 C-36.59450968 267.24809517 -36.59450968 267.24809517 -36.60252339 265.62026715 C-36.6175453 262.0498668 -36.61822903 258.47960949 -36.61889648 254.90917969 C-36.6265165 252.3516465 -36.63494373 249.79411561 -36.64411926 247.23658752 C-36.66608712 240.28401513 -36.67488809 233.3314924 -36.67994571 226.37889004 C-36.68320468 222.03576389 -36.68972838 217.69264659 -36.6969471 213.34952545 C-36.71651093 201.31905274 -36.73291639 189.28858824 -36.73582363 177.2580986 C-36.7360112 176.48849173 -36.73619877 175.71888486 -36.73639202 174.92595656 C-36.73675827 173.36584965 -36.73712197 171.80574275 -36.73748314 170.24563584 C-36.73766595 169.47122152 -36.73784876 168.6968072 -36.73803711 167.89892578 C-36.73821766 167.12356363 -36.73839821 166.34820147 -36.73858423 165.5493435 C-36.74212527 152.9879703 -36.76914416 140.42676861 -36.806535 127.86545488 C-36.84463725 114.96163234 -36.86398125 102.05789486 -36.86428314 89.15401483 C-36.86486729 81.91187371 -36.87333129 74.66993719 -36.90228081 67.42784882 C-36.929389 60.61517642 -36.93068329 53.80297714 -36.91462517 46.99024773 C-36.91280825 44.49132594 -36.91952311 41.99238102 -36.93544388 39.49350929 C-36.95587257 36.07858734 -36.94536946 32.66508708 -36.92723083 29.25018311 C-36.9404308 28.26427177 -36.95363077 27.27836044 -36.96723074 26.262573 C-36.8758723 18.71783188 -34.77200513 13.01206298 -29.58638567 7.43733287 C-21.09100142 -0.69913878 -11.03215973 -0.11529056 0 0 Z " fill="#AAAAAD" transform="translate(76.3125,100.70703125)"/>
<path d="M0 0 C9.36251443 -0.09296375 18.72486827 -0.16389804 28.08774471 -0.20724869 C32.43602317 -0.22806215 36.78398424 -0.25626449 41.13208008 -0.30175781 C45.33369092 -0.34543992 49.5349978 -0.36918397 53.73681831 -0.37950897 C55.33430321 -0.38686045 56.93177276 -0.40121572 58.52912712 -0.42292023 C77.03365189 -0.66419825 77.03365189 -0.66419825 83.83262634 5.72113037 C90.11227493 12.45472572 91.44194794 18.61352062 91.38768005 27.57626343 C91.39306559 28.64155262 91.39845113 29.7068418 91.40399987 30.80441248 C91.4183076 34.37412035 91.41116855 37.94345887 91.40405273 41.51318359 C91.40975483 44.07248737 91.41671846 46.6317886 91.42485046 49.19108582 C91.4409492 55.42141622 91.44287871 61.65161022 91.43763756 67.88195513 C91.43359407 72.94706684 91.43504154 78.01214877 91.44038582 83.07725906 C91.44113424 83.79850562 91.44188266 84.51975219 91.44265376 85.2628547 C91.44418526 86.72813666 91.44572361 88.1934186 91.44726873 89.65870054 C91.46099351 103.39684564 91.45555644 117.13493379 91.44408352 130.87307759 C91.43415302 143.43504247 91.44708863 155.99686002 91.47101771 168.55880217 C91.49541463 181.4637877 91.50501502 194.36870463 91.49836498 207.27371275 C91.49487383 214.51632383 91.49709781 221.75882163 91.51461601 229.00141525 C91.53088618 235.81242372 91.52614714 242.62310602 91.50731087 249.43412209 C91.50362048 251.93345523 91.50674645 254.43280916 91.51719666 256.93212318 C91.53037679 260.34499728 91.51888404 263.75693547 91.50120544 267.16976929 C91.51561295 268.65198237 91.51561295 268.65198237 91.53031152 270.16413915 C91.4531671 277.40668486 89.85224499 282.74515184 85.03515625 288.2421875 C84.05869141 289.05042969 84.05869141 289.05042969 83.0625 289.875 C82.41410156 290.42929687 81.76570313 290.98359375 81.09765625 291.5546875 C77.07726975 294.3247862 73.55199302 295.25207009 68.69921875 295.1953125 C67.72275391 295.18886719 66.74628906 295.18242187 65.74023438 295.17578125 C64.73283203 295.15902344 63.72542969 295.14226562 62.6875 295.125 C61.66076172 295.11597656 60.63402344 295.10695313 59.57617188 295.09765625 C57.05054101 295.07416201 54.5253919 295.04131131 52 295 C52.76957031 294.25492187 53.53914063 293.50984375 54.33203125 292.7421875 C63.33570544 283.48804507 64.34139556 273.49615268 65 261 C65.67546875 260.85304688 66.3509375 260.70609375 67.046875 260.5546875 C68.38492188 260.21824219 68.38492188 260.21824219 69.75 259.875 C70.63171875 259.66617187 71.5134375 259.45734375 72.421875 259.2421875 C76.07669322 257.48122963 77.09734823 255.57926699 79 252 C79.56237537 248.81641106 79.53619426 245.69294975 79.50120544 242.46653748 C79.50673984 241.51347106 79.51227424 240.56040464 79.51797634 239.57845742 C79.53157716 236.38854594 79.51661637 233.19941764 79.50170898 230.00952148 C79.50549233 227.72120837 79.51099249 225.43289755 79.51808167 223.14459229 C79.53205061 216.93190281 79.52085651 210.71948982 79.50437045 204.50681567 C79.49052823 198.00820872 79.49697903 191.50961796 79.50050354 185.01100159 C79.50320612 174.09851525 79.48981285 163.18614139 79.46655273 152.27368164 C79.44262713 141.04772868 79.43555094 129.82192115 79.44604492 118.59594727 C79.4586722 105.06364856 79.4561634 91.53146165 79.44038582 77.99916267 C79.43462267 72.83139538 79.43471129 67.66367675 79.43945122 62.49590874 C79.44421792 56.41296395 79.43413181 50.33022086 79.41249657 44.24731445 C79.40692463 42.01279951 79.40646711 39.77826519 79.41144943 37.54374886 C79.41739016 34.49776719 79.40492003 31.4524047 79.38768005 28.40647888 C79.3936901 27.51854485 79.39970014 26.63061083 79.40589231 25.71576971 C79.35720712 20.99785189 79.10021067 17.808738 76 14 C71.59785187 11.13487948 68.08873288 10.61451925 62.89306641 10.56762695 C62.20944031 10.5574353 61.52581421 10.54724365 60.82147217 10.53674316 C58.58141734 10.50675857 56.34179113 10.49737002 54.1015625 10.48828125 C52.54070633 10.47142369 50.97986365 10.453272 49.41903687 10.43388367 C45.32562474 10.38649416 41.23226732 10.35661362 37.13867188 10.33044434 C32.95561932 10.3005828 28.772755 10.25407177 24.58984375 10.20898438 C16.3933219 10.1230771 8.1967827 10.05567622 0 10 C0 6.7 0 3.4 0 0 Z " fill="#DDDDDF" transform="translate(381,102)"/>
<path d="M0 0 C33.99 0 67.98 0 103 0 C103 12.54 103 25.08 103 38 C69.01 38 35.02 38 0 38 C0 25.46 0 12.92 0 0 Z " fill="#CDCDCD" transform="translate(205,404)"/>
<path d="M0 0 C1.27629713 -0.00260775 2.55259426 -0.00521549 3.86756706 -0.00790226 C5.30240772 -0.00573974 6.73724824 -0.00348306 8.17208862 -0.0011425 C9.6819163 -0.00229333 11.1917437 -0.0038806 12.70157051 -0.00586975 C16.87036409 -0.01006828 21.03913496 -0.00797003 25.20792866 -0.00488353 C29.69604463 -0.00263176 34.18415655 -0.00610792 38.67227173 -0.00886345 C47.4723495 -0.01332255 56.27241878 -0.01234406 65.07249689 -0.00945081 C72.22111233 -0.00719732 79.36972537 -0.00688401 86.51834106 -0.00797462 C88.04137807 -0.00820447 88.04137807 -0.00820447 89.59518349 -0.00843897 C91.65751823 -0.00875868 93.71985296 -0.00908289 95.7821877 -0.00941156 C115.145034 -0.01226676 134.50787558 -0.0089787 153.8707211 -0.00361119 C170.50421967 0.00085688 187.13771127 0.00008096 203.77120972 -0.00452995 C223.06224368 -0.00987501 242.35327349 -0.01199207 261.64430809 -0.00891769 C263.6992836 -0.00859912 265.75425911 -0.00828475 267.80923462 -0.00797462 C268.82046328 -0.00782035 269.83169194 -0.00766607 270.87356389 -0.00750712 C278.01801536 -0.00664176 285.16246421 -0.00810526 292.30691528 -0.01045418 C301.00726129 -0.01325162 309.70759828 -0.01251511 318.40794325 -0.00717343 C322.85151383 -0.00453565 327.29506934 -0.00353264 331.73863983 -0.00682259 C335.79972431 -0.00978399 339.86077961 -0.00819537 343.92186141 -0.00284503 C345.39761315 -0.00172017 346.87336731 -0.00231353 348.34911752 -0.00472082 C350.34193526 -0.00772431 352.33475983 -0.00407175 354.32757568 0 C355.43847502 0.00016235 356.54937435 0.0003247 357.6939373 0.00049198 C360.16378784 0.12584114 360.16378784 0.12584114 361.16378784 1.12584114 C361.28878784 3.62584114 361.28878784 3.62584114 361.16378784 6.12584114 C359.37851465 7.91111433 356.74009871 7.2513297 354.32757568 7.25168228 C353.05127855 7.25429003 351.77498142 7.25689778 350.46000862 7.25958455 C349.02516796 7.25742202 347.59032744 7.25516534 346.15548706 7.25282478 C344.64565938 7.25397562 343.13583198 7.25556288 341.62600517 7.25755203 C337.45721159 7.26175056 333.28844072 7.25965231 329.11964703 7.25656581 C324.63153105 7.25431405 320.14341914 7.2577902 315.65530396 7.26054573 C306.85522618 7.26500483 298.05515691 7.26402634 289.25507879 7.26113309 C282.10646336 7.2588796 274.95785031 7.2585663 267.80923462 7.25965691 C266.28619762 7.25988676 266.28619762 7.25988676 264.73239219 7.26012125 C262.67005745 7.26044096 260.60772272 7.26076517 258.54538798 7.26109384 C239.18254168 7.26394904 219.81970011 7.26066098 200.45685458 7.25529347 C183.82335601 7.2508254 167.18986441 7.25160132 150.55636597 7.25621223 C131.26533201 7.26155729 111.97430219 7.26367435 92.68326759 7.26059997 C90.62829208 7.2602814 88.57331657 7.25996703 86.51834106 7.25965691 C85.50711241 7.25950263 84.49588375 7.25934836 83.4540118 7.2591894 C76.30956032 7.25832404 69.16511147 7.25978754 62.0206604 7.26213646 C53.32031439 7.2649339 44.6199774 7.26419739 35.91963243 7.25885572 C31.47606185 7.25621793 27.03250634 7.25521492 22.58893585 7.25850487 C18.52785137 7.26146627 14.46679607 7.25987765 10.40571427 7.25452732 C8.92996253 7.25340246 7.45420837 7.25399581 5.97845817 7.2564031 C3.98564042 7.25940659 1.99281585 7.25575403 0 7.25168228 C-1.11089933 7.25151993 -2.22179867 7.25135758 -3.36636162 7.2511903 C-5.83621216 7.12584114 -5.83621216 7.12584114 -6.83621216 6.12584114 C-6.96121216 3.62584114 -6.96121216 3.62584114 -6.83621216 1.12584114 C-5.05093897 -0.65943205 -2.41252303 0.00035258 0 0 Z " fill="#3F3579" transform="translate(78.83621215820313,481.87415885925293)"/>
<path d="M0 0 C1.226548 0.00303635 1.226548 0.00303635 2.47787476 0.00613403 C3.76315567 0.00350555 3.76315567 0.00350555 5.07440186 0.00082397 C7.9211527 -0.00359561 10.76784197 -0.00065618 13.61459351 0.00271606 C15.58375053 0.00204306 17.55290747 0.00107306 19.52206421 -0.00018311 C23.65480335 -0.00166022 27.78752093 0.00049492 31.92025757 0.00515747 C37.23033871 0.01085476 42.54036932 0.00757583 47.85044861 0.00158501 C51.91834904 -0.00202023 55.9862374 -0.00088219 60.05413818 0.0017128 C62.01265468 0.00238217 63.97117226 0.00155329 65.9296875 -0.00076675 C68.6619255 -0.00329267 71.39408047 0.00054645 74.12631226 0.00613403 C74.94401093 0.0041098 75.76170959 0.00208557 76.60418701 0 C82.18783105 0.02126611 82.18783105 0.02126611 83.30209351 1.13552856 C83.42877115 4.12571018 83.48730189 7.08246964 83.48959351 10.07302856 C83.5018396 10.91027466 83.51408569 11.74752075 83.52670288 12.61013794 C83.52863647 13.41129028 83.53057007 14.21244263 83.53256226 15.03787231 C83.53667114 15.7751355 83.54078003 16.51239868 83.54501343 17.27200317 C83.30209351 19.13552856 83.30209351 19.13552856 81.30209351 21.13552856 C78.57204227 21.33408382 75.94342618 21.40824637 73.21224976 21.39431763 C71.95841995 21.39957458 71.95841995 21.39957458 70.67926025 21.40493774 C67.90762096 21.4137627 65.13623553 21.40790324 62.36459351 21.40115356 C60.44410147 21.4025 58.52360976 21.40444034 56.6031189 21.4069519 C52.57468425 21.4099042 48.54633819 21.40560213 44.51791382 21.39627075 C39.34578908 21.38487617 34.17387188 21.39143507 29.00175476 21.40341568 C25.03502835 21.41063143 21.06835141 21.40834767 17.10162354 21.4031601 C15.19417293 21.40182281 13.28671788 21.40347407 11.37927246 21.4081192 C8.71670579 21.41317976 6.05447855 21.40548092 3.39193726 21.39431763 C2.59810638 21.39836609 1.80427551 21.40241455 0.98638916 21.40658569 C-4.46937821 21.36405685 -4.46937821 21.36405685 -6.69790649 19.13552856 C-6.94082642 17.27200317 -6.94082642 17.27200317 -6.92837524 15.03787231 C-6.92644165 14.23671997 -6.92450806 13.43556763 -6.92251587 12.61013794 C-6.91026978 11.77289185 -6.89802368 10.93564575 -6.88540649 10.07302856 C-6.88476196 9.23191528 -6.88411743 8.390802 -6.88345337 7.52420044 C-6.82907487 0.02600951 -6.82907487 0.02600951 0 0 Z " fill="#453A76" transform="translate(254.69790649414063,209.86447143554688)"/>
<path d="M0 0 C1.226548 0.00303635 1.226548 0.00303635 2.47787476 0.00613403 C3.76315567 0.00350555 3.76315567 0.00350555 5.07440186 0.00082397 C7.9211527 -0.00359561 10.76784197 -0.00065618 13.61459351 0.00271606 C15.58375053 0.00204306 17.55290747 0.00107306 19.52206421 -0.00018311 C23.65480335 -0.00166022 27.78752093 0.00049492 31.92025757 0.00515747 C37.23033871 0.01085476 42.54036932 0.00757583 47.85044861 0.00158501 C51.91834904 -0.00202023 55.9862374 -0.00088219 60.05413818 0.0017128 C62.01265468 0.00238217 63.97117226 0.00155329 65.9296875 -0.00076675 C68.6619255 -0.00329267 71.39408047 0.00054645 74.12631226 0.00613403 C74.94401093 0.0041098 75.76170959 0.00208557 76.60418701 0 C82.18783105 0.02126611 82.18783105 0.02126611 83.30209351 1.13552856 C83.40046561 2.46596481 83.43287943 3.80146201 83.43490601 5.13552856 C83.43619507 5.93990356 83.43748413 6.74427856 83.43881226 7.57302856 C83.43494507 8.41865356 83.43107788 9.26427856 83.42709351 10.13552856 C83.43096069 10.98115356 83.43482788 11.82677856 83.43881226 12.69802856 C83.43752319 13.50240356 83.43623413 14.30677856 83.43490601 15.13552856 C83.43377808 15.87802856 83.43265015 16.62052856 83.43148804 17.38552856 C83.30209351 19.13552856 83.30209351 19.13552856 82.30209351 20.13552856 C79.56858602 20.2360138 76.86031459 20.27169118 74.12631226 20.2649231 C72.84103134 20.26755157 72.84103134 20.26755157 71.52978516 20.27023315 C68.68303431 20.27465274 65.83634504 20.27171331 62.98959351 20.26834106 C61.02043648 20.26901407 59.05127954 20.26998407 57.0821228 20.27124023 C52.94938366 20.27271735 48.81666609 20.27056221 44.68392944 20.26589966 C39.3738483 20.26020236 34.06381769 20.2634813 28.7537384 20.26947212 C24.68583797 20.27307736 20.61794961 20.27193932 16.55004883 20.26934433 C14.59153233 20.26867496 12.63301475 20.26950384 10.67449951 20.27182388 C7.94226151 20.2743498 5.21010654 20.27051068 2.47787476 20.2649231 C1.25132675 20.26795944 1.25132675 20.26795944 0 20.27105713 C-5.58364404 20.24979102 -5.58364404 20.24979102 -6.69790649 19.13552856 C-6.79627859 17.80509231 -6.82869242 16.46959512 -6.83071899 15.13552856 C-6.83200806 14.33115356 -6.83329712 13.52677856 -6.83462524 12.69802856 C-6.83075806 11.85240356 -6.82689087 11.00677856 -6.82290649 10.13552856 C-6.82677368 9.28990356 -6.83064087 8.44427856 -6.83462524 7.57302856 C-6.83333618 6.76865356 -6.83204712 5.96427856 -6.83071899 5.13552856 C-6.82959106 4.39302856 -6.82846313 3.65052856 -6.82730103 2.88552856 C-6.53076736 -1.1249494 -3.27740298 0.01248246 0 0 Z " fill="#443B7C" transform="translate(254.69790649414063,120.86447143554688)"/>
<path d="M0 0 C0.69097275 0.00404846 1.3819455 0.00809692 2.09385681 0.01226807 C2.82245407 0.00876343 3.55105133 0.00525879 4.30172729 0.00164795 C6.71625729 -0.00717295 9.13049558 -0.00131907 11.54502869 0.00543213 C13.21889808 0.00408558 14.89276708 0.00214513 16.56663513 -0.00036621 C20.07721169 -0.00331796 23.58768658 0.00098175 27.09825134 0.01031494 C31.60451093 0.02170954 36.1105323 0.01515033 40.61678314 0.00317001 C44.07395736 -0.00404725 47.53107483 -0.00176128 50.98825073 0.0034256 C52.65008573 0.00476247 54.31192584 0.00311308 55.97375488 -0.00153351 C58.29387616 -0.0065966 60.61360836 0.00110815 62.93370056 0.01226807 C63.62467331 0.0082196 64.31564606 0.00417114 65.02755737 0 C69.78524943 0.04252787 69.78524943 0.04252787 72.01377869 2.27105713 C72.25669861 4.13458252 72.25669861 4.13458252 72.24424744 6.36871338 C72.24231384 7.16986572 72.24038025 7.97101807 72.23838806 8.79644775 C72.22614197 9.63369385 72.21389587 10.47093994 72.20127869 11.33355713 C72.20031189 12.59522705 72.20031189 12.59522705 72.19932556 13.88238525 C72.15401052 20.13082529 72.15401052 20.13082529 71.01377869 21.27105713 C68.61568719 21.37133508 66.2463837 21.40724389 63.84776306 21.40045166 C63.09819839 21.40220398 62.34863373 21.4039563 61.57635498 21.40576172 C59.086723 21.41018033 56.59716145 21.40724222 54.10752869 21.40386963 C52.38499437 21.40454267 50.66246014 21.40551269 48.93992615 21.4067688 C45.32504881 21.40824578 41.71019613 21.4060912 38.09532166 21.40142822 C33.45111376 21.39573093 28.80696365 21.39900993 24.16275787 21.40500069 C20.60441143 21.40860629 17.04607878 21.40746772 13.48773193 21.40487289 C11.77483107 21.40420362 10.06192897 21.40503206 8.34902954 21.40735245 C5.95925047 21.40987896 3.56956628 21.40603843 1.17979431 21.40045166 C0.46495377 21.40247589 -0.24988678 21.40450012 -0.98638916 21.40658569 C-5.87195863 21.38531982 -5.87195863 21.38531982 -6.98622131 20.27105713 C-7.11289896 17.28087552 -7.1714297 14.32411605 -7.17372131 11.33355713 C-7.18596741 10.49631104 -7.1982135 9.65906494 -7.21083069 8.79644775 C-7.21276428 7.99529541 -7.21469788 7.19414307 -7.21669006 6.36871338 C-7.22079895 5.6314502 -7.22490784 4.89418701 -7.22914124 4.13458252 C-6.66290588 -0.20921091 -3.67803086 0.03287704 0 0 Z " fill="#453A75" transform="translate(180.98622131347656,61.72894287109375)"/>
<path d="M0 0 C0.71484055 0.00202423 1.42968109 0.00404846 2.16618347 0.00613403 C2.91574814 0.00438171 3.66531281 0.00262939 4.43759155 0.00082397 C6.92722354 -0.00359463 9.41678508 -0.00065653 11.90641785 0.00271606 C13.62895217 0.00204303 15.35148639 0.001073 17.07402039 -0.00018311 C20.68889772 -0.00166009 24.3037504 0.00049449 27.91862488 0.00515747 C32.56283277 0.01085476 37.20698289 0.00757576 41.85118866 0.00158501 C45.40953511 -0.00202059 48.96786775 -0.00088203 52.5262146 0.0017128 C54.23911547 0.00238207 55.95201757 0.00155363 57.66491699 -0.00076675 C60.05469606 -0.00329326 62.44438026 0.00054727 64.83415222 0.00613403 C65.90641304 0.00309769 65.90641304 0.00309769 67.00033569 0 C71.88590516 0.02126588 71.88590516 0.02126588 73.00016785 1.13552856 C73.09853995 2.46596481 73.13095377 3.80146201 73.13298035 5.13552856 C73.13426941 5.93990356 73.13555847 6.74427856 73.1368866 7.57302856 C73.13301941 8.41865356 73.12915222 9.26427856 73.12516785 10.13552856 C73.12903503 10.98115356 73.13290222 11.82677856 73.1368866 12.69802856 C73.13559753 13.50240356 73.13430847 14.30677856 73.13298035 15.13552856 C73.13185242 15.87802856 73.13072449 16.62052856 73.12956238 17.38552856 C73.00016785 19.13552856 73.00016785 19.13552856 72.00016785 20.13552856 C69.60207635 20.23580652 67.23277286 20.27171533 64.83415222 20.2649231 C64.08458755 20.26667542 63.33502289 20.26842773 62.56274414 20.27023315 C60.07311216 20.27465176 57.58355061 20.27171366 55.09391785 20.26834106 C53.37138353 20.2690141 51.6488493 20.26998412 49.92631531 20.27124023 C46.31143797 20.27271722 42.69658529 20.27056263 39.08171082 20.26589966 C34.43750292 20.26020237 29.79335281 20.26348137 25.14914703 20.26947212 C21.59080059 20.27307772 18.03246794 20.27193916 14.47412109 20.26934433 C12.76122023 20.26867506 11.04831813 20.26950349 9.3354187 20.27182388 C6.94563963 20.27435039 4.55595544 20.27050986 2.16618347 20.2649231 C1.45134293 20.26694733 0.73650238 20.26897156 0 20.27105713 C-4.88556947 20.24979125 -4.88556947 20.24979125 -5.99983215 19.13552856 C-6.09820425 17.80509231 -6.13061808 16.46959512 -6.13264465 15.13552856 C-6.13393372 14.33115356 -6.13522278 13.52677856 -6.1365509 12.69802856 C-6.13268372 11.85240356 -6.12881653 11.00677856 -6.12483215 10.13552856 C-6.12869934 9.28990356 -6.13256653 8.44427856 -6.1365509 7.57302856 C-6.13526184 6.76865356 -6.13397278 5.96427856 -6.13264465 5.13552856 C-6.13151672 4.39302856 -6.13038879 3.65052856 -6.12922668 2.88552856 C-5.84976724 -0.89402863 -3.16351211 0.01377012 0 0 Z " fill="#403B7C" transform="translate(179.9998321533203,151.86447143554688)"/>
<path d="M0 0 C1.00489471 -0.00503792 1.00489471 -0.00503792 2.03009033 -0.01017761 C4.25518626 -0.01971353 6.48020715 -0.02163204 8.70532227 -0.02270508 C10.24609916 -0.02591586 11.78687574 -0.02927979 13.32765198 -0.03279114 C16.56170356 -0.03878904 19.7957284 -0.04063037 23.02978516 -0.04003906 C27.18070372 -0.03993741 31.33145134 -0.05358986 35.48232937 -0.07081127 C38.66584567 -0.08191173 41.8493204 -0.08395887 45.03285408 -0.08342934 C46.56351371 -0.0846124 48.09417431 -0.08905236 49.62481499 -0.0967617 C51.7630204 -0.10652232 53.90085149 -0.10369938 56.0390625 -0.09765625 C57.25738266 -0.09908127 58.47570282 -0.10050629 59.73094177 -0.10197449 C62.58422852 0.14526367 62.58422852 0.14526367 64.58422852 2.14526367 C64.78279823 5.01868429 64.86251797 7.77388355 64.83422852 10.64526367 C64.84583008 11.82282227 64.84583008 11.82282227 64.85766602 13.02416992 C64.83753639 18.8919558 64.83753639 18.8919558 62.58422852 21.14526367 C59.73094177 21.39250183 59.73094177 21.39250183 56.0390625 21.38818359 C55.03153931 21.39103111 55.03153931 21.39103111 54.00366211 21.39393616 C51.77909751 21.39764691 49.55485794 21.3869367 47.33032227 21.37573242 C45.7885797 21.37454079 44.24683639 21.37408742 42.70509338 21.37434387 C39.47278301 21.37277855 36.24058332 21.3644845 33.00830078 21.35107422 C28.85623161 21.33407006 24.70428401 21.33026025 20.5521841 21.3310194 C17.36870657 21.33074806 14.18525583 21.32527291 11.00178719 21.31801796 C9.4703091 21.31482656 7.93882796 21.31286279 6.40734673 21.31212425 C4.27151134 21.30996646 2.13580736 21.30123496 0 21.29052734 C-1.82628685 21.28480965 -1.82628685 21.28480965 -3.68946838 21.27897644 C-6.41577148 21.14526367 -6.41577148 21.14526367 -7.41577148 20.14526367 C-7.5143728 18.74177632 -7.54656085 17.3334589 -7.54858398 15.92651367 C-7.54987305 15.07702148 -7.55116211 14.2275293 -7.55249023 13.35229492 C-7.54862305 12.45897461 -7.54475586 11.5656543 -7.54077148 10.64526367 C-7.54463867 9.75194336 -7.54850586 8.85862305 -7.55249023 7.93823242 C-7.55120117 7.08874023 -7.54991211 6.23924805 -7.54858398 5.36401367 C-7.54745605 4.57961914 -7.54632813 3.79522461 -7.54516602 2.98706055 C-7.24682118 -1.25956852 -3.44628247 0.01078954 0 0 Z " fill="#453A75" transform="translate(273.415771484375,93.854736328125)"/>
<path d="M0 0 C39.6 0 79.2 0 120 0 C120 3.96 120 7.92 120 12 C80.4 12 40.8 12 0 12 C0 8.04 0 4.08 0 0 Z " fill="#9D9D9D" transform="translate(209,448)"/>
<path d="M0 0 C0.68128967 -0.00175232 1.36257935 -0.00350464 2.06451416 -0.00531006 C4.32688917 -0.00972789 6.58918663 -0.00679084 8.8515625 -0.00341797 C10.4171551 -0.00409103 11.9827476 -0.00506107 13.54833984 -0.00631714 C16.83366895 -0.00779402 20.11897092 -0.00563988 23.40429688 -0.00097656 C27.62476766 0.00472073 31.84517486 0.00144167 36.06564331 -0.00454903 C39.29972822 -0.00815491 42.53379795 -0.00701593 45.7678833 -0.00442123 C47.32448331 -0.00375204 48.88108468 -0.00458012 50.43768311 -0.00690079 C52.60953446 -0.00942777 54.78128146 -0.00558612 56.953125 0 C58.19143066 0.00079559 59.42973633 0.00159119 60.70556641 0.00241089 C63.4765625 0.12939453 63.4765625 0.12939453 64.4765625 1.12939453 C64.5749346 2.45983078 64.60734842 3.79532797 64.609375 5.12939453 C64.61066406 5.93376953 64.61195313 6.73814453 64.61328125 7.56689453 C64.60941406 8.41251953 64.60554688 9.25814453 64.6015625 10.12939453 C64.60542969 10.97501953 64.60929687 11.82064453 64.61328125 12.69189453 C64.61199219 13.49626953 64.61070312 14.30064453 64.609375 15.12939453 C64.60824707 15.87189453 64.60711914 16.61439453 64.60595703 17.37939453 C64.4765625 19.12939453 64.4765625 19.12939453 63.4765625 20.12939453 C61.3039357 20.22895731 59.12803144 20.25739172 56.953125 20.25878906 C56.27183533 20.26054138 55.59054565 20.2622937 54.88861084 20.26409912 C52.62623583 20.26851695 50.36393837 20.26557991 48.1015625 20.26220703 C46.5359699 20.26288009 44.9703774 20.26385013 43.40478516 20.2651062 C40.11945605 20.26658308 36.83415408 20.26442894 33.54882812 20.25976562 C29.32835734 20.25406834 25.10795014 20.25734739 20.88748169 20.26333809 C17.65339678 20.26694397 14.41932705 20.26580499 11.1852417 20.2632103 C9.62864169 20.2625411 8.07204032 20.26336919 6.51544189 20.26568985 C4.34359054 20.26821683 2.17184354 20.26437518 0 20.25878906 C-1.23830566 20.25799347 -2.47661133 20.25719788 -3.75244141 20.25637817 C-6.5234375 20.12939453 -6.5234375 20.12939453 -7.5234375 19.12939453 C-7.6218096 17.79895828 -7.65422342 16.46346109 -7.65625 15.12939453 C-7.65753906 14.32501953 -7.65882813 13.52064453 -7.66015625 12.69189453 C-7.65628906 11.84626953 -7.65242188 11.00064453 -7.6484375 10.12939453 C-7.65230469 9.28376953 -7.65617187 8.43814453 -7.66015625 7.56689453 C-7.65886719 6.76251953 -7.65757812 5.95814453 -7.65625 5.12939453 C-7.65512207 4.38689453 -7.65399414 3.64439453 -7.65283203 2.87939453 C-7.34339987 -1.30552944 -3.34005804 0.00214594 0 0 Z " fill="#403A7C" transform="translate(273.5234375,183.87060546875)"/>
<path d="M0 0 C4.33573347 -0.41796916 8.6501246 -0.12793751 13 0 C16.59290237 8.42364562 19.95077823 16.91703892 23.13183594 25.50292969 C23.63327003 26.85041026 24.13957325 28.19608755 24.65039062 29.54003906 C25.39990616 31.51249831 26.13508662 33.48977158 26.8671875 35.46875 C27.30144043 36.62826172 27.73569336 37.78777344 28.18310547 38.98242188 C29 42 29 42 28 46 C24.7 46 21.4 46 18 46 C16.68 43.36 15.36 40.72 14 38 C8.72 38 3.44 38 -2 38 C-3.32 40.64 -4.64 43.28 -6 46 C-9.3 46 -12.6 46 -16 46 C-15.4592097 40.13038649 -14.22594891 35.16084237 -12.12890625 29.66796875 C-11.84651596 28.90954178 -11.56412567 28.15111481 -11.2731781 27.3697052 C-10.67962848 25.78082058 -10.08192012 24.19348378 -9.48022461 22.60766602 C-8.55971277 20.18014969 -7.65288711 17.74784892 -6.74804688 15.31445312 C-6.16745662 13.76532871 -5.58610324 12.21649004 -5.00390625 10.66796875 C-4.73300674 9.94296677 -4.46210724 9.21796478 -4.18299866 8.47099304 C-3.00675333 5.38179567 -1.8424323 2.76364844 0 0 Z " fill="#423678" transform="translate(220,288)"/>
<path d="M0 0 C4.33573347 -0.41796916 8.6501246 -0.12793751 13 0 C16.59290237 8.42364562 19.95077823 16.91703892 23.13183594 25.50292969 C23.63327003 26.85041026 24.13957325 28.19608755 24.65039062 29.54003906 C25.39990616 31.51249831 26.13508662 33.48977158 26.8671875 35.46875 C27.30144043 36.62826172 27.73569336 37.78777344 28.18310547 38.98242188 C29 42 29 42 28 46 C24.7 46 21.4 46 18 46 C16.68 43.36 15.36 40.72 14 38 C8.72 38 3.44 38 -2 38 C-3.32 40.64 -4.64 43.28 -6 46 C-8.97 46 -11.94 46 -15 46 C-16.78292542 40.87688624 -14.94993506 37.11646314 -13.10546875 32.3046875 C-12.79805252 31.47542755 -12.49063629 30.6461676 -12.17390442 29.79177856 C-11.52306084 28.04308351 -10.86623722 26.29660407 -10.20385742 24.55224609 C-9.19012084 21.8819037 -8.19410412 19.20548286 -7.20117188 16.52734375 C-6.56612649 14.82774266 -5.93009208 13.12851073 -5.29296875 11.4296875 C-4.99392136 10.62965302 -4.69487396 9.82961853 -4.38676453 9.00534058 C-4.10339737 8.26091705 -3.82003021 7.51649353 -3.52807617 6.74951172 C-3.28079269 6.09618866 -3.03350922 5.4428656 -2.7787323 4.76974487 C-2 3 -2 3 0 0 Z " fill="#433678" transform="translate(316,288)"/>
<path d="M0 0 C1.61672607 -0.00472824 1.61672607 -0.00472824 3.26611328 -0.009552 C4.43899902 -0.00752777 5.61188477 -0.00550354 6.8203125 -0.00341797 C8.0151123 -0.00437469 9.20991211 -0.00533142 10.44091797 -0.00631714 C12.9729823 -0.00699918 15.50504838 -0.00514325 18.03710938 -0.00097656 C21.9284251 0.00437132 25.81962539 -0.00092079 29.7109375 -0.00732422 C32.16406276 -0.00666344 34.61718794 -0.00538229 37.0703125 -0.00341797 C38.24319824 -0.0054422 39.41608398 -0.00746643 40.62451172 -0.009552 C41.7023291 -0.00639984 42.78014648 -0.00324768 43.890625 0 C44.84469238 0.00079559 45.79875977 0.00159119 46.78173828 0.00241089 C48.9453125 0.12939453 48.9453125 0.12939453 49.9453125 1.12939453 C50.04391381 2.53288188 50.07610187 3.9411993 50.078125 5.34814453 C50.08005859 6.62238281 50.08005859 6.62238281 50.08203125 7.92236328 C50.07816406 8.81568359 50.07429688 9.70900391 50.0703125 10.62939453 C50.07611328 11.969375 50.07611328 11.969375 50.08203125 13.33642578 C50.08074219 14.18591797 50.07945312 15.03541016 50.078125 15.91064453 C50.07699707 16.69503906 50.07586914 17.47943359 50.07470703 18.28759766 C49.9453125 20.12939453 49.9453125 20.12939453 48.9453125 21.12939453 C47.26276015 21.22814623 45.57607222 21.25738357 43.890625 21.25878906 C42.27389893 21.2635173 42.27389893 21.2635173 40.62451172 21.26834106 C39.45162598 21.26631683 38.27874023 21.2642926 37.0703125 21.26220703 C35.8755127 21.26316376 34.68071289 21.26412048 33.44970703 21.2651062 C30.9176427 21.26578824 28.38557662 21.26393231 25.85351562 21.25976562 C21.9621999 21.25441774 18.07099961 21.25970986 14.1796875 21.26611328 C11.72656224 21.2654525 9.27343706 21.26417135 6.8203125 21.26220703 C5.64742676 21.26423126 4.47454102 21.26625549 3.26611328 21.26834106 C2.1882959 21.2651889 1.11047852 21.26203674 0 21.25878906 C-0.95406738 21.25799347 -1.90813477 21.25719788 -2.89111328 21.25637817 C-5.0546875 21.12939453 -5.0546875 21.12939453 -6.0546875 20.12939453 C-6.15328881 18.72590718 -6.18547687 17.31758976 -6.1875 15.91064453 C-6.18878906 15.06115234 -6.19007813 14.21166016 -6.19140625 13.33642578 C-6.18753906 12.44310547 -6.18367187 11.54978516 -6.1796875 10.62939453 C-6.18355469 9.73607422 -6.18742188 8.84275391 -6.19140625 7.92236328 C-6.19011719 7.07287109 -6.18882812 6.22337891 -6.1875 5.34814453 C-6.18637207 4.56375 -6.18524414 3.77935547 -6.18408203 2.97119141 C-5.91328386 -0.88333951 -3.25950866 0.00271809 0 0 Z " fill="#463A75" transform="translate(212.0546875,93.87060546875)"/>
<path d="M0 0 C1.61672607 -0.00472824 1.61672607 -0.00472824 3.26611328 -0.009552 C4.43899902 -0.00752777 5.61188477 -0.00550354 6.8203125 -0.00341797 C8.0151123 -0.00437469 9.20991211 -0.00533142 10.44091797 -0.00631714 C12.9729823 -0.00699918 15.50504838 -0.00514325 18.03710938 -0.00097656 C21.9284251 0.00437132 25.81962539 -0.00092079 29.7109375 -0.00732422 C32.16406276 -0.00666344 34.61718794 -0.00538229 37.0703125 -0.00341797 C38.24319824 -0.0054422 39.41608398 -0.00746643 40.62451172 -0.009552 C41.7023291 -0.00639984 42.78014648 -0.00324768 43.890625 0 C44.84469238 0.00079559 45.79875977 0.00159119 46.78173828 0.00241089 C48.9453125 0.12939453 48.9453125 0.12939453 49.9453125 1.12939453 C50.0436846 2.45983078 50.07609842 3.79532797 50.078125 5.12939453 C50.08005859 6.33595703 50.08005859 6.33595703 50.08203125 7.56689453 C50.07816406 8.41251953 50.07429688 9.25814453 50.0703125 10.12939453 C50.07611328 11.39783203 50.07611328 11.39783203 50.08203125 12.69189453 C50.08074219 13.49626953 50.07945312 14.30064453 50.078125 15.12939453 C50.07699707 15.87189453 50.07586914 16.61439453 50.07470703 17.37939453 C49.9453125 19.12939453 49.9453125 19.12939453 48.9453125 20.12939453 C47.26276015 20.22814623 45.57607222 20.25738357 43.890625 20.25878906 C42.27389893 20.2635173 42.27389893 20.2635173 40.62451172 20.26834106 C39.45162598 20.26631683 38.27874023 20.2642926 37.0703125 20.26220703 C35.8755127 20.26316376 34.68071289 20.26412048 33.44970703 20.2651062 C30.9176427 20.26578824 28.38557662 20.26393231 25.85351562 20.25976562 C21.9621999 20.25441774 18.07099961 20.25970986 14.1796875 20.26611328 C11.72656224 20.2654525 9.27343706 20.26417135 6.8203125 20.26220703 C5.64742676 20.26423126 4.47454102 20.26625549 3.26611328 20.26834106 C2.1882959 20.2651889 1.11047852 20.26203674 0 20.25878906 C-0.95406738 20.25799347 -1.90813477 20.25719788 -2.89111328 20.25637817 C-5.0546875 20.12939453 -5.0546875 20.12939453 -6.0546875 19.12939453 C-6.1530596 17.79895828 -6.18547342 16.46346109 -6.1875 15.12939453 C-6.18878906 14.32501953 -6.19007813 13.52064453 -6.19140625 12.69189453 C-6.18753906 11.84626953 -6.18367187 11.00064453 -6.1796875 10.12939453 C-6.18355469 9.28376953 -6.18742188 8.43814453 -6.19140625 7.56689453 C-6.19011719 6.76251953 -6.18882812 5.95814453 -6.1875 5.12939453 C-6.18637207 4.38689453 -6.18524414 3.64439453 -6.18408203 2.87939453 C-5.905324 -0.89067637 -3.15678562 0.00263243 0 0 Z " fill="#403A7C" transform="translate(212.0546875,183.87060546875)"/>
<path d="M0 0 C1.43489809 -0.13536774 2.87347107 -0.23217143 4.3125 -0.3125 C5.11300781 -0.37050781 5.91351563 -0.42851562 6.73828125 -0.48828125 C9 0 9 0 10.5625 1.859375 C12.60603795 6.32406117 14.15886671 10.90000889 15.6875 15.5625 C16.16799805 16.98079102 16.16799805 16.98079102 16.65820312 18.42773438 C17.11163086 19.79575195 17.11163086 19.79575195 17.57421875 21.19140625 C17.84838623 22.01842041 18.12255371 22.84543457 18.4050293 23.69750977 C19 26 19 26 19 30 C20.32 30 21.64 30 23 30 C23.22042969 29.12214844 23.22042969 29.12214844 23.4453125 28.2265625 C25.10798509 21.86253982 27.05463573 15.61579319 29.125 9.375 C29.39070801 8.56885254 29.65641602 7.76270508 29.93017578 6.93212891 C31.87623091 1.12376909 31.87623091 1.12376909 33 0 C34.68608966 -0.07205511 36.37500659 -0.08386068 38.0625 -0.0625 C38.98160156 -0.05347656 39.90070313 -0.04445313 40.84765625 -0.03515625 C41.55792969 -0.02355469 42.26820313 -0.01195312 43 0 C44.09010846 3.26603723 43.9164991 5.07671271 42.75244141 8.29370117 C42.30670273 9.54971382 42.30670273 9.54971382 41.85195923 10.83110046 C41.52182831 11.726017 41.19169739 12.62093353 40.8515625 13.54296875 C40.51957855 14.46717117 40.1875946 15.3913736 39.84555054 16.34358215 C39.14259481 18.29458469 38.43450625 20.24374435 37.72167969 22.19116211 C36.62667433 25.18292542 35.54635414 28.17966466 34.46875 31.17773438 C33.78469956 33.07061822 33.09983173 34.96320692 32.4140625 36.85546875 C32.08798004 37.75645798 31.76189758 38.6574472 31.42593384 39.58573914 C31.1224704 40.41362442 30.81900696 41.2415097 30.50634766 42.09448242 C30.23907867 42.82632248 29.97180969 43.55816254 29.69644165 44.31217957 C29 46 29 46 28 47 C25.64686445 47.07271741 23.29166332 47.08370868 20.9375 47.0625 C19.64714844 47.05347656 18.35679687 47.04445313 17.02734375 47.03515625 C16.02832031 47.02355469 15.02929688 47.01195312 14 47 C11.79611679 40.89405104 9.59681181 34.78652335 7.40625 28.67578125 C5.97343063 24.68395103 4.52170004 20.70112082 3.03125 16.73046875 C2.74781738 15.963396 2.46438477 15.19632324 2.17236328 14.40600586 C1.65458862 13.00598503 1.12743206 11.60938526 0.58935547 10.21704102 C-0.79725698 6.42615037 -1.22983925 3.88214319 0 0 Z " fill="#433778" transform="translate(253,287)"/>
<path d="M0 0 C7.8770015 6.75171557 7.8770015 6.75171557 11.19116211 10.06176758 C11.93140121 10.79885452 12.67164032 11.53594147 13.43431091 12.29536438 C14.59411217 13.45820198 14.59411217 13.45820198 15.77734375 14.64453125 C16.58869278 15.45492355 17.40004181 16.26531586 18.23597717 17.1002655 C19.93727402 18.80088556 21.6373236 20.50275421 23.33618164 22.20581055 C25.95019665 24.82522287 28.56955855 27.43920411 31.18945312 30.05273438 C32.84407111 31.70801241 34.49837927 33.36360022 36.15234375 35.01953125 C36.9397142 35.80487747 37.72708466 36.59022369 38.53831482 37.39936829 C39.61557579 38.4813575 39.61557579 38.4813575 40.71459961 39.58520508 C41.668881 40.54067986 41.668881 40.54067986 42.6424408 41.51545715 C44 43 44 43 44 44 C29.48 44 14.96 44 0 44 C0 29.48 0 14.96 0 0 Z " fill="#F5AD24" transform="translate(326,34)"/>
<path d="M0 0 C8.58 0 17.16 0 26 0 C26 12.54 26 25.08 26 38 C17.42 38 8.84 38 0 38 C0 25.46 0 12.92 0 0 Z " fill="#AFAFAF" transform="translate(205,404)"/>
<path d="M0 0 C1.20462891 -0.02126953 1.20462891 -0.02126953 2.43359375 -0.04296875 C4.5625 0.1875 4.5625 0.1875 6.5625 2.1875 C6.78688198 4.67531168 6.89061164 7.04856117 6.8984375 9.5390625 C6.9050943 10.27192474 6.9117511 11.00478699 6.91860962 11.75985718 C6.92874654 13.31497691 6.93342632 14.87014023 6.93310547 16.42529297 C6.93744566 18.78297955 6.9736571 21.1387428 7.01171875 23.49609375 C7.11868472 37.695354 7.11868472 37.695354 2.5625 44.1875 C-1.97177778 47.81492222 -6.99255534 47.6945962 -12.59375 47.53515625 C-18.01350388 46.87257645 -20.49250785 44.35630608 -23.8125 40.25 C-25.45301383 37.1582624 -25.92671065 35.61197455 -25.4375 32.1875 C-24.4375 31.1875 -24.4375 31.1875 -22.15234375 31.08984375 C-20.77755859 31.10724609 -20.77755859 31.10724609 -19.375 31.125 C-18.45589844 31.13402344 -17.53679687 31.14304687 -16.58984375 31.15234375 C-15.87957031 31.16394531 -15.16929687 31.17554688 -14.4375 31.1875 C-13.7775 32.8375 -13.1175 34.4875 -12.4375 36.1875 C-10.4575 36.1875 -8.4775 36.1875 -6.4375 36.1875 C-6.41244385 35.13248291 -6.3873877 34.07746582 -6.36157227 32.99047852 C-6.26765891 29.08979372 -6.16739966 25.18929375 -6.06518555 21.28881836 C-6.02177561 19.59810701 -5.98010511 17.90735009 -5.94018555 16.21655273 C-5.88262906 13.79136394 -5.81889351 11.36640585 -5.75390625 8.94140625 C-5.73719376 8.18098526 -5.72048126 7.42056427 -5.70326233 6.63710022 C-5.51558202 0.04412466 -5.51558202 0.04412466 0 0 Z " fill="#473878" transform="translate(192.4375,286.8125)"/>
<path d="M0 0 C1.08946678 -0.0049926 1.08946678 -0.0049926 2.20094299 -0.01008606 C3.74015671 -0.015158 5.27938145 -0.0174943 6.81860352 -0.01733398 C9.17808096 -0.01951891 11.53708986 -0.0376669 13.89648438 -0.05664062 C15.38932131 -0.05957477 16.88216048 -0.06155942 18.375 -0.0625 C19.43756264 -0.07327827 19.43756264 -0.07327827 20.52159119 -0.08427429 C25.52508288 -0.06085462 25.52508288 -0.06085462 27.75390625 2.16796875 C27.95247597 5.04138936 28.03219571 7.79658863 28.00390625 10.66796875 C28.01550781 11.84552734 28.01550781 11.84552734 28.02734375 13.046875 C28.00721412 18.91466088 28.00721412 18.91466088 25.75390625 21.16796875 C22.62109375 21.41088867 22.62109375 21.41088867 18.62890625 21.3984375 C17.92620605 21.39797928 17.22350586 21.39752106 16.49951172 21.39704895 C15.01332919 21.394027 13.52714981 21.38614234 12.04101562 21.3737793 C9.762907 21.35554081 7.48520521 21.3532695 5.20703125 21.35351562 C-5.95104116 21.31549504 -5.95104116 21.31549504 -8.24609375 20.16796875 C-8.27497889 17.02215452 -8.29285298 13.87637406 -8.30859375 10.73046875 C-8.31697266 9.83263672 -8.32535156 8.93480469 -8.33398438 8.00976562 C-8.33720703 7.15576172 -8.34042969 6.30175781 -8.34375 5.421875 C-8.35160522 4.23573608 -8.35160522 4.23573608 -8.35961914 3.02563477 C-8.08825643 -1.41479294 -3.42821035 0.00537021 0 0 Z " fill="#473C75" transform="translate(214.24609375,209.83203125)"/>
<path d="M0 0 C0.73541016 0.00202423 1.47082031 0.00404846 2.22851562 0.00613403 C2.97939453 0.00517731 3.73027344 0.00422058 4.50390625 0.00323486 C6.09440189 0.00255315 7.6849003 0.00440682 9.27539062 0.00857544 C11.71816217 0.01392386 14.16074984 0.00863019 16.60351562 0.00222778 C18.1451827 0.00288857 19.68684966 0.00416973 21.22851562 0.00613403 C21.96392578 0.0041098 22.69933594 0.00208557 23.45703125 0 C28.61356402 0.02399493 28.61356402 0.02399493 29.72851562 1.13894653 C29.85514654 3.96311036 29.91372111 6.75189447 29.91601562 9.57644653 C29.92826172 10.36599731 29.94050781 11.1555481 29.953125 11.96902466 C29.95838842 14.02702088 29.85057848 16.08456663 29.72851562 18.13894653 C27.25944595 20.60801621 25.86577793 20.37541771 22.49620056 20.39118958 C21.78782547 20.38400406 21.07945038 20.37681854 20.34960938 20.36941528 C19.62234146 20.36895706 18.89507355 20.36849884 18.14576721 20.36802673 C16.60831063 20.36500489 15.0708571 20.35712058 13.53344727 20.34475708 C11.17192827 20.32649226 8.81080102 20.32424744 6.44921875 20.32449341 C4.95767888 20.31957856 3.46614168 20.31375039 1.97460938 20.30691528 C1.26421005 20.30580246 0.55381073 20.30468964 -0.17811584 20.30354309 C-5.15543073 20.25500018 -5.15543073 20.25500018 -6.27148438 19.13894653 C-6.36985647 17.80851028 -6.4022703 16.47301309 -6.40429688 15.13894653 C-6.40558594 14.33457153 -6.406875 13.53019653 -6.40820312 12.70144653 C-6.40433594 11.85582153 -6.40046875 11.01019653 -6.39648438 10.13894653 C-6.40035156 9.29332153 -6.40421875 8.44769653 -6.40820312 7.57644653 C-6.40691406 6.77207153 -6.405625 5.96769653 -6.40429688 5.13894653 C-6.40316895 4.39644653 -6.40204102 3.65394653 -6.40087891 2.88894653 C-6.11463916 -0.982311 -3.2120074 0.01494645 0 0 Z " fill="#473D7A" transform="translate(212.271484375,120.86105346679688)"/>
<path d="M0 0 C25.74 0 51.48 0 78 0 C78 2.97 78 5.94 78 9 C52.26 9 26.52 9 0 9 C0 6.03 0 3.06 0 0 Z " fill="#C6C6C9" transform="translate(254,216)"/>
<path d="M0 0 C25.74 0 51.48 0 78 0 C78 2.64 78 5.28 78 8 C52.26 8 26.52 8 0 8 C0 5.36 0 2.72 0 0 Z " fill="#CECECE" transform="translate(254,127)"/>
<path d="M0 0 C22.11 0 44.22 0 67 0 C67 2.97 67 5.94 67 9 C44.89 9 22.78 9 0 9 C0 6.03 0 3.06 0 0 Z " fill="#EA5F75" transform="translate(180,68)"/>
<path d="M0 0 C1.71855698 0.01061211 1.71855698 0.01061211 3.47183228 0.0214386 C7.11991521 0.0493572 10.76644588 0.11209576 14.4140625 0.17578125 C16.89190487 0.20086718 19.36977137 0.22367982 21.84765625 0.24414062 C27.91205358 0.29917639 33.97529514 0.38543581 40.0390625 0.48828125 C40.0390625 3.78828125 40.0390625 7.08828125 40.0390625 10.48828125 C19.9090625 10.48828125 -0.2209375 10.48828125 -20.9609375 10.48828125 C-15.04237491 0.62401027 -11.03791257 -0.25743978 0 0 Z " fill="#CDCDCD" transform="translate(90.9609375,101.51171875)"/>
<path d="M0 0 C7.27733472 -0.14861814 14.55378097 -0.25734911 21.83227539 -0.32958984 C24.30671583 -0.35971262 26.78104993 -0.40061976 29.25512695 -0.45263672 C32.81748726 -0.52564471 36.37843281 -0.55950318 39.94140625 -0.5859375 C41.04271378 -0.61690521 42.1440213 -0.64787292 43.27870178 -0.67977905 C49.49649771 -0.68248706 53.17290208 -0.09780876 57.69737244 4.31747437 C59 6 59 6 61 10 C40.87 10 20.74 10 0 10 C0 6.7 0 3.4 0 0 Z " fill="#CECECE" transform="translate(381,102)"/>
<path d="M0 0 C20.13 0 40.26 0 61 0 C61 2.97 61 5.94 61 9 C40.87 9 20.74 9 0 9 C0 6.03 0 3.06 0 0 Z " fill="#E95F75" transform="translate(271,100)"/>
<path d="M0 0 C22.11 0 44.22 0 67 0 C67 2.64 67 5.28 67 8 C44.89 8 22.78 8 0 8 C0 5.36 0 2.72 0 0 Z " fill="#63BCE7" transform="translate(180,158)"/>
<path d="M0 0 C19.8 0 39.6 0 60 0 C60 2.64 60 5.28 60 8 C40.2 8 20.4 8 0 8 C0 5.36 0 2.72 0 0 Z " fill="#63BCE7" transform="translate(272,190)"/>
<path d="M0 0 C4.28501096 2.26853522 7.26405481 4.40485096 9 9 C9.29898412 13.97400857 8.73832098 17.09129725 5.5625 21 C1.62456328 24.07351158 -0.8512504 24.34019895 -5.7421875 24.28515625 C-9.11376856 23.85933373 -10.74020743 22.46522826 -13 20 C-15.52481154 16.51335549 -15.43474022 13.20248882 -15 9 C-11.64420614 2.5369896 -7.49641301 -1.07091614 0 0 Z " fill="#443C7C" transform="translate(259,368)"/>
<path d="M0 0 C14.52 0 29.04 0 44 0 C44 2.97 44 5.94 44 9 C29.48 9 14.96 9 0 9 C0 6.03 0 3.06 0 0 Z " fill="#EA5F75" transform="translate(212,100)"/>
<path d="M0 0 C14.52 0 29.04 0 44 0 C44 2.64 44 5.28 44 8 C29.48 8 14.96 8 0 8 C0 5.36 0 2.72 0 0 Z " fill="#63BCE7" transform="translate(212,190)"/>
<path d="M0 0 C8.58 0 17.16 0 26 0 C26 3.96 26 7.92 26 12 C17.42 12 8.84 12 0 12 C0 8.04 0 4.08 0 0 Z " fill="#6F6F70" transform="translate(183,448)"/>
<path d="M0 0 C0.8816835 -0.0033284 1.763367 -0.0066568 2.67176819 -0.01008606 C4.54053219 -0.01515908 6.40930529 -0.01749427 8.27807617 -0.01733398 C11.14451969 -0.01951933 14.01057785 -0.0376678 16.87695312 -0.05664062 C18.68880076 -0.05957464 20.50065023 -0.06155938 22.3125 -0.0625 C23.60473732 -0.07327827 23.60473732 -0.07327827 24.92308044 -0.08427429 C30.99383465 -0.06085285 30.99383465 -0.06085285 33.22265625 2.16796875 C32.68694196 5.70368304 32.68694196 5.70368304 31.22265625 7.16796875 C28.36170001 7.26906261 25.52539568 7.30766303 22.6640625 7.30078125 C21.37483131 7.30221634 21.37483131 7.30221634 20.05955505 7.30368042 C18.23786343 7.30436232 16.4161694 7.30250736 14.59448242 7.29833984 C11.80056305 7.29299821 9.00680492 7.29828114 6.21289062 7.3046875 C4.44661423 7.30402659 2.68033793 7.30274517 0.9140625 7.30078125 C0.07444473 7.30280548 -0.76517303 7.30482971 -1.63023376 7.30691528 C-7.5474343 7.28292347 -7.5474343 7.28292347 -9.77734375 6.16796875 C-9.82006475 4.5018497 -9.81798207 2.8341399 -9.77734375 1.16796875 C-7.6590034 -0.9503716 -2.93131001 0.00377762 0 0 Z " fill="#3F3678" transform="translate(463.77734375,481.83203125)"/>
<path d="M0 0 C1.29997925 0.00303635 1.29997925 0.00303635 2.6262207 0.00613403 C3.51027588 0.00517731 4.39433105 0.00422058 5.30517578 0.00323486 C7.178142 0.00255302 9.05111056 0.0044076 10.92407227 0.00857544 C13.80140458 0.01392364 16.67858078 0.0086306 19.5559082 0.00222778 C21.37101272 0.00288856 23.18611713 0.00416972 25.0012207 0.00613403 C25.86787354 0.0041098 26.73452637 0.00208557 27.62744141 0 C33.69877061 0.02399644 33.69877061 0.02399644 34.8137207 1.13894653 C34.85435902 2.80511768 34.8564417 4.47282748 34.8137207 6.13894653 C31.50019325 7.79571026 27.80031709 7.30206897 24.1574707 7.30691528 C23.29939819 7.31024368 22.44132568 7.31357208 21.55725098 7.31700134 C19.74154192 7.32206791 17.92582354 7.32440975 16.11010742 7.32424927 C13.324959 7.3264377 10.54020534 7.34460142 7.75512695 7.36355591 C5.99340956 7.36648943 4.23169028 7.3684745 2.4699707 7.36941528 C1.21524963 7.38019356 1.21524963 7.38019356 -0.06481934 7.39118958 C-5.95745318 7.36777265 -5.95745318 7.36777265 -8.1862793 5.13894653 C-7.33380148 -0.48740703 -5.37520419 0.02124506 0 0 Z " fill="#3F3678" transform="translate(23.186279296875,481.8610534667969)"/>
<path d="M0 0 C7.92 0 15.84 0 24 0 C24 2.97 24 5.94 24 9 C16.08 9 8.16 9 0 9 C0 6.03 0 3.06 0 0 Z " fill="#C4C3C8" transform="translate(212,216)"/>
<path d="M0 0 C7.59 0 15.18 0 23 0 C23 2.64 23 5.28 23 8 C15.41 8 7.82 8 0 8 C0 5.36 0 2.72 0 0 Z " fill="#CECECE" transform="translate(212,127)"/>
<path d="M0 0 C2.9375 0.8125 2.9375 0.8125 4.9375 3.8125 C5.29134949 6.64329592 5.3295891 8.18080089 3.8125 10.625 C1.06594028 12.36448782 -0.88096974 12.21019128 -4.0625 11.8125 C-6 10.75 -6 10.75 -7.0625 8.8125 C-6.9375 5.25 -6.9375 5.25 -6.0625 1.8125 C-3.0625 -0.1875 -3.0625 -0.1875 0 0 Z " fill="#98989B" transform="translate(257.0625,374.1875)"/>
<path d="M0 0 C3.8359375 1.6484375 3.8359375 1.6484375 5.3125 4.8125 C6.00560395 8.02598194 5.91700508 9.88218272 5 13 C2.36 13 -0.28 13 -3 13 C-3.93045933 10.44855176 -4.08564091 9.25993522 -3.22265625 6.640625 C-2.83980469 5.85171875 -2.45695313 5.0628125 -2.0625 4.25 C-1.68222656 3.45078125 -1.30195313 2.6515625 -0.91015625 1.828125 C-0.60980469 1.22484375 -0.30945313 0.6215625 0 0 Z " fill="#E55E75" transform="translate(225,304)"/>
<path d="M0 0 C1.65 0.33 3.3 0.66 5 1 C6.62950412 5.12168689 7.26264601 7.70700357 6 12 C3.36 12 0.72 12 -2 12 C-1.85831863 10.56208484 -1.71148957 9.1246763 -1.5625 7.6875 C-1.48128906 6.88699219 -1.40007812 6.08648437 -1.31640625 5.26171875 C-1 3 -1 3 0 0 Z " fill="#EC6075" transform="translate(320,305)"/>
</svg>
