<?xml version="1.0" encoding="UTF-8"?>
<svg version="1.1" xmlns="http://www.w3.org/2000/svg" width="48" height="48">
<path d="M0 0 C4.68796317 2.8950501 8.77605467 6.42344712 10.234375 11.89453125 C11.16656452 18.74158704 11.3930195 24.99387098 7.671875 31.01953125 C3.66347868 35.99068326 0.31000422 38.47580101 -6.0078125 39.3359375 C-13.1275177 39.69575056 -18.34453314 39.19135672 -23.98828125 34.640625 C-29.08369757 29.63479842 -30.03494232 26.05750776 -30.390625 19.01953125 C-30.17838344 12.13997715 -28.58962241 7.80486419 -23.765625 2.89453125 C-17.29271618 -2.6344117 -7.84970384 -3.13766411 0 0 Z " fill="#CFD7DB" transform="translate(33.765625,5.10546875)"/>
<path d="M0 0 C2.64453125 1.0546875 2.64453125 1.0546875 4.4453125 4.546875 C4.97013361 6.00043019 5.47331338 7.46194198 5.95703125 8.9296875 C6.22064453 9.66316406 6.48425781 10.39664062 6.75585938 11.15234375 C7.83229495 14.22228209 8.64453125 16.78130098 8.64453125 20.0546875 C7.32453125 20.0546875 6.00453125 20.0546875 4.64453125 20.0546875 C4.31453125 18.7346875 3.98453125 17.4146875 3.64453125 16.0546875 C1.00453125 16.0546875 -1.63546875 16.0546875 -4.35546875 16.0546875 C-4.68546875 17.3746875 -5.01546875 18.6946875 -5.35546875 20.0546875 C-6.67546875 20.0546875 -7.99546875 20.0546875 -9.35546875 20.0546875 C-8.63845524 15.78519798 -7.31975904 11.87405239 -5.85546875 7.8046875 C-5.41203125 6.56203125 -4.96859375 5.319375 -4.51171875 4.0390625 C-2.97359434 0.06903867 -2.97359434 0.06903867 0 0 Z " fill="#FC5E2C" transform="translate(24.35546875,12.9453125)"/>
<path d="M0 0 C0.66 0 1.32 0 2 0 C2.33 2.31 2.66 4.62 3 7 C1.68 7 0.36 7 -1 7 C-0.67 4.69 -0.34 2.38 0 0 Z " fill="#D9BCB4" transform="translate(23,19)"/>
</svg>
