<?xml version="1.0" encoding="UTF-8"?>
<svg version="1.1" xmlns="http://www.w3.org/2000/svg" width="512" height="512">
<path d="M0 0 C4.87869989 4.26114294 8.15328457 8.75771917 8.71915054 15.42283249 C8.78865448 17.89807206 8.79034236 20.365168 8.77001953 22.84130859 C8.77031158 23.77852753 8.77060364 24.71574646 8.77090454 25.68136597 C8.76951613 28.76553752 8.75397784 31.84946463 8.73828125 34.93359375 C8.73454939 37.07736072 8.73170323 39.2211294 8.72970581 41.36489868 C8.72208302 46.99717956 8.7024461 52.62935669 8.68029785 58.26159668 C8.65981028 64.01292518 8.65069786 69.7642705 8.640625 75.515625 C8.61919898 86.79301424 8.58507934 98.0703266 8.54296875 109.34765625 C9.56777344 109.30125 10.59257812 109.25484375 11.6484375 109.20703125 C13.00908531 109.16949614 14.3697648 109.13309784 15.73046875 109.09765625 C16.40400391 109.06414062 17.07753906 109.030625 17.77148438 108.99609375 C21.40148804 108.92526441 23.3615282 109.23208906 26.44987488 111.19918823 C28.87963274 113.6932269 29.7298802 115.61115713 30.78125 118.91796875 C31.12607422 119.97886719 31.47089844 121.03976563 31.82617188 122.1328125 C32.16583984 123.23496094 32.50550781 124.33710938 32.85546875 125.47265625 C33.39397461 127.13748047 33.39397461 127.13748047 33.94335938 128.8359375 C36.54296875 136.9665253 36.54296875 136.9665253 36.54296875 139.34765625 C38.82437789 139.86213326 38.82437789 139.86213326 41.54296875 139.34765625 C43.50673627 137.33494748 45.04469943 135.48519735 46.66796875 133.22265625 C47.64281255 131.92286452 48.61808438 130.62339371 49.59375 129.32421875 C50.08568848 128.6580957 50.57762695 127.99197266 51.08447266 127.30566406 C53.28198511 124.35553854 55.56946477 121.47935062 57.85546875 118.59765625 C62.10583672 113.19745998 66.32660001 107.77441656 70.54296875 102.34765625 C74.75935453 96.92087401 78.98280589 91.5000012 83.23046875 86.09765625 C83.6675415 85.54142578 84.10461426 84.98519531 84.55493164 84.41210938 C86.87309744 81.46398385 89.1973887 78.52084906 91.52734375 75.58203125 C92.02145752 74.9571582 92.51557129 74.33228516 93.0246582 73.68847656 C93.96138512 72.50401892 94.89988394 71.3209593 95.84057617 70.13964844 C98.60107935 66.64534062 101.12114066 63.07873247 103.54296875 59.34765625 C103.18203125 58.78820312 102.82109375 58.22875 102.44921875 57.65234375 C97.7512516 49.53530051 97.02034326 41.59977768 99.2421875 32.4765625 C102.17047194 24.35891324 106.5151876 19.20895573 113.98046875 14.91015625 C121.78393228 11.2898927 129.8842671 10.93298084 138.21484375 13.015625 C145.06380392 15.71978341 151.32013491 20.61890011 154.91796875 27.09765625 C158.63018859 35.69873705 159.55084598 44.40352793 156.54296875 53.34765625 C152.78826086 60.91667057 147.43995752 66.2599837 140.04296875 70.22265625 C132.9828318 72.5853005 123.6490399 72.28426439 116.54296875 70.34765625 C109.90889258 78.41495345 103.35084662 86.52175931 97.04296875 94.84765625 C92.74710711 100.51681707 88.36159554 106.09407089 83.85546875 111.59765625 C74.05541593 123.57339927 64.80343715 135.95263068 55.54296875 148.34765625 C55.87296875 148.67765625 56.20296875 149.00765625 56.54296875 149.34765625 C58.2553832 149.05479812 59.95445675 148.68346551 61.64453125 148.28125 C62.69253906 148.04341797 63.74054688 147.80558594 64.8203125 147.56054688 C67.03071566 147.04856901 69.23912589 146.5278998 71.4453125 145.99804688 C77.51495982 144.63811979 81.77412065 143.76706346 87.54296875 146.34765625 C89.90476594 148.63788383 91.32030069 150.59115087 92.25366211 153.76220703 C93.56288207 157.22481212 94.68879619 158.93947262 97.54296875 161.34765625 C104.71803268 163.64708821 112.59297651 163.28179111 120.04296875 163.22265625 C121.09720032 163.22591919 122.15143188 163.22918213 123.23760986 163.23254395 C137.33252491 163.47943331 137.33252491 163.47943331 149.41015625 157.27734375 C152.61800689 153.18175584 154.71077394 148.73350908 156.53125 143.87890625 C157.9885244 140.23290697 160.1192121 137.2533576 162.41796875 134.09765625 C163.46220191 132.51601439 164.50509378 130.93347763 165.54296875 129.34765625 C165.19363281 128.6721875 164.84429687 127.99671875 164.484375 127.30078125 C164.02933594 126.40875 163.57429688 125.51671875 163.10546875 124.59765625 C162.65300781 123.7159375 162.20054687 122.83421875 161.734375 121.92578125 C158.66459552 115.28297975 158.47586244 107.65876573 160.2265625 100.5859375 C163.69598142 91.18539577 168.93910393 85.67649669 178.05859375 81.45703125 C186.20081602 78.86466452 195.24686635 78.82175333 203.10546875 82.41015625 C211.87579706 87.67235323 216.50238041 94.20559707 219.29296875 103.97265625 C220.21661892 112.74733284 218.89599219 120.48696401 213.66796875 127.72265625 C211.20455771 130.72211517 208.81740385 133.21546595 205.54296875 135.34765625 C204.98867188 135.71890625 204.434375 136.09015625 203.86328125 136.47265625 C199.02220408 139.18516641 195.28885572 139.39737031 189.88891602 139.00512695 C182.57594605 138.33839892 182.57594605 138.33839892 176.1640625 141.1953125 C174.51646461 143.75701391 173.13163388 146.36784882 171.77832031 149.09375 C169.02545024 154.11637777 165.57601259 158.72535107 162.29296875 163.41015625 C161.59413574 164.43375244 160.89530273 165.45734863 160.17529297 166.51196289 C159.50771973 167.47996826 158.84014648 168.44797363 158.15234375 169.4453125 C157.55389648 170.31679932 156.95544922 171.18828613 156.33886719 172.08618164 C154.06524997 174.94922083 152.09745822 177.08699074 148.39154053 177.7084198 C147.6187677 177.70175797 146.84599487 177.69509613 146.04980469 177.68823242 C144.72888824 177.68789253 144.72888824 177.68789253 143.38128662 177.68754578 C141.9685849 177.66431999 141.9685849 177.66431999 140.52734375 177.640625 C139.55637756 177.63638016 138.58541138 177.63213531 137.58502197 177.62776184 C134.48738744 177.61098478 131.39040626 177.57333397 128.29296875 177.53515625 C126.19141565 177.52010817 124.08985235 177.50641998 121.98828125 177.49414062 C116.83959246 177.46108436 111.69139134 177.40930833 106.54296875 177.34765625 C107.26613281 178.46914063 107.26613281 178.46914063 108.00390625 179.61328125 C110.06919981 183.28258453 110.53738533 186.30418295 109.54296875 190.34765625 C106.97857651 194.82712347 103.37203916 198.45030945 99.88671875 202.22265625 C99.4366748 202.71080811 98.98663086 203.19895996 98.52294922 203.7019043 C97.22188896 205.10212644 95.90231561 206.48507714 94.58203125 207.8671875 C92.23638659 210.35931303 92.23638659 210.35931303 91.54296875 214.34765625 C122.56296875 214.34765625 153.58296875 214.34765625 185.54296875 214.34765625 C186.20296875 212.36765625 186.86296875 210.38765625 187.54296875 208.34765625 C191.76371808 200.81950007 198.05401515 196.14323769 205.98046875 192.97265625 C215.80003288 191.2499257 224.30886866 192.35062269 232.83984375 197.8203125 C239.41354965 203.04715008 243.22483193 210.0793435 244.54296875 218.34765625 C245.20166402 228.06341141 242.79711814 235.86758034 236.5 243.37109375 C230.46251526 249.46883283 223.34387073 252.30455221 214.79296875 252.72265625 C207.09730019 252.52383199 200.19663704 250.01612746 194.16796875 245.22265625 C190.54296875 241.34765625 190.54296875 241.34765625 185.54296875 231.34765625 C154.52296875 231.01765625 123.50296875 230.68765625 91.54296875 230.34765625 C93.33853183 235.00309589 93.33853183 235.00309589 96.22265625 238.46875 C96.73957031 239.01208984 97.25648438 239.55542969 97.7890625 240.11523438 C98.32660156 240.66630859 98.86414063 241.21738281 99.41796875 241.78515625 C108.90923786 251.58818237 108.90923786 251.58818237 110.0390625 256.5078125 C109.89927585 261.04621895 108.98998053 263.60249498 106.54296875 267.34765625 C107.84967529 267.32670898 109.15638184 267.30576172 110.50268555 267.28417969 C115.35739149 267.21170072 120.21204973 267.1658275 125.06713867 267.12792969 C127.16715542 267.10783228 129.26711633 267.08054959 131.36694336 267.04589844 C134.38799833 266.99729855 137.40831252 266.97466863 140.4296875 266.95703125 C141.83464729 266.92606354 141.83464729 266.92606354 143.26799011 266.89447021 C147.53012254 266.89300782 149.87807232 266.9341768 153.56591797 269.22753906 C155.67705972 271.49145052 157.33092117 273.7266661 158.98046875 276.34765625 C163.43415512 283.25087012 168.14610589 289.95630842 172.88256836 296.66796875 C173.47046143 297.50328125 174.05835449 298.33859375 174.6640625 299.19921875 C175.19443115 299.95025879 175.7247998 300.70129883 176.27124023 301.47509766 C177.54296875 303.34765625 177.54296875 303.34765625 178.54296875 305.34765625 C179.73792969 305.30125 180.93289063 305.25484375 182.1640625 305.20703125 C198.95682455 304.74282099 198.95682455 304.74282099 205.54296875 309.34765625 C206.24679687 309.83363281 206.950625 310.31960938 207.67578125 310.8203125 C214.38048802 316.05295265 218.19040948 322.97271856 219.54296875 331.34765625 C220.19863549 339.7074072 217.88677473 347.84843277 212.54296875 354.34765625 C205.38406301 361.74572365 199.5700028 364.42825659 189.29296875 364.91015625 C180.57905354 364.70185549 173.67946809 362.35143369 167.3515625 356.2265625 C161.1433961 348.74824932 158.99346048 341.99161085 159.25 332.31640625 C159.88799837 325.85135609 162.14494741 320.82065981 165.54296875 315.34765625 C163.46767449 312.16090672 163.46767449 312.16090672 161.28759766 309.04589844 C158.76156507 305.51046933 157.03987891 302.17275001 155.51171875 298.09765625 C152.69175164 291.64523759 149.8925519 286.77039264 143.54296875 283.34765625 C135.91401883 281.31655419 128.01173519 281.31677645 120.16796875 281.28515625 C119.12598328 281.26400757 118.0839978 281.24285889 117.01043701 281.22106934 C105.85573495 280.72972317 105.85573495 280.72972317 95.83728027 284.6819458 C92.82576547 288.17000653 91.2730536 292.09828347 89.54296875 296.34765625 C87.74736299 298.9026297 86.79233848 299.28109842 83.73388672 300.09741211 C80.38340129 300.36017015 77.77001808 300.04512544 74.48828125 299.3515625 C73.3796875 299.12275391 72.27109375 298.89394531 71.12890625 298.65820312 C69.98679687 298.41134766 68.8446875 298.16449219 67.66796875 297.91015625 C65.92 297.54567383 65.92 297.54567383 64.13671875 297.17382812 C61.26998395 296.57463356 58.40570176 295.96563802 55.54296875 295.34765625 C58.06975027 299.99739576 60.69022102 303.95115644 64.16796875 307.97265625 C67.72215452 312.13999682 71.16085992 316.36595903 74.48046875 320.72265625 C77.94832709 325.26949468 81.44285856 329.79229748 84.98046875 334.28515625 C85.66677368 335.15696533 85.66677368 335.15696533 86.36694336 336.04638672 C87.29506911 337.22491256 88.22337351 338.40329774 89.15185547 339.58154297 C90.99385369 341.92008546 92.83297754 344.26087793 94.67163086 346.60205078 C95.58208378 347.76098587 96.49304971 348.91951813 97.40454102 350.07763672 C99.78137077 353.0985189 102.14909815 356.12597401 104.50390625 359.1640625 C104.99181641 359.79119141 105.47972656 360.41832031 105.98242188 361.06445312 C106.90839598 362.25499126 107.83177281 363.44755625 108.75195312 364.64257812 C111.48229717 368.14589629 114.35089131 371.27571076 117.54296875 374.34765625 C118.53296875 374.01765625 119.52296875 373.68765625 120.54296875 373.34765625 C131.75992875 372.52723112 139.80449861 373.41862495 148.79296875 380.47265625 C154.65737765 385.95078672 158.13148189 393.0277872 158.61328125 401.0625 C158.36394795 409.16583213 156.3319469 417.14627232 150.8203125 423.2578125 C142.80054161 430.76737928 135.33908692 433.1936865 124.3359375 432.8515625 C116.16005588 431.76537431 109.75114637 428.3216771 104.48046875 421.97265625 C98.6884601 413.45416548 97.27370419 405.69442898 98.54296875 395.34765625 C99.85231493 391.45144209 101.50553541 387.91316459 103.54296875 384.34765625 C102.72054688 383.34347656 101.898125 382.33929688 101.05078125 381.3046875 C94.92154905 373.80233011 88.87802131 366.25593998 83 358.5546875 C80.39894295 355.14911502 77.75604882 351.7772606 75.10546875 348.41015625 C74.64769043 347.82862793 74.18991211 347.24709961 73.71826172 346.64794922 C72.79037254 345.46975485 71.86231221 344.29169526 70.93408203 343.11376953 C68.17879857 339.61574908 65.42940769 336.11309488 62.67919922 332.61108398 C60.32786152 329.61751775 57.97437909 326.62567839 55.6171875 323.63671875 C55.13717285 323.02715332 54.6571582 322.41758789 54.16259766 321.78955078 C53.22006521 320.59379107 52.27577441 319.39941491 51.32958984 318.20654297 C48.36219595 314.45071628 45.5615802 310.6215152 42.95703125 306.60546875 C41.52489916 305.07482888 41.52489916 305.07482888 38.87890625 305.15234375 C38.10804688 305.21679688 37.3371875 305.28125 36.54296875 305.34765625 C36.30513672 306.27771484 36.30513672 306.27771484 36.0625 307.2265625 C34.55499587 312.94841518 32.92412502 318.63488428 31.16796875 324.28515625 C30.78898437 325.53167969 30.41 326.77820313 30.01953125 328.0625 C28.30573016 331.87548072 27.06997177 333.1429077 23.54296875 335.34765625 C20.78162922 335.63380542 18.46151263 335.73355508 15.73046875 335.59765625 C15.03759766 335.57960938 14.34472656 335.5615625 13.63085938 335.54296875 C11.93429211 335.49616689 10.23844399 335.42443249 8.54296875 335.34765625 C8.54963058 336.53258667 8.55629242 337.71751709 8.56315613 338.93835449 C8.62404334 350.12010346 8.66897799 361.30181868 8.69840527 372.48369598 C8.71404284 378.23203964 8.73524648 383.98024916 8.76928711 389.72851562 C8.80194828 395.27874566 8.81983612 400.8288469 8.82760048 406.37916565 C8.83313183 408.49380012 8.8439332 410.60842775 8.86015892 412.7230072 C8.88202278 415.69114262 8.8849319 418.65874978 8.88354492 421.62695312 C8.89433075 422.49586182 8.90511658 423.36477051 8.91622925 424.26000977 C8.8839297 430.67259377 7.90777639 436.31109032 3.8515625 441.51953125 C-7.82907795 451.3712614 -22.45135715 453.37672595 -37.36767578 452.53857422 C-54.15326575 451.00476593 -71.24049285 443.18585428 -82.15234375 430.23046875 C-93.45703125 416.22709818 -93.45703125 416.22709818 -93.45703125 410.34765625 C-94.20984375 410.321875 -94.96265625 410.29609375 -95.73828125 410.26953125 C-117.30395031 409.1179664 -136.21285003 401.52873959 -152.45703125 387.34765625 C-153.33875 386.57808594 -154.22046875 385.80851562 -155.12890625 385.015625 C-169.64151915 371.42695174 -181.39976306 350.50158904 -182.45703125 330.34765625 C-182.4104498 327.96682645 -182.33614484 325.58646235 -182.2421875 323.20703125 C-182.20037354 321.91764648 -182.15855957 320.62826172 -182.11547852 319.29980469 C-182.01130643 316.70144137 -181.85565426 314.1045417 -181.64428711 311.51269531 C-181.48806964 307.84268482 -181.48347566 304.89401684 -182.45703125 301.34765625 C-185.70337766 298.15204509 -189.43332021 296.40729931 -193.45703125 294.34765625 C-196.03418356 292.34650901 -198.30800319 290.12125876 -200.58203125 287.78515625 C-201.17113281 287.18582275 -201.76023437 286.58648926 -202.3671875 285.96899414 C-216.60625451 271.04251046 -226.62410021 250.13622691 -227.45703125 229.34765625 C-227.50859375 228.33832031 -227.56015625 227.32898438 -227.61328125 226.2890625 C-228.31045388 200.69701727 -219.08094306 177.3961196 -201.890625 158.53125 C-194.62108104 150.93080219 -194.62108104 150.93080219 -190.66845703 148.95068359 C-187.48975648 147.31710658 -185.01216566 145.85636842 -182.45703125 143.34765625 C-181.15323728 138.6225913 -181.56162278 134.19627161 -181.95703125 129.34765625 C-182.06204718 126.72824507 -182.15721801 124.10841931 -182.2421875 121.48828125 C-182.29133301 120.24369141 -182.34047852 118.99910156 -182.39111328 117.71679688 C-182.79046865 97.30530033 -171.36102371 77.16930495 -157.7890625 62.71875 C-157.01949219 61.93628906 -156.24992187 61.15382813 -155.45703125 60.34765625 C-154.31814453 59.18943359 -154.31814453 59.18943359 -153.15625 58.0078125 C-136.9441145 42.4855551 -115.53634199 35.39561044 -93.45703125 34.34765625 C-93.18375 33.45949219 -92.91046875 32.57132813 -92.62890625 31.65625 C-87.49177824 17.15242524 -76.1405848 6.6915094 -62.83203125 -0.40234375 C-44.24863869 -9.1817411 -17.82742924 -12.86880654 0 0 Z " fill="#2C4050" transform="translate(247.45703125,33.65234375)"/>
<path d="M0 0 C1.63174915 1.32503986 1.63174915 1.32503986 3 3 C3.28085591 6.08858346 3.3785318 8.9732112 3.34057617 12.0612793 C3.34101425 12.98830658 3.34145233 13.91533386 3.34190369 14.87045288 C3.33981148 17.93858812 3.3164599 21.00617882 3.29296875 24.07421875 C3.28737434 26.1998515 3.28310351 28.32548811 3.28010559 30.4511261 C3.26864468 36.0489874 3.23916665 41.64661563 3.20599365 47.24438477 C3.17531969 52.95520881 3.16160597 58.66607047 3.14648438 64.37695312 C3.11429826 75.58473789 3.06308675 86.79234957 3 98 C2.02562988 98.05043457 1.05125977 98.10086914 0.04736328 98.15283203 C-1.85940186 98.26667236 -1.85940186 98.26667236 -3.8046875 98.3828125 C-5.06780762 98.45387207 -6.33092773 98.52493164 -7.63232422 98.59814453 C-11.11840467 98.78114322 -11.11840467 98.78114322 -14.125 100.875 C-17.38089865 106.30149775 -19.46790202 112.09733728 -20.609375 118.32421875 C-22.34683092 126.63504958 -22.34683092 126.63504958 -25.57958984 129.30419922 C-28.74141912 131.3198757 -32.04226875 132.90332499 -35.46875 134.4140625 C-38.92349334 135.74912128 -38.92349334 135.74912128 -40.96875 137.7734375 C-44.24297108 139.75056331 -47.43304145 138.70739546 -51 138 C-51.67579102 137.87608887 -52.35158203 137.75217773 -53.04785156 137.62451172 C-55.76291236 137.116503 -58.4697824 136.5716636 -61.17578125 136.01757812 C-67.06177999 134.82614689 -67.06177999 134.82614689 -73 135 C-78.69099829 139.11067292 -81.66424912 145.88571795 -85.0625 151.875 C-85.67416016 152.93847656 -86.28582031 154.00195312 -86.91601562 155.09765625 C-88.0962725 157.15194119 -89.27178028 159.20896395 -90.44189453 161.26904297 C-91.37845033 162.91058373 -92.32439819 164.54689184 -93.28857422 166.17236328 C-95.58494497 170.04936632 -97.08086258 172.88010085 -96.91796875 177.40234375 C-95.10924094 182.52065862 -90.90750378 186.13080998 -87.11328125 189.88671875 C-86.59185547 190.41120605 -86.07042969 190.93569336 -85.53320312 191.47607422 C-84.10245062 192.89816931 -82.6401758 194.2883535 -81.17578125 195.67578125 C-76.60147881 202.66452698 -77.43655771 212.03350312 -78.32128906 220.10009766 C-79.95012813 227.05957623 -85.16258846 231.29217789 -90.45117188 235.69677734 C-94.27083823 238.91073998 -95.80428136 240.94709653 -96.73046875 245.9296875 C-96.39041266 253.1020496 -91.92158988 259.13984119 -88.3125 265.125 C-87.58227135 266.37269693 -86.85374171 267.62138984 -86.12695312 268.87109375 C-80.90350423 279.29561988 -80.90350423 279.29561988 -73 287 C-66.07696676 287.37318881 -60.11778778 286.03604164 -53.44726562 284.33398438 C-45.75264597 282.47396181 -41.7311255 283.86708812 -34.9375 287.9375 C-30.55728279 290.62416557 -30.55728279 290.62416557 -25.91796875 292.79003906 C-23.1928566 294.50919077 -22.93137245 296.21267969 -22.03515625 299.26953125 C-21.70966797 300.32333984 -21.38417969 301.37714844 -21.04882812 302.46289062 C-20.39476309 304.6841214 -19.74111274 306.90547432 -19.08789062 309.12695312 C-16.83377448 317.33190085 -16.83377448 317.33190085 -11 323 C-8.60932776 323.28015885 -6.20807148 323.47572169 -3.80493164 323.61254883 C-2.53371964 323.68911209 -1.26250763 323.76567535 0.04722595 323.84455872 C1.02164139 323.89585434 1.99605682 323.94714996 3 324 C3.06943032 336.33461335 3.12277583 348.6691804 3.15543652 361.00394917 C3.17110993 366.7311371 3.19237887 372.4581916 3.22631836 378.18530273 C3.2588519 383.70957442 3.27684038 389.23371755 3.28463173 394.75807762 C3.29018604 396.8684714 3.30103187 398.97885793 3.31719017 401.08919716 C3.3388845 404.0391945 3.34197027 406.98865677 3.34057617 409.9387207 C3.351362 410.81625504 3.36214783 411.69378937 3.3732605 412.59791565 C3.34257806 418.5757081 3.34257806 418.5757081 1.64761829 420.67496014 C-6.33073275 427.09127223 -20.08926048 427.02935755 -29.83984375 426.27050781 C-39.75815951 425.02847641 -48.41555922 420.3375073 -56 414 C-56.78117188 413.35417969 -57.56234375 412.70835937 -58.3671875 412.04296875 C-66.10383709 405.0226756 -73.3187762 393.46763278 -74.17326355 382.84632874 C-74.23064847 380.30398957 -74.22488043 377.76937603 -74.1953125 375.2265625 C-74.1924826 374.3028183 -74.18965271 373.3790741 -74.18673706 372.42733765 C-74.17559179 369.49309024 -74.15049765 366.5591543 -74.125 363.625 C-74.11496289 361.62891068 -74.10583832 359.63281654 -74.09765625 357.63671875 C-74.07567097 352.75769351 -74.04118017 347.87889946 -74 343 C-72.55480024 343.47982903 -71.10976298 343.96014751 -69.66479492 344.44067383 C-68.86007248 344.70809891 -68.05535004 344.97552399 -67.22624207 345.25105286 C-64.90928648 346.03051763 -62.61246153 346.85951385 -60.3125 347.6875 C-55.76919417 349.18346655 -52.10621506 349.99768082 -47.625 347.875 C-45.7287461 346.02736015 -45.7287461 346.02736015 -45.5625 343 C-46.05704246 339.60885168 -46.36838029 339.03810548 -49 337 C-51.7082608 336.01653417 -51.7082608 336.01653417 -54.8125 335.25 C-70.57566127 330.57878573 -82.9223388 322.40540082 -93.4375 309.875 C-95.80549589 307.09821324 -96.78802679 306.08560457 -100.25 304.6875 C-103.08110458 304.81210182 -103.08110458 304.81210182 -105.4375 306.5 C-107.30095887 308.97156335 -107.30095887 308.97156335 -106.921875 312.2734375 C-105.84184219 316.63933286 -103.89859562 319.02670637 -100.8125 322.125 C-100.34263672 322.62386719 -99.87277344 323.12273437 -99.38867188 323.63671875 C-96.97371702 326.16039599 -94.85383067 328.09123823 -91.85180664 329.96508789 C-89.74025169 331.72630412 -89.07456753 332.66228548 -88.47523499 335.37664795 C-88.30463758 338.41014913 -88.32598954 341.38869609 -88.4140625 344.42578125 C-88.42255219 345.52850876 -88.43104187 346.63123627 -88.43978882 347.76737976 C-88.47332905 351.28342091 -88.54861599 354.79715411 -88.625 358.3125 C-88.6550985 360.69853455 -88.6824745 363.08460511 -88.70703125 365.47070312 C-88.77312241 371.31458721 -88.87347897 377.15712873 -89 383 C-90.42130267 383.02402501 -91.8427247 383.04104414 -93.26416016 383.05517578 C-94.05569489 383.06541779 -94.84722961 383.07565979 -95.66275024 383.08621216 C-109.79923585 382.56477155 -123.7584319 372.93713429 -134 364 C-134.61488281 363.48050781 -135.22976562 362.96101563 -135.86328125 362.42578125 C-144.86903913 354.20673325 -151.06629944 342.38459222 -155 331 C-155.31839844 330.15179688 -155.63679688 329.30359375 -155.96484375 328.4296875 C-161.02834467 312.42249105 -159.84840342 291.38300965 -152.28540039 276.47314453 C-151.36610971 274.72683827 -150.39731751 273.00685125 -149.42578125 271.2890625 C-147.8144385 267.57193757 -147.65313701 265.0109087 -148 261 C-149.58677406 258.26722246 -150.75622948 258.06500547 -153.8125 257.25 C-157.58306915 258.13719274 -157.99139942 258.84242879 -160.125 261.9375 C-162.84152849 266.44121828 -165.04035102 271.12393225 -167 276 C-184.60311112 265.69892016 -196.42452308 248.59762055 -201.875 229.0625 C-206.41770314 206.62100247 -201.65719295 185.31734654 -189.2421875 166.30859375 C-187.58694818 164.09519234 -185.86320869 162.04084511 -184 160 C-183.2884375 159.22011719 -182.576875 158.44023437 -181.84375 157.63671875 C-177.27196015 152.85356191 -172.76173558 149.24752369 -167 146 C-166.44570312 147.13179687 -165.89140625 148.26359375 -165.3203125 149.4296875 C-164.5887537 150.91156303 -163.85697122 152.39332815 -163.125 153.875 C-162.76019531 154.62136719 -162.39539063 155.36773437 -162.01953125 156.13671875 C-161.48779297 157.20986328 -161.48779297 157.20986328 -160.9453125 158.3046875 C-160.62062988 158.96452637 -160.29594727 159.62436523 -159.96142578 160.30419922 C-158.99724181 162.18034686 -158.99724181 162.18034686 -157 164 C-153.92891945 164.3267107 -151.84949899 164.48138276 -149.125 162.9375 C-147.33652844 159.85735453 -147.24722733 157.387477 -148 154 C-149.36210818 150.92026485 -150.8949857 147.96897751 -152.46875 144.9921875 C-160.5609619 129.17934485 -160.55413251 106.97603933 -155.25390625 90.28125 C-147.40156628 69.73307065 -133.45097839 53.96451598 -113.67578125 44.390625 C-107.01136506 41.54758673 -100.62052356 38.88368903 -93.29296875 38.95703125 C-92.08483521 38.96633667 -92.08483521 38.96633667 -90.85229492 38.97583008 C-90.2410376 38.98380615 -89.62978027 38.99178223 -89 39 C-88.693757 45.91818675 -88.48480884 52.83460814 -88.34082031 59.75805664 C-88.28075967 62.10865568 -88.19907772 64.45881174 -88.09472656 66.80786133 C-87.2017342 87.43861132 -87.2017342 87.43861132 -91.59057617 92.91064453 C-94.41892356 95.73764467 -97.64520036 97.83395014 -101 100 C-104.79702519 103.89349219 -106.9730425 106.32863526 -107.0625 111.875 C-106.26428339 115.26379104 -106.26428339 115.26379104 -103 117 C-98.76596332 117.00584005 -97.28621394 116.2695874 -94.17578125 113.33984375 C-93.21093512 112.21457983 -92.25696138 111.07992709 -91.3125 109.9375 C-80.71838363 97.86804508 -67.07537424 89.03381168 -51.20703125 85.703125 C-48.68713677 84.90032676 -47.59232332 84.09596552 -46 82 C-45.61023565 78.88188517 -45.49577755 76.88980433 -47.0625 74.125 C-50.08556709 72.36967072 -52.65500665 72.45614619 -56 73 C-60.84489391 74.35073613 -65.70364 75.80440862 -70.17578125 78.1328125 C-72 79 -72 79 -75 79 C-75.10006396 73.82630843 -75.17202268 68.65319953 -75.21972656 63.47875977 C-75.23964572 61.72442798 -75.26679134 59.97016084 -75.30175781 58.21606445 C-75.65151305 40.19852652 -72.75075356 24.84827786 -59.875 11.25 C-43.86307046 -3.95807419 -20.59269208 -9.74242869 0 0 Z " fill="#87C7FD" transform="translate(238,45)"/>
<path d="M0 0 C1.25159912 0.00523682 2.50319824 0.01047363 3.79272461 0.01586914 C4.78942421 0.01799156 4.78942421 0.01799156 5.80625916 0.02015686 C7.93590735 0.02577021 10.06545175 0.03832485 12.19506836 0.05102539 C13.63582205 0.05603868 15.07657739 0.06060188 16.51733398 0.06469727 C20.05577938 0.07574394 23.59416375 0.09301747 27.13256836 0.11352539 C28.09280661 2.9670636 29.05080849 5.82132094 30.00756836 8.67602539 C30.27698242 9.47588867 30.54639648 10.27575195 30.82397461 11.09985352 C31.08823242 11.8894043 31.35249023 12.67895508 31.62475586 13.49243164 C31.88869141 14.27376465 32.15262695 15.05509766 32.42456055 15.86010742 C33.06649846 17.90324086 33.54637491 19.92840822 34.01538086 22.01586914 C34.85597201 25.20606903 34.85597201 25.20606903 37.29663086 26.80883789 C38.23249023 27.23938477 39.16834961 27.66993164 40.13256836 28.11352539 C41.29530273 28.72969727 42.45803711 29.34586914 43.65600586 29.98071289 C45.61624203 31.00378536 47.577491 32.02488146 49.53930664 33.04492188 C52.96422685 34.85523684 56.0312363 36.67000995 59.00756836 39.17602539 C63.34550481 41.86554599 66.38700854 41.1233594 71.13256836 40.11352539 C73.19589823 39.72208644 75.26102034 39.34093127 77.32617188 38.95922852 C78.76417584 38.69013589 80.20092688 38.41424633 81.63623047 38.13110352 C84.52392235 37.56424607 87.18125226 37.11352539 90.13256836 37.11352539 C92.93690465 40.76867162 95.09014758 44.87233862 97.38256836 48.86352539 C98.04514648 49.97469727 98.70772461 51.08586914 99.39038086 52.23071289 C100.01170898 53.30063477 100.63303711 54.37055664 101.27319336 55.47290039 C101.84585938 56.45742187 102.41852539 57.44194336 103.00854492 58.45629883 C104.13256836 61.11352539 104.13256836 61.11352539 104.0065918 63.2409668 C102.96096483 65.48117876 101.72637184 66.93703193 100.00756836 68.71508789 C99.07170898 69.69735352 99.07170898 69.69735352 98.11694336 70.69946289 C97.46209961 71.37235352 96.80725586 72.04524414 96.13256836 72.73852539 C94.83898457 74.08303768 93.54722614 75.42930931 92.25756836 76.77758789 C91.68264648 77.37007324 91.10772461 77.96255859 90.51538086 78.57299805 C86.47728978 83.07164824 87.74615682 90.60141623 87.67260742 96.35131836 C87.64608969 97.93235719 87.60526189 99.51322603 87.54956055 101.09350586 C86.88095287 111.68183544 86.88095287 111.68183544 91.35131836 120.87133789 C92.58214893 121.98564567 93.84103505 123.07018105 95.13256836 124.11352539 C96.01944336 125.04680664 96.90631836 125.98008789 97.82006836 126.94165039 C99.37688292 128.57209808 100.93951108 130.19701228 102.50756836 131.81665039 C104.13256836 134.11352539 104.13256836 134.11352539 103.91796875 135.91821289 C102.94138506 138.64791152 101.63147828 141.018343 100.19116211 143.53540039 C99.60786133 144.56020508 99.02456055 145.58500977 98.42358398 146.64086914 C97.81192383 147.7043457 97.20026367 148.76782227 96.57006836 149.86352539 C95.95454102 150.9424707 95.33901367 152.02141602 94.70483398 153.13305664 C93.18501148 155.79569141 91.66078492 158.45570235 90.13256836 161.11352539 C88.08934032 160.8066531 86.0464344 160.49763574 84.00366211 160.18774414 C82.29714478 159.92997192 82.29714478 159.92997192 80.55615234 159.66699219 C76.56542779 159.02183975 72.61930853 158.23200589 68.66772461 157.38305664 C63.32362483 156.81488579 59.80712001 157.9606204 55.63256836 161.23852539 C50.43974106 165.11141029 45.05553713 167.59782423 39.13647461 170.14477539 C35.40000518 172.59364482 34.40167119 175.01528976 33.13256836 179.11352539 C32.8737085 179.88744629 32.61484863 180.66136719 32.34814453 181.45874023 C31.51785181 183.98146727 30.72694203 186.51285505 29.94506836 189.05102539 C29.01694336 192.04165039 28.08881836 195.03227539 27.13256836 198.11352539 C17.23256836 198.11352539 7.33256836 198.11352539 -2.86743164 198.11352539 C-6.19519417 189.23949197 -6.19519417 189.23949197 -7.29711914 185.71899414 C-7.5355957 184.99131836 -7.77407227 184.26364258 -8.01977539 183.51391602 C-8.50657495 182.02325683 -8.98030379 180.52827313 -9.44165039 179.02954102 C-10.913422 174.61931541 -10.913422 174.61931541 -14.10180664 171.34399414 C-15.01446289 170.93793945 -15.92711914 170.53188477 -16.86743164 170.11352539 C-18.03016602 169.49735352 -19.19290039 168.88118164 -20.39086914 168.24633789 C-22.35215737 167.22245238 -24.31468603 166.20103801 -26.27856445 165.18212891 C-29.69053269 163.38173757 -32.69385245 161.59667849 -35.61743164 159.05102539 C-41.32257138 155.64988439 -46.85770557 157.4042737 -53.06665039 158.86743164 C-55.09778935 159.3845851 -57.12343014 159.92417726 -59.14086914 160.49243164 C-61.82765307 161.10446408 -64.12563927 161.15921235 -66.86743164 161.11352539 C-69.01755618 157.34512341 -71.1617905 153.57340263 -73.30493164 149.80102539 C-73.9165918 148.72916992 -74.52825195 147.65731445 -75.15844727 146.55297852 C-75.74174805 145.52495117 -76.32504883 144.49692383 -76.92602539 143.43774414 C-77.46541748 142.48988037 -78.00480957 141.5420166 -78.56054688 140.56542969 C-79.86743164 138.11352539 -79.86743164 138.11352539 -80.86743164 135.11352539 C-79.75024414 133.42211914 -79.75024414 133.42211914 -77.99243164 131.55102539 C-77.35305664 130.8562207 -76.71368164 130.16141602 -76.05493164 129.44555664 C-75.33305664 128.67598633 -74.61118164 127.90641602 -73.86743164 127.11352539 C-72.23853847 125.32539747 -70.61354942 123.53370549 -68.99243164 121.73852539 C-68.23188477 120.90579102 -67.47133789 120.07305664 -66.68774414 119.21508789 C-62.45870125 114.33263065 -63.41621121 108.0508288 -63.29760742 101.89501953 C-63.26121008 100.43123422 -63.20690337 98.96777006 -63.13354492 97.50537109 C-62.73666182 89.4607152 -62.82673235 83.40034877 -68.15649414 76.82446289 C-69.6847583 75.21319899 -71.25323926 73.63869609 -72.86743164 72.11352539 C-73.95096924 71.04050171 -73.95096924 71.04050171 -75.05639648 69.94580078 C-76.20248301 68.82582489 -77.3668498 67.72400571 -78.55493164 66.64868164 C-80.21430658 64.7078056 -80.60427989 63.66579362 -80.86743164 61.11352539 C-79.69580078 58.45629883 -79.69580078 58.45629883 -77.90258789 55.47290039 C-77.26772461 54.40297852 -76.63286133 53.33305664 -75.97875977 52.23071289 C-75.30264648 51.11954102 -74.6265332 50.00836914 -73.92993164 48.86352539 C-73.25768555 47.73688477 -72.58543945 46.61024414 -71.89282227 45.44946289 C-70.22862729 42.6640018 -68.55322136 39.88595194 -66.86743164 37.11352539 C-60.16897492 37.74358767 -53.83381694 38.97444149 -47.29711914 40.59008789 C-42.557097 41.31350813 -38.69222875 41.17424489 -34.48852539 38.73071289 C-33.76793945 38.15579102 -33.04735352 37.58086914 -32.30493164 36.98852539 C-28.79686687 34.33188034 -25.41309172 32.38210673 -21.37329102 30.62963867 C-14.46750007 27.64539311 -14.46750007 27.64539311 -10.30493164 21.61352539 C-9.7918095 19.78940438 -9.3173349 17.95425863 -8.86743164 16.11352539 C-8.22949551 14.10304434 -7.55613185 12.10668529 -6.87744141 10.10961914 C-6.41752652 8.75225046 -5.96724866 7.39157289 -5.52734375 6.02758789 C-3.62769483 0.14362521 -3.62769483 0.14362521 0 0 Z " fill="#FCBD31" transform="translate(236.867431640625,156.886474609375)"/>
<path d="M0 0 C2.1969849 1.86401831 3.86479239 3.51299707 5.6875 5.6875 C6.39616211 6.48317383 6.39616211 6.48317383 7.11914062 7.29492188 C14.07037663 15.24058434 14.07037663 15.24058434 13.875 20.125 C12.93874232 23.20127522 12.47989992 24.06589002 10 26 C2.91371883 28.38499491 -4.54970688 29.82781035 -12 29 C-14.5625 27.3125 -14.5625 27.3125 -16 25 C-16.08984375 22.35546875 -16.08984375 22.35546875 -16 20 C-33.05673209 21.72841552 -44.71960527 26.17876301 -56.20703125 39.5234375 C-64.38875284 50.82455185 -64.8457755 62.58091493 -64 76 C-63.22535228 80.38128681 -61.99669647 84.15049633 -59.890625 88.05859375 C-58.53657838 91.01017783 -59.09051012 92.94671256 -60 96 C-61.625 97.9375 -61.625 97.9375 -64 99 C-67.5625 98.9375 -67.5625 98.9375 -71 98 C-79.2373817 88.78874066 -80.51896011 74.46472377 -80.3125 62.68359375 C-78.89501293 45.97496486 -71.06731283 30.63963835 -58.328125 19.70703125 C-52.58442078 15.38302793 -46.61575255 11.81249384 -40 9 C-39.29230469 8.6803125 -38.58460938 8.360625 -37.85546875 8.03125 C-29.07029171 4.70796061 -19.23673869 5.73782183 -10 6 C-9.896875 5.38125 -9.79375 4.7625 -9.6875 4.125 C-8.16775527 -0.57239279 -4.24753059 -0.64420008 0 0 Z " fill="#2F414E" transform="translate(267,189)"/>
<path d="M0 0 C5.83793401 5.00394344 9.03431218 15.536783 10 23 C11.02674516 39.75215783 8.05355284 56.6507371 -3.07421875 69.8515625 C-3.70972656 70.56054688 -4.34523438 71.26953125 -5 72 C-5.64582031 72.75023437 -6.29164063 73.50046875 -6.95703125 74.2734375 C-16.664313 84.82717981 -29.79814707 91.35340836 -44 93 C-46.81457754 93.10698394 -49.62146021 93.09599361 -52.4375 93.0625 C-53.53481445 93.05573242 -53.53481445 93.05573242 -54.65429688 93.04882812 C-56.43623419 93.03718148 -58.21812863 93.01925191 -60 93 C-60.28875 93.804375 -60.5775 94.60875 -60.875 95.4375 C-62 98 -62 98 -64 99 C-66.8046875 99.3828125 -66.8046875 99.3828125 -70 99 C-72.6328125 96.8046875 -72.6328125 96.8046875 -75.125 93.875 C-76.36636719 92.44800781 -76.36636719 92.44800781 -77.6328125 90.9921875 C-83.76319603 83.24322087 -83.76319603 83.24322087 -84.5 79.375 C-83.81792457 76.13514172 -82.53198002 75.10788387 -80 73 C-73.0004282 70.48877477 -65.39914262 69.17787304 -58 70 C-55.4375 71.6875 -55.4375 71.6875 -54 74 C-53.91015625 76.64453125 -53.91015625 76.64453125 -54 79 C-38.14875787 77.08474658 -25.34049362 72.89773449 -14.7890625 60.43359375 C-11.93766409 56.55494482 -9.82373388 52.44623493 -8 48 C-7.63390625 47.12214844 -7.2678125 46.24429688 -6.890625 45.33984375 C-5.67473908 40.78027155 -5.61835267 36.4509115 -5.625 31.75 C-5.62371094 30.81067627 -5.62242187 29.87135254 -5.62109375 28.90356445 C-5.71185791 22.97656134 -6.40344107 18.35789105 -9.09765625 13.0078125 C-10.66327672 9.52413751 -10.46182552 6.76057926 -10 3 C-7.83397365 -1.07722607 -4.18916271 -0.58795266 0 0 Z " fill="#2F414E" transform="translate(300,224)"/>
<path d="M0 0 C4.06576585 2.37808946 6.41267095 4.61057656 8.3125 8.9375 C9.42605686 13.98019245 8.69688776 17.86272594 6.125 22.3125 C3.85351099 25.47996523 2.07176093 27.60087389 -1.6875 28.9375 C-6.76821272 29.61095018 -10.51189264 29.53599102 -15.125 27.1875 C-18.9312995 23.84538336 -21.32382259 21.06751051 -21.92578125 15.88671875 C-22.10701525 10.36385099 -21.48686836 7.23678525 -17.6875 2.9375 C-11.91984446 -2.04365706 -6.96130508 -2.00579977 0 0 Z " fill="#FABC31" transform="translate(468.6875,242.0625)"/>
<path d="M0 0 C4.85978996 2.29735525 7.59883576 5.19767151 10 10 C10.94742987 15.32263972 10.01777172 19.47334242 7 24 C3.31273922 27.72755871 0.09599553 29.75341229 -5.1875 30.375 C-10.15279323 29.8866105 -13.22506095 28.20529735 -17 25 C-20.10330489 20.82993406 -20.68589306 16.64064438 -20.5625 11.54296875 C-19.55009318 6.96604626 -16.46299233 4.0007377 -13 1 C-9.04877519 -0.97561241 -4.30659535 -0.43248694 0 0 Z " fill="#F56D83" transform="translate(442,354)"/>
<path d="M0 0 C3.93792318 2.56821077 6.74612583 5.61725165 8.875 9.875 C9.24881854 15.48227817 9.05990827 19.04272538 5.875 23.875 C0.78130999 28.47174464 -2.52911735 29.33732535 -9.2890625 29.29296875 C-13.76075386 28.63391782 -16.37989985 26.36439844 -19.125 22.875 C-21.85552652 18.40686569 -21.76156835 13.96754676 -21.125 8.875 C-17.0804593 0.13879209 -9.09890332 -3.2756052 0 0 Z " fill="#F56D83" transform="translate(443.125,129.125)"/>
<path d="M0 0 C5.16469698 2.34758954 8.02391523 5.76723922 10 11 C10.88917694 16.43385907 9.58367986 19.79937992 6.55078125 24.19921875 C3.19908093 28.09124355 -0.32622835 29.72611009 -5.4375 30.5625 C-11.10361739 29.66784989 -15.09678108 27.0221701 -19 22.875 C-21.0531813 16.97210377 -21.02736749 11.13083628 -18.3125 5.5 C-12.86831113 -0.38560959 -7.80756506 -1.01039077 0 0 Z " fill="#FABC31" transform="translate(381,61)"/>
<path d="M0 0 C4.76432645 2.66449368 8.38762582 5.74195087 9.921875 11.1171875 C10.32884002 17.09644274 8.85507377 21.5284556 4.921875 26.1171875 C0.96175735 29.71729445 -3.29334594 29.62347945 -8.41796875 29.46484375 C-12.2330455 28.96625075 -14.30200718 27.75449943 -17.078125 25.1171875 C-20.6204851 20.15788336 -20.92297768 15.01195506 -20.078125 9.1171875 C-16.47214432 1.32826924 -8.47845307 -3.60174886 0 0 Z " fill="#FABC31" transform="translate(381.078125,421.8828125)"/>
</svg>
