<?xml version="1.0" encoding="UTF-8"?>
<svg version="1.1" xmlns="http://www.w3.org/2000/svg" width="512" height="512">
<path d="M0 0 C1.45108658 0.00273422 1.45108658 0.00273422 2.93148804 0.00552368 C17.26440977 0.05095174 31.21023917 0.55983928 45.3125 3.3125 C46.65803955 3.55395752 46.65803955 3.55395752 48.03076172 3.80029297 C107.84088904 14.62287989 165.35495829 48.68064457 202.3125 97.3125 C202.72918945 97.85277832 203.14587891 98.39305664 203.57519531 98.94970703 C211.2584873 108.9447116 218.00092968 119.40459036 224.3125 130.3125 C224.70679199 130.98974121 225.10108398 131.66698242 225.50732422 132.36474609 C238.68961173 155.2833756 247.29510918 180.85822563 252.625 206.6875 C252.77243652 207.39817627 252.91987305 208.10885254 253.07177734 208.84106445 C256.05713787 224.48358366 256.6873098 240.11919606 256.625 256 C256.62226578 257.45108658 256.62226578 257.45108658 256.61947632 258.93148804 C256.57404826 273.26440977 256.06516072 287.21023917 253.3125 301.3125 C253.15152832 302.20952637 252.99055664 303.10655273 252.82470703 304.03076172 C242.00212011 363.84088904 207.94435543 421.35495829 159.3125 458.3125 C158.77222168 458.72918945 158.23194336 459.14587891 157.67529297 459.57519531 C147.6802884 467.2584873 137.22040964 474.00092968 126.3125 480.3125 C125.63525879 480.70679199 124.95801758 481.10108398 124.26025391 481.50732422 C101.3416244 494.68961173 75.76677437 503.29510918 49.9375 508.625 C49.22682373 508.77243652 48.51614746 508.91987305 47.78393555 509.07177734 C32.14141634 512.05713787 16.50580394 512.6873098 0.625 512.625 C-0.34239105 512.62317719 -1.3097821 512.62135437 -2.30648804 512.61947632 C-16.63940977 512.57404826 -30.58523917 512.06516072 -44.6875 509.3125 C-45.58452637 509.15152832 -46.48155273 508.99055664 -47.40576172 508.82470703 C-107.21588904 498.00212011 -164.72995829 463.94435543 -201.6875 415.3125 C-202.10418945 414.77222168 -202.52087891 414.23194336 -202.95019531 413.67529297 C-210.6334873 403.6802884 -217.37592968 393.22040964 -223.6875 382.3125 C-224.08179199 381.63525879 -224.47608398 380.95801758 -224.88232422 380.26025391 C-238.06461173 357.3416244 -246.67010918 331.76677437 -252 305.9375 C-252.14743652 305.22682373 -252.29487305 304.51614746 -252.44677734 303.78393555 C-255.43213787 288.14141634 -256.0623098 272.50580394 -256 256.625 C-255.99817719 255.65760895 -255.99635437 254.6902179 -255.99447632 253.69351196 C-255.94904826 239.36059023 -255.44016072 225.41476083 -252.6875 211.3125 C-252.44604248 209.96696045 -252.44604248 209.96696045 -252.19970703 208.59423828 C-241.37712011 148.78411096 -207.31935543 91.27004171 -158.6875 54.3125 C-158.14722168 53.89581055 -157.60694336 53.47912109 -157.05029297 53.04980469 C-147.0552884 45.3665127 -136.59540964 38.62407032 -125.6875 32.3125 C-125.01025879 31.91820801 -124.33301758 31.52391602 -123.63525391 31.11767578 C-100.7166244 17.93538827 -75.14177437 9.32989082 -49.3125 4 C-48.60182373 3.85256348 -47.89114746 3.70512695 -47.15893555 3.55322266 C-31.51641634 0.56786213 -15.88080394 -0.0623098 0 0 Z " fill="#9331B1" transform="translate(255.6875,-0.3125)"/>
<path d="M0 0 C25.9589197 18.49573028 35.91038473 52.25451004 44.375 81.3125 C45.08350098 81.17972656 45.79200195 81.04695313 46.52197266 80.91015625 C50.78990929 80.12041143 55.02838177 79.35625457 59.3359375 78.8125 C66.01314526 78.04516104 66.01314526 78.04516104 71.09375 74.140625 C71.86841625 72.41332863 72.58728998 70.65998579 73.25 68.88671875 C75.65077154 63.39328665 80.62626375 60.35501584 85.625 57.375 C92.86638033 55.32327557 99.74528088 55.18003528 106.6875 58.3125 C112.77962101 61.7754931 117.1462395 66.32073529 119.8125 72.8125 C119.998125 73.6375 120.18375 74.4625 120.375 75.3125 C121.4475 75.374375 122.52 75.43625 123.625 75.5 C135.31076349 76.99179959 145.71155597 83.40445722 153.05859375 92.453125 C159.43472704 101.45917677 160.1433714 110.46621389 159.375 121.3125 C154.64117196 147.78575492 136.21493922 171.2470435 117.25 189.41015625 C115.41836489 191.2685027 113.88762286 193.19010104 112.375 195.3125 C113.75130695 198.3403753 115.35413862 200.64375186 117.5625 203.125 C118.38814453 204.06279297 118.38814453 204.06279297 119.23046875 205.01953125 C121.01456957 206.92712175 122.84127812 208.74464702 124.7109375 210.56640625 C128.43327157 214.27291533 131.64983643 218.24978341 134.8125 222.4375 C135.37598145 223.18177246 135.93946289 223.92604492 136.52001953 224.69287109 C149.99253597 242.70130216 161.18983173 262.17339542 159.375 285.3125 C157.76298013 295.2801562 152.26025968 302.34897053 144.6328125 308.71484375 C123.27220802 323.82987356 93.61641973 320.346557 69.375 316.3125 C62.64749621 314.98865474 55.98175211 313.41732796 49.33837891 311.72387695 C47.21996203 311.20996403 47.21996203 311.20996403 44.375 311.3125 C44.1797876 311.99014404 43.9845752 312.66778809 43.78344727 313.3659668 C36.44673466 338.59668534 28.16268401 363.40798681 10.375 383.3125 C9.45654297 384.40691406 9.45654297 384.40691406 8.51953125 385.5234375 C1.82782247 392.97135218 -8.41757474 398.6117781 -18.4375 399.5859375 C-30.9171594 399.98357371 -40.53993687 395.77266461 -49.625 387.3125 C-65.6091238 371.70359038 -74.35505417 351.40316276 -81.625 330.625 C-82.01099365 329.52647705 -82.3969873 328.4279541 -82.79467773 327.29614258 C-84.72907299 321.59699887 -86.16018674 316.31875886 -86.625 310.3125 C-90.22344623 310.86493246 -93.79690511 311.51660721 -97.375 312.1875 C-98.39078125 312.3421875 -99.4065625 312.496875 -100.453125 312.65625 C-103.47745225 313.25315669 -105.90551271 313.85135789 -108.625 315.3125 C-110.23385795 317.79634159 -111.05865357 320.00756983 -111.83422852 322.85644531 C-113.66648058 328.54723129 -118.68212611 332.08257734 -123.8125 334.75 C-130.20908576 337.25206586 -136.80179357 337.49431737 -143.3671875 335.46484375 C-149.44114137 332.74171853 -153.93135422 328.85296867 -157.625 323.3125 C-157.90601563 322.425625 -158.18703125 321.53875 -158.4765625 320.625 C-158.85554688 319.861875 -159.23453125 319.09875 -159.625 318.3125 C-162.08123038 317.44897223 -162.08123038 317.44897223 -165 317.3125 C-177.43281639 315.68953355 -188.1753448 310.22756554 -196 300.3125 C-199.93511723 294.6550877 -202.05120065 289.19809224 -202.625 282.3125 C-202.70105469 281.54550781 -202.77710938 280.77851563 -202.85546875 279.98828125 C-203.96012316 260.01493527 -191.28069242 240.50418899 -179.625 225.3125 C-178.62146484 223.98992187 -178.62146484 223.98992187 -177.59765625 222.640625 C-170.60051703 213.65452392 -162.78418093 205.25116252 -154.625 197.3125 C-156.20590089 193.32750722 -159.01368079 190.81912281 -162.0625 187.9375 C-168.12078609 182.04525718 -173.33200281 175.70777194 -178.39501953 168.95263672 C-179.5214064 167.45063851 -180.66420089 165.96098114 -181.80859375 164.47265625 C-194.41104244 147.74308986 -204.48757202 128.33516181 -202.38671875 106.87890625 C-200.62473687 96.89434226 -194.6947363 89.16230884 -186.625 83.3125 C-185.67753906 82.62027344 -185.67753906 82.62027344 -184.7109375 81.9140625 C-162.67337659 67.87468972 -128.61875133 73.33676034 -104.625 78.3125 C-103.69623047 78.50457031 -102.76746094 78.69664062 -101.81054688 78.89453125 C-96.73065196 79.96207171 -91.67232815 81.10062555 -86.625 82.3125 C-86.50125 81.48878906 -86.3775 80.66507812 -86.25 79.81640625 C-81.41264427 52.6969807 -67.65529001 17.34433717 -44.32421875 0.66796875 C-29.66468294 -8.70227887 -14.90214401 -9.28796823 0 0 Z " fill="#FCF2CA" transform="translate(277.625,59.6875)"/>
<path d="M0 0 C0.66 0 1.32 0 2 0 C3.47271824 1.51671219 3.47271824 1.51671219 5.17372131 3.58526611 C8.60276278 7.61384535 12.2630531 11.13558841 16.22045898 14.63574219 C17.63674471 15.90593854 19.05176228 17.17754996 20.46568298 18.45037842 C21.20426985 19.11509911 21.94285671 19.77981979 22.703825 20.46468353 C27.51270021 24.83284451 32.23201313 29.29784669 36.95551968 33.7579155 C41.07673061 37.63989488 45.22749649 41.47174976 49.47729492 45.21289062 C79.59593722 71.81938829 79.59593722 71.81938829 81.19848633 89.69213867 C81.74130779 99.79956857 80.7711039 109.79346332 79.30781364 119.78579521 C78.86536601 122.96846654 78.58955873 126.16000999 78.31958008 129.36132812 C77.87014529 134.65129212 77.01641048 139.79278882 76 145 C75.83902832 145.89702637 75.67805664 146.79405273 75.51220703 147.71826172 C64.68962011 207.52838904 30.63185543 265.04245829 -18 302 C-18.54027832 302.41668945 -19.08055664 302.83337891 -19.63720703 303.26269531 C-29.6322116 310.9459873 -40.09209036 317.68842968 -51 324 C-51.67724121 324.39429199 -52.35448242 324.78858398 -53.05224609 325.19482422 C-75.9708756 338.37711173 -101.54572563 346.98260918 -127.375 352.3125 C-128.08567627 352.45993652 -128.79635254 352.60737305 -129.52856445 352.75927734 C-144.46312203 355.60952404 -159.5443557 356.44167693 -174.71728516 356.53540039 C-176.67387894 356.55363565 -178.63038158 356.58811112 -180.58642578 356.63793945 C-183.467149 356.71116201 -186.34501916 356.73778637 -189.2265625 356.75390625 C-190.09125153 356.78376114 -190.95594055 356.81361603 -191.84683228 356.84437561 C-203.81801008 356.75808483 -212.28026774 343.85712354 -220.20898438 335.90454102 C-221.53012965 334.58311327 -222.85149596 333.26190646 -224.17306519 331.94090271 C-227.74083538 328.37341815 -231.30552483 324.80286982 -234.86964989 321.23174405 C-238.60209669 317.49302473 -242.33739602 313.75715751 -246.0723877 310.02098083 C-253.13607434 302.95419234 -260.19720908 295.88485972 -267.25742006 288.81459898 C-275.29900038 280.76182186 -283.34343741 272.71190106 -291.38811016 264.66221344 C-307.92857699 248.1113082 -324.46547099 231.55683703 -341 215 C-340.34 214.67 -339.68 214.34 -339 214 C-337.18039796 214.70235453 -335.39299761 215.48882657 -333.625 216.3125 C-329.16081961 218.29777253 -325.48273575 219.2867368 -320.625 219.6875 C-317.01930121 220.16638187 -315.53249199 220.38541549 -313.125 223.1640625 C-312.12863985 224.92326089 -311.18094781 226.71096129 -310.28515625 228.5234375 C-307.72933331 233.44864036 -303.27869658 236.51263354 -298.10546875 238.48828125 C-290.26043609 240.39495895 -283.17220087 239.53902358 -276.1875 235.54296875 C-271.03812265 231.91081865 -268.36275462 228.3493643 -266.6875 222.3125 C-265.66733482 219.71329653 -264.82900409 218.37312119 -262.24902344 217.21191406 C-255.75805761 215.132753 -248.83584789 213.68742644 -242 214 C-241.6596875 215.20011719 -241.319375 216.40023437 -240.96875 217.63671875 C-233.06690195 245.02367945 -222.4490152 281.63406134 -195.875 296.78125 C-186.545467 301.53572355 -178.5204199 303.72260927 -168.015625 301.31640625 C-153.69729644 296.44251192 -143.98028472 286.52534755 -136 274 C-135.38511719 273.05253906 -134.77023437 272.10507812 -134.13671875 271.12890625 C-124.7691727 255.79166152 -118.3629731 238.30844875 -113.97607422 220.92919922 C-113.3515625 218.59375 -113.3515625 218.59375 -112 215 C-108.97922937 213.70079627 -106.7896098 214.06929141 -103.67578125 214.890625 C-102.82467773 215.10436768 -101.97357422 215.31811035 -101.09667969 215.53833008 C-100.17790039 215.77318115 -99.25912109 216.00803223 -98.3125 216.25 C-71.3229118 222.73571264 -37.77725495 227.93659159 -12.6953125 212.58984375 C-5.12667581 207.23467628 0.34863969 200.85138851 2.55078125 191.71484375 C6.09813892 170.27646479 -3.76413582 150.82923966 -15.875 133.75 C-22.88141263 124.15687783 -30.54268145 115.12180692 -39.125 106.90234375 C-40.95663511 105.0439973 -42.48737714 103.12239896 -44 101 C-42.62369305 97.9721247 -41.02086138 95.66874814 -38.8125 93.1875 C-37.98685547 92.24970703 -37.98685547 92.24970703 -37.14453125 91.29296875 C-35.36043043 89.38537825 -33.53372188 87.56785298 -31.6640625 85.74609375 C-27.94172843 82.03958467 -24.72516357 78.06271659 -21.5625 73.875 C-20.99901855 73.13072754 -20.43553711 72.38645508 -19.85498047 71.61962891 C-6.53377081 53.81344646 5.04338043 33.97493129 3 11 C2.2332348 7.24108784 1.2438103 3.62778005 0 0 Z " fill="#5C1B6F" transform="translate(433,156)"/>
<path d="M0 0 C0 5.61 0 11.22 0 17 C-1.32 17.37125 -2.64 17.7425 -4 18.125 C-18.08340136 22.87097381 -26.65738261 36.27168711 -33 49 C-43.58393112 71.17112028 -43.58393112 71.17112028 -48 95 C-47.28682617 95.25579834 -46.57365234 95.51159668 -45.83886719 95.77514648 C-4.23673316 110.76326684 -4.23673316 110.76326684 0 115 C0.28858168 117.93936801 0.46382647 120.8035625 0.5625 123.75 C0.62501953 124.56210938 0.68753906 125.37421875 0.75195312 126.2109375 C0.81843709 128.6849467 0.7230185 130.63023098 0 133 C-2.27998223 135.40289882 -5.0331452 136.59372858 -8 138 C-9.94800959 139.04969762 -11.89312644 140.10477423 -13.8359375 141.1640625 C-16.01504923 142.31879552 -18.19476104 143.4723967 -20.375 144.625 C-30.44012763 149.99198169 -40.45133454 155.4555377 -49.96200562 161.77076721 C-52 163 -52 163 -54.07183838 163.78645325 C-56.63990588 164.89932148 -58.13992398 165.88686428 -60 168 C-61.3614573 173.08888479 -61.37224033 178.18165867 -61.4140625 183.4140625 C-61.44488479 184.94999929 -61.47658649 186.48591867 -61.50912476 188.02182007 C-61.56600182 191.24167602 -61.58886035 194.45984393 -61.59228516 197.68017578 C-61.6005736 200.97036175 -61.66979842 204.24989591 -61.79736328 207.53759766 C-63.17151229 224.71966813 -63.17151229 224.71966813 -58.29833984 240.51528931 C-54.15515339 244.38443985 -49.46374685 246.46974233 -44.13568115 248.25732422 C-41.46624279 249.18561224 -39.22400763 250.52315827 -36.859375 252.05859375 C-35.49125581 252.85444456 -34.12150798 253.64750347 -32.75 254.4375 C-31.99477051 254.87433105 -31.23954102 255.31116211 -30.46142578 255.76123047 C-23.02510489 260.03534227 -15.49402033 264.13502328 -7.94433594 268.20483398 C-7.05262695 268.68637939 -6.16091797 269.1679248 -5.2421875 269.6640625 C-4.4466748 270.09154785 -3.65116211 270.5190332 -2.83154297 270.95947266 C-1 272 -1 272 0 273 C0.08631874 274.34267413 0.10706473 275.68974322 0.09765625 277.03515625 C0.09443359 277.84404297 0.09121094 278.65292969 0.08789062 279.48632812 C0.07951172 280.33646484 0.07113281 281.18660156 0.0625 282.0625 C0.05798828 282.91650391 0.05347656 283.77050781 0.04882812 284.65039062 C0.03700373 286.76695663 0.01906769 288.88348685 0 291 C-15.18262729 299.3444676 -31.58126736 305.52708912 -48 311 C-43.69930999 336.06849574 -32.59761169 369.61679545 -11 385 C-7.09907234 387.26253804 -4.50988955 388.09802209 0 389 C0 394.61 0 400.22 0 406 C-12.68211686 406 -21.64114136 400.20958966 -30.49609375 391.5625 C-44.98849623 376.38628553 -53.1589671 356.86479081 -60 337.3125 C-60.38599365 336.21397705 -60.7719873 335.1154541 -61.16967773 333.98364258 C-63.10407299 328.28449887 -64.53518674 323.00625886 -65 317 C-68.59844623 317.55243246 -72.17190511 318.20410721 -75.75 318.875 C-76.76578125 319.0296875 -77.7815625 319.184375 -78.828125 319.34375 C-81.85245225 319.94065669 -84.28051271 320.53885789 -87 322 C-88.60885795 324.48384159 -89.43365357 326.69506983 -90.20922852 329.54394531 C-92.04148058 335.23473129 -97.05712611 338.77007734 -102.1875 341.4375 C-108.58408576 343.93956586 -115.17679357 344.18181737 -121.7421875 342.15234375 C-127.81614137 339.42921853 -132.30635422 335.54046867 -136 330 C-136.28101563 329.113125 -136.56203125 328.22625 -136.8515625 327.3125 C-137.23054688 326.549375 -137.60953125 325.78625 -138 325 C-140.45623038 324.13647223 -140.45623038 324.13647223 -143.375 324 C-155.80781639 322.37703355 -166.5503448 316.91506554 -174.375 307 C-178.31011723 301.3425877 -180.42620065 295.88559224 -181 289 C-181.07605469 288.23300781 -181.15210938 287.46601563 -181.23046875 286.67578125 C-182.33512316 266.70243527 -169.65569242 247.19168899 -158 232 C-156.99646484 230.67742187 -156.99646484 230.67742187 -155.97265625 229.328125 C-148.97551703 220.34202392 -141.15918093 211.93866252 -133 204 C-134.58090089 200.01500722 -137.38868079 197.50662281 -140.4375 194.625 C-146.49578609 188.73275718 -151.70700281 182.39527194 -156.77001953 175.64013672 C-157.8964064 174.13813851 -159.03920089 172.64848114 -160.18359375 171.16015625 C-172.78604244 154.43058986 -182.86257202 135.02266181 -180.76171875 113.56640625 C-178.99973687 103.58184226 -173.0697363 95.84980884 -165 90 C-164.05253906 89.30777344 -164.05253906 89.30777344 -163.0859375 88.6015625 C-141.04837659 74.56218972 -106.99375133 80.02426034 -83 85 C-82.07123047 85.19207031 -81.14246094 85.38414062 -80.18554688 85.58203125 C-75.10565196 86.64957171 -70.04732815 87.78812555 -65 89 C-64.87625 88.17628906 -64.7525 87.35257812 -64.625 86.50390625 C-59.78764427 59.3844807 -46.03029001 24.03183717 -22.69921875 7.35546875 C-15.50060244 2.7541759 -8.58741057 0 0 0 Z " fill="#FDFCFD" transform="translate(256,53)"/>
<path d="M0 0 C0.97614258 0.52134521 1.95228516 1.04269043 2.95800781 1.57983398 C4.06998535 2.1719165 5.18196289 2.76399902 6.32763672 3.37402344 C7.52256197 4.02387447 8.71705102 4.67452815 9.91113281 5.32592773 C10.51785828 5.65346039 11.12458374 5.98099304 11.74969482 6.31845093 C51.85650411 27.98803943 51.85650411 27.98803943 53.77804565 33.54867554 C54.2255382 36.13577634 54.288341 38.57289323 54.29052734 41.19946289 C54.2936795 42.28804596 54.29683167 43.37662903 54.30007935 44.49819946 C54.297043 46.25757339 54.297043 46.25757339 54.29394531 48.05249023 C54.29490204 49.26609222 54.29585876 50.47969421 54.29684448 51.73007202 C54.29752521 54.30059867 54.2956784 56.87112704 54.29150391 59.44165039 C54.28618193 63.35233493 54.29143818 67.26290316 54.29785156 71.17358398 C54.29719022 73.67488632 54.2959079 76.17618858 54.29394531 78.67749023 C54.29596954 79.8382608 54.29799377 80.99903137 54.30007935 82.19497681 C54.29099515 85.38666254 54.24435453 88.57285967 54.16113281 91.76342773 C54.13621765 92.72179031 54.11130249 93.68015289 54.08563232 94.66755676 C53.7118868 101.10982461 53.7118868 101.10982461 51.22753906 104.05810547 C50.40125 104.53707275 49.57496094 105.01604004 48.72363281 105.50952148 C47.81484375 106.0610791 46.90605469 106.61263672 45.96972656 107.1809082 C44.57947266 107.96425537 44.57947266 107.96425537 43.16113281 108.76342773 C41.53528578 109.77378473 39.9102663 110.78547479 38.28613281 111.79858398 C32.61150717 115.17838925 26.89553784 118.48625023 21.16113281 121.76342773 C19.45183594 122.74110107 19.45183594 122.74110107 17.70800781 123.73852539 C14.20708973 125.73216751 10.68589908 127.68725328 7.16113281 129.63842773 C6.05769531 130.26370361 4.95425781 130.88897949 3.81738281 131.53320312 C2.77582031 132.10159912 1.73425781 132.66999512 0.66113281 133.25561523 C-0.25667969 133.76463379 -1.17449219 134.27365234 -2.12011719 134.7980957 C-6.42733172 136.32743534 -9.46638888 135.34692988 -13.5769043 133.59936523 C-14.49737549 133.11725586 -15.41784668 132.63514648 -16.36621094 132.13842773 C-17.91405273 131.33284424 -17.91405273 131.33284424 -19.49316406 130.51098633 C-21.11834961 129.64594482 -21.11834961 129.64594482 -22.77636719 128.76342773 C-24.45762695 127.8771167 -24.45762695 127.8771167 -26.17285156 126.97290039 C-40.33917937 119.44985196 -40.33917937 119.44985196 -47.01489258 115.04077148 C-49.66438101 113.35664892 -52.21185519 112.20992512 -55.16650391 111.16040039 C-60.43905662 109.00991263 -64.63843142 106.59199285 -67.83886719 101.76342773 C-70.76098029 92.07430665 -70.29783972 81.65316371 -70.05517578 71.63061523 C-69.95817232 67.57277299 -70.01556078 63.53382877 -70.1137085 59.47663879 C-70.59628651 36.0138928 -70.59628651 36.0138928 -66.22558594 29.27661133 C-62.36768735 25.46194119 -57.97131395 23.36004353 -52.91131592 21.53686523 C-50.15570138 20.50847038 -47.79483725 19.03243847 -45.32324219 17.45092773 C-43.74885863 16.54853519 -42.17076639 15.65257946 -40.58886719 14.76342773 C-39.72898193 14.27849854 -38.86909668 13.79356934 -37.9831543 13.29394531 C-35.27334423 11.77469406 -32.55659541 10.26846064 -29.83886719 8.76342773 C-28.88705566 8.23023926 -27.93524414 7.69705078 -26.95458984 7.14770508 C-24.11358801 5.56290583 -21.26017254 4.00333837 -18.40136719 2.45092773 C-17.53157227 1.96430664 -16.66177734 1.47768555 -15.765625 0.97631836 C-14.53537598 0.31986328 -14.53537598 0.31986328 -13.28027344 -0.34985352 C-12.56556885 -0.73955322 -11.85086426 -1.12925293 -11.11450195 -1.53076172 C-7.04502096 -2.79295135 -3.80857062 -1.658962 0 0 Z " fill="#5D1C6F" transform="translate(262.8388671875,189.236572265625)"/>
<path d="M0 0 C13.40645703 8.08498431 19.88572629 21.74038748 26.29296875 35.3828125 C27.081875 37.03216797 27.081875 37.03216797 27.88671875 38.71484375 C39.29296875 63.8025266 39.29296875 63.8025266 39.29296875 75.3828125 C38.43767578 75.70967041 37.58238281 76.03652832 36.70117188 76.37329102 C33.45164344 77.61723745 30.20323825 78.86401766 26.95581055 80.11343384 C25.51743324 80.66666681 24.07879487 81.21922155 22.63989258 81.77108765 C13.3912506 85.32204622 4.28294809 88.99439377 -4.61328125 93.37109375 C-11.72573965 95.69701133 -17.85474758 92.239196 -24.26953125 89.3203125 C-30.09369929 86.72042394 -35.90233338 84.25632488 -41.9375 82.18359375 C-42.94417725 81.83756104 -43.95085449 81.49152832 -44.98803711 81.13500977 C-46.94006917 80.4760926 -48.89791303 79.83410606 -50.86157227 79.21069336 C-52.18499634 78.76222046 -52.18499634 78.76222046 -53.53515625 78.3046875 C-54.31793945 78.05299805 -55.10072266 77.80130859 -55.90722656 77.54199219 C-57.70703125 76.3828125 -57.70703125 76.3828125 -58.52392578 74.01831055 C-58.70308664 71.43958863 -58.53821468 69.75167922 -57.80859375 67.29296875 C-57.58131592 66.51977295 -57.35403809 65.74657715 -57.11987305 64.94995117 C-56.85988525 64.12342041 -56.59989746 63.29688965 -56.33203125 62.4453125 C-56.06237549 61.57430908 -55.79271973 60.70330566 -55.51489258 59.8059082 C-48.6522596 38.27130704 -39.40790387 11.69569959 -19.01953125 -0.8671875 C-12.23473623 -4.0848434 -6.62633615 -3.26184533 0 0 Z " fill="#5C1C6F" transform="translate(265.70703125,72.6171875)"/>
<path d="M0 0 C1.20567627 0.50821289 2.41135254 1.01642578 3.65356445 1.54003906 C4.27848785 1.80772095 4.90341125 2.07540283 5.54727173 2.35119629 C8.77846445 3.73502009 12.02052999 5.0929191 15.26171875 6.453125 C15.89384781 6.71916534 16.52597687 6.98520569 17.17726135 7.25930786 C24.22049929 10.21431853 31.34726127 12.90743077 38.53515625 15.48828125 C34.72911571 33.95112387 28.48283156 50.9001013 19.53515625 67.48828125 C18.78105469 68.90560547 18.78105469 68.90560547 18.01171875 70.3515625 C12.70362734 79.78002322 5.72300711 88.3631287 -4.33984375 92.73828125 C-10.85548553 94.30203528 -14.71915024 94.23089896 -20.52734375 90.92578125 C-42.39074517 76.49460318 -52.99865172 45.13602818 -59.15234375 20.8359375 C-59.50040519 18.22112592 -59.50360835 16.91364685 -58.46484375 14.48828125 C-56.15844727 13.24316406 -56.15844727 13.24316406 -53.09375 12.19140625 C-51.97000977 11.79348877 -50.84626953 11.39557129 -49.68847656 10.9855957 C-48.48030273 10.57398193 -47.27212891 10.16236816 -46.02734375 9.73828125 C-36.82107309 6.49739728 -27.82952188 3.14535907 -19.11157227 -1.26269531 C-12.14912412 -4.60577216 -6.83858629 -2.91795378 0 0 Z " fill="#5C1C6F" transform="translate(266.46484375,348.51171875)"/>
<path d="M0 0 C-0.76513314 9.78690861 -2.13774197 19.46105213 -3.5390625 29.17382812 C-3.71179688 30.39392578 -3.88453125 31.61402344 -4.0625 32.87109375 C-4.23160889 34.06347656 -4.40071777 35.25585938 -4.57495117 36.484375 C-5.09813571 40.81169111 -5.32057197 45.12808253 -5.44262695 49.48413086 C-6.61837087 54.79120097 -11.69647694 57.22600934 -16 60 C-18.26604175 61.56085338 -20.5077688 63.15519781 -22.75 64.75 C-23.33467041 65.16016357 -23.91934082 65.57032715 -24.52172852 65.99291992 C-30.33644761 70.12013129 -35.68668637 74.73094625 -41.0390625 79.43359375 C-43.30701131 81.39934885 -45.56660186 83.24914036 -48 85 C-52.14806696 83.3607639 -54.98248777 80.36150147 -58.0625 77.25 C-58.91968628 76.38544189 -58.91968628 76.38544189 -59.79418945 75.50341797 C-65.73538656 69.4015589 -70.99831652 62.88519365 -76 56 C-76.44504883 55.38866211 -76.89009766 54.77732422 -77.34863281 54.14746094 C-86.49311347 41.42211041 -96.54416571 25.35535101 -94 9 C-91.49645131 2.97906886 -87.56800092 -1.37870968 -81.6015625 -4.08984375 C-57.65487189 -13.95644208 -23.82108303 -7.85276677 0 0 Z " fill="#5C1C6F" transform="translate(186,159)"/>
<path d="M0 0 C9.6187968 4.07203068 16.72977442 15.01000215 23 23 C23.62720947 23.78793945 23.62720947 23.78793945 24.26708984 24.59179688 C36.8340193 40.38378444 46.48325756 56.16797964 45 77 C43.85791132 81.90522979 40.67220775 84.50082763 36.625 87.25 C11.8787213 100.62443386 -22.47727239 91.93582179 -48 85 C-47.4160811 77.01157965 -46.33202408 69.13318495 -45.15917969 61.21435547 C-44.16124093 54.38782305 -43.35361287 47.55680349 -42.73461914 40.68530273 C-42.04853983 33.74935609 -42.04853983 33.74935609 -40 31 C-37.92369164 29.34937829 -35.8797202 27.85265346 -33.6875 26.375 C-32.41014766 25.48756066 -31.13413534 24.59818985 -29.859375 23.70703125 C-29.21291016 23.25666504 -28.56644531 22.80629883 -27.90039062 22.34228516 C-18.15399644 15.4582056 -9.03584755 7.77881475 0 0 Z " fill="#5C1B6F" transform="translate(374,268)"/>
<path d="M0 0 C3.45036627 1.52995456 6.0570354 3.5743456 8.9375 6 C18.43077007 13.87124114 28.26790289 21.25716035 38.23925781 28.50927734 C42.90549543 31.90549543 42.90549543 31.90549543 44 33 C44.26399325 34.7839372 44.46861388 36.57671703 44.6484375 38.37109375 C44.76533936 39.49483398 44.88224121 40.61857422 45.00268555 41.77636719 C45.12554932 42.98454102 45.24841309 44.19271484 45.375 45.4375 C46.32581598 54.47054947 47.39642849 63.42633062 49.08544922 72.35327148 C49.87211548 76.62397177 50.11804755 80.66034736 50 85 C47.81613582 85.67848208 45.62769916 86.3422551 43.4375 87 C42.21933594 87.37125 41.00117188 87.7425 39.74609375 88.125 C35.94643653 89.01251118 32.8814663 89.39894152 29 89 C27.1796875 87.57421875 27.1796875 87.57421875 25.875 85.6875 C22.34853319 81.04790441 18.4642658 78.92670644 13 77 C4.67015591 75.88071402 -2.12207223 77.09243944 -9 82 C-12.1925927 85.02700179 -14.56706836 88.35060254 -17 92 C-23.95164337 93.01378132 -30.32547233 90.44510626 -36.08984375 86.609375 C-40.46173552 83.09707294 -43.54306255 79.59114221 -44.27734375 73.8203125 C-45.04109189 54.6960592 -33.748012 38.08359215 -22 24 C-21.10243583 22.89878682 -20.20530656 21.79721905 -19.30859375 20.6953125 C-13.27706405 13.3614108 -6.83203857 6.59417263 0 0 Z " fill="#5D1C70" transform="translate(136,268)"/>
<path d="M0 0 C7.29416028 1.52855565 13.8072056 3.37855512 19 9 C23.29695998 16.06854902 23.38076219 24.13796173 21.51074219 32.07714844 C18.81420942 41.19891239 14.56318991 49.29624113 9 57 C8.33226562 57.93972656 7.66453125 58.87945312 6.9765625 59.84765625 C-1.41730912 71.3475634 -10.69844813 82.16670049 -21 92 C-24.7916966 90.38651209 -27.48543206 87.96199208 -30.5625 85.25 C-39.30300826 77.68002677 -48.73810031 69.76633549 -58.77110291 63.97824097 C-62.55503472 61.65578107 -63.80820467 60.59481459 -65.22192383 56.21044922 C-65.41542444 54.74571249 -65.57546341 53.27628054 -65.70703125 51.8046875 C-65.80336349 51.01659698 -65.89969574 50.22850647 -65.99894714 49.41653442 C-66.2997407 46.90507801 -66.55723239 44.3914508 -66.8125 41.875 C-67.00159365 40.20799449 -67.19362487 38.54131943 -67.38867188 36.875 C-67.67231516 34.44938789 -67.95354504 32.02383148 -68.22097778 29.59637451 C-68.79661159 24.42064023 -69.57187629 19.33165666 -70.6394043 14.23095703 C-71.03422451 11.7882576 -71.06029593 9.47022321 -71 7 C-67.77330584 6.15688881 -64.54329082 5.32726132 -61.3125 4.5 C-60.40048828 4.26152344 -59.48847656 4.02304688 -58.54882812 3.77734375 C-57.21948242 3.43896484 -57.21948242 3.43896484 -55.86328125 3.09375 C-55.05157471 2.88427734 -54.23986816 2.67480469 -53.40356445 2.45898438 C-50.82325794 1.96624936 -48.61759539 1.73257706 -46 2 C-44.62464661 3.97133986 -43.29788956 5.97681922 -42 8 C-35.65764162 13.61230274 -29.56517682 15.54087371 -21.13671875 15.375 C-14.3225763 14.56035781 -9.00378089 11.49886667 -4.5 6.375 C-2.88887922 4.30489713 -1.45771381 2.18657071 0 0 Z " fill="#5C1B6F" transform="translate(397,152)"/>
<path d="M0 0 C6.49980219 4.12562295 10.66323374 8.94920993 14.484375 15.59375 C14.8453125 16.19445312 15.20625 16.79515625 15.578125 17.4140625 C19.31018159 25.12006824 18.76905779 37.36713596 16.421875 45.53125 C11.91385121 56.32128842 4.1757972 64.07257214 -6.640625 68.53125 C-14.6285193 70.82367599 -26.09688756 71.2420783 -33.7265625 67.62890625 C-34.61214844 67.11650391 -34.61214844 67.11650391 -35.515625 66.59375 C-36.25039062 66.17996094 -36.98515625 65.76617187 -37.7421875 65.33984375 C-47.34072294 59.44910377 -53.6861323 51.60990824 -56.515625 40.59375 C-57.55027504 32.56280033 -57.66074434 23.75776757 -53.515625 16.59375 C-53.10183594 15.85898438 -52.68804687 15.12421875 -52.26171875 14.3671875 C-41.12326505 -3.78211853 -18.90519763 -10.5681229 0 0 Z " fill="#E57400" transform="translate(275.515625,223.40625)"/>
<path d="M0 0 C0 24.42 0 48.84 0 74 C-11.25515356 74 -18.54184255 70.78516309 -26.94921875 63.25390625 C-34.1361661 55.75516075 -37.4510695 47.04330588 -37.5 36.75 C-37.37255451 31.03230169 -36.89411913 26.00191156 -34 21 C-33.58621094 20.26523438 -33.17242187 19.53046875 -32.74609375 18.7734375 C-27.73672778 10.61103737 -20.7783388 4.07147995 -11.6875 0.8125 C-8 0 -8 0 0 0 Z " fill="#FD9900" transform="translate(256,219)"/>
<path d="M0 0 C7.09921337 4.04038832 12.40946827 10.09388989 14.6875 18 C15.73792957 26.5084795 14.33028919 34.07374105 9.1796875 41.0390625 C3.50793288 47.23842221 -2.87924299 50.15469389 -11.25 50.5625 C-19.51384379 50.23657232 -25.6427228 47.15458259 -31.25 41.125 C-36.27196584 34.75278863 -37.96111225 29.14124182 -37.71875 21.0625 C-36.66141271 13.09180354 -32.56028924 7.31168706 -26.3359375 2.40625 C-18.31732315 -3.16653218 -8.94263103 -4.03508961 0 0 Z " fill="#02E5F0" transform="translate(154.3125,346)"/>
<path d="M0 0 C7.08138153 4.03023965 12.44940095 10.10082687 14.6875 18 C15.74782617 26.3992129 14.65845298 33.05987724 9.6875 40 C4.76831775 45.45432341 -0.62243166 49.40792045 -8.06640625 50.34765625 C-16.37123087 50.76130652 -22.79503906 48.9235706 -29.125 43.42578125 C-34.37584563 37.79424931 -37.47260727 31.27321483 -37.875 23.5625 C-37.52898407 15.58181002 -34.24852488 9.45522153 -28.4375 4.0625 C-19.92561065 -2.6457548 -10.09252874 -4.55394589 0 0 Z " fill="#FBBE02" transform="translate(384.3125,118)"/>
<path d="M0 0 C0 14.52 0 29.04 0 44 C-10.31866468 38.84066766 -19.23626078 30.44296292 -28 23 C-26.49000582 19.23766813 -24.33607897 17.37357951 -21.1875 14.875 C-20.21296875 14.10027344 -19.2384375 13.32554687 -18.234375 12.52734375 C-17.15631247 11.68481589 -16.07818467 10.84237155 -15 10 C-13.81762938 9.06390179 -12.63533927 8.1277019 -11.453125 7.19140625 C-10.28199492 6.27248734 -9.11013409 5.35449887 -7.9375 4.4375 C-7.37764404 3.99583496 -6.81778809 3.55416992 -6.2409668 3.09912109 C-2.23182545 0 -2.23182545 0 0 0 Z " fill="#612273" transform="translate(178,234)"/>
<path d="M0 0 C4.74325318 2.71043039 8.27492582 4.84348825 12.3125 8.25 C16.07547847 11.39276456 19.85421682 14.5056467 23.6875 17.5625 C24.51636719 18.22378906 25.34523438 18.88507813 26.19921875 19.56640625 C26.79347656 20.03949219 27.38773437 20.51257813 28 21 C25.47570108 28.57289675 14.24220558 34.36910811 7.875 39.0625 C7.21161621 39.55169922 6.54823242 40.04089844 5.86474609 40.54492188 C1.12575303 44 1.12575303 44 0 44 C0 29.48 0 14.96 0 0 Z " fill="#5E1F71" transform="translate(334,234)"/>
<path d="M0 0 C7.78512799 1.43649233 14.75734833 4.11526065 22.0625 7.125 C23.21427734 7.59292969 24.36605469 8.06085938 25.55273438 8.54296875 C28.37112218 9.68903516 31.18670886 10.84149213 34 12 C31.48662209 13.94622282 28.99239433 15.64872505 26.19921875 17.1640625 C25.47597412 17.55996582 24.75272949 17.95586914 24.00756836 18.36376953 C23.2419458 18.77997559 22.47632324 19.19618164 21.6875 19.625 C14.86383823 23.36725516 8.14412632 27.24062022 1.50854492 31.30712891 C-2.90358318 34 -2.90358318 34 -4 34 C-4.29020927 26.67221591 -3.17444506 19.72125004 -2 12.5 C-1.80921875 11.29601562 -1.6184375 10.09203125 -1.421875 8.8515625 C-0.95339237 5.90012192 -0.47929449 2.94970069 0 0 Z " fill="#5F1F71" transform="translate(202,165)"/>
<path d="M0 0 C6.6660302 3.12127061 12.94872426 6.71573712 19.22509766 10.54052734 C25.36274936 14.26300765 31.643516 17.66632964 38 21 C35.00281277 23.45934368 32.16105476 24.87555118 28.53515625 26.2265625 C27.48779297 26.6184375 26.44042969 27.0103125 25.36132812 27.4140625 C24.27271484 27.81367188 23.18410156 28.21328125 22.0625 28.625 C20.97775391 29.03234375 19.89300781 29.4396875 18.77539062 29.859375 C14.19472455 31.55988041 9.82445277 33.15310503 5 34 C2.16706357 22.61554848 0.31977424 11.73571454 0 0 Z " fill="#5E1F71" transform="translate(198,313)"/>
<path d="M0 0 C1.43158271 6.20559984 2.63627033 12.39695969 3.625 18.6875 C3.7590625 19.50283203 3.893125 20.31816406 4.03125 21.15820312 C4.71711221 25.4868335 5.1563593 29.60061774 5 34 C-2.3659006 30.06691959 -9.62577529 25.95562766 -16.875 21.8125 C-17.79047607 21.28946289 -18.70595215 20.76642578 -19.64916992 20.22753906 C-23.79035988 17.85635849 -27.91350761 15.46464594 -32 13 C-30.50821459 10.01642918 -28.40305683 9.81636077 -25.3203125 8.65234375 C-24.16402344 8.21212891 -23.00773437 7.77191406 -21.81640625 7.31835938 C-19.98916016 6.63483398 -19.98916016 6.63483398 -18.125 5.9375 C-16.91457031 5.47794922 -15.70414062 5.01839844 -14.45703125 4.54492188 C-2.45736968 0 -2.45736968 0 0 0 Z " fill="#5E1E70" transform="translate(309,165)"/>
<path d="M0 0 C1.18812555 3.54207938 0.84203915 6.27717579 0.2578125 9.9375 C0.07863281 11.07960938 -0.10054688 12.22171875 -0.28515625 13.3984375 C-0.47980469 14.58695312 -0.67445313 15.77546875 -0.875 17 C-1.15537109 18.78277344 -1.15537109 18.78277344 -1.44140625 20.6015625 C-2.95201936 30.0937839 -2.95201936 30.0937839 -4 34 C-14.77682026 31.62712214 -24.83883495 27.2003464 -35 23 C-35 22.01 -35 21.02 -35 20 C-34.4016333 19.67837891 -33.8032666 19.35675781 -33.18676758 19.02539062 C-21.93889394 12.96776311 -10.75726471 6.90088679 0 0 Z " fill="#5E1D70" transform="translate(313,313)"/>
<path d="M0 0 C3.57401663 3.49075101 6.91041495 7.11106127 10.125 10.9375 C10.59873047 11.49888672 11.07246094 12.06027344 11.56054688 12.63867188 C15.43342053 17.25849342 19.16225688 21.98222448 22.85375977 26.74755859 C26.56889594 31.52025909 30.45648722 36.12802855 34.47265625 40.65039062 C37.04800978 43.61281365 38.78475753 46.2581517 40 50 C37.25244513 50.69888677 34.50268803 51.3843988 31.75 52.0625 C30.97269531 52.26166016 30.19539063 52.46082031 29.39453125 52.66601562 C28.26337891 52.94155273 28.26337891 52.94155273 27.109375 53.22265625 C26.41811523 53.39547119 25.72685547 53.56828613 25.01464844 53.74633789 C22.59718918 54.05071745 21.22221695 54.03787102 19 53 C17.93847656 50.80126953 17.93847656 50.80126953 17.140625 47.8828125 C16.83342529 46.8093457 16.52622559 45.73587891 16.2097168 44.62988281 C15.89301025 43.47327148 15.57630371 42.31666016 15.25 41.125 C11.5919823 28.48742187 7.2570075 16.34104403 1.26953125 4.609375 C0 2 0 2 0 0 Z " fill="#5D1C70" transform="translate(302,88)"/>
</svg>
